<?xml version="1.0" standalone="yes"?>

<svg version="1.1" viewBox="0.0 0.0 961.0 100.0" fill="none" stroke="none" stroke-linecap="square" stroke-miterlimit="10" xmlns="http://www.w3.org/2000/svg" xmlns:xlink="http://www.w3.org/1999/xlink"><clipPath id="p.0"><path d="m0 0l961.0 0l0 100.0l-961.0 0l0 -100.0z" clip-rule="nonzero"></path></clipPath><g clip-path="url(#p.0)"><path fill="#000000" fill-opacity="0.0" d="m0 0l961.3018 0l0 100.0l-961.3018 0z" fill-rule="nonzero"></path><path fill="#000000" fill-opacity="0.0" d="m483.55643 2.503937l0 94.80315" fill-rule="nonzero"></path><path stroke="#000000" stroke-width="1.0" stroke-linejoin="round" stroke-linecap="butt" stroke-dasharray="4.0,3.0" d="m483.55643 2.503937l0 94.80315" fill-rule="nonzero"></path><path fill="#000000" fill-opacity="0.0" d="m845.6667 74.80052l-65.44885 7.7165375" fill-rule="nonzero"></path><path stroke="#000000" stroke-width="4.0" stroke-linejoin="round" stroke-linecap="butt" d="m845.6667 74.80052l-65.44885 7.7165375" fill-rule="nonzero"></path><path fill="#000000" fill-opacity="0.0" d="m717.2152 81.32021l63.496094 1.196846" fill-rule="nonzero"></path><path stroke="#000000" stroke-width="4.0" stroke-linejoin="round" stroke-linecap="butt" d="m717.2152 81.32021l63.496094 1.196846" fill-rule="nonzero"></path><path fill="#000000" fill-opacity="0.0" d="m500.59683 51.702766l72.37796 0" fill-rule="nonzero"></path><path stroke="#000000" stroke-width="4.0" stroke-linejoin="round" stroke-linecap="butt" d="m500.59683 51.702766l72.37796 0" fill-rule="nonzero"></path><path fill="#000000" fill-opacity="0.0" d="m572.89075 51.800106l64.944885 -24.56693" fill-rule="nonzero"></path><path stroke="#000000" stroke-width="4.0" stroke-linejoin="round" stroke-linecap="butt" d="m572.89075 51.800106l64.944885 -24.56693" fill-rule="nonzero"></path><path fill="#000000" fill-opacity="0.0" d="m637.21796 27.159763l69.13385 -0.031496048" fill-rule="nonzero"></path><path stroke="#000000" stroke-width="4.0" stroke-linejoin="round" stroke-linecap="butt" d="m637.21796 27.159763l69.13385 -0.031496048" fill-rule="nonzero"></path><path fill="#000000" fill-opacity="0.0" d="m705.34607 27.062424l73.88977 -3.338583" fill-rule="nonzero"></path><path stroke="#000000" stroke-width="4.0" stroke-linejoin="round" stroke-linecap="butt" d="m705.34607 27.062424l73.88977 -3.338583" fill-rule="nonzero"></path><path fill="#000000" fill-opacity="0.0" d="m572.5081 51.800106l52.094482 0.18897629" fill-rule="nonzero"></path><path stroke="#000000" stroke-width="4.0" stroke-linejoin="round" stroke-linecap="butt" d="m572.5081 51.800106l52.094482 0.18897629" fill-rule="nonzero"></path><path fill="#000000" fill-opacity="0.0" d="m624.08545 52.076385l61.259827 0.37795258" fill-rule="nonzero"></path><path stroke="#000000" stroke-width="4.0" stroke-linejoin="round" stroke-linecap="butt" d="m624.08545 52.076385l61.259827 0.37795258" fill-rule="nonzero"></path><path fill="#000000" fill-opacity="0.0" d="m684.5763 52.447144l58.70862 -1.9527588" fill-rule="nonzero"></path><path stroke="#000000" stroke-width="4.0" stroke-linejoin="round" stroke-linecap="butt" d="m684.5763 52.447144l58.70862 -1.9527588" fill-rule="nonzero"></path><path fill="#000000" fill-opacity="0.0" d="m742.3944 50.506035l50.55121 -2.5826797" fill-rule="nonzero"></path><path stroke="#000000" stroke-width="4.0" stroke-linejoin="round" stroke-linecap="butt" d="m742.3944 50.506035l50.55121 -2.5826797" fill-rule="nonzero"></path><path fill="#000000" fill-opacity="0.0" d="m792.4432 48.10255l50.04724 -3.6220474" fill-rule="nonzero"></path><path stroke="#000000" stroke-width="4.0" stroke-linejoin="round" stroke-linecap="butt" d="m792.4432 48.10255l50.04724 -3.6220474" fill-rule="nonzero"></path><path fill="#000000" fill-opacity="0.0" d="m841.8548 44.59109l63.93701 -14.866142" fill-rule="nonzero"></path><path stroke="#000000" stroke-width="4.0" stroke-linejoin="round" stroke-linecap="butt" d="m841.8548 44.59109l63.93701 -14.866142" fill-rule="nonzero"></path><path fill="#000000" fill-opacity="0.0" d="m624.4681 52.076385l44.44098 15.527557" fill-rule="nonzero"></path><path stroke="#000000" stroke-width="4.0" stroke-linejoin="round" stroke-linecap="butt" d="m624.4681 52.076385l44.44098 15.527557" fill-rule="nonzero"></path><path fill="#000000" fill-opacity="0.0" d="m668.53046 67.60382l49.35437 13.574806" fill-rule="nonzero"></path><path stroke="#000000" stroke-width="4.0" stroke-linejoin="round" stroke-linecap="butt" d="m668.53046 67.60382l49.35437 13.574806" fill-rule="nonzero"></path><path fill="#000000" fill-opacity="0.0" d="m843.91864 75.45801l61.35431 -45.480316" fill-rule="nonzero"></path><path stroke="#000000" stroke-width="4.0" stroke-linejoin="round" stroke-linecap="butt" d="m843.91864 75.45801l61.35431 -45.480316" fill-rule="nonzero"></path><path fill="#000000" fill-opacity="0.0" d="m905.27466 29.986969l46.740173 -9.795275" fill-rule="nonzero"></path><path stroke="#000000" stroke-width="4.0" stroke-linejoin="round" stroke-linecap="butt" d="m905.27466 29.986969l46.740173 -9.795275" fill-rule="nonzero"></path><path fill="#cfe2f3" d="m529.81366 50.68504l0 0c0 -4.5835304 3.8284912 -8.299213 8.551147 -8.299213l0 0c2.2679443 0 4.442932 0.8743782 6.046631 2.4307823c1.6036377 1.5564041 2.5045776 3.6673431 2.5045776 5.868431l0 0c0 4.5835304 -3.8284912 8.299213 -8.5512085 8.299213l0 0c-4.7226562 0 -8.551147 -3.715683 -8.551147 -8.299213z" fill-rule="nonzero"></path><path stroke="#000000" stroke-width="2.0" stroke-linejoin="round" stroke-linecap="butt" d="m529.81366 50.68504l0 0c0 -4.5835304 3.8284912 -8.299213 8.551147 -8.299213l0 0c2.2679443 0 4.442932 0.8743782 6.046631 2.4307823c1.6036377 1.5564041 2.5045776 3.6673431 2.5045776 5.868431l0 0c0 4.5835304 -3.8284912 8.299213 -8.5512085 8.299213l0 0c-4.7226562 0 -8.551147 -3.715683 -8.551147 -8.299213z" fill-rule="nonzero"></path><path fill="#cfe2f3" d="m600.2638 34.086613l0 0c0 -4.5835266 3.8284912 -8.2992115 8.551147 -8.2992115l0 0c2.2679443 0 4.442932 0.8743801 6.046631 2.4307842c1.6036377 1.5564041 2.5045776 3.6673412 2.5045776 5.8684273l0 0c0 4.5835304 -3.8284912 8.299213 -8.5512085 8.299213l0 0c-4.7226562 0 -8.551147 -3.715683 -8.551147 -8.299213z" fill-rule="nonzero"></path><path stroke="#000000" stroke-width="2.0" stroke-linejoin="round" stroke-linecap="butt" d="m600.2638 34.086613l0 0c0 -4.5835266 3.8284912 -8.2992115 8.551147 -8.2992115l0 0c2.2679443 0 4.442932 0.8743801 6.046631 2.4307842c1.6036377 1.5564041 2.5045776 3.6673412 2.5045776 5.8684273l0 0c0 4.5835304 -3.8284912 8.299213 -8.5512085 8.299213l0 0c-4.7226562 0 -8.551147 -3.715683 -8.551147 -8.299213z" fill-rule="nonzero"></path><path fill="#cfe2f3" d="m597.9554 52.133858l0 0c0 -4.5835266 3.8284912 -8.299213 8.5512085 -8.299213l0 0c2.2678833 0 4.442932 0.874382 6.04657 2.4307861c1.6036377 1.5564041 2.5045776 3.6673393 2.5045776 5.8684273l0 0c0 4.5835304 -3.8284912 8.299213 -8.551147 8.299213l0 0c-4.7227173 0 -8.5512085 -3.715683 -8.5512085 -8.299213z" fill-rule="nonzero"></path><path stroke="#000000" stroke-width="2.0" stroke-linejoin="round" stroke-linecap="butt" d="m597.9554 52.133858l0 0c0 -4.5835266 3.8284912 -8.299213 8.5512085 -8.299213l0 0c2.2678833 0 4.442932 0.874382 6.04657 2.4307861c1.6036377 1.5564041 2.5045776 3.6673393 2.5045776 5.8684273l0 0c0 4.5835304 -3.8284912 8.299213 -8.551147 8.299213l0 0c-4.7227173 0 -8.5512085 -3.715683 -8.5512085 -8.299213z" fill-rule="nonzero"></path><path fill="#cfe2f3" d="m664.64307 27.52231l0 0c0 -4.5835285 3.8284912 -8.299213 8.551147 -8.299213l0 0c2.2679443 0 4.442932 0.8743782 6.046631 2.4307842c1.6036377 1.5564041 2.5045776 3.6673412 2.5045776 5.868429l0 0c0 4.5835285 -3.8284912 8.2992115 -8.5512085 8.2992115l0 0c-4.7226562 0 -8.551147 -3.715683 -8.551147 -8.2992115z" fill-rule="nonzero"></path><path stroke="#000000" stroke-width="2.0" stroke-linejoin="round" stroke-linecap="butt" d="m664.64307 27.52231l0 0c0 -4.5835285 3.8284912 -8.299213 8.551147 -8.299213l0 0c2.2679443 0 4.442932 0.8743782 6.046631 2.4307842c1.6036377 1.5564041 2.5045776 3.6673412 2.5045776 5.868429l0 0c0 4.5835285 -3.8284912 8.2992115 -8.5512085 8.2992115l0 0c-4.7226562 0 -8.551147 -3.715683 -8.551147 -8.2992115z" fill-rule="nonzero"></path><path fill="#cfe2f3" d="m740.0761 22.853018l0 0c0 -4.5835285 3.8284912 -8.299212 8.5512085 -8.299212l0 0c2.2678833 0 4.442932 0.87437916 6.04657 2.4307833c1.6036377 1.5564041 2.5045776 3.6673412 2.5045776 5.868429l0 0c0 4.5835304 -3.8284912 8.299213 -8.551147 8.299213l0 0c-4.7227173 0 -8.5512085 -3.715683 -8.5512085 -8.299213z" fill-rule="nonzero"></path><path stroke="#000000" stroke-width="2.0" stroke-linejoin="round" stroke-linecap="butt" d="m740.0761 22.853018l0 0c0 -4.5835285 3.8284912 -8.299212 8.5512085 -8.299212l0 0c2.2678833 0 4.442932 0.87437916 6.04657 2.4307833c1.6036377 1.5564041 2.5045776 3.6673412 2.5045776 5.868429l0 0c0 4.5835304 -3.8284912 8.299213 -8.551147 8.299213l0 0c-4.7227173 0 -8.5512085 -3.715683 -8.5512085 -8.299213z" fill-rule="nonzero"></path><path fill="#cfe2f3" d="m670.7139 50.68504l0 0c0 -4.5835304 3.8284912 -8.299213 8.551147 -8.299213l0 0c2.2679443 0 4.442932 0.8743782 6.046631 2.4307823c1.6036377 1.5564041 2.5045776 3.6673431 2.5045776 5.868431l0 0c0 4.5835304 -3.8284912 8.299213 -8.5512085 8.299213l0 0c-4.7226562 0 -8.551147 -3.715683 -8.551147 -8.299213z" fill-rule="nonzero"></path><path stroke="#000000" stroke-width="2.0" stroke-linejoin="round" stroke-linecap="butt" d="m670.7139 50.68504l0 0c0 -4.5835304 3.8284912 -8.299213 8.551147 -8.299213l0 0c2.2679443 0 4.442932 0.8743782 6.046631 2.4307823c1.6036377 1.5564041 2.5045776 3.6673431 2.5045776 5.868431l0 0c0 4.5835304 -3.8284912 8.299213 -8.5512085 8.299213l0 0c-4.7226562 0 -8.551147 -3.715683 -8.551147 -8.299213z" fill-rule="nonzero"></path><path fill="#cfe2f3" d="m666.09186 69.93964l0 0c0 -4.5835342 3.8284912 -8.299217 8.5512085 -8.299217l0 0c2.2678833 0 4.442932 0.8743782 6.04657 2.4307861c1.6036377 1.5564041 2.5045776 3.6673431 2.5045776 5.868431l0 0c0 4.5835266 -3.8284912 8.29921 -8.551147 8.29921l0 0c-4.7227173 0 -8.5512085 -3.715683 -8.5512085 -8.29921z" fill-rule="nonzero"></path><path stroke="#000000" stroke-width="2.0" stroke-linejoin="round" stroke-linecap="butt" d="m666.09186 69.93964l0 0c0 -4.5835342 3.8284912 -8.299217 8.5512085 -8.299217l0 0c2.2678833 0 4.442932 0.8743782 6.04657 2.4307861c1.6036377 1.5564041 2.5045776 3.6673431 2.5045776 5.868431l0 0c0 4.5835266 -3.8284912 8.29921 -8.551147 8.29921l0 0c-4.7227173 0 -8.5512085 -3.715683 -8.5512085 -8.29921z" fill-rule="nonzero"></path><path fill="#cfe2f3" d="m743.126 81.91863l0 0c0 -4.5835266 3.8284912 -8.29921 8.5512085 -8.29921l0 0c2.2678833 0 4.442932 0.874382 6.04657 2.4307861c1.6036377 1.5564041 2.5045776 3.6673355 2.5045776 5.8684235l0 0c0 4.5835342 -3.8284912 8.299217 -8.551147 8.299217l0 0c-4.7227173 0 -8.5512085 -3.715683 -8.5512085 -8.299217z" fill-rule="nonzero"></path><path stroke="#000000" stroke-width="2.0" stroke-linejoin="round" stroke-linecap="butt" d="m743.126 81.91863l0 0c0 -4.5835266 3.8284912 -8.29921 8.5512085 -8.29921l0 0c2.2678833 0 4.442932 0.874382 6.04657 2.4307861c1.6036377 1.5564041 2.5045776 3.6673355 2.5045776 5.8684235l0 0c0 4.5835342 -3.8284912 8.299217 -8.551147 8.299217l0 0c-4.7227173 0 -8.5512085 -3.715683 -8.5512085 -8.299217z" fill-rule="nonzero"></path><path fill="#cfe2f3" d="m803.04724 77.149605l0 0c0 -4.5835266 3.8284912 -8.29921 8.5512085 -8.29921l0 0c2.2678833 0 4.442932 0.8743744 6.04657 2.4307785c1.6036377 1.5564041 2.5045776 3.6673431 2.5045776 5.868431l0 0c0 4.5835342 -3.8284912 8.299217 -8.551147 8.299217l0 0c-4.7227173 0 -8.5512085 -3.715683 -8.5512085 -8.299217z" fill-rule="nonzero"></path><path stroke="#000000" stroke-width="2.0" stroke-linejoin="round" stroke-linecap="butt" d="m803.04724 77.149605l0 0c0 -4.5835266 3.8284912 -8.29921 8.5512085 -8.29921l0 0c2.2678833 0 4.442932 0.8743744 6.04657 2.4307785c1.6036377 1.5564041 2.5045776 3.6673431 2.5045776 5.868431l0 0c0 4.5835342 -3.8284912 8.299217 -8.551147 8.299217l0 0c-4.7227173 0 -8.5512085 -3.715683 -8.5512085 -8.299217z" fill-rule="nonzero"></path><path fill="#cfe2f3" d="m859.7559 59.396324l0 0c0 -4.5835266 3.8284912 -8.29921 8.551147 -8.29921l0 0c2.2679443 0 4.442932 0.8743782 6.046631 2.4307823c1.6036377 1.5564041 2.5045776 3.6673393 2.5045776 5.8684273l0 0c0 4.5835304 -3.8284912 8.299217 -8.5512085 8.299217l0 0c-4.7226562 0 -8.551147 -3.7156868 -8.551147 -8.299217z" fill-rule="nonzero"></path><path stroke="#000000" stroke-width="2.0" stroke-linejoin="round" stroke-linecap="butt" d="m859.7559 59.396324l0 0c0 -4.5835266 3.8284912 -8.29921 8.551147 -8.29921l0 0c2.2679443 0 4.442932 0.8743782 6.046631 2.4307823c1.6036377 1.5564041 2.5045776 3.6673393 2.5045776 5.8684273l0 0c0 4.5835304 -3.8284912 8.299217 -8.5512085 8.299217l0 0c-4.7226562 0 -8.551147 -3.7156868 -8.551147 -8.299217z" fill-rule="nonzero"></path><path fill="#cfe2f3" d="m743.126 48.458004l0 0c0 -4.5835266 3.8284912 -8.29921 8.5512085 -8.29921l0 0c2.2678833 0 4.442932 0.8743782 6.04657 2.4307823c1.6036377 1.5564041 2.5045776 3.6673393 2.5045776 5.8684273l0 0c0 4.5835304 -3.8284912 8.299213 -8.551147 8.299213l0 0c-4.7227173 0 -8.5512085 -3.715683 -8.5512085 -8.299213z" fill-rule="nonzero"></path><path stroke="#000000" stroke-width="2.0" stroke-linejoin="round" stroke-linecap="butt" d="m743.126 48.458004l0 0c0 -4.5835266 3.8284912 -8.29921 8.5512085 -8.29921l0 0c2.2678833 0 4.442932 0.8743782 6.04657 2.4307823c1.6036377 1.5564041 2.5045776 3.6673393 2.5045776 5.8684273l0 0c0 4.5835304 -3.8284912 8.299213 -8.551147 8.299213l0 0c-4.7227173 0 -8.5512085 -3.715683 -8.5512085 -8.299213z" fill-rule="nonzero"></path><path fill="#cfe2f3" d="m801.9239 44.120735l0 0c0 -4.5835304 3.8284912 -8.299213 8.551147 -8.299213l0 0c2.2679443 0 4.442993 0.8743782 6.046631 2.4307823c1.6036377 1.5564041 2.5045776 3.6673431 2.5045776 5.868431l0 0c0 4.5835304 -3.8284912 8.299213 -8.5512085 8.299213l0 0c-4.7226562 0 -8.551147 -3.715683 -8.551147 -8.299213z" fill-rule="nonzero"></path><path stroke="#000000" stroke-width="2.0" stroke-linejoin="round" stroke-linecap="butt" d="m801.9239 44.120735l0 0c0 -4.5835304 3.8284912 -8.299213 8.551147 -8.299213l0 0c2.2679443 0 4.442993 0.8743782 6.046631 2.4307823c1.6036377 1.5564041 2.5045776 3.6673431 2.5045776 5.868431l0 0c0 4.5835304 -3.8284912 8.299213 -8.5512085 8.299213l0 0c-4.7226562 0 -8.551147 -3.715683 -8.551147 -8.299213z" fill-rule="nonzero"></path><path fill="#cfe2f3" d="m860.7218 39.451443l0 0c0 -4.5835266 3.8284912 -8.2992115 8.551147 -8.2992115l0 0c2.2679443 0 4.442932 0.8743801 6.046631 2.4307842c1.6036377 1.5564041 2.5045776 3.6673393 2.5045776 5.8684273l0 0c0 4.5835304 -3.8284912 8.299213 -8.5512085 8.299213l0 0c-4.7226562 0 -8.551147 -3.715683 -8.551147 -8.299213z" fill-rule="nonzero"></path><path stroke="#000000" stroke-width="2.0" stroke-linejoin="round" stroke-linecap="butt" d="m860.7218 39.451443l0 0c0 -4.5835266 3.8284912 -8.2992115 8.551147 -8.2992115l0 0c2.2679443 0 4.442932 0.8743801 6.046631 2.4307842c1.6036377 1.5564041 2.5045776 3.6673393 2.5045776 5.8684273l0 0c0 4.5835304 -3.8284912 8.299213 -8.5512085 8.299213l0 0c-4.7226562 0 -8.551147 -3.715683 -8.551147 -8.299213z" fill-rule="nonzero"></path><path fill="#cfe2f3" d="m921.43304 22.853018l0 0c0 -4.5835285 3.8284912 -8.299212 8.5512085 -8.299212l0 0c2.2678833 0 4.442932 0.87437916 6.04657 2.4307833c1.6036987 1.5564041 2.5046387 3.6673412 2.5046387 5.868429l0 0c0 4.5835304 -3.8285522 8.299213 -8.5512085 8.299213l0 0c-4.7227173 0 -8.5512085 -3.715683 -8.5512085 -8.299213z" fill-rule="nonzero"></path><path stroke="#000000" stroke-width="2.0" stroke-linejoin="round" stroke-linecap="butt" d="m921.43304 22.853018l0 0c0 -4.5835285 3.8284912 -8.299212 8.5512085 -8.299212l0 0c2.2678833 0 4.442932 0.87437916 6.04657 2.4307833c1.6036987 1.5564041 2.5046387 3.6673412 2.5046387 5.868429l0 0c0 4.5835304 -3.8285522 8.299213 -8.5512085 8.299213l0 0c-4.7227173 0 -8.5512085 -3.715683 -8.5512085 -8.299213z" fill-rule="nonzero"></path><path fill="#000000" fill-opacity="0.0" d="m16.423616 50.72901l72.37795 0" fill-rule="nonzero"></path><path stroke="#000000" stroke-width="4.0" stroke-linejoin="round" stroke-linecap="butt" d="m16.423616 50.72901l72.37795 0" fill-rule="nonzero"></path><path fill="#000000" fill-opacity="0.0" d="m88.71752 50.82635l64.94488 -24.566929" fill-rule="nonzero"></path><path stroke="#000000" stroke-width="4.0" stroke-linejoin="round" stroke-linecap="butt" d="m88.71752 50.82635l64.94488 -24.566929" fill-rule="nonzero"></path><path fill="#000000" fill-opacity="0.0" d="m153.04474 26.18601l69.133865 -0.031496048" fill-rule="nonzero"></path><path stroke="#000000" stroke-width="4.0" stroke-linejoin="round" stroke-linecap="butt" d="m153.04474 26.18601l69.133865 -0.031496048" fill-rule="nonzero"></path><path fill="#000000" fill-opacity="0.0" d="m221.17287 26.08867l73.889755 -3.338583" fill-rule="nonzero"></path><path stroke="#000000" stroke-width="4.0" stroke-linejoin="round" stroke-linecap="butt" d="m221.17287 26.08867l73.889755 -3.338583" fill-rule="nonzero"></path><path fill="#000000" fill-opacity="0.0" d="m88.33487 50.82635l52.094482 0.18897629" fill-rule="nonzero"></path><path stroke="#000000" stroke-width="4.0" stroke-linejoin="round" stroke-linecap="butt" d="m88.33487 50.82635l52.094482 0.18897629" fill-rule="nonzero"></path><path fill="#000000" fill-opacity="0.0" d="m139.91223 51.102634l61.259842 0.37795258" fill-rule="nonzero"></path><path stroke="#000000" stroke-width="4.0" stroke-linejoin="round" stroke-linecap="butt" d="m139.91223 51.102634l61.259842 0.37795258" fill-rule="nonzero"></path><path fill="#000000" fill-opacity="0.0" d="m200.40305 51.47339l58.70868 -1.952755" fill-rule="nonzero"></path><path stroke="#000000" stroke-width="4.0" stroke-linejoin="round" stroke-linecap="butt" d="m200.40305 51.47339l58.70868 -1.952755" fill-rule="nonzero"></path><path fill="#000000" fill-opacity="0.0" d="m258.22122 49.53228l50.551178 -2.582676" fill-rule="nonzero"></path><path stroke="#000000" stroke-width="4.0" stroke-linejoin="round" stroke-linecap="butt" d="m258.22122 49.53228l50.551178 -2.582676" fill-rule="nonzero"></path><path fill="#000000" fill-opacity="0.0" d="m308.26993 47.1288l50.04724 -3.6220474" fill-rule="nonzero"></path><path stroke="#000000" stroke-width="4.0" stroke-linejoin="round" stroke-linecap="butt" d="m308.26993 47.1288l50.04724 -3.6220474" fill-rule="nonzero"></path><path fill="#000000" fill-opacity="0.0" d="m357.68155 43.61734l63.93701 -14.866144" fill-rule="nonzero"></path><path stroke="#000000" stroke-width="4.0" stroke-linejoin="round" stroke-linecap="butt" d="m357.68155 43.61734l63.93701 -14.866144" fill-rule="nonzero"></path><path fill="#000000" fill-opacity="0.0" d="m140.29488 51.102634l44.44095 15.527561" fill-rule="nonzero"></path><path stroke="#000000" stroke-width="4.0" stroke-linejoin="round" stroke-linecap="butt" d="m140.29488 51.102634l44.44095 15.527561" fill-rule="nonzero"></path><path fill="#000000" fill-opacity="0.0" d="m184.35724 66.63007l49.35434 13.574799" fill-rule="nonzero"></path><path stroke="#000000" stroke-width="4.0" stroke-linejoin="round" stroke-linecap="butt" d="m184.35724 66.63007l49.35434 13.574799" fill-rule="nonzero"></path><path fill="#000000" fill-opacity="0.0" d="m232.5328 80.203415l128.40945 -6.110237" fill-rule="nonzero"></path><path stroke="#000000" stroke-width="4.0" stroke-linejoin="round" stroke-linecap="butt" d="m232.5328 80.203415l128.40945 -6.110237" fill-rule="nonzero"></path><path fill="#000000" fill-opacity="0.0" d="m359.7454 74.48425l61.35434 -45.480316" fill-rule="nonzero"></path><path stroke="#000000" stroke-width="4.0" stroke-linejoin="round" stroke-linecap="butt" d="m359.7454 74.48425l61.35434 -45.480316" fill-rule="nonzero"></path><path fill="#000000" fill-opacity="0.0" d="m421.1014 29.013216l46.740173 -9.795277" fill-rule="nonzero"></path><path stroke="#000000" stroke-width="4.0" stroke-linejoin="round" stroke-linecap="butt" d="m421.1014 29.013216l46.740173 -9.795277" fill-rule="nonzero"></path><path fill="#cfe2f3" d="m43.90551 50.683727l0 0c0 -4.5835304 3.828495 -8.299213 8.551182 -8.299213l0 0c2.2679138 0 4.4429398 0.8743782 6.0466003 2.4307823c1.6036568 1.5564041 2.5045815 3.6673431 2.5045815 5.868431l0 0c0 4.5835304 -3.828495 8.299213 -8.551182 8.299213l0 0c-4.722687 0 -8.551182 -3.715683 -8.551182 -8.299213z" fill-rule="nonzero"></path><path stroke="#000000" stroke-width="2.0" stroke-linejoin="round" stroke-linecap="butt" d="m43.90551 50.683727l0 0c0 -4.5835304 3.828495 -8.299213 8.551182 -8.299213l0 0c2.2679138 0 4.4429398 0.8743782 6.0466003 2.4307823c1.6036568 1.5564041 2.5045815 3.6673431 2.5045815 5.868431l0 0c0 4.5835304 -3.828495 8.299213 -8.551182 8.299213l0 0c-4.722687 0 -8.551182 -3.715683 -8.551182 -8.299213z" fill-rule="nonzero"></path><path fill="#cfe2f3" d="m115.091866 50.683727l0 0c0 -4.5835304 3.8284912 -8.299213 8.551178 -8.299213l0 0c2.2679138 0 4.4429398 0.8743782 6.0465927 2.4307823c1.6036682 1.5564041 2.504593 3.6673431 2.504593 5.868431l0 0c0 4.5835304 -3.8284912 8.299213 -8.551186 8.299213l0 0c-4.722687 0 -8.551178 -3.715683 -8.551178 -8.299213z" fill-rule="nonzero"></path><path stroke="#000000" stroke-width="2.0" stroke-linejoin="round" stroke-linecap="butt" d="m115.091866 50.683727l0 0c0 -4.5835304 3.8284912 -8.299213 8.551178 -8.299213l0 0c2.2679138 0 4.4429398 0.8743782 6.0465927 2.4307823c1.6036682 1.5564041 2.504593 3.6673431 2.504593 5.868431l0 0c0 4.5835304 -3.8284912 8.299213 -8.551186 8.299213l0 0c-4.722687 0 -8.551178 -3.715683 -8.551178 -8.299213z" fill-rule="nonzero"></path><path fill="#cfe2f3" d="m185.43307 27.520998l0 0c0 -4.5835285 3.8284912 -8.299213 8.551178 -8.299213l0 0c2.2679138 0 4.442932 0.8743782 6.0466003 2.4307842c1.603653 1.5564041 2.5045776 3.6673412 2.5045776 5.868429l0 0c0 4.5835285 -3.8284912 8.2992115 -8.551178 8.2992115l0 0c-4.722687 0 -8.551178 -3.715683 -8.551178 -8.2992115z" fill-rule="nonzero"></path><path stroke="#000000" stroke-width="2.0" stroke-linejoin="round" stroke-linecap="butt" d="m185.43307 27.520998l0 0c0 -4.5835285 3.8284912 -8.299213 8.551178 -8.299213l0 0c2.2679138 0 4.442932 0.8743782 6.0466003 2.4307842c1.603653 1.5564041 2.5045776 3.6673412 2.5045776 5.868429l0 0c0 4.5835285 -3.8284912 8.2992115 -8.551178 8.2992115l0 0c-4.722687 0 -8.551178 -3.715683 -8.551178 -8.2992115z" fill-rule="nonzero"></path><path fill="#cfe2f3" d="m288.17715 77.14829l0 0c0 -4.5835266 3.8284912 -8.29921 8.551178 -8.29921l0 0c2.2679138 0 4.4429626 0.8743744 6.0466003 2.4307785c1.6036682 1.5564041 2.5046082 3.6673431 2.5046082 5.868431l0 0c0 4.5835266 -3.8285217 8.299217 -8.5512085 8.299217l0 0c-4.722687 0 -8.551178 -3.7156906 -8.551178 -8.299217z" fill-rule="nonzero"></path><path stroke="#000000" stroke-width="2.0" stroke-linejoin="round" stroke-linecap="butt" d="m288.17715 77.14829l0 0c0 -4.5835266 3.8284912 -8.29921 8.551178 -8.29921l0 0c2.2679138 0 4.4429626 0.8743744 6.0466003 2.4307785c1.6036682 1.5564041 2.5046082 3.6673431 2.5046082 5.868431l0 0c0 4.5835266 -3.8285217 8.299217 -8.5512085 8.299217l0 0c-4.722687 0 -8.551178 -3.7156906 -8.551178 -8.299217z" fill-rule="nonzero"></path><path fill="#cfe2f3" d="m263.34122 47.221786l0 0c0 -4.5835304 3.8284912 -8.299213 8.551178 -8.299213l0 0c2.2679138 0 4.442932 0.8743782 6.0466003 2.4307823c1.6036377 1.5564041 2.5045776 3.6673431 2.5045776 5.868431l0 0c0 4.5835266 -3.8284912 8.29921 -8.551178 8.29921l0 0c-4.722687 0 -8.551178 -3.715683 -8.551178 -8.29921z" fill-rule="nonzero"></path><path stroke="#000000" stroke-width="2.0" stroke-linejoin="round" stroke-linecap="butt" d="m263.34122 47.221786l0 0c0 -4.5835304 3.8284912 -8.299213 8.551178 -8.299213l0 0c2.2679138 0 4.442932 0.8743782 6.0466003 2.4307823c1.6036377 1.5564041 2.5045776 3.6673431 2.5045776 5.868431l0 0c0 4.5835266 -3.8284912 8.29921 -8.551178 8.29921l0 0c-4.722687 0 -8.551178 -3.715683 -8.551178 -8.29921z" fill-rule="nonzero"></path><path fill="#cfe2f3" d="m436.35696 22.851706l0 0c0 -4.5835285 3.8284912 -8.299212 8.551178 -8.299212l0 0c2.2679138 0 4.442932 0.87437916 6.0466003 2.4307833c1.6036377 1.5564041 2.5045776 3.6673412 2.5045776 5.868429l0 0c0 4.5835285 -3.8284912 8.299213 -8.551178 8.299213l0 0c-4.722687 0 -8.551178 -3.715685 -8.551178 -8.299213z" fill-rule="nonzero"></path><path stroke="#000000" stroke-width="2.0" stroke-linejoin="round" stroke-linecap="butt" d="m436.35696 22.851706l0 0c0 -4.5835285 3.8284912 -8.299212 8.551178 -8.299212l0 0c2.2679138 0 4.442932 0.87437916 6.0466003 2.4307833c1.6036377 1.5564041 2.5045776 3.6673412 2.5045776 5.868429l0 0c0 4.5835285 -3.8284912 8.299213 -8.551178 8.299213l0 0c-4.722687 0 -8.551178 -3.715685 -8.551178 -8.299213z" fill-rule="nonzero"></path><path fill="#000000" fill-opacity="0.0" d="m14.782152 5.6062994l12.755905 0l0 8.944881l-12.755905 0z" fill-rule="nonzero"></path></g></svg>

