<?xml version="1.0" standalone="yes"?>

<svg version="1.1" viewBox="0.0 0.0 535.2624671916011 518.6824146981627" fill="none" stroke="none" stroke-linecap="square" stroke-miterlimit="10" xmlns="http://www.w3.org/2000/svg" xmlns:xlink="http://www.w3.org/1999/xlink"><clipPath id="p.0"><path d="m0 0l535.26245 0l0 518.68243l-535.26245 0l0 -518.68243z" clip-rule="nonzero"></path></clipPath><g clip-path="url(#p.0)"><path fill="#000000" fill-opacity="0.0" d="m0 0l535.26245 0l0 518.68243l-535.26245 0z" fill-rule="nonzero"></path><path fill="#b7b7b7" d="m395.02292 189.81091l73.438416 -59.93811l0 0c9.620605 -7.852051 24.404877 -5.658493 33.021576 4.8994446c8.616669 10.557953 7.802826 25.482208 -1.81781 33.33426l-73.438416 59.93811l0 0c-9.620636 7.852051 -24.404877 5.658493 -33.021576 -4.8994446c-8.616669 -10.557953 -7.802826 -25.482208 1.81781 -33.33426z" fill-rule="nonzero"></path><path fill="#b7b7b7" d="m375.0293 156.91959l57.06964 32.31459l0 0c7.4762573 4.233307 8.09375 17.27861 1.3791809 29.137512c-6.7145386 11.858902 -18.218506 18.04068 -25.694763 13.807373l-57.06964 -32.31459l0 0c-7.476288 -4.233307 -8.0937805 -17.27861 -1.3792114 -29.137512c6.714569 -11.858902 18.218536 -18.040665 25.694794 -13.807373z" fill-rule="nonzero"></path><path fill="#b7b7b7" d="m349.98724 168.23584l-71.33127 148.88013l0 0c-9.344574 19.503723 -36.009888 26.16809 -59.55861 14.885284c-23.548721 -11.282776 -35.06346 -36.240143 -25.718872 -55.743866l71.33128 -148.88013l0 0c9.344574 -19.5037 36.009888 -26.168068 59.558624 -14.885284c23.548706 11.282791 35.063446 36.240166 25.718842 55.743874z" fill-rule="nonzero"></path><path fill="#b7b7b7" d="m312.65515 70.42257l0 0c0 -26.379204 21.384583 -47.76378 47.763794 -47.76378l0 0c12.667725 0 24.81665 5.032242 33.77408 13.989687c8.9574585 8.957447 13.989685 21.10635 13.989685 33.77409l0 0c0 26.379211 -21.384552 47.76378 -47.763763 47.76378l0 0c-26.379211 0 -47.763794 -21.384567 -47.763794 -47.76378z" fill-rule="nonzero"></path><path fill="#b7b7b7" d="m233.30751 79.73061l57.069626 32.31459l0 0c7.476288 4.2332993 8.0937805 17.278603 1.3792114 29.137505c-6.714569 11.858902 -18.218506 18.04068 -25.694794 13.807373l-57.069626 -32.31459l0 0c-7.4762726 -4.2332993 -8.093765 -17.278603 -1.3791962 -29.137505c6.714554 -11.858902 18.218506 -18.040672 25.694778 -13.807373z" fill-rule="nonzero"></path><path fill="#b7b7b7" d="m134.20462 144.39723l73.438416 -59.938118l0 0c9.620621 -7.852051 24.404892 -5.658493 33.021576 4.899452c8.616684 10.557945 7.802826 25.482193 -1.8177948 33.33425l-73.438416 59.938103l0 0c-9.620636 7.852066 -24.404892 5.6585083 -33.02159 -4.8994446c-8.616676 -10.557938 -7.8028183 -25.482193 1.81781 -33.334244z" fill-rule="nonzero"></path><path fill="#b7b7b7" d="m249.50401 281.7036l103.53819 45.488068l0 0c13.563782 5.959076 19.36621 22.619232 12.9600525 37.21158c-6.4061584 14.592316 -22.595001 21.590942 -36.158783 15.631897l-103.53821 -45.488068l0 0c-13.563782 -5.9590454 -19.36618 -22.619232 -12.960022 -37.211548c6.406143 -14.592346 22.594986 -21.590973 36.158768 -15.6319275z" fill-rule="nonzero"></path><path fill="#b7b7b7" d="m254.62492 461.05652l65.44435 -108.256195l0 0c8.573395 -14.181854 24.927643 -19.996704 36.52823 -12.9878235c11.600586 7.0088806 14.054626 24.187378 5.4812317 38.369232l-65.44437 108.256195l0 0c-8.573364 14.181854 -24.927612 19.996704 -36.5282 12.987793c-11.600601 -7.0088806 -14.054626 -24.187347 -5.481247 -38.3692z" fill-rule="nonzero"></path><path fill="#b7b7b7" d="m130.27063 370.07312l57.311874 -85.28146l0 0c7.508011 -11.172119 24.318466 -13.025391 37.54721 -4.139435c13.2287445 8.885956 17.866318 25.14624 10.358307 36.31833l-57.31189 85.28146l0 0c-7.5079956 11.172089 -24.318466 13.025391 -37.54721 4.139435c-13.228737 -8.885956 -17.866302 -25.14624 -10.358292 -36.31833z" fill-rule="nonzero"></path><path fill="#b7b7b7" d="m138.71524 406.25818l-97.65129 -68.38974l0 0c-12.792582 -8.9592285 -16.861866 -25.223969 -9.089003 -36.328278c7.7728634 -11.104309 24.444452 -12.843262 37.237038 -3.8840027l97.65128 68.38974l0 0c12.792587 8.9592285 16.861862 25.223969 9.0890045 36.328278c-7.7728577 11.104309 -24.444458 12.843231 -37.23703 3.8840027z" fill-rule="nonzero"></path><path fill="#efefef" d="m301.11496 177.37273c23.602356 -19.143051 46.33136 26.65419 -18.188965 31.606293c-28.142395 -58.260498 22.880554 -61.6286 18.188965 -31.606293z" fill-rule="nonzero"></path></g></svg>

