<?xml version="1.0" standalone="yes"?>

<svg version="1.1" viewBox="0.0 0.0 960.0 540.0" fill="none" stroke="none" stroke-linecap="square" stroke-miterlimit="10" xmlns="http://www.w3.org/2000/svg" xmlns:xlink="http://www.w3.org/1999/xlink"><clipPath id="p.0"><path d="m0 0l960.0 0l0 540.0l-960.0 0l0 -540.0z" clip-rule="nonzero"></path></clipPath><g clip-path="url(#p.0)"><path fill="#000000" fill-opacity="0.0" d="m0 0l960.0 0l0 540.0l-960.0 0z" fill-rule="nonzero"></path><path fill="#000000" fill-opacity="0.0" d="m60.60949 350.96588l0 0c0 -14.510162 11.76281 -26.27298 26.272964 -26.27298l105.091866 0l0 0c6.9680176 0 13.65065 2.768036 18.57779 7.6951904c4.9271393 4.927124 7.695175 11.609772 7.695175 18.57779l0 140.021c0 14.510162 -11.762802 26.27295 -26.272964 26.27295l-105.091866 0c-14.510155 0 -26.272964 -11.762787 -26.272964 -26.27295z" fill-rule="nonzero"></path><path stroke="#0b5394" stroke-width="8.0" stroke-linejoin="round" stroke-linecap="butt" stroke-dasharray="32.0,24.0" d="m60.60949 350.96588l0 0c0 -14.510162 11.76281 -26.27298 26.272964 -26.27298l105.091866 0l0 0c6.9680176 0 13.65065 2.768036 18.57779 7.6951904c4.9271393 4.927124 7.695175 11.609772 7.695175 18.57779l0 140.021c0 14.510162 -11.762802 26.27295 -26.272964 26.27295l-105.091866 0c-14.510155 0 -26.272964 -11.762787 -26.272964 -26.27295z" fill-rule="nonzero"></path><path fill="#000000" fill-opacity="0.0" d="m60.60949 104.88976l0 0c0 -13.8984375 11.266914 -25.165352 25.165352 -25.165352l107.30708 0l0 0c6.6742706 0 13.07518 2.6513443 17.794601 7.370758c4.7194214 4.7194214 7.370758 11.120331 7.370758 17.794594l0 100.661415c0 13.8984375 -11.266907 25.16536 -25.16536 25.16536l-107.30708 0c-13.8984375 0 -25.165352 -11.266922 -25.165352 -25.16536z" fill-rule="nonzero"></path><path stroke="#3d85c6" stroke-width="8.0" stroke-linejoin="round" stroke-linecap="butt" d="m60.60949 104.88976l0 0c0 -13.8984375 11.266914 -25.165352 25.165352 -25.165352l107.30708 0l0 0c6.6742706 0 13.07518 2.6513443 17.794601 7.370758c4.7194214 4.7194214 7.370758 11.120331 7.370758 17.794594l0 100.661415c0 13.8984375 -11.266907 25.16536 -25.16536 25.16536l-107.30708 0c-13.8984375 0 -25.165352 -11.266922 -25.165352 -25.16536z" fill-rule="nonzero"></path><path fill="#000000" fill-opacity="0.0" d="m264.6541 105.997375l0 0c0 -14.510162 11.762787 -26.272964 26.27295 -26.272964l105.09189 0l0 0c6.9680176 0 13.650635 2.768036 18.57779 7.695175c4.927124 4.9271317 7.69516 11.609764 7.69516 18.57779l0 122.91864c0 14.510147 -11.762817 26.272964 -26.27295 26.272964l-105.09189 0c-14.510162 0 -26.27295 -11.762817 -26.27295 -26.272964z" fill-rule="nonzero"></path><path stroke="#6fa8dc" stroke-width="8.0" stroke-linejoin="round" stroke-linecap="butt" d="m264.6541 105.997375l0 0c0 -14.510162 11.762787 -26.272964 26.27295 -26.272964l105.09189 0l0 0c6.9680176 0 13.650635 2.768036 18.57779 7.695175c4.927124 4.9271317 7.69516 11.609764 7.69516 18.57779l0 122.91864c0 14.510147 -11.762817 26.272964 -26.27295 26.272964l-105.09189 0c-14.510162 0 -26.27295 -11.762817 -26.27295 -26.272964z" fill-rule="nonzero"></path><path fill="#000000" fill-opacity="0.0" d="m264.6541 355.68765l0 0c0 -14.510132 11.762787 -26.27295 26.27295 -26.27295l105.09189 0l0 0c6.9680176 0 13.650635 2.768036 18.57779 7.69516c4.927124 4.9271545 7.69516 11.609772 7.69516 18.57779l0 140.021c0 14.510162 -11.762817 26.27298 -26.27295 26.27298l-105.09189 0c-14.510162 0 -26.27295 -11.762817 -26.27295 -26.27298z" fill-rule="nonzero"></path><path stroke="#6fa8dc" stroke-width="8.0" stroke-linejoin="round" stroke-linecap="butt" d="m264.6541 355.68765l0 0c0 -14.510132 11.762787 -26.27295 26.27295 -26.27295l105.09189 0l0 0c6.9680176 0 13.650635 2.768036 18.57779 7.69516c4.927124 4.9271545 7.69516 11.609772 7.69516 18.57779l0 140.021c0 14.510162 -11.762817 26.27298 -26.27295 26.27298l-105.09189 0c-14.510162 0 -26.27295 -11.762817 -26.27295 -26.27298z" fill-rule="nonzero"></path><path fill="#000000" fill-opacity="0.0" d="m468.69873 110.74278l0 0c0 -14.510162 11.762817 -26.272964 26.27295 -26.272964l105.09186 0l0 0c6.9680176 0 13.650696 2.768036 18.57782 7.695175c4.927124 4.9271317 7.6951904 11.609764 7.6951904 18.57779l0 384.96588c0 14.510162 -11.762817 26.27298 -26.27301 26.27298l-105.09186 0c-14.510132 0 -26.27295 -11.762817 -26.27295 -26.27298z" fill-rule="nonzero"></path><path stroke="#3d85c6" stroke-width="8.0" stroke-linejoin="round" stroke-linecap="butt" d="m468.69873 110.74278l0 0c0 -14.510162 11.762817 -26.272964 26.27295 -26.272964l105.09186 0l0 0c6.9680176 0 13.650696 2.768036 18.57782 7.695175c4.927124 4.9271317 7.6951904 11.609764 7.6951904 18.57779l0 384.96588c0 14.510162 -11.762817 26.27298 -26.27301 26.27298l-105.09186 0c-14.510132 0 -26.27295 -11.762817 -26.27295 -26.27298z" fill-rule="nonzero"></path><path fill="#000000" fill-opacity="0.0" d="m672.74335 115.77165l0 0c0 -17.287529 14.014282 -31.301834 31.301819 -31.301834l175.69556 0c8.301758 0 16.263489 3.2978592 22.133728 9.168091c5.8702393 5.8702393 9.168091 13.831978 9.168091 22.133743l0 125.20735c0 17.287537 -14.014282 31.30185 -31.301819 31.30185l-175.69556 0l0 0c-17.287537 0 -31.301819 -14.014313 -31.301819 -31.30185z" fill-rule="nonzero"></path><path stroke="#6fa8dc" stroke-width="8.0" stroke-linejoin="round" stroke-linecap="butt" d="m672.74335 115.77165l0 0c0 -17.287529 14.014282 -31.301834 31.301819 -31.301834l175.69556 0c8.301758 0 16.263489 3.2978592 22.133728 9.168091c5.8702393 5.8702393 9.168091 13.831978 9.168091 22.133743l0 125.20735c0 17.287537 -14.014282 31.30185 -31.301819 31.30185l-175.69556 0l0 0c-17.287537 0 -31.301819 -14.014313 -31.301819 -31.30185z" fill-rule="nonzero"></path><path fill="#000000" fill-opacity="0.0" d="m672.74335 360.71652l0 0c0 -17.287506 14.014282 -31.301819 31.301819 -31.301819l175.69556 0c8.301758 0 16.263489 3.2978516 22.133728 9.168091c5.8702393 5.8702393 9.168091 13.83197 9.168091 22.133728l0 125.20737c0 17.287537 -14.014282 31.301819 -31.301819 31.301819l-175.69556 0l0 0c-17.287537 0 -31.301819 -14.014282 -31.301819 -31.301819z" fill-rule="nonzero"></path><path stroke="#6fa8dc" stroke-width="8.0" stroke-linejoin="round" stroke-linecap="butt" d="m672.74335 360.71652l0 0c0 -17.287506 14.014282 -31.301819 31.301819 -31.301819l175.69556 0c8.301758 0 16.263489 3.2978516 22.133728 9.168091c5.8702393 5.8702393 9.168091 13.83197 9.168091 22.133728l0 125.20737c0 17.287537 -14.014282 31.301819 -31.301819 31.301819l-175.69556 0l0 0c-17.287537 0 -31.301819 -14.014282 -31.301819 -31.301819z" fill-rule="nonzero"></path><path fill="#000000" fill-opacity="0.0" d="m51.743347 30.278215l175.37007 0l0 63.779526l-175.37007 0z" fill-rule="nonzero"></path><path fill="#0b5394" d="m85.99335 69.998215l-4.265625 0l-1.90625 -15.015625l-5.734375 10.3125l-5.765625 -10.265625l-1.921875 14.96875l-4.25 0l3.109375 -22.40625l3.359375 0l5.46875 10.21875l5.4375 -10.21875l3.359375 0l3.109375 22.40625zm16.281052 -2.078125q-2.171875 2.390625 -5.890625 2.390625q-1.84375 0 -3.34375 -0.625q-1.484375 -0.640625 -2.546875 -1.765625q-1.046875 -1.125 -1.625 -2.625q-0.578125 -1.5 -0.578125 -3.265625q0 -1.734375 0.578125 -3.25q0.578125 -1.515625 1.625 -2.625q1.0625 -1.125 2.546875 -1.765625q1.5 -0.640625 3.34375 -0.640625q1.859375 0 3.359375 0.65625q1.515625 0.65625 2.5625 1.78125q1.0625 1.109375 1.625 2.609375q0.5625 1.5 0.5625 3.234375q0 3.484375 -2.21875 5.890625zm-2.9375 -9.53125q-1.0625 -1.375 -2.953125 -1.375q-1.90625 0 -2.96875 1.375q-1.0625 1.375 -1.0625 3.640625q0 2.265625 1.0625 3.65625q1.0625 1.375 2.96875 1.375q1.921875 0 2.984375 -1.40625q1.0625 -1.421875 1.0625 -3.625q0 -2.265625 -1.09375 -3.640625zm16.312164 8.671875l-0.34375 3.25l-2.84375 0q-1.0625 0 -1.859375 -0.328125q-0.796875 -0.34375 -1.34375 -0.890625q-0.546875 -0.5625 -0.828125 -1.328125q-0.265625 -0.78125 -0.265625 -1.640625l0 -8.859375l-2.265625 0l0.34375 -3.265625l1.921875 0l0 -3.515625l3.96875 -0.421875l0 3.9375l3.515625 0l0 3.265625l-3.515625 0l0 7.234375q0 0.921875 0.0625 1.4375q0.0625 0.515625 0.296875 0.765625q0.25 0.25 0.71875 0.3125q0.484375 0.046875 1.359375 0.046875l1.078125 0zm6.570526 -15.5l-3.96875 0l0 -3.96875l3.96875 0l0 3.96875zm0 18.4375l-3.96875 0l0 -16.0l3.96875 0l0 16.0zm17.633148 -16.0l-6.15625 16.0l-3.390625 0l-6.140625 -16.0l3.90625 0l3.9375 11.078125l3.9375 -11.078125l3.90625 0zm15.668915 13.0625l-0.34375 3.25l-1.4375 0q-2.59375 0 -3.59375 -1.84375q-1.65625 1.84375 -4.890625 1.84375q-1.0 0 -1.84375 -0.328125q-0.84375 -0.34375 -1.46875 -0.953125q-0.625 -0.625 -0.984375 -1.5q-0.34375 -0.890625 -0.34375 -2.015625q0 -1.625 0.953125 -2.703125q0.96875 -1.09375 2.34375 -1.75q1.375 -0.65625 2.921875 -0.9375q1.5625 -0.296875 2.765625 -0.328125q-0.0625 -1.4375 -0.703125 -2.03125q-0.640625 -0.59375 -2.171875 -0.59375q-1.890625 0 -4.375 1.21875l-0.359375 -3.234375q2.984375 -1.40625 5.828125 -1.40625q5.78125 0 5.78125 6.421875l0 4.328125q0 0.859375 0.046875 1.375q0.0625 0.515625 0.203125 0.78125q0.140625 0.265625 0.421875 0.34375q0.296875 0.0625 0.75 0.0625l0.5 0zm-5.875 -0.9375l0 -3.640625q-0.9375 0.0625 -1.8125 0.25q-0.875 0.1875 -1.5625 0.5625q-0.671875 0.359375 -1.09375 0.875q-0.40625 0.515625 -0.40625 1.1875q0 1.921875 2.140625 1.921875q1.515625 0 2.734375 -1.15625zm16.498535 0.9375l-0.34375 3.25l-2.84375 0q-1.0625 0 -1.859375 -0.328125q-0.796875 -0.34375 -1.34375 -0.890625q-0.546875 -0.5625 -0.828125 -1.328125q-0.265625 -0.78125 -0.265625 -1.640625l0 -8.859375l-2.265625 0l0.34375 -3.265625l1.921875 0l0 -3.515625l3.96875 -0.421875l0 3.9375l3.515625 0l0 3.265625l-3.515625 0l0 7.234375q0 0.921875 0.0625 1.4375q0.0625 0.515625 0.296875 0.765625q0.25 0.25 0.71875 0.3125q0.484375 0.046875 1.359375 0.046875l1.078125 0zm6.570526 -15.5l-3.96875 0l0 -3.96875l3.96875 0l0 3.96875zm0 18.4375l-3.96875 0l0 -16.0l3.96875 0l0 16.0zm16.726898 -2.078125q-2.171875 2.390625 -5.890625 2.390625q-1.84375 0 -3.34375 -0.625q-1.484375 -0.640625 -2.546875 -1.765625q-1.046875 -1.125 -1.625 -2.625q-0.578125 -1.5 -0.578125 -3.265625q0 -1.734375 0.578125 -3.25q0.578125 -1.515625 1.625 -2.625q1.0625 -1.125 2.546875 -1.765625q1.5 -0.640625 3.34375 -0.640625q1.859375 0 3.359375 0.65625q1.515625 0.65625 2.5625 1.78125q1.0625 1.109375 1.625 2.609375q0.5625 1.5 0.5625 3.234375q0 3.484375 -2.21875 5.890625zm-2.9375 -9.53125q-1.0625 -1.375 -2.953125 -1.375q-1.90625 0 -2.96875 1.375q-1.0625 1.375 -1.0625 3.640625q0 2.265625 1.0625 3.65625q1.0625 1.375 2.96875 1.375q1.921875 0 2.984375 -1.40625q1.0625 -1.421875 1.0625 -3.625q0 -2.265625 -1.09375 -3.640625zm22.01529 11.609375l-3.96875 0l0 -8.609375q0 -2.234375 -0.75 -3.296875q-0.75 -1.078125 -2.421875 -1.078125q-1.8125 0 -3.0 1.375l0 11.609375l-3.96875 0l0 -16.0l3.703125 0l0.0625 0.953125q1.703125 -1.203125 3.53125 -1.203125q6.8125 0 6.8125 7.640625l0 8.609375z" fill-rule="nonzero"></path><path fill="#000000" fill-opacity="0.0" d="m46.38114 230.71654l192.44095 0l0 112.94487l-192.44095 0z" fill-rule="nonzero"></path><path fill="#0b5394" d="m74.99052 270.43652l-4.25 0l-4.640625 -8.3125l-4.15625 0l0 8.3125l-4.09375 0l0 -22.406235l8.1875 0q7.71875 0 7.71875 6.46875q0 2.4062347 -1.0 3.9062347q-0.984375 1.5 -2.8125 2.625l5.046875 9.40625zm-9.875 -18.968735l-3.171875 0l0 6.8124847l3.0 0q2.59375 0 3.546875 -0.875q0.96875 -0.890625 0.96875 -2.6093597q0 -1.703125 -0.9375 -2.515625q-0.921875 -0.8125 -3.40625 -0.8125zm25.172668 16.89061q-2.171875 2.390625 -5.890625 2.390625q-1.84375 0 -3.34375 -0.625q-1.484375 -0.640625 -2.546875 -1.765625q-1.046875 -1.125 -1.625 -2.625q-0.578125 -1.5 -0.578125 -3.265625q0 -1.734375 0.578125 -3.25q0.578125 -1.515625 1.625 -2.625q1.0625 -1.1249847 2.546875 -1.7656097q1.5 -0.640625 3.34375 -0.640625q1.859375 0 3.359375 0.65625q1.515625 0.65625 2.5625 1.7812347q1.0625 1.109375 1.625 2.609375q0.5625 1.5 0.5625 3.234375q0 3.484375 -2.21875 5.890625zm-2.9375 -9.53125q-1.0625 -1.375 -2.953125 -1.375q-1.90625 0 -2.96875 1.375q-1.0625 1.375 -1.0625 3.640625q0 2.265625 1.0625 3.65625q1.0625 1.375 2.96875 1.375q1.921875 0 2.984375 -1.40625q1.0625 -1.421875 1.0625 -3.625q0 -2.265625 -1.09375 -3.640625zm21.85904 11.609375l-3.71875 0l-0.0625 -0.953125q-1.65625 1.265625 -3.546875 1.265625q-6.78125 0 -6.78125 -7.703125l0 -8.60936l3.953125 0l0 8.60936q0 2.234375 0.75 3.3125q0.765625 1.0625 2.421875 1.0625q1.859375 0 3.015625 -1.34375l0 -11.64061l3.96875 0l0 15.999985zm12.117157 -2.9375l-0.34375 3.25l-2.84375 0q-1.0625 0 -1.859375 -0.328125q-0.796875 -0.34375 -1.34375 -0.890625q-0.546875 -0.5625 -0.828125 -1.328125q-0.265625 -0.78125 -0.265625 -1.640625l0 -8.859375l-2.265625 0l0.34375 -3.2656097l1.921875 0l0 -3.515625l3.96875 -0.421875l0 3.9375l3.515625 0l0 3.2656097l-3.515625 0l0 7.234375q0 0.921875 0.0625 1.4375q0.0625 0.515625 0.296875 0.765625q0.25 0.25 0.71875 0.3125q0.484375 0.046875 1.359375 0.046875l1.078125 0zm16.101784 -4.203125l-10.328133 0q0.3125 2.078125 1.6718826 3.140625q1.359375 1.0625 3.09375 1.0625q0.546875 0 1.171875 -0.09375q0.640625 -0.109375 1.296875 -0.28125q0.65625 -0.171875 1.296875 -0.40625q0.640625 -0.25 1.15625 -0.53125l0.1875 3.359375q-2.328125 1.203125 -5.34375 1.203125q-2.109375 0 -3.7343826 -0.625q-1.609375 -0.640625 -2.71875 -1.75q-1.09375 -1.109375 -1.65625 -2.625q-0.5625 -1.515625 -0.5625 -3.28125q0 -1.734375 0.53125 -3.234375q0.53125 -1.5 1.515625 -2.625q1.0 -1.1406097 2.421875 -1.7812347q1.4218826 -0.640625 3.2187576 -0.640625q1.5 0 2.796875 0.5q1.296875 0.484375 2.234375 1.4062347q0.953125 0.90625 1.46875 2.1875q0.53125 1.28125 0.53125 2.84375q0 0.890625 -0.25 2.171875zm-10.234383 -2.6875l6.4531326 0q0 -1.25 -0.703125 -2.203125q-0.703125 -0.953125 -2.171875 -0.953125q-1.46875 0 -2.375 0.859375q-0.8906326 0.859375 -1.2031326 2.296875zm27.323784 9.828125l-3.96875 0l0 -8.609375q0 -2.234375 -0.75 -3.296875q-0.75 -1.078125 -2.421875 -1.078125q-1.8125 0 -3.0 1.375l0 11.609375l-3.96875 0l0 -15.999985l3.703125 0l0.0625 0.953125q1.703125 -1.203125 3.53125 -1.203125q6.8125 0 6.8125 7.6406097l0 8.609375zm13.335907 -7.359375l-9.90625 0l0 -3.015625l9.90625 0l0 3.015625z" fill-rule="nonzero"></path><path fill="#0b5394" d="m63.69364 316.43652q-1.84375 0 -3.265625 -0.390625q-1.40625 -0.375 -2.359375 -1.015625q-0.953125 -0.640625 -1.4375 -1.515625q-0.484375 -0.859375 -0.484375 -1.8125q0 -2.203125 2.625 -3.578125q-1.4375 -0.90625 -1.4375 -2.3125q0 -1.40625 1.59375 -2.171875q-2.453125 -1.796875 -2.453125 -5.15625q0 -1.34375 0.4375 -2.484375q0.453125 -1.15625 1.296875 -2.0q0.859375 -0.859375 2.046875 -1.328125q1.203125 -0.484375 2.703125 -0.484375q2.15625 0 3.65625 0.953125q1.28125 -0.703125 3.421875 -0.703125l1.03125 0l-0.265625 2.5l-1.4375 0q-0.25 0 -0.5 0q-0.234375 0 -0.390625 0.03125q0.953125 1.5 0.953125 3.515625q0 1.3125 -0.4375 2.46875q-0.421875 1.140625 -1.25 2.0q-0.8125 0.84375 -2.03125 1.34375q-1.203125 0.5 -2.75 0.5q-0.40625 0 -0.828125 -0.046875q-0.40625 -0.0625 -0.859375 -0.125q-0.359375 0.171875 -0.359375 0.515625q0 0.578125 0.875 0.8125q0.890625 0.21875 3.125 0.5q1.0625 0.125 2.15625 0.375q1.109375 0.234375 2.015625 0.765625q0.921875 0.53125 1.546875 1.40625q0.625 0.875 0.71875 2.28125q0 2.40625 -1.984375 3.78125q-1.984375 1.375 -5.671875 1.375zm-0.734375 -21.34375q-1.4375 0 -2.1875 0.921875q-0.75 0.90625 -0.75 2.46875q0 1.5625 0.75 2.484375q0.75 0.90625 2.1875 0.90625q1.453125 0 2.1875 -0.90625q0.734375 -0.921875 0.734375 -2.484375q0 -1.5625 -0.734375 -2.46875q-0.734375 -0.921875 -2.1875 -0.921875zm0.609375 14.296875q-0.859375 -0.09375 -1.921875 -0.28125q-2.203125 0.734375 -2.203125 2.203125q0 1.0625 1.0625 1.6875q1.078125 0.625 3.0 0.625q1.921875 0 3.125 -0.578125q1.203125 -0.578125 1.203125 -1.59375q0 -1.03125 -1.203125 -1.453125q-1.203125 -0.40625 -3.0625 -0.609375zm23.203903 -8.09375l-10.328125 0q0.3125 2.078125 1.671875 3.140625q1.359375 1.0625 3.09375 1.0625q0.546875 0 1.171875 -0.09375q0.640625 -0.109375 1.296875 -0.28125q0.65625 -0.171875 1.296875 -0.40625q0.640625 -0.25 1.15625 -0.53125l0.1875 3.359375q-2.328125 1.203125 -5.34375 1.203125q-2.109375 0 -3.734375 -0.625q-1.609375 -0.640625 -2.71875 -1.75q-1.09375 -1.109375 -1.65625 -2.625q-0.5625 -1.515625 -0.5625 -3.28125q0 -1.734375 0.53125 -3.234375q0.53125 -1.5 1.515625 -2.625q1.0 -1.140625 2.421875 -1.78125q1.421875 -0.640625 3.21875 -0.640625q1.5 0 2.796875 0.5q1.296875 0.484375 2.234375 1.40625q0.953125 0.90625 1.46875 2.1875q0.53125 1.28125 0.53125 2.84375q0 0.890625 -0.25 2.171875zm-10.234375 -2.6875l6.453125 0q0 -1.25 -0.703125 -2.203125q-0.703125 -0.953125 -2.171875 -0.953125q-1.46875 0 -2.375 0.859375q-0.890625 0.859375 -1.203125 2.296875zm27.323776 9.828125l-3.96875 0l0 -8.609375q0 -2.234375 -0.75 -3.296875q-0.75 -1.078125 -2.421875 -1.078125q-1.8125 0 -3.0 1.375l0 11.609375l-3.96875 0l0 -16.0l3.703125 0l0.0625 0.953125q1.703125 -1.203125 3.53125 -1.203125q6.8125 0 6.8125 7.640625l0 8.609375zm17.054657 -7.140625l-10.328125 0q0.3125 2.078125 1.671875 3.140625q1.359375 1.0625 3.09375 1.0625q0.546875 0 1.171875 -0.09375q0.640625 -0.109375 1.296875 -0.28125q0.65625 -0.171875 1.296875 -0.40625q0.640625 -0.25 1.15625 -0.53125l0.1875 3.359375q-2.328125 1.203125 -5.34375 1.203125q-2.109375 0 -3.734375 -0.625q-1.609375 -0.640625 -2.71875 -1.75q-1.09375 -1.109375 -1.65625 -2.625q-0.5625 -1.515625 -0.5625 -3.28125q0 -1.734375 0.53125 -3.234375q0.53125 -1.5 1.515625 -2.625q1.0 -1.140625 2.421875 -1.78125q1.421875 -0.640625 3.21875 -0.640625q1.5 0 2.796875 0.5q1.296875 0.484375 2.234375 1.40625q0.953125 0.90625 1.46875 2.1875q0.53125 1.28125 0.53125 2.84375q0 0.890625 -0.25 2.171875zm-10.234375 -2.6875l6.453125 0q0 -1.25 -0.703125 -2.203125q-0.703125 -0.953125 -2.171875 -0.953125q-1.46875 0 -2.375 0.859375q-0.890625 0.859375 -1.203125 2.296875zm22.323784 -6.421875l-0.765625 3.734375l-1.46875 0q-0.953125 0 -1.765625 0.453125q-0.796875 0.453125 -1.1406326 1.15625l0 10.90625l-3.96875 0l0 -16.0l3.703125 0l0.09375 1.703125q1.8593826 -1.953125 4.2656326 -1.953125l1.046875 0zm5.8033905 -2.1875l-3.96875 0l0 -3.96875l3.96875 0l0 3.96875zm0 18.4375l-3.96875 0l0 -16.0l3.96875 0l0 16.0zm17.211273 -7.140625l-10.328125 0q0.3125 2.078125 1.671875 3.140625q1.359375 1.0625 3.09375 1.0625q0.546875 0 1.171875 -0.09375q0.640625 -0.109375 1.296875 -0.28125q0.65625 -0.171875 1.296875 -0.40625q0.640625 -0.25 1.15625 -0.53125l0.1875 3.359375q-2.328125 1.203125 -5.34375 1.203125q-2.109375 0 -3.734375 -0.625q-1.609375 -0.640625 -2.71875 -1.75q-1.09375 -1.109375 -1.65625 -2.625q-0.5625 -1.515625 -0.5625 -3.28125q0 -1.734375 0.53125 -3.234375q0.53125 -1.5 1.515625 -2.625q1.0 -1.140625 2.421875 -1.78125q1.421875 -0.640625 3.21875 -0.640625q1.5 0 2.796875 0.5q1.296875 0.484375 2.234375 1.40625q0.953125 0.90625 1.46875 2.1875q0.53125 1.28125 0.53125 2.84375q0 0.890625 -0.25 2.171875zm-10.234375 -2.6875l6.453125 0q0 -1.25 -0.703125 -2.203125q-0.703125 -0.953125 -2.171875 -0.953125q-1.46875 0 -2.375 0.859375q-0.890625 0.859375 -1.203125 2.296875zm22.323776 -6.421875l-0.765625 3.734375l-1.46875 0q-0.953125 0 -1.765625 0.453125q-0.796875 0.453125 -1.140625 1.15625l0 10.90625l-3.96875 0l0 -16.0l3.703125 0l0.09375 1.703125q1.859375 -1.953125 4.265625 -1.953125l1.046875 0zm15.7877655 16.25l-3.71875 0l-0.0625 -0.953125q-1.65625 1.265625 -3.546875 1.265625q-6.78125 0 -6.78125 -7.703125l0 -8.609375l3.953125 0l0 8.609375q0 2.234375 0.75 3.3125q0.765625 1.0625 2.421875 1.0625q1.859375 0 3.015625 -1.34375l0 -11.640625l3.96875 0l0 16.0zm17.820282 0l-3.96875 0l0 -8.609375q0 -2.234375 -0.75 -3.296875q-0.75 -1.078125 -2.421875 -1.078125q-1.8125 0 -3.0 1.375l0 11.609375l-3.96875 0l0 -16.0l3.703125 0l0.0625 0.953125q1.703125 -1.203125 3.53125 -1.203125q6.8125 0 6.8125 7.640625l0 8.609375zm10.007782 8.0q-1.84375 0 -3.265625 -0.390625q-1.40625 -0.375 -2.359375 -1.015625q-0.953125 -0.640625 -1.4375 -1.515625q-0.484375 -0.859375 -0.484375 -1.8125q0 -2.203125 2.625 -3.578125q-1.4375 -0.90625 -1.4375 -2.3125q0 -1.40625 1.59375 -2.171875q-2.453125 -1.796875 -2.453125 -5.15625q0 -1.34375 0.4375 -2.484375q0.453125 -1.15625 1.296875 -2.0q0.859375 -0.859375 2.046875 -1.328125q1.203125 -0.484375 2.703125 -0.484375q2.15625 0 3.65625 0.953125q1.28125 -0.703125 3.421875 -0.703125l1.03125 0l-0.265625 2.5l-1.4375 0q-0.25 0 -0.5 0q-0.234375 0 -0.390625 0.03125q0.953125 1.5 0.953125 3.515625q0 1.3125 -0.4375 2.46875q-0.421875 1.140625 -1.25 2.0q-0.8125 0.84375 -2.03125 1.34375q-1.203125 0.5 -2.75 0.5q-0.40625 0 -0.828125 -0.046875q-0.40625 -0.0625 -0.859375 -0.125q-0.359375 0.171875 -0.359375 0.515625q0 0.578125 0.875 0.8125q0.890625 0.21875 3.125 0.5q1.0625 0.125 2.15625 0.375q1.109375 0.234375 2.015625 0.765625q0.921875 0.53125 1.546875 1.40625q0.625 0.875 0.71875 2.28125q0 2.40625 -1.984375 3.78125q-1.984375 1.375 -5.671875 1.375zm-0.734375 -21.34375q-1.4375 0 -2.1875 0.921875q-0.75 0.90625 -0.75 2.46875q0 1.5625 0.75 2.484375q0.75 0.90625 2.1875 0.90625q1.453125 0 2.1875 -0.90625q0.734375 -0.921875 0.734375 -2.484375q0 -1.5625 -0.734375 -2.46875q-0.734375 -0.921875 -2.1875 -0.921875zm0.609375 14.296875q-0.859375 -0.09375 -1.921875 -0.28125q-2.203125 0.734375 -2.203125 2.203125q0 1.0625 1.0625 1.6875q1.078125 0.625 3.0 0.625q1.921875 0 3.125 -0.578125q1.203125 -0.578125 1.203125 -1.59375q0 -1.03125 -1.203125 -1.453125q-1.203125 -0.40625 -3.0625 -0.609375z" fill-rule="nonzero"></path><path fill="#000000" fill-opacity="0.0" d="m251.68036 255.29921l204.15747 0l0 63.779526l-204.15747 0z" fill-rule="nonzero"></path><path fill="#0b5394" d="m273.0241 287.3392l-2.8125 0l-0.046875 -0.671875q-1.34375 0.90625 -2.9375 0.90625q-1.40625 0 -2.5 -0.46875q-1.09375 -0.484375 -1.84375 -1.328125q-0.734375 -0.859375 -1.140625 -1.984375q-0.390625 -1.140625 -0.390625 -2.421875q0 -1.296875 0.40625 -2.4375q0.40625 -1.140625 1.15625 -1.984375q0.765625 -0.84375 1.859375 -1.3125q1.09375 -0.484375 2.453125 -0.484375q1.609375 0 2.8125 0.78125l0 -6.59375l2.984375 0l0 18.0zm-5.59375 -9.75q-1.453125 0 -2.25 1.03125q-0.78125 1.015625 -0.78125 2.75q0 1.71875 0.78125 2.75q0.796875 1.015625 2.25 1.015625q1.390625 0 2.0625 -1.0q0.6875 -1.015625 0.6875 -2.765625q0 -1.765625 -0.6875 -2.765625q-0.671875 -1.015625 -2.0625 -1.015625zm19.797699 -2.25l-7.515625 17.8125l-2.96875 0l2.65625 -6.609375l-4.984375 -11.203125l3.3125 0l3.0625 7.734375l3.125 -7.734375l3.3125 0zm12.01297 12.0l-2.96875 0l0 -6.453125q0 -1.6875 -0.5625 -2.484375q-0.5625 -0.8125 -1.8125 -0.8125q-1.375 0 -2.25 1.03125l0 8.71875l-2.984375 0l0 -12.0l2.78125 0l0.046875 0.71875q1.28125 -0.90625 2.640625 -0.90625q5.109375 0 5.109375 5.734375l0 6.453125zm12.966705 -2.203125l-0.265625 2.4375l-1.078125 0q-1.9375 0 -2.6875 -1.390625q-1.25 1.390625 -3.671875 1.390625q-0.75 0 -1.390625 -0.25q-0.625 -0.25 -1.09375 -0.71875q-0.46875 -0.46875 -0.734375 -1.125q-0.265625 -0.65625 -0.265625 -1.5q0 -1.21875 0.71875 -2.03125q0.71875 -0.828125 1.75 -1.3125q1.046875 -0.5 2.203125 -0.703125q1.171875 -0.21875 2.078125 -0.25q-0.046875 -1.078125 -0.53125 -1.515625q-0.484375 -0.453125 -1.625 -0.453125q-1.421875 0 -3.296875 0.90625l-0.265625 -2.421875q2.234375 -1.046875 4.375 -1.046875q4.34375 0 4.34375 4.8125l0 3.25q0 0.640625 0.03125 1.03125q0.03125 0.375 0.140625 0.59375q0.109375 0.203125 0.328125 0.25q0.21875 0.046875 0.546875 0.046875l0.390625 0zm-4.421875 -0.703125l0 -2.734375q-0.6875 0.046875 -1.359375 0.203125q-0.65625 0.140625 -1.15625 0.421875q-0.5 0.265625 -0.8125 0.65625q-0.3125 0.375 -0.3125 0.875q0 1.4375 1.609375 1.4375q1.125 0 2.03125 -0.859375zm24.201965 2.90625l-2.984375 0l0 -6.453125q0 -1.734375 -0.5 -2.515625q-0.5 -0.78125 -1.734375 -0.78125q-1.34375 0 -1.859375 0.625q-0.515625 0.625 -0.515625 1.703125l0 7.421875l-2.953125 0l0 -6.453125q0 -0.9375 -0.125 -1.5625q-0.125 -0.640625 -0.421875 -1.03125q-0.28125 -0.390625 -0.75 -0.546875q-0.453125 -0.15625 -1.09375 -0.15625q-1.375 0 -2.203125 0.984375l0 8.765625l-2.984375 0l0 -12.0l2.453125 0l0.171875 0.9375q1.390625 -1.125 3.0625 -1.125q1.109375 0 2.09375 0.46875q0.984375 0.46875 1.578125 1.34375q0.171875 -0.328125 0.53125 -0.65625q0.375 -0.328125 0.890625 -0.578125q0.53125 -0.265625 1.171875 -0.421875q0.640625 -0.15625 1.390625 -0.15625q1.171875 0 2.078125 0.40625q0.90625 0.40625 1.5 1.15625q0.59375 0.734375 0.890625 1.8125q0.3125 1.0625 0.3125 2.359375l0 6.453125zm5.6433105 -13.828125l-2.984375 0l0 -2.96875l2.984375 0l0 2.96875zm0 13.828125l-2.984375 0l0 -12.0l2.984375 0l0 12.0zm6.1818542 0.234375q-2.734375 0 -4.046875 -0.875l0.265625 -2.546875q0.28125 0.21875 0.71875 0.4375q0.453125 0.203125 0.9375 0.375q0.5 0.171875 1.015625 0.28125q0.53125 0.109375 1.015625 0.109375q1.015625 0 1.421875 -0.390625q0.40625 -0.390625 0.40625 -0.9375q0 -0.53125 -0.296875 -0.796875q-0.28125 -0.28125 -0.828125 -0.484375q-0.53125 -0.203125 -1.296875 -0.421875q-0.765625 -0.234375 -1.734375 -0.71875q-0.71875 -0.40625 -1.078125 -0.984375q-0.359375 -0.59375 -0.4375 -1.65625q0 -0.75 0.25 -1.421875q0.265625 -0.6875 0.78125 -1.21875q0.53125 -0.53125 1.359375 -0.84375q0.828125 -0.328125 2.0 -0.328125q1.109375 0 2.171875 0.265625q1.078125 0.265625 1.609375 0.625l-0.265625 2.53125q-0.265625 -0.234375 -0.640625 -0.46875q-0.375 -0.25 -0.8125 -0.421875q-0.421875 -0.1875 -0.90625 -0.296875q-0.484375 -0.109375 -0.9375 -0.109375q-0.859375 0 -1.421875 0.328125q-0.5625 0.328125 -0.5625 1.0q0 0.578125 0.359375 0.875q0.375 0.28125 1.0 0.515625l0.40625 0.125q0.15625 0.046875 0.46875 0.125q0.328125 0.078125 0.5 0.140625q0.734375 0.203125 1.34375 0.5q0.625 0.28125 1.046875 0.71875q0.4375 0.4375 0.65625 1.03125q0.234375 0.59375 0.234375 1.421875q0 3.515625 -4.703125 3.515625zm11.855103 0q-1.390625 0 -2.46875 -0.46875q-1.078125 -0.484375 -1.828125 -1.3125q-0.734375 -0.828125 -1.140625 -1.96875q-0.390625 -1.140625 -0.390625 -2.453125q0 -1.328125 0.390625 -2.453125q0.40625 -1.125 1.140625 -1.96875q0.75 -0.84375 1.828125 -1.3125q1.078125 -0.484375 2.46875 -0.484375q2.21875 0 3.609375 0.890625l-0.265625 2.53125q-1.484375 -0.984375 -3.09375 -0.984375q-1.453125 0 -2.25 1.03125q-0.78125 1.015625 -0.78125 2.75q0 1.71875 0.78125 2.75q0.796875 1.015625 2.25 1.015625q1.609375 0 3.09375 -0.984375l0.265625 2.546875q-1.390625 0.875 -3.609375 0.875zm16.205078 -0.234375l-2.984375 0l0 -6.453125q0 -1.6875 -0.5625 -2.484375q-0.5625 -0.8125 -1.8125 -0.8125q-1.359375 0 -2.25 1.03125l0 8.71875l-2.96875 0l0 -18.0l2.96875 0l0 6.625q1.25 -0.8125 2.5 -0.8125q5.109375 0 5.109375 5.734375l0 6.453125zm12.7864685 -5.359375l-7.75 0q0.25 1.5625 1.265625 2.359375q1.015625 0.796875 2.3125 0.796875q0.40625 0 0.890625 -0.078125q0.484375 -0.078125 0.96875 -0.203125q0.5 -0.125 0.96875 -0.296875q0.484375 -0.1875 0.875 -0.40625l0.140625 2.515625q-1.75 0.90625 -4.015625 0.90625q-1.578125 0 -2.796875 -0.46875q-1.203125 -0.484375 -2.03125 -1.3125q-0.828125 -0.828125 -1.25 -1.96875q-0.421875 -1.140625 -0.421875 -2.453125q0 -1.296875 0.390625 -2.421875q0.40625 -1.140625 1.140625 -1.984375q0.75 -0.859375 1.8125 -1.328125q1.078125 -0.484375 2.421875 -0.484375q1.125 0 2.09375 0.375q0.96875 0.359375 1.671875 1.046875q0.71875 0.6875 1.109375 1.65625q0.40625 0.953125 0.40625 2.125q0 0.671875 -0.203125 1.625zm-7.671875 -2.015625l4.84375 0q0 -0.921875 -0.53125 -1.640625q-0.53125 -0.734375 -1.625 -0.734375q-1.109375 0 -1.78125 0.65625q-0.671875 0.640625 -0.90625 1.71875z" fill-rule="nonzero"></path><path fill="#0b5394" d="m268.60223 310.82358l-3.0 0l0 5.515625l-3.078125 0l0 -16.796875l4.75 0q1.828125 0 3.1875 0.203125q1.359375 0.203125 2.234375 0.796875q0.890625 0.578125 1.328125 1.625q0.453125 1.046875 0.453125 2.703125q0 1.75 -0.546875 2.890625q-0.546875 1.140625 -1.421875 1.828125q-0.859375 0.671875 -1.90625 0.953125q-1.046875 0.28125 -2.0 0.28125zm-0.484375 -8.71875l-2.515625 0l0 5.828125l2.59375 0q1.703125 0 2.4375 -0.671875q0.734375 -0.6875 0.734375 -2.375q0 -0.734375 -0.15625 -1.265625q-0.15625 -0.53125 -0.53125 -0.859375q-0.375 -0.34375 -1.0 -0.5q-0.625 -0.15625 -1.5625 -0.15625zm15.10083 2.046875l-0.578125 2.796875l-1.109375 0q-0.71875 0 -1.328125 0.34375q-0.59375 0.328125 -0.84375 0.859375l0 8.1875l-2.984375 0l0 -12.0l2.78125 0l0.078125 1.265625q1.390625 -1.453125 3.1875 -1.453125l0.796875 0zm11.129852 10.625q-1.625 1.796875 -4.40625 1.796875q-1.390625 0 -2.515625 -0.46875q-1.109375 -0.484375 -1.90625 -1.328125q-0.796875 -0.84375 -1.234375 -1.96875q-0.421875 -1.125 -0.421875 -2.4375q0 -1.296875 0.421875 -2.4375q0.4375 -1.140625 1.234375 -1.984375q0.796875 -0.84375 1.90625 -1.3125q1.125 -0.484375 2.515625 -0.484375q1.390625 0 2.515625 0.5q1.125 0.484375 1.90625 1.328125q0.796875 0.828125 1.21875 1.96875q0.421875 1.125 0.421875 2.421875q0 2.609375 -1.65625 4.40625zm-2.203125 -7.15625q-0.796875 -1.03125 -2.203125 -1.03125q-1.453125 0 -2.25 1.03125q-0.78125 1.03125 -0.78125 2.75q0 1.703125 0.78125 2.734375q0.796875 1.03125 2.25 1.03125q1.4375 0 2.21875 -1.046875q0.796875 -1.0625 0.796875 -2.71875q0 -1.71875 -0.8125 -2.75zm10.769196 14.71875q-1.390625 0 -2.453125 -0.296875q-1.046875 -0.28125 -1.765625 -0.765625q-0.71875 -0.46875 -1.078125 -1.125q-0.359375 -0.640625 -0.359375 -1.359375q0 -1.65625 1.96875 -2.6875q-1.078125 -0.671875 -1.078125 -1.734375q0 -1.0625 1.1875 -1.625q-1.84375 -1.34375 -1.84375 -3.875q0 -1.0 0.328125 -1.859375q0.34375 -0.875 0.984375 -1.5q0.640625 -0.640625 1.53125 -1.0q0.90625 -0.359375 2.03125 -0.359375q1.609375 0 2.734375 0.71875q0.96875 -0.53125 2.5625 -0.53125l0.78125 0l-0.203125 1.875l-1.078125 0q-0.1875 0 -0.375 0q-0.171875 0 -0.296875 0.015625q0.71875 1.140625 0.71875 2.640625q0 0.984375 -0.328125 1.859375q-0.3125 0.859375 -0.9375 1.5q-0.609375 0.625 -1.515625 1.0q-0.90625 0.375 -2.0625 0.375q-0.3125 0 -0.625 -0.03125q-0.3125 -0.046875 -0.640625 -0.09375q-0.265625 0.125 -0.265625 0.390625q0 0.421875 0.65625 0.59375q0.65625 0.171875 2.34375 0.390625q0.78125 0.09375 1.609375 0.28125q0.828125 0.171875 1.515625 0.578125q0.6875 0.390625 1.15625 1.046875q0.46875 0.65625 0.53125 1.71875q0 1.796875 -1.484375 2.828125q-1.484375 1.03125 -4.25 1.03125zm-0.546875 -16.015625q-1.078125 0 -1.640625 0.6875q-0.5625 0.6875 -0.5625 1.859375q0 1.1875 0.5625 1.875q0.5625 0.671875 1.640625 0.671875q1.078125 0 1.625 -0.671875q0.5625 -0.6875 0.5625 -1.875q0 -1.171875 -0.5625 -1.859375q-0.546875 -0.6875 -1.625 -0.6875zm0.453125 10.734375q-0.640625 -0.078125 -1.4375 -0.21875q-1.65625 0.5625 -1.65625 1.65625q0 0.796875 0.796875 1.265625q0.8125 0.46875 2.25 0.46875q1.4375 0 2.34375 -0.4375q0.90625 -0.421875 0.90625 -1.203125q0 -0.765625 -0.90625 -1.078125q-0.90625 -0.3125 -2.296875 -0.453125zm14.117737 -12.90625l-0.578125 2.796875l-1.109375 0q-0.71875 0 -1.328125 0.34375q-0.59375 0.328125 -0.84375 0.859375l0 8.1875l-2.984375 0l0 -12.0l2.78125 0l0.078125 1.265625q1.390625 -1.453125 3.1875 -1.453125l0.796875 0zm11.661102 9.984375l-0.265625 2.4375l-1.078125 0q-1.9375 0 -2.6875 -1.390625q-1.25 1.390625 -3.671875 1.390625q-0.75 0 -1.390625 -0.25q-0.625 -0.25 -1.09375 -0.71875q-0.46875 -0.46875 -0.734375 -1.125q-0.265625 -0.65625 -0.265625 -1.5q0 -1.21875 0.71875 -2.03125q0.71875 -0.828125 1.75 -1.3125q1.046875 -0.5 2.203125 -0.703125q1.171875 -0.21875 2.078125 -0.25q-0.046875 -1.078125 -0.53125 -1.515625q-0.484375 -0.453125 -1.625 -0.453125q-1.421875 0 -3.296875 0.90625l-0.265625 -2.421875q2.234375 -1.046875 4.375 -1.046875q4.34375 0 4.34375 4.8125l0 3.25q0 0.640625 0.03125 1.03125q0.03125 0.375 0.140625 0.59375q0.109375 0.203125 0.328125 0.25q0.21875 0.046875 0.546875 0.046875l0.390625 0zm-4.421875 -0.703125l0 -2.734375q-0.6875 0.046875 -1.359375 0.203125q-0.65625 0.140625 -1.15625 0.421875q-0.5 0.265625 -0.8125 0.65625q-0.3125 0.375 -0.3125 0.875q0 1.4375 1.609375 1.4375q1.125 0 2.03125 -0.859375zm24.201965 2.90625l-2.984375 0l0 -6.453125q0 -1.734375 -0.5 -2.515625q-0.5 -0.78125 -1.734375 -0.78125q-1.34375 0 -1.859375 0.625q-0.515625 0.625 -0.515625 1.703125l0 7.421875l-2.953125 0l0 -6.453125q0 -0.9375 -0.125 -1.5625q-0.125 -0.640625 -0.421875 -1.03125q-0.28125 -0.390625 -0.75 -0.546875q-0.453125 -0.15625 -1.09375 -0.15625q-1.375 0 -2.203125 0.984375l0 8.765625l-2.984375 0l0 -12.0l2.453125 0l0.171875 0.9375q1.390625 -1.125 3.0625 -1.125q1.109375 0 2.09375 0.46875q0.984375 0.46875 1.578125 1.34375q0.171875 -0.328125 0.53125 -0.65625q0.375 -0.328125 0.890625 -0.578125q0.53125 -0.265625 1.171875 -0.421875q0.640625 -0.15625 1.390625 -0.15625q1.171875 0 2.078125 0.40625q0.90625 0.40625 1.5 1.15625q0.59375 0.734375 0.890625 1.8125q0.3125 1.0625 0.3125 2.359375l0 6.453125zm20.783936 0l-2.984375 0l0 -6.453125q0 -1.734375 -0.5 -2.515625q-0.5 -0.78125 -1.734375 -0.78125q-1.34375 0 -1.859375 0.625q-0.515625 0.625 -0.515625 1.703125l0 7.421875l-2.953125 0l0 -6.453125q0 -0.9375 -0.125 -1.5625q-0.125 -0.640625 -0.421875 -1.03125q-0.28125 -0.390625 -0.75 -0.546875q-0.453125 -0.15625 -1.09375 -0.15625q-1.375 0 -2.203125 0.984375l0 8.765625l-2.984375 0l0 -12.0l2.453125 0l0.171875 0.9375q1.390625 -1.125 3.0625 -1.125q1.109375 0 2.09375 0.46875q0.984375 0.46875 1.578125 1.34375q0.171875 -0.328125 0.53125 -0.65625q0.375 -0.328125 0.890625 -0.578125q0.53125 -0.265625 1.171875 -0.421875q0.640625 -0.15625 1.390625 -0.15625q1.171875 0 2.078125 0.40625q0.90625 0.40625 1.5 1.15625q0.59375 0.734375 0.890625 1.8125q0.3125 1.0625 0.3125 2.359375l0 6.453125zm5.6433105 -13.828125l-2.984375 0l0 -2.96875l2.984375 0l0 2.96875zm0 13.828125l-2.984375 0l0 -12.0l2.984375 0l0 12.0zm12.900604 -5.359375l-7.75 0q0.25 1.5625 1.265625 2.359375q1.015625 0.796875 2.3125 0.796875q0.40625 0 0.890625 -0.078125q0.484375 -0.078125 0.96875 -0.203125q0.5 -0.125 0.96875 -0.296875q0.484375 -0.1875 0.875 -0.40625l0.140625 2.515625q-1.75 0.90625 -4.015625 0.90625q-1.578125 0 -2.796875 -0.46875q-1.203125 -0.484375 -2.03125 -1.3125q-0.828125 -0.828125 -1.25 -1.96875q-0.421875 -1.140625 -0.421875 -2.453125q0 -1.296875 0.390625 -2.421875q0.40625 -1.140625 1.140625 -1.984375q0.75 -0.859375 1.8125 -1.328125q1.078125 -0.484375 2.421875 -0.484375q1.125 0 2.09375 0.375q0.96875 0.359375 1.671875 1.046875q0.71875 0.6875 1.109375 1.65625q0.40625 0.953125 0.40625 2.125q0 0.671875 -0.203125 1.625zm-7.671875 -2.015625l4.84375 0q0 -0.921875 -0.53125 -1.640625q-0.53125 -0.734375 -1.625 -0.734375q-1.109375 0 -1.78125 0.65625q-0.671875 0.640625 -0.90625 1.71875zm16.75058 -4.8125l-0.578125 2.796875l-1.109375 0q-0.71875 0 -1.328125 0.34375q-0.59375 0.328125 -0.84375 0.859375l0 8.1875l-2.984375 0l0 -12.0l2.78125 0l0.078125 1.265625q1.390625 -1.453125 3.1875 -1.453125l0.796875 0zm11.832977 12.1875l-2.78125 0l-0.046875 -0.71875q-1.25 0.953125 -2.671875 0.953125q-5.09375 0 -5.09375 -5.78125l0 -6.453125l2.984375 0l0 6.453125q0 1.6875 0.5625 2.5q0.5625 0.796875 1.8125 0.796875q1.390625 0 2.25 -1.015625l0 -8.734375l2.984375 0l0 12.0zm13.35733 0l-2.96875 0l0 -6.453125q0 -1.6875 -0.5625 -2.484375q-0.5625 -0.8125 -1.8125 -0.8125q-1.375 0 -2.25 1.03125l0 8.71875l-2.984375 0l0 -12.0l2.78125 0l0.046875 0.71875q1.28125 -0.90625 2.640625 -0.90625q5.109375 0 5.109375 5.734375l0 6.453125zm7.5135803 6.0q-1.390625 0 -2.453125 -0.296875q-1.046875 -0.28125 -1.765625 -0.765625q-0.71875 -0.46875 -1.078125 -1.125q-0.359375 -0.640625 -0.359375 -1.359375q0 -1.65625 1.96875 -2.6875q-1.078125 -0.671875 -1.078125 -1.734375q0 -1.0625 1.1875 -1.625q-1.84375 -1.34375 -1.84375 -3.875q0 -1.0 0.328125 -1.859375q0.34375 -0.875 0.984375 -1.5q0.640625 -0.640625 1.53125 -1.0q0.90625 -0.359375 2.03125 -0.359375q1.609375 0 2.734375 0.71875q0.96875 -0.53125 2.5625 -0.53125l0.78125 0l-0.203125 1.875l-1.078125 0q-0.1875 0 -0.375 0q-0.171875 0 -0.296875 0.015625q0.71875 1.140625 0.71875 2.640625q0 0.984375 -0.328125 1.859375q-0.3125 0.859375 -0.9375 1.5q-0.609375 0.625 -1.515625 1.0q-0.90625 0.375 -2.0625 0.375q-0.3125 0 -0.625 -0.03125q-0.3125 -0.046875 -0.640625 -0.09375q-0.265625 0.125 -0.265625 0.390625q0 0.421875 0.65625 0.59375q0.65625 0.171875 2.34375 0.390625q0.78125 0.09375 1.609375 0.28125q0.828125 0.171875 1.515625 0.578125q0.6875 0.390625 1.15625 1.046875q0.46875 0.65625 0.53125 1.71875q0 1.796875 -1.484375 2.828125q-1.484375 1.03125 -4.25 1.03125zm-0.546875 -16.015625q-1.078125 0 -1.640625 0.6875q-0.5625 0.6875 -0.5625 1.859375q0 1.1875 0.5625 1.875q0.5625 0.671875 1.640625 0.671875q1.078125 0 1.625 -0.671875q0.5625 -0.6875 0.5625 -1.875q0 -1.171875 -0.5625 -1.859375q-0.546875 -0.6875 -1.625 -0.6875zm0.453125 10.734375q-0.640625 -0.078125 -1.4375 -0.21875q-1.65625 0.5625 -1.65625 1.65625q0 0.796875 0.796875 1.265625q0.8125 0.46875 2.25 0.46875q1.4375 0 2.34375 -0.4375q0.90625 -0.421875 0.90625 -1.203125q0 -0.765625 -0.90625 -1.078125q-0.90625 -0.3125 -2.296875 -0.453125z" fill-rule="nonzero"></path><path fill="#000000" fill-opacity="0.0" d="m258.32358 35.5455l204.1575 0l0 49.448822l-204.1575 0z" fill-rule="nonzero"></path><path fill="#0b5394" d="m280.16733 67.5855l-11.0 0l0 -16.796875l10.75 0l0 2.96875l-7.609375 0l0 3.578125l5.90625 0l0 2.984375l-5.90625 0l0 4.296875l7.859375 0l0 2.96875zm12.756958 0l-2.96875 0l0 -6.453125q0 -1.6875 -0.5625 -2.484375q-0.5625 -0.8125 -1.8125 -0.8125q-1.375 0 -2.25 1.03125l0 8.71875l-2.984375 0l0 -12.0l2.78125 0l0.046875 0.71875q1.28125 -0.90625 2.640625 -0.90625q5.109375 0 5.109375 5.734375l0 6.453125zm12.79483 -5.359375l-7.75 0q0.25 1.5625 1.265625 2.359375q1.015625 0.796875 2.3125 0.796875q0.40625 0 0.890625 -0.078125q0.484375 -0.078125 0.96875 -0.203125q0.5 -0.125 0.96875 -0.296875q0.484375 -0.1875 0.875 -0.40625l0.140625 2.515625q-1.75 0.90625 -4.015625 0.90625q-1.578125 0 -2.796875 -0.46875q-1.203125 -0.484375 -2.03125 -1.3125q-0.828125 -0.828125 -1.25 -1.96875q-0.421875 -1.140625 -0.421875 -2.453125q0 -1.296875 0.390625 -2.421875q0.40625 -1.140625 1.140625 -1.984375q0.75 -0.859375 1.8125 -1.328125q1.078125 -0.484375 2.421875 -0.484375q1.125 0 2.09375 0.375q0.96875 0.359375 1.671875 1.046875q0.71875 0.6875 1.109375 1.65625q0.40625 0.953125 0.40625 2.125q0 0.671875 -0.203125 1.625zm-7.671875 -2.015625l4.84375 0q0 -0.921875 -0.53125 -1.640625q-0.53125 -0.734375 -1.625 -0.734375q-1.109375 0 -1.78125 0.65625q-0.671875 0.640625 -0.90625 1.71875zm16.75061 -4.8125l-0.578125 2.796875l-1.109375 0q-0.71875 0 -1.328125 0.34375q-0.59375 0.328125 -0.84375 0.859375l0 8.1875l-2.984375 0l0 -12.0l2.78125 0l0.078125 1.265625q1.390625 -1.453125 3.1875 -1.453125l0.796875 0zm6.2079773 18.1875q-1.390625 0 -2.453125 -0.296875q-1.046875 -0.28125 -1.765625 -0.765625q-0.71875 -0.46875 -1.078125 -1.125q-0.359375 -0.640625 -0.359375 -1.359375q0 -1.65625 1.96875 -2.6875q-1.078125 -0.671875 -1.078125 -1.734375q0 -1.0625 1.1875 -1.625q-1.84375 -1.34375 -1.84375 -3.875q0 -1.0 0.328125 -1.859375q0.34375 -0.875 0.984375 -1.5q0.640625 -0.640625 1.53125 -1.0q0.90625 -0.359375 2.03125 -0.359375q1.609375 0 2.734375 0.71875q0.96875 -0.53125 2.5625 -0.53125l0.78125 0l-0.203125 1.875l-1.078125 0q-0.1875 0 -0.375 0q-0.171875 0 -0.296875 0.015625q0.71875 1.140625 0.71875 2.640625q0 0.984375 -0.328125 1.859375q-0.3125 0.859375 -0.9375 1.5q-0.609375 0.625 -1.515625 1.0q-0.90625 0.375 -2.0625 0.375q-0.3125 0 -0.625 -0.03125q-0.3125 -0.046875 -0.640625 -0.09375q-0.265625 0.125 -0.265625 0.390625q0 0.421875 0.65625 0.59375q0.65625 0.171875 2.34375 0.390625q0.78125 0.09375 1.609375 0.28125q0.828125 0.171875 1.515625 0.578125q0.6875 0.390625 1.15625 1.046875q0.46875 0.65625 0.53125 1.71875q0 1.796875 -1.484375 2.828125q-1.484375 1.03125 -4.25 1.03125zm-0.546875 -16.015625q-1.078125 0 -1.640625 0.6875q-0.5625 0.6875 -0.5625 1.859375q0 1.1875 0.5625 1.875q0.5625 0.671875 1.640625 0.671875q1.078125 0 1.625 -0.671875q0.5625 -0.6875 0.5625 -1.875q0 -1.171875 -0.5625 -1.859375q-0.546875 -0.6875 -1.625 -0.6875zm0.453125 10.734375q-0.640625 -0.078125 -1.4375 -0.21875q-1.65625 0.5625 -1.65625 1.65625q0 0.796875 0.796875 1.265625q0.8125 0.46875 2.25 0.46875q1.4375 0 2.34375 -0.4375q0.90625 -0.421875 0.90625 -1.203125q0 -0.765625 -0.90625 -1.078125q-0.90625 -0.3125 -2.296875 -0.453125zm10.258331 -14.546875l-2.984375 0l0 -2.96875l2.984375 0l0 2.96875zm0 13.828125l-2.984375 0l0 -12.0l2.984375 0l0 12.0zm12.900604 -5.359375l-7.75 0q0.25 1.5625 1.265625 2.359375q1.015625 0.796875 2.3125 0.796875q0.40625 0 0.890625 -0.078125q0.484375 -0.078125 0.96875 -0.203125q0.5 -0.125 0.96875 -0.296875q0.484375 -0.1875 0.875 -0.40625l0.140625 2.515625q-1.75 0.90625 -4.015625 0.90625q-1.578125 0 -2.796875 -0.46875q-1.203125 -0.484375 -2.03125 -1.3125q-0.828125 -0.828125 -1.25 -1.96875q-0.421875 -1.140625 -0.421875 -2.453125q0 -1.296875 0.390625 -2.421875q0.40625 -1.140625 1.140625 -1.984375q0.75 -0.859375 1.8125 -1.328125q1.078125 -0.484375 2.421875 -0.484375q1.125 0 2.09375 0.375q0.96875 0.359375 1.671875 1.046875q0.71875 0.6875 1.109375 1.65625q0.40625 0.953125 0.40625 2.125q0 0.671875 -0.203125 1.625zm-7.671875 -2.015625l4.84375 0q0 -0.921875 -0.53125 -1.640625q-0.53125 -0.734375 -1.625 -0.734375q-1.109375 0 -1.78125 0.65625q-0.671875 0.640625 -0.90625 1.71875zm16.25061 -2.171875l-2.640625 0l0 9.546875l-2.984375 0l0 -9.546875l-1.703125 0l0.265625 -2.453125l1.4375 0l0 -2.859375q0 -0.625 0.1875 -1.1875q0.203125 -0.578125 0.5625 -1.015625q0.359375 -0.4375 0.890625 -0.6875q0.546875 -0.25 1.234375 -0.25q1.140625 0 2.71875 0.140625l-0.265625 2.46875q-0.265625 -0.046875 -0.578125 -0.078125q-0.3125 -0.03125 -0.6875 -0.03125q-0.65625 0 -0.875 0.390625q-0.203125 0.375 -0.203125 1.484375l0 1.625l2.640625 0l0 2.453125zm11.581848 7.984375q-1.625 1.796875 -4.40625 1.796875q-1.390625 0 -2.515625 -0.46875q-1.109375 -0.484375 -1.90625 -1.328125q-0.796875 -0.84375 -1.234375 -1.96875q-0.421875 -1.125 -0.421875 -2.4375q0 -1.296875 0.421875 -2.4375q0.4375 -1.140625 1.234375 -1.984375q0.796875 -0.84375 1.90625 -1.3125q1.125 -0.484375 2.515625 -0.484375q1.390625 0 2.515625 0.5q1.125 0.484375 1.90625 1.328125q0.796875 0.828125 1.21875 1.96875q0.421875 1.125 0.421875 2.421875q0 2.609375 -1.65625 4.40625zm-2.203125 -7.15625q-0.796875 -1.03125 -2.203125 -1.03125q-1.453125 0 -2.25 1.03125q-0.78125 1.03125 -0.78125 2.75q0 1.703125 0.78125 2.734375q0.796875 1.03125 2.25 1.03125q1.4375 0 2.21875 -1.046875q0.796875 -1.0625 0.796875 -2.71875q0 -1.71875 -0.8125 -2.75zm12.769196 -3.46875l-0.578125 2.796875l-1.109375 0q-0.71875 0 -1.328125 0.34375q-0.59375 0.328125 -0.84375 0.859375l0 8.1875l-2.984375 0l0 -12.0l2.78125 0l0.078125 1.265625q1.390625 -1.453125 3.1875 -1.453125l0.796875 0zm19.489227 12.1875l-2.984375 0l0 -6.453125q0 -1.734375 -0.5 -2.515625q-0.5 -0.78125 -1.734375 -0.78125q-1.34375 0 -1.859375 0.625q-0.515625 0.625 -0.515625 1.703125l0 7.421875l-2.953125 0l0 -6.453125q0 -0.9375 -0.125 -1.5625q-0.125 -0.640625 -0.421875 -1.03125q-0.28125 -0.390625 -0.75 -0.546875q-0.453125 -0.15625 -1.09375 -0.15625q-1.375 0 -2.203125 0.984375l0 8.765625l-2.984375 0l0 -12.0l2.453125 0l0.171875 0.9375q1.390625 -1.125 3.0625 -1.125q1.109375 0 2.09375 0.46875q0.984375 0.46875 1.578125 1.34375q0.171875 -0.328125 0.53125 -0.65625q0.375 -0.328125 0.890625 -0.578125q0.53125 -0.265625 1.171875 -0.421875q0.640625 -0.15625 1.390625 -0.15625q1.171875 0 2.078125 0.40625q0.90625 0.40625 1.5 1.15625q0.59375 0.734375 0.890625 1.8125q0.3125 1.0625 0.3125 2.359375l0 6.453125zm12.783936 -5.359375l-7.75 0q0.25 1.5625 1.265625 2.359375q1.015625 0.796875 2.3125 0.796875q0.40625 0 0.890625 -0.078125q0.484375 -0.078125 0.96875 -0.203125q0.5 -0.125 0.96875 -0.296875q0.484375 -0.1875 0.875 -0.40625l0.140625 2.515625q-1.75 0.90625 -4.015625 0.90625q-1.578125 0 -2.796875 -0.46875q-1.203125 -0.484375 -2.03125 -1.3125q-0.828125 -0.828125 -1.25 -1.96875q-0.421875 -1.140625 -0.421875 -2.453125q0 -1.296875 0.390625 -2.421875q0.40625 -1.140625 1.140625 -1.984375q0.75 -0.859375 1.8125 -1.328125q1.078125 -0.484375 2.421875 -0.484375q1.125 0 2.09375 0.375q0.96875 0.359375 1.671875 1.046875q0.71875 0.6875 1.109375 1.65625q0.40625 0.953125 0.40625 2.125q0 0.671875 -0.203125 1.625zm-7.671875 -2.015625l4.84375 0q0 -0.921875 -0.53125 -1.640625q-0.53125 -0.734375 -1.625 -0.734375q-1.109375 0 -1.78125 0.65625q-0.671875 0.640625 -0.90625 1.71875zm14.328735 5.171875l-0.265625 2.4375l-1.078125 0q-1.546875 0 -2.3125 -0.875q-0.765625 -0.875 -0.765625 -2.265625l0 -15.09375l2.984375 0l0 13.875q0 0.6875 0.03125 1.078125q0.03125 0.390625 0.171875 0.578125q0.15625 0.171875 0.4375 0.21875q0.28125 0.046875 0.796875 0.046875z" fill-rule="nonzero"></path><path fill="#000000" fill-opacity="0.0" d="m456.98547 12.787882l187.05511 0l0 63.779526l-187.05511 0z" fill-rule="nonzero"></path><path fill="#0b5394" d="m480.8974 44.827885l-9.984375 0l0 -16.796877l3.078125 0l0 13.828127l6.90625 0l0 2.96875zm11.6874695 -5.359375l-7.75 0q0.25 1.5625 1.265625 2.359375q1.015625 0.796875 2.3125 0.796875q0.40625 0 0.890625 -0.078125q0.484375 -0.078125 0.96875 -0.203125q0.5 -0.125 0.96875 -0.296875q0.484375 -0.1875 0.875 -0.40625l0.140625 2.515625q-1.75 0.90625 -4.015625 0.90625q-1.578125 0 -2.796875 -0.46875q-1.203125 -0.484375 -2.03125 -1.3125q-0.828125 -0.828125 -1.25 -1.96875q-0.421875 -1.140625 -0.421875 -2.453125q0 -1.296875 0.390625 -2.421875q0.40625 -1.140625 1.140625 -1.984375q0.75 -0.859375 1.8125 -1.328125q1.078125 -0.484375 2.421875 -0.484375q1.125 0 2.09375 0.375q0.96875 0.359375 1.671875 1.046875q0.71875 0.6875 1.109375 1.65625q0.40625 0.953125 0.40625 2.125q0 0.671875 -0.203125 1.625zm-7.671875 -2.015625l4.84375 0q0 -0.921875 -0.53125 -1.640625q-0.53125 -0.734375 -1.625 -0.734375q-1.109375 0 -1.78125 0.65625q-0.671875 0.640625 -0.90625 1.71875zm12.891205 -6.453127l-2.984375 0l0 -2.96875l2.984375 0l0 2.96875zm0 13.828127l-2.984375 0l0 -12.0l2.984375 0l0 12.0zm6.1818542 0.234375q-2.734375 0 -4.046875 -0.875l0.265625 -2.546875q0.28125 0.21875 0.71875 0.4375q0.453125 0.203125 0.9375 0.375q0.5 0.171875 1.015625 0.28125q0.53125 0.109375 1.015625 0.109375q1.015625 0 1.421875 -0.390625q0.40625 -0.390625 0.40625 -0.9375q0 -0.53125 -0.296875 -0.796875q-0.28125 -0.28125 -0.828125 -0.484375q-0.53125 -0.203125 -1.296875 -0.421875q-0.765625 -0.234375 -1.734375 -0.71875q-0.71875 -0.40625 -1.078125 -0.984375q-0.359375 -0.59375 -0.4375 -1.65625q0 -0.75 0.25 -1.421875q0.265625 -0.6875 0.78125 -1.21875q0.53125 -0.53125 1.359375 -0.84375q0.828125 -0.328125 2.0 -0.328125q1.109375 0 2.171875 0.265625q1.078125 0.265625 1.609375 0.625l-0.265625 2.53125q-0.265625 -0.234375 -0.640625 -0.46875q-0.375 -0.25 -0.8125 -0.421875q-0.421875 -0.1875 -0.90625 -0.296875q-0.484375 -0.109375 -0.9375 -0.109375q-0.859375 0 -1.421875 0.328125q-0.5625 0.328125 -0.5625 1.0q0 0.578125 0.359375 0.875q0.375 0.28125 1.0 0.515625l0.40625 0.125q0.15625 0.046875 0.46875 0.125q0.328125 0.078125 0.5 0.140625q0.734375 0.203125 1.34375 0.5q0.625 0.28125 1.046875 0.71875q0.4375 0.4375 0.65625 1.03125q0.234375 0.59375 0.234375 1.421875q0 3.515625 -4.703125 3.515625zm13.058258 -2.4375l-0.265625 2.4375l-2.140625 0q-0.78125 0 -1.390625 -0.25q-0.59375 -0.25 -1.0 -0.671875q-0.40628052 -0.421875 -0.6094055 -0.984375q-0.203125 -0.578125 -0.203125 -1.234375l0 -6.640625l-1.703125 0l0.25 -2.453125l1.453125 0l0 -2.640627l2.9687805 -0.3125l0 2.953127l2.640625 0l0 2.453125l-2.640625 0l0 5.421875q0 0.6875 0.046875 1.078125q0.046875 0.390625 0.21875 0.578125q0.1875 0.1875 0.546875 0.234375q0.359375 0.03125 1.015625 0.03125l0.8125 0zm12.412231 2.203125l-2.78125 0l-0.046875 -0.71875q-1.25 0.953125 -2.671875 0.953125q-5.09375 0 -5.09375 -5.78125l0 -6.453125l2.984375 0l0 6.453125q0 1.6875 0.5625 2.5q0.5625 0.796875 1.8125 0.796875q1.390625 0 2.25 -1.015625l0 -8.734375l2.984375 0l0 12.0zm13.3573 0l-2.96875 0l0 -6.453125q0 -1.6875 -0.5625 -2.484375q-0.5625 -0.8125 -1.8125 -0.8125q-1.375 0 -2.25 1.03125l0 8.71875l-2.984375 0l0 -12.0l2.78125 0l0.046875 0.71875q1.28125 -0.90625 2.640625 -0.90625q5.109375 0 5.109375 5.734375l0 6.453125zm7.513611 6.0q-1.390625 0 -2.453125 -0.296875q-1.046875 -0.28125 -1.765625 -0.765625q-0.71875 -0.46875 -1.078125 -1.125q-0.359375 -0.640625 -0.359375 -1.359375q0 -1.65625 1.96875 -2.6875q-1.078125 -0.671875 -1.078125 -1.734375q0 -1.0625 1.1875 -1.625q-1.84375 -1.34375 -1.84375 -3.875q0 -1.0 0.328125 -1.859375q0.34375 -0.875 0.984375 -1.5q0.640625 -0.640625 1.53125 -1.0q0.90625 -0.359375 2.03125 -0.359375q1.609375 0 2.734375 0.71875q0.96875 -0.53125 2.5625 -0.53125l0.78125 0l-0.203125 1.875l-1.078125 0q-0.1875 0 -0.375 0q-0.171875 0 -0.296875 0.015625q0.71875 1.140625 0.71875 2.640625q0 0.984375 -0.328125 1.859375q-0.3125 0.859375 -0.9375 1.5q-0.609375 0.625 -1.515625 1.0q-0.90625 0.375 -2.0625 0.375q-0.3125 0 -0.625 -0.03125q-0.3125 -0.046875 -0.640625 -0.09375q-0.265625 0.125 -0.265625 0.390625q0 0.421875 0.65625 0.59375q0.65625 0.171875 2.34375 0.390625q0.78125 0.09375 1.609375 0.28125q0.828125 0.171875 1.515625 0.578125q0.6875 0.390625 1.15625 1.046875q0.46875 0.65625 0.53125 1.71875q0 1.796875 -1.484375 2.828125q-1.484375 1.03125 -4.25 1.03125zm-0.546875 -16.015625q-1.078125 0 -1.640625 0.6875q-0.5625 0.6875 -0.5625 1.859375q0 1.1875 0.5625 1.875q0.5625 0.671875 1.640625 0.671875q1.078125 0 1.625 -0.671875q0.5625 -0.6875 0.5625 -1.875q0 -1.171875 -0.5625 -1.859375q-0.546875 -0.6875 -1.625 -0.6875zm0.453125 10.734375q-0.640625 -0.078125 -1.4375 -0.21875q-1.65625 0.5625 -1.65625 1.65625q0 0.796875 0.796875 1.265625q0.8125 0.46875 2.25 0.46875q1.4375 0 2.34375 -0.4375q0.90625 -0.421875 0.90625 -1.203125q0 -0.765625 -0.90625 -1.078125q-0.90625 -0.3125 -2.296875 -0.453125zm10.680176 -0.484375q-2.734375 0 -4.046875 -0.875l0.265625 -2.546875q0.28125 0.21875 0.71875 0.4375q0.453125 0.203125 0.9375 0.375q0.5 0.171875 1.015625 0.28125q0.53125 0.109375 1.015625 0.109375q1.015625 0 1.421875 -0.390625q0.40625 -0.390625 0.40625 -0.9375q0 -0.53125 -0.296875 -0.796875q-0.28125 -0.28125 -0.828125 -0.484375q-0.53125 -0.203125 -1.296875 -0.421875q-0.765625 -0.234375 -1.734375 -0.71875q-0.71875 -0.40625 -1.078125 -0.984375q-0.359375 -0.59375 -0.4375 -1.65625q0 -0.75 0.25 -1.421875q0.265625 -0.6875 0.78125 -1.21875q0.53125 -0.53125 1.359375 -0.84375q0.828125 -0.328125 2.0 -0.328125q1.109375 0 2.171875 0.265625q1.078125 0.265625 1.609375 0.625l-0.265625 2.53125q-0.265625 -0.234375 -0.640625 -0.46875q-0.375 -0.25 -0.8125 -0.421875q-0.421875 -0.1875 -0.90625 -0.296875q-0.484375 -0.109375 -0.9375 -0.109375q-0.859375 0 -1.421875 0.328125q-0.5625 0.328125 -0.5625 1.0q0 0.578125 0.359375 0.875q0.375 0.28125 1.0 0.515625l0.40625 0.125q0.15625 0.046875 0.46875 0.125q0.328125 0.078125 0.5 0.140625q0.734375 0.203125 1.34375 0.5q0.625 0.28125 1.046875 0.71875q0.4375 0.4375 0.65625 1.03125q0.234375 0.59375 0.234375 1.421875q0 3.515625 -4.703125 3.515625zm12.526978 0q-1.609375 0 -2.796875 -0.8125l0 6.390625l-2.984375 0l0 -17.8125l2.59375 0l0.234375 0.703125q1.328125 -0.890625 2.953125 -0.890625q1.375 0 2.46875 0.484375q1.09375 0.46875 1.84375 1.3125q0.75 0.84375 1.15625 1.984375q0.421875 1.140625 0.421875 2.4375q0 1.28125 -0.40625 2.421875q-0.390625 1.125 -1.140625 1.984375q-0.734375 0.84375 -1.84375 1.328125q-1.109375 0.46875 -2.5 0.46875zm-0.1875 -9.984375q-1.390625 0 -2.078125 1.015625q-0.6875 1.0 -0.6875 2.765625q0 1.75 0.6875 2.765625q0.6875 1.0 2.078125 1.0q1.4375 0 2.234375 -1.015625q0.796875 -1.03125 0.796875 -2.75q0 -1.734375 -0.796875 -2.75q-0.796875 -1.03125 -2.234375 -1.03125zm14.977966 -2.4375l-0.578125 2.796875l-1.109375 0q-0.71875 0 -1.328125 0.34375q-0.59375 0.328125 -0.84375 0.859375l0 8.1875l-2.984375 0l0 -12.0l2.78125 0l0.078125 1.265625q1.390625 -1.453125 3.1875 -1.453125l0.796875 0zm11.129883 10.625q-1.625 1.796875 -4.40625 1.796875q-1.390625 0 -2.515625 -0.46875q-1.109375 -0.484375 -1.90625 -1.328125q-0.796875 -0.84375 -1.234375 -1.96875q-0.421875 -1.125 -0.421875 -2.4375q0 -1.296875 0.421875 -2.4375q0.4375 -1.140625 1.234375 -1.984375q0.796875 -0.84375 1.90625 -1.3125q1.125 -0.484375 2.515625 -0.484375q1.390625 0 2.515625 0.5q1.125 0.484375 1.90625 1.328125q0.796875 0.828125 1.21875 1.96875q0.421875 1.125 0.421875 2.421875q0 2.609375 -1.65625 4.40625zm-2.203125 -7.15625q-0.796875 -1.03125 -2.203125 -1.03125q-1.453125 0 -2.25 1.03125q-0.78125 1.03125 -0.78125 2.75q0 1.703125 0.78125 2.734375q0.796875 1.03125 2.25 1.03125q1.4375 0 2.21875 -1.046875q0.796875 -1.0625 0.796875 -2.71875q0 -1.71875 -0.8125 -2.75zm12.269226 -0.828125l-2.640625 0l0 9.546875l-2.984375 0l0 -9.546875l-1.703125 0l0.265625 -2.453125l1.4375 0l0 -2.859377q0 -0.625 0.1875 -1.1875q0.203125 -0.578125 0.5625 -1.015625q0.359375 -0.4375 0.890625 -0.6875q0.546875 -0.25 1.234375 -0.25q1.140625 0 2.71875 0.140625l-0.265625 2.46875q-0.265625 -0.046875 -0.578125 -0.078125q-0.3125 -0.03125 -0.6875 -0.03125q-0.65625 0 -0.875 0.390625q-0.203125 0.375 -0.203125 1.484375l0 1.6250019l2.640625 0l0 2.453125zm4.800598 -4.281252l-2.984375 0l0 -2.96875l2.984375 0l0 2.96875zm0 13.828127l-2.984375 0l0 -12.0l2.984375 0l0 12.0zm7.1974487 -2.203125l-0.265625 2.4375l-1.078125 0q-1.546875 0 -2.3125 -0.875q-0.765625 -0.875 -0.765625 -2.265625l0 -15.093752l2.984375 0l0 13.875002q0 0.6875 0.03125 1.078125q0.03125 0.390625 0.171875 0.578125q0.15625 0.171875 0.4375 0.21875q0.28125 0.046875 0.796875 0.046875zm9.233887 -3.3125l-7.4375 0l0 -2.265625l7.4375 0l0 2.265625z" fill-rule="nonzero"></path><path fill="#0b5394" d="m498.2375 72.26538q-1.625 1.796875 -4.40625 1.796875q-1.390625 0 -2.515625 -0.46875q-1.109375 -0.484375 -1.90625 -1.328125q-0.796875 -0.84375 -1.234375 -1.96875q-0.421875 -1.125 -0.421875 -2.4375q0 -1.296875 0.421875 -2.4375q0.4375 -1.140625 1.234375 -1.9843712q0.796875 -0.84375 1.90625 -1.3125q1.125 -0.484375 2.515625 -0.484375q1.390625 0 2.515625 0.5q1.125 0.484375 1.90625 1.328125q0.796875 0.8281212 1.21875 1.9687462q0.421875 1.125 0.421875 2.421875q0 2.609375 -1.65625 4.40625zm-2.203125 -7.15625q-0.796875 -1.03125 -2.203125 -1.03125q-1.453125 0 -2.25 1.03125q-0.78125 1.03125 -0.78125 2.75q0 1.703125 0.78125 2.734375q0.796875 1.03125 2.25 1.03125q1.4375 0 2.21875 -1.046875q0.796875 -1.0625 0.796875 -2.71875q0 -1.71875 -0.8125 -2.75zm11.706696 8.953125q-1.609375 0 -2.796875 -0.8125l0 6.390625l-2.984375 0l0 -17.812496l2.59375 0l0.234375 0.703125q1.328125 -0.890625 2.953125 -0.890625q1.375 0 2.46875 0.484375q1.09375 0.46875 1.8437805 1.3125q0.75 0.8437462 1.15625 1.9843712q0.421875 1.140625 0.421875 2.4375q0 1.28125 -0.40625 2.421875q-0.390625 1.125 -1.140625 1.984375q-0.7344055 0.84375 -1.8437805 1.328125q-1.109375 0.46875 -2.5 0.46875zm-0.1875 -9.984375q-1.390625 0 -2.078125 1.015625q-0.6875 1.0 -0.6875 2.765625q0 1.75 0.6875 2.765625q0.6875 1.0 2.078125 1.0q1.4375 0 2.234375 -1.015625q0.796875 -1.03125 0.796875 -2.75q0 -1.734375 -0.796875 -2.75q-0.796875 -1.03125 -2.234375 -1.03125zm14.446747 7.546875l-0.265625 2.4375l-2.140625 0q-0.78125 0 -1.390625 -0.25q-0.59375 -0.25 -1.0 -0.671875q-0.40625 -0.421875 -0.609375 -0.984375q-0.203125 -0.578125 -0.203125 -1.234375l0 -6.640625l-1.703125 0l0.25 -2.4531212l1.453125 0l0 -2.640625l2.96875 -0.3125l0 2.953125l2.640625 0l0 2.4531212l-2.640625 0l0 5.421875q0 0.6875 0.046875 1.078125q0.046875 0.390625 0.21875 0.578125q0.1875 0.1875 0.546875 0.234375q0.359375 0.03125 1.015625 0.03125l0.8125 0zm4.9278564 -11.624996l-2.984375 0l0 -2.96875l2.984375 0l0 2.96875zm0 13.828121l-2.984375 0l0 -11.999996l2.984375 0l0 11.999996zm20.900574 0l-2.984375 0l0 -6.453125q0 -1.734375 -0.5 -2.515625q-0.5 -0.78125 -1.734375 -0.78125q-1.34375 0 -1.859375 0.625q-0.515625 0.625 -0.515625 1.703125l0 7.421875l-2.953125 0l0 -6.453125q0 -0.9375 -0.125 -1.5625q-0.125 -0.640625 -0.421875 -1.03125q-0.28125 -0.390625 -0.75 -0.546875q-0.453125 -0.15625 -1.09375 -0.15625q-1.375 0 -2.203125 0.984375l0 8.765625l-2.984375 0l0 -11.999996l2.453125 0l0.171875 0.9375q1.390625 -1.125 3.0625 -1.125q1.109375 0 2.09375 0.46875q0.984375 0.46875 1.578125 1.34375q0.171875 -0.328125 0.53125 -0.65625q0.375 -0.328125 0.890625 -0.578125q0.53125 -0.265625 1.171875 -0.421875q0.640625 -0.15625 1.390625 -0.15625q1.171875 0 2.078125 0.40625q0.90625 0.40625 1.5 1.15625q0.59375 0.734375 0.890625 1.8124962q0.3125 1.0625 0.3125 2.359375l0 6.453125zm5.6433105 -13.828121l-2.984375 0l0 -2.96875l2.984375 0l0 2.96875zm0 13.828121l-2.984375 0l0 -11.999996l2.984375 0l0 11.999996zm12.900635 -5.359375l-7.75 0q0.25 1.5625 1.265625 2.359375q1.015625 0.796875 2.3125 0.796875q0.40625 0 0.890625 -0.078125q0.484375 -0.078125 0.96875 -0.203125q0.5 -0.125 0.96875 -0.296875q0.484375 -0.1875 0.875 -0.40625l0.140625 2.515625q-1.75 0.90625 -4.015625 0.90625q-1.578125 0 -2.796875 -0.46875q-1.203125 -0.484375 -2.03125 -1.3125q-0.828125 -0.828125 -1.25 -1.96875q-0.421875 -1.140625 -0.421875 -2.453125q0 -1.296875 0.390625 -2.421875q0.40625 -1.140625 1.140625 -1.9843712q0.75 -0.859375 1.8125 -1.328125q1.078125 -0.484375 2.421875 -0.484375q1.125 0 2.09375 0.375q0.96875 0.359375 1.671875 1.046875q0.71875 0.6875 1.109375 1.6562462q0.40625 0.953125 0.40625 2.125q0 0.671875 -0.203125 1.625zm-7.671875 -2.015625l4.84375 0q0 -0.921875 -0.53125 -1.640625q-0.53125 -0.734375 -1.625 -0.734375q-1.109375 0 -1.78125 0.65625q-0.671875 0.640625 -0.90625 1.71875zm16.75055 -4.812496l-0.578125 2.7968712l-1.109375 0q-0.71875 0 -1.328125 0.34375q-0.59375 0.328125 -0.84375 0.859375l0 8.1875l-2.984375 0l0 -11.999996l2.78125 0l0.078125 1.265625q1.390625 -1.453125 3.1875 -1.453125l0.796875 0zm11.833008 12.187496l-2.78125 0l-0.046875 -0.71875q-1.25 0.953125 -2.671875 0.953125q-5.09375 0 -5.09375 -5.78125l0 -6.453121l2.984375 0l0 6.453121q0 1.6875 0.5625 2.5q0.5625 0.796875 1.8125 0.796875q1.390625 0 2.25 -1.015625l0 -8.734371l2.984375 0l0 11.999996zm13.3573 0l-2.96875 0l0 -6.453125q0 -1.6875 -0.5625 -2.484375q-0.5625 -0.8125 -1.8125 -0.8125q-1.375 0 -2.25 1.03125l0 8.71875l-2.984375 0l0 -11.999996l2.78125 0l0.046875 0.71875q1.28125 -0.90625 2.640625 -0.90625q5.109375 0 5.109375 5.734371l0 6.453125zm7.513611 6.0q-1.390625 0 -2.453125 -0.296875q-1.046875 -0.28125 -1.765625 -0.765625q-0.71875 -0.46875 -1.078125 -1.125q-0.359375 -0.640625 -0.359375 -1.359375q0 -1.65625 1.96875 -2.6875q-1.078125 -0.671875 -1.078125 -1.734375q0 -1.0625 1.1875 -1.625q-1.84375 -1.34375 -1.84375 -3.875q0 -1.0 0.328125 -1.859375q0.34375 -0.8749962 0.984375 -1.4999962q0.640625 -0.640625 1.53125 -1.0q0.90625 -0.359375 2.03125 -0.359375q1.609375 0 2.734375 0.71875q0.96875 -0.53125 2.5625 -0.53125l0.78125 0l-0.203125 1.875l-1.078125 0q-0.1875 0 -0.375 0q-0.171875 0 -0.296875 0.015625q0.71875 1.1406212 0.71875 2.6406212q0 0.984375 -0.328125 1.859375q-0.3125 0.859375 -0.9375 1.5q-0.609375 0.625 -1.515625 1.0q-0.90625 0.375 -2.0625 0.375q-0.3125 0 -0.625 -0.03125q-0.3125 -0.046875 -0.640625 -0.09375q-0.265625 0.125 -0.265625 0.390625q0 0.421875 0.65625 0.59375q0.65625 0.171875 2.34375 0.390625q0.78125 0.09375 1.609375 0.28125q0.828125 0.171875 1.515625 0.578125q0.6875 0.390625 1.15625 1.046875q0.46875 0.65625 0.53125 1.71875q0 1.796875 -1.484375 2.828125q-1.484375 1.03125 -4.25 1.03125zm-0.546875 -16.015621q-1.078125 0 -1.640625 0.6874962q-0.5625 0.6875 -0.5625 1.859375q0 1.1875 0.5625 1.875q0.5625 0.671875 1.640625 0.671875q1.078125 0 1.625 -0.671875q0.5625 -0.6875 0.5625 -1.875q0 -1.171875 -0.5625 -1.859375q-0.546875 -0.6874962 -1.625 -0.6874962zm0.453125 10.734371q-0.640625 -0.078125 -1.4375 -0.21875q-1.65625 0.5625 -1.65625 1.65625q0 0.796875 0.796875 1.265625q0.8125 0.46875 2.25 0.46875q1.4375 0 2.34375 -0.4375q0.90625 -0.421875 0.90625 -1.203125q0 -0.765625 -0.90625 -1.078125q-0.90625 -0.3125 -2.296875 -0.453125z" fill-rule="nonzero"></path><path fill="#000000" fill-opacity="0.0" d="m672.7434 37.44357l149.4173 0l0 49.44882l-149.4173 0z" fill-rule="nonzero"></path><path fill="#3d85c6" d="m683.39966 62.280445l0 -9.59375l3.078125 0l0 8.5625q0 1.34375 0.1875 2.390625q0.1875 1.0468788 0.625 1.7656288q0.453125 0.71875 1.1875 1.09375q0.75 0.375 1.875 0.375q1.109375 0 1.859375 -0.375q0.765625 -0.375 1.203125 -1.09375q0.453125 -0.71875 0.640625 -1.7656288q0.1875 -1.046875 0.1875 -2.390625l0 -8.5625l3.078125 0l0 9.59375q0 3.5312538 -1.75 5.546879q-1.75 2.0 -5.21875 2.0q-3.453125 0 -5.203125 -2.0q-1.75 -2.015625 -1.75 -5.546879zm35.09131 7.203129l-2.984375 0l0 -6.453129q0 -1.734375 -0.5 -2.515625q-0.5 -0.78125 -1.734375 -0.78125q-1.34375 0 -1.859375 0.625q-0.515625 0.625 -0.515625 1.703125l0 7.421879l-2.953125 0l0 -6.453129q0 -0.9375 -0.125 -1.5625q-0.125 -0.640625 -0.421875 -1.03125q-0.28125 -0.390625 -0.75 -0.546875q-0.453125 -0.15625 -1.09375 -0.15625q-1.375 0 -2.203125 0.984375l0 8.765629l-2.984375 0l0 -12.000004l2.453125 0l0.171875 0.9375q1.390625 -1.125 3.0625 -1.125q1.109375 0 2.09375 0.46875q0.984375 0.46875 1.578125 1.34375q0.171875 -0.328125 0.53125 -0.65625q0.375 -0.328125 0.890625 -0.578125q0.53125 -0.265625 1.171875 -0.421875q0.640625 -0.15625 1.390625 -0.15625q1.171875 0 2.078125 0.40625q0.90625 0.40625 1.5 1.15625q0.59375 0.734375 0.890625 1.8125q0.3125 1.0625 0.3125 2.359375l0 6.453129zm6.0651855 0.234375q-2.734375 0 -4.046875 -0.875l0.265625 -2.546875q0.28125 0.21875 0.71875 0.4375q0.453125 0.203125 0.9375 0.375q0.5 0.171875 1.015625 0.28125q0.53125 0.109375 1.015625 0.109375q1.015625 0 1.421875 -0.390625q0.40625 -0.390625 0.40625 -0.9375q0 -0.53125 -0.296875 -0.796875q-0.28125 -0.28125 -0.828125 -0.484375q-0.53125 -0.203125 -1.296875 -0.421875q-0.765625 -0.234375 -1.734375 -0.7187538q-0.71875 -0.40625 -1.078125 -0.984375q-0.359375 -0.59375 -0.4375 -1.65625q0 -0.75 0.25 -1.421875q0.265625 -0.6875 0.78125 -1.21875q0.53125 -0.53125 1.359375 -0.84375q0.828125 -0.328125 2.0 -0.328125q1.109375 0 2.171875 0.265625q1.078125 0.265625 1.609375 0.625l-0.265625 2.53125q-0.265625 -0.234375 -0.640625 -0.46875q-0.375 -0.25 -0.8125 -0.421875q-0.421875 -0.1875 -0.90625 -0.296875q-0.484375 -0.109375 -0.9375 -0.109375q-0.859375 0 -1.421875 0.328125q-0.5625 0.328125 -0.5625 1.0q0 0.578125 0.359375 0.875q0.375 0.28125 1.0 0.515625l0.40625 0.125q0.15625 0.046875 0.46875 0.125q0.328125 0.078125 0.5 0.140625q0.734375 0.203125 1.34375 0.5q0.625 0.28125 1.046875 0.71875q0.4375 0.4375038 0.65625 1.0312538q0.234375 0.59375 0.234375 1.421875q0 3.515625 -4.703125 3.515625zm16.870728 -5.59375l-7.75 0q0.25 1.5625 1.265625 2.359375q1.015625 0.796875 2.3125 0.796875q0.40625 0 0.890625 -0.078125q0.484375 -0.078125 0.96875 -0.203125q0.5 -0.125 0.96875 -0.296875q0.484375 -0.1875 0.875 -0.40625l0.140625 2.515625q-1.75 0.90625 -4.015625 0.90625q-1.578125 0 -2.796875 -0.46875q-1.203125 -0.484375 -2.03125 -1.3125q-0.828125 -0.828125 -1.25 -1.96875q-0.421875 -1.140625 -0.421875 -2.4531288q0 -1.296875 0.390625 -2.421875q0.40625 -1.140625 1.140625 -1.984375q0.75 -0.859375 1.8125 -1.328125q1.078125 -0.484375 2.421875 -0.484375q1.125 0 2.09375 0.375q0.96875 0.359375 1.671875 1.046875q0.71875 0.6875 1.109375 1.65625q0.40625 0.953125 0.40625 2.125q0 0.671875 -0.203125 1.6250038zm-7.671875 -2.0156288l4.84375 0q0 -0.921875 -0.53125 -1.640625q-0.53125 -0.734375 -1.625 -0.734375q-1.109375 0 -1.78125 0.65625q-0.671875 0.640625 -0.90625 1.71875zm16.21936 5.171879l-0.265625 2.4375l-2.140625 0q-0.78125 0 -1.390625 -0.25q-0.59375 -0.25 -1.0 -0.671875q-0.40625 -0.421875 -0.609375 -0.984375q-0.203125 -0.578125 -0.203125 -1.234375l0 -6.640629l-1.703125 0l0.25 -2.453125l1.453125 0l0 -2.640625l2.96875 -0.3125l0 2.953125l2.640625 0l0 2.453125l-2.640625 0l0 5.421879q0 0.6875 0.046875 1.078125q0.046875 0.390625 0.21875 0.578125q0.1875 0.1875 0.546875 0.234375q0.359375 0.03125 1.015625 0.03125l0.8125 0zm11.396606 -9.796879l-5.296875 9.359379l5.03125 0l0 2.640625l-10.078125 0l5.3125 -9.359379l-5.0625 0l0 -2.640625l10.09375 0zm12.343567 12.000004l-2.78125 0l-0.046875 -0.71875q-1.25 0.953125 -2.671875 0.953125q-5.09375 0 -5.09375 -5.781254l0 -6.453125l2.984375 0l0 6.453125q0 1.6875038 0.5625 2.5000038q0.5625 0.796875 1.8125 0.796875q1.390625 0 2.25 -1.015625l0 -8.734379l2.984375 0l0 12.000004zm13.357361 0l-2.96875 0l0 -6.453129q0 -1.6875 -0.5625 -2.484375q-0.5625 -0.8125 -1.8125 -0.8125q-1.375 0 -2.25 1.03125l0 8.718754l-2.984375 0l0 -12.000004l2.78125 0l0.046875 0.71875q1.28125 -0.90625 2.640625 -0.90625q5.109375 0 5.109375 5.734375l0 6.453129zm7.51355 6.0q-1.390625 0 -2.453125 -0.296875q-1.046875 -0.28125 -1.765625 -0.765625q-0.71875 -0.46875 -1.078125 -1.125q-0.359375 -0.640625 -0.359375 -1.359375q0 -1.65625 1.96875 -2.6875q-1.078125 -0.671875 -1.078125 -1.734375q0 -1.0625 1.1875 -1.625q-1.84375 -1.34375 -1.84375 -3.8750038q0 -1.0 0.328125 -1.859375q0.34375 -0.875 0.984375 -1.5q0.640625 -0.640625 1.53125 -1.0q0.90625 -0.359375 2.03125 -0.359375q1.609375 0 2.734375 0.71875q0.96875 -0.53125 2.5625 -0.53125l0.78125 0l-0.203125 1.875l-1.078125 0q-0.1875 0 -0.375 0q-0.171875 0 -0.296875 0.015625q0.71875 1.140625 0.71875 2.640625q0 0.984375 -0.328125 1.859375q-0.3125 0.8593788 -0.9375 1.5000038q-0.609375 0.625 -1.515625 1.0q-0.90625 0.375 -2.0625 0.375q-0.3125 0 -0.625 -0.03125q-0.3125 -0.046875 -0.640625 -0.09375q-0.265625 0.125 -0.265625 0.390625q0 0.421875 0.65625 0.59375q0.65625 0.171875 2.34375 0.390625q0.78125 0.09375 1.609375 0.28125q0.828125 0.171875 1.515625 0.578125q0.6875 0.390625 1.15625 1.046875q0.46875 0.65625 0.53125 1.71875q0 1.796875 -1.484375 2.828125q-1.484375 1.03125 -4.25 1.03125zm-0.546875 -16.015629q-1.078125 0 -1.640625 0.6875q-0.5625 0.6875 -0.5625 1.859375q0 1.1875 0.5625 1.875q0.5625 0.6718788 1.640625 0.6718788q1.078125 0 1.625 -0.6718788q0.5625 -0.6875 0.5625 -1.875q0 -1.171875 -0.5625 -1.859375q-0.546875 -0.6875 -1.625 -0.6875zm0.453125 10.734379q-0.640625 -0.078125 -1.4375 -0.21875q-1.65625 0.5625 -1.65625 1.65625q0 0.796875 0.796875 1.265625q0.8125 0.46875 2.25 0.46875q1.4375 0 2.34375 -0.4375q0.90625 -0.421875 0.90625 -1.203125q0 -0.765625 -0.90625 -1.078125q-0.90625 -0.3125 -2.296875 -0.453125z" fill-rule="nonzero"></path><path fill="#000000" fill-opacity="0.0" d="m679.38684 277.55228l149.41736 0l0 49.448822l-149.41736 0z" fill-rule="nonzero"></path><path fill="#3d85c6" d="m704.63684 298.83478l-9.6875 0l0 4.78125l7.484375 0l0 3.953125l-7.484375 0l0 9.703125l-4.09375 0l0 -22.40625l13.78125 0l0 3.96875zm16.128174 15.5l-0.34375 3.25l-1.4375 0q-2.59375 0 -3.59375 -1.84375q-1.65625 1.84375 -4.890625 1.84375q-1.0 0 -1.84375 -0.328125q-0.84375 -0.34375 -1.46875 -0.953125q-0.625 -0.625 -0.984375 -1.5q-0.34375 -0.890625 -0.34375 -2.015625q0 -1.625 0.953125 -2.703125q0.96875 -1.09375 2.34375 -1.75q1.375 -0.65625 2.921875 -0.9375q1.5625 -0.296875 2.765625 -0.328125q-0.0625 -1.4375 -0.703125 -2.03125q-0.640625 -0.59375 -2.171875 -0.59375q-1.890625 0 -4.375 1.21875l-0.359375 -3.234375q2.984375 -1.40625 5.828125 -1.40625q5.78125 0 5.78125 6.421875l0 4.328125q0 0.859375 0.046875 1.375q0.0625 0.515625 0.203125 0.78125q0.140625 0.265625 0.421875 0.34375q0.296875 0.0625 0.75 0.0625l0.5 0zm-5.875 -0.9375l0 -3.640625q-0.9375 0.0625 -1.8125 0.25q-0.875 0.1875 -1.5625 0.5625q-0.671875 0.359375 -1.09375 0.875q-0.40625 0.515625 -0.40625 1.1875q0 1.921875 2.140625 1.921875q1.515625 0 2.734375 -1.15625zm20.70166 -12.125l-7.078125 12.484375l6.71875 0l0 3.515625l-13.4375 0l7.078125 -12.484375l-6.765625 0l0 -3.515625l13.484375 0zm6.46344 -2.4375l-3.96875 0l0 -3.96875l3.96875 0l0 3.96875zm0 18.4375l-3.96875 0l0 -16.0l3.96875 0l0 16.0zm12.117493 -2.9375l-0.34375 3.25l-2.84375 0q-1.0625 0 -1.859375 -0.328125q-0.796875 -0.34375 -1.34375 -0.890625q-0.546875 -0.5625 -0.828125 -1.328125q-0.265625 -0.78125 -0.265625 -1.640625l0 -8.859375l-2.265625 0l0.34375 -3.265625l1.921875 0l0 -3.515625l3.96875 -0.421875l0 3.9375l3.515625 0l0 3.265625l-3.515625 0l0 7.234375q0 0.921875 0.0625 1.4375q0.0625 0.515625 0.296875 0.765625q0.25 0.25 0.71875 0.3125q0.484375 0.046875 1.359375 0.046875l1.078125 0z" fill-rule="nonzero"></path></g></svg>

