<?xml version="1.0" standalone="yes"?>

<svg version="1.1" viewBox="0.0 0.0 961.7637795275591 679.4120734908137" fill="none" stroke="none" stroke-linecap="square" stroke-miterlimit="10" xmlns="http://www.w3.org/2000/svg" xmlns:xlink="http://www.w3.org/1999/xlink"><clipPath id="p.0"><path d="m0 0l961.7638 0l0 679.41205l-961.7638 0l0 -679.41205z" clip-rule="nonzero"></path></clipPath><g clip-path="url(#p.0)"><path fill="#000000" fill-opacity="0.0" d="m0 0l961.7638 0l0 679.41205l-961.7638 0z" fill-rule="nonzero"></path><path fill="#4a86e8" d="m180.82939 118.608925l36.503937 0l0 26.456688l-36.503937 0z" fill-rule="nonzero"></path><path fill="#cccccc" d="m68.82415 168.52751l0 0c0 -6.3345795 5.1351852 -11.469772 11.469765 -11.469772l3.5171585 0l0 0c3.0419693 0 5.9593506 1.2084198 8.110352 3.3594208c2.1509933 2.151001 3.3594131 5.0683746 3.3594131 8.110352l0 70.603775c0 6.3345795 -5.135193 11.469757 -11.469765 11.469757l-3.5171585 0c-6.3345795 0 -11.469765 -5.1351776 -11.469765 -11.469757z" fill-rule="nonzero"></path><path fill="#cccccc" d="m99.69292 168.52751l0 0c0 -6.3345795 5.1351852 -11.469772 11.469765 -11.469772l3.5171509 0l0 0c3.041977 0 5.959358 1.2084198 8.110359 3.3594208c2.1509933 2.151001 3.3594131 5.0683746 3.3594131 8.110352l0 70.603775c0 6.3345795 -5.135193 11.469757 -11.469772 11.469757l-3.5171509 0c-6.3345795 0 -11.469765 -5.1351776 -11.469765 -11.469757z" fill-rule="nonzero"></path><path fill="#cccccc" d="m68.82415 105.14251l0 0c0 -13.724922 11.126244 -24.851173 24.851166 -24.851173l7.6204987 0l0 0c6.5909348 0 12.911934 2.6182404 17.572426 7.27874c4.6604996 4.6604996 7.27874 10.981491 7.27874 17.572433l0 43.840965c0 13.72493 -11.126244 24.851166 -24.851166 24.851166l-7.6204987 0c-13.724922 0 -24.851166 -11.126236 -24.851166 -24.851166z" fill-rule="nonzero"></path><path fill="#cccccc" d="m126.149605 92.28624l0 0c0 -4.6604385 3.778038 -8.438469 8.438469 -8.438469l2.5876312 0l0 0c2.2380219 0 4.384369 0.8890457 5.9669037 2.4715729c1.5825195 1.5825195 2.4715576 3.7288742 2.4715576 5.966896l0 59.847458c0 4.660446 -3.7780304 8.438477 -8.438461 8.438477l-2.5876312 0c-4.660431 0 -8.438469 -3.7780304 -8.438469 -8.438477z" fill-rule="nonzero"></path><path fill="#cccccc" d="m49.356956 92.28624l0 0c0 -4.6604385 3.7780304 -8.438469 8.438473 -8.438469l2.5876198 0l0 0c2.2380219 0 4.384384 0.8890457 5.9669037 2.4715729c1.5825195 1.5825195 2.4715729 3.7288742 2.4715729 5.966896l0 59.847458c0 4.660446 -3.778038 8.438477 -8.438477 8.438477l-2.5876198 0c-4.6604424 0 -8.438473 -3.7780304 -8.438473 -8.438477z" fill-rule="nonzero"></path><path fill="#cccccc" d="m68.82415 55.18635l0 0c0 -15.829266 12.832153 -28.661417 28.661415 -28.661417l0 0c7.6014786 0 14.891624 3.0196762 20.266678 8.394735c5.375061 5.375057 8.394737 12.665199 8.394737 20.266682l0 0c0 15.829266 -12.832153 28.661419 -28.661415 28.661419l0 0c-15.829262 0 -28.661415 -12.832153 -28.661415 -28.661419z" fill-rule="nonzero"></path><path fill="#cccccc" d="m62.18368 110.30446l0 0c-6.3345795 0 -11.469772 -5.1351852 -11.469772 -11.469765l0 -3.5171585l0 0c0 -3.0419693 1.2084198 -5.9593506 3.3594208 -8.110352c2.1509972 -2.1509933 5.0683784 -3.3594131 8.110352 -3.3594131l70.60376 0c6.3345795 0 11.469772 5.135193 11.469772 11.469765l0 3.5171585c0 6.3345795 -5.135193 11.469765 -11.469772 11.469765z" fill-rule="nonzero"></path><path fill="#4a86e8" d="m104.13123 111.32021c4.7309723 -12.052498 23.181763 0 0 15.496063c-23.181755 -15.496063 -4.7309723 -27.548561 0 -15.496063z" fill-rule="nonzero"></path><path fill="#000000" fill-opacity="0.0" d="m180.0 146.49344l0 -98.83464" fill-rule="nonzero"></path><path stroke="#000000" stroke-width="1.0" stroke-linejoin="round" stroke-linecap="butt" d="m180.0 146.49344l0 -92.83464" fill-rule="evenodd"></path><path fill="#000000" stroke="#000000" stroke-width="1.0" stroke-linecap="butt" d="m181.65173 53.65879l-1.6517334 -4.5380974l-1.6517334 4.5380974z" fill-rule="evenodd"></path><path fill="#000000" fill-opacity="0.0" d="m180.0 145.77292l201.48032 0" fill-rule="nonzero"></path><path stroke="#000000" stroke-width="1.0" stroke-linejoin="round" stroke-linecap="butt" d="m180.0 145.77292l195.48032 0" fill-rule="evenodd"></path><path fill="#000000" stroke="#000000" stroke-width="1.0" stroke-linecap="butt" d="m375.48032 147.42465l4.538086 -1.6517334l-4.538086 -1.6517334z" fill-rule="evenodd"></path><path fill="#4a86e8" d="m218.16273 96.72966l36.503937 0l0 48.34645l-36.503937 0z" fill-rule="nonzero"></path><path fill="#4a86e8" d="m255.49606 72.03937l36.503937 0l0 73.03937l-36.503937 0z" fill-rule="nonzero"></path><path fill="#4a86e8" d="m292.8294 106.81365l36.503937 0l0 38.267708l-36.503937 0z" fill-rule="nonzero"></path><path fill="#4a86e8" d="m330.16272 126.63517l36.503937 0l0 18.425194l-36.503937 0z" fill-rule="nonzero"></path><path fill="#000000" fill-opacity="0.0" d="m393.53018 68.304924l201.48032 0l0 59.30709l-201.48032 0z" fill-rule="nonzero"></path><path fill="#000000" d="m414.3583 100.344925l-9.984375 0l0 -16.796875l3.078125 0l0 13.828125l6.90625 0l0 2.96875zm11.6874695 -5.359375l-7.75 0q0.25 1.5625 1.265625 2.359375q1.015625 0.796875 2.3125 0.796875q0.40625 0 0.890625 -0.078125q0.484375 -0.078125 0.96875 -0.203125q0.5 -0.125 0.96875 -0.296875q0.484375 -0.1875 0.875 -0.40625l0.140625 2.515625q-1.75 0.90625 -4.015625 0.90625q-1.578125 0 -2.796875 -0.46875q-1.203125 -0.484375 -2.03125 -1.3125q-0.828125 -0.828125 -1.25 -1.96875q-0.421875 -1.140625 -0.421875 -2.453125q0 -1.296875 0.390625 -2.421875q0.40625 -1.140625 1.140625 -1.984375q0.75 -0.859375 1.8125 -1.328125q1.078125 -0.484375 2.421875 -0.484375q1.125 0 2.09375 0.375q0.96875 0.359375 1.671875 1.046875q0.71875 0.6875 1.109375 1.65625q0.40625 0.953125 0.40625 2.125q0 0.671875 -0.203125 1.625zm-7.671875 -2.015625l4.84375 0q0 -0.921875 -0.53125 -1.640625q-0.53125 -0.734375 -1.625 -0.734375q-1.109375 0 -1.78125 0.65625q-0.671875 0.640625 -0.90625 1.71875zm12.891235 -6.453125l-2.984375 0l0 -2.96875l2.984375 0l0 2.96875zm0 13.828125l-2.984375 0l0 -12.0l2.984375 0l0 12.0zm6.1818542 0.234375q-2.734375 0 -4.046875 -0.875l0.265625 -2.546875q0.28125 0.21875 0.71875 0.4375q0.453125 0.203125 0.9375 0.375q0.5 0.171875 1.015625 0.28125q0.53125 0.109375 1.015625 0.109375q1.015625 0 1.421875 -0.390625q0.40625 -0.390625 0.40625 -0.9375q0 -0.53125 -0.296875 -0.796875q-0.28125 -0.28125 -0.828125 -0.484375q-0.53125 -0.203125 -1.296875 -0.421875q-0.765625 -0.234375 -1.734375 -0.71875q-0.71875 -0.40625 -1.078125 -0.984375q-0.359375 -0.59375 -0.4375 -1.65625q0 -0.75 0.25 -1.421875q0.265625 -0.6875 0.78125 -1.21875q0.53125 -0.53125 1.359375 -0.84375q0.828125 -0.328125 2.0 -0.328125q1.109375 0 2.171875 0.265625q1.078125 0.265625 1.609375 0.625l-0.265625 2.53125q-0.265625 -0.234375 -0.640625 -0.46875q-0.375 -0.25 -0.8125 -0.421875q-0.421875 -0.1875 -0.90625 -0.296875q-0.484375 -0.109375 -0.9375 -0.109375q-0.859375 0 -1.421875 0.328125q-0.5625 0.328125 -0.5625 1.0q0 0.578125 0.359375 0.875q0.375 0.28125 1.0 0.515625l0.40625 0.125q0.15625 0.046875 0.46875 0.125q0.328125 0.078125 0.5 0.140625q0.734375 0.203125 1.34375 0.5q0.625 0.28125 1.046875 0.71875q0.4375 0.4375 0.65625 1.03125q0.234375 0.59375 0.234375 1.421875q0 3.515625 -4.703125 3.515625zm13.058228 -2.4375l-0.265625 2.4375l-2.140625 0q-0.78125 0 -1.390625 -0.25q-0.59375 -0.25 -1.0 -0.671875q-0.40625 -0.421875 -0.609375 -0.984375q-0.203125 -0.578125 -0.203125 -1.234375l0 -6.640625l-1.703125 0l0.25 -2.453125l1.453125 0l0 -2.640625l2.96875 -0.3125l0 2.953125l2.640625 0l0 2.453125l-2.640625 0l0 5.421875q0 0.6875 0.046875 1.078125q0.046875 0.390625 0.21875 0.578125q0.1875 0.1875 0.546875 0.234375q0.359375 0.03125 1.015625 0.03125l0.8125 0zm12.412231 2.203125l-2.78125 0l-0.046875 -0.71875q-1.25 0.953125 -2.671875 0.953125q-5.09375 0 -5.09375 -5.78125l0 -6.453125l2.984375 0l0 6.453125q0 1.6875 0.5625 2.5q0.5625 0.796875 1.8125 0.796875q1.390625 0 2.25 -1.015625l0 -8.734375l2.984375 0l0 12.0zm13.35733 0l-2.96875 0l0 -6.453125q0 -1.6875 -0.5625 -2.484375q-0.5625 -0.8125 -1.8125 -0.8125q-1.375 0 -2.25 1.03125l0 8.71875l-2.984375 0l0 -12.0l2.78125 0l0.046875 0.71875q1.28125 -0.90625 2.640625 -0.90625q5.109375 0 5.109375 5.734375l0 6.453125zm7.5135803 6.0q-1.390625 0 -2.453125 -0.296875q-1.046875 -0.28125 -1.765625 -0.765625q-0.71875 -0.46875 -1.078125 -1.125q-0.359375 -0.640625 -0.359375 -1.359375q0 -1.65625 1.96875 -2.6875q-1.078125 -0.671875 -1.078125 -1.734375q0 -1.0625 1.1875 -1.625q-1.84375 -1.34375 -1.84375 -3.875q0 -1.0 0.328125 -1.859375q0.34375 -0.875 0.984375 -1.5q0.640625 -0.640625 1.53125 -1.0q0.90625 -0.359375 2.03125 -0.359375q1.609375 0 2.734375 0.71875q0.96875 -0.53125 2.5625 -0.53125l0.78125 0l-0.203125 1.875l-1.078125 0q-0.1875 0 -0.375 0q-0.171875 0 -0.296875 0.015625q0.71875 1.140625 0.71875 2.640625q0 0.984375 -0.328125 1.859375q-0.3125 0.859375 -0.9375 1.5q-0.609375 0.625 -1.515625 1.0q-0.90625 0.375 -2.0625 0.375q-0.3125 0 -0.625 -0.03125q-0.3125 -0.046875 -0.640625 -0.09375q-0.265625 0.125 -0.265625 0.390625q0 0.421875 0.65625 0.59375q0.65625 0.171875 2.34375 0.390625q0.78125 0.09375 1.609375 0.28125q0.828125 0.171875 1.515625 0.578125q0.6875 0.390625 1.15625 1.046875q0.46875 0.65625 0.53125 1.71875q0 1.796875 -1.484375 2.828125q-1.484375 1.03125 -4.25 1.03125zm-0.546875 -16.015625q-1.078125 0 -1.640625 0.6875q-0.5625 0.6875 -0.5625 1.859375q0 1.1875 0.5625 1.875q0.5625 0.671875 1.640625 0.671875q1.078125 0 1.625 -0.671875q0.5625 -0.6875 0.5625 -1.875q0 -1.171875 -0.5625 -1.859375q-0.546875 -0.6875 -1.625 -0.6875zm0.453125 10.734375q-0.640625 -0.078125 -1.4375 -0.21875q-1.65625 0.5625 -1.65625 1.65625q0 0.796875 0.796875 1.265625q0.8125 0.46875 2.25 0.46875q1.4375 0 2.34375 -0.4375q0.90625 -0.421875 0.90625 -1.203125q0 -0.765625 -0.90625 -1.078125q-0.90625 -0.3125 -2.296875 -0.453125zm10.680206 -0.484375q-2.734375 0 -4.046875 -0.875l0.265625 -2.546875q0.28125 0.21875 0.71875 0.4375q0.453125 0.203125 0.9375 0.375q0.5 0.171875 1.015625 0.28125q0.53125 0.109375 1.015625 0.109375q1.015625 0 1.421875 -0.390625q0.40625 -0.390625 0.40625 -0.9375q0 -0.53125 -0.296875 -0.796875q-0.28125 -0.28125 -0.828125 -0.484375q-0.53125 -0.203125 -1.296875 -0.421875q-0.765625 -0.234375 -1.734375 -0.71875q-0.71875 -0.40625 -1.078125 -0.984375q-0.359375 -0.59375 -0.4375 -1.65625q0 -0.75 0.25 -1.421875q0.265625 -0.6875 0.78125 -1.21875q0.53125 -0.53125 1.359375 -0.84375q0.828125 -0.328125 2.0 -0.328125q1.109375 0 2.171875 0.265625q1.078125 0.265625 1.609375 0.625l-0.265625 2.53125q-0.265625 -0.234375 -0.640625 -0.46875q-0.375 -0.25 -0.8125 -0.421875q-0.421875 -0.1875 -0.90625 -0.296875q-0.484375 -0.109375 -0.9375 -0.109375q-0.859375 0 -1.421875 0.328125q-0.5625 0.328125 -0.5625 1.0q0 0.578125 0.359375 0.875q0.375 0.28125 1.0 0.515625l0.40625 0.125q0.15625 0.046875 0.46875 0.125q0.328125 0.078125 0.5 0.140625q0.734375 0.203125 1.34375 0.5q0.625 0.28125 1.046875 0.71875q0.4375 0.4375 0.65625 1.03125q0.234375 0.59375 0.234375 1.421875q0 3.515625 -4.703125 3.515625zm12.526978 0q-1.609375 0 -2.796875 -0.8125l0 6.390625l-2.984375 0l0 -17.8125l2.59375 0l0.234375 0.703125q1.328125 -0.890625 2.953125 -0.890625q1.375 0 2.46875 0.484375q1.09375 0.46875 1.84375 1.3125q0.75 0.84375 1.15625 1.984375q0.421875 1.140625 0.421875 2.4375q0 1.28125 -0.40625 2.421875q-0.390625 1.125 -1.140625 1.984375q-0.734375 0.84375 -1.84375 1.328125q-1.109375 0.46875 -2.5 0.46875zm-0.1875 -9.984375q-1.390625 0 -2.078125 1.015625q-0.6875 1.0 -0.6875 2.765625q0 1.75 0.6875 2.765625q0.6875 1.0 2.078125 1.0q1.4375 0 2.234375 -1.015625q0.796875 -1.03125 0.796875 -2.75q0 -1.734375 -0.796875 -2.75q-0.796875 -1.03125 -2.234375 -1.03125zm14.977966 -2.4375l-0.578125 2.796875l-1.109375 0q-0.71875 0 -1.328125 0.34375q-0.59375 0.328125 -0.84375 0.859375l0 8.1875l-2.984375 0l0 -12.0l2.78125 0l0.078125 1.265625q1.390625 -1.453125 3.1875 -1.453125l0.796875 0zm11.129883 10.625q-1.625 1.796875 -4.40625 1.796875q-1.390625 0 -2.515625 -0.46875q-1.109375 -0.484375 -1.90625 -1.328125q-0.796875 -0.84375 -1.234375 -1.96875q-0.421875 -1.125 -0.421875 -2.4375q0 -1.296875 0.421875 -2.4375q0.4375 -1.140625 1.234375 -1.984375q0.796875 -0.84375 1.90625 -1.3125q1.125 -0.484375 2.515625 -0.484375q1.390625 0 2.515625 0.5q1.125 0.484375 1.90625 1.328125q0.796875 0.828125 1.21875 1.96875q0.421875 1.125 0.421875 2.421875q0 2.609375 -1.65625 4.40625zm-2.203125 -7.15625q-0.796875 -1.03125 -2.203125 -1.03125q-1.453125 0 -2.25 1.03125q-0.78125 1.03125 -0.78125 2.75q0 1.703125 0.78125 2.734375q0.796875 1.03125 2.25 1.03125q1.4375 0 2.21875 -1.046875q0.796875 -1.0625 0.796875 -2.71875q0 -1.71875 -0.8125 -2.75zm12.269165 -0.828125l-2.640625 0l0 9.546875l-2.984375 0l0 -9.546875l-1.703125 0l0.265625 -2.453125l1.4375 0l0 -2.859375q0 -0.625 0.1875 -1.1875q0.203125 -0.578125 0.5625 -1.015625q0.359375 -0.4375 0.890625 -0.6875q0.546875 -0.25 1.234375 -0.25q1.140625 0 2.71875 0.140625l-0.265625 2.46875q-0.265625 -0.046875 -0.578125 -0.078125q-0.3125 -0.03125 -0.6875 -0.03125q-0.65625 0 -0.875 0.390625q-0.203125 0.375 -0.203125 1.484375l0 1.625l2.640625 0l0 2.453125zm4.800598 -4.28125l-2.984375 0l0 -2.96875l2.984375 0l0 2.96875zm0 13.828125l-2.984375 0l0 -12.0l2.984375 0l0 12.0zm7.19751 -2.203125l-0.265625 2.4375l-1.078125 0q-1.546875 0 -2.3125 -0.875q-0.765625 -0.875 -0.765625 -2.265625l0 -15.09375l2.984375 0l0 13.875q0 0.6875 0.03125 1.078125q0.03125 0.390625 0.171875 0.578125q0.15625 0.171875 0.4375 0.21875q0.28125 0.046875 0.796875 0.046875z" fill-rule="nonzero"></path><path fill="#000000" fill-opacity="0.0" d="m562.06036 57.188976l71.433044 0l0 59.307087l-71.433044 0z" fill-rule="nonzero"></path><path fill="#000000" d="m579.4768 86.43752l3.359375 0q1.296875 -3.53125 2.734375 -5.5q1.4375 -1.96875 3.515625 -3.1875q2.09375 -1.234375 3.640625 -1.234375q0.953125 0 1.5 0.390625q0.546875 0.390625 0.546875 1.078125q0 0.625 -0.328125 1.078125q-0.328125 0.453125 -0.890625 0.453125q-0.484375 0 -1.609375 -0.5625q-1.140625 -0.546875 -1.671875 -0.546875q-0.90625 0 -1.609375 1.09375q-0.6875 1.078125 -1.53125 3.609375l-1.09375 3.328125l3.75 0l-0.359375 1.109375l-3.734375 0l-3.234375 9.953125q-0.90625 2.734375 -2.5 4.828125q-1.59375 2.09375 -3.625 3.265625q-2.015625 1.1875 -4.015625 1.1875q-0.9375 0 -1.390625 -0.4375q-0.46875 -0.4375 -0.46875 -1.09375q0 -0.71875 0.40625 -1.125q0.40625 -0.40625 1.0 -0.40625q0.4375 0 1.5625 0.40625q1.109375 0.421875 1.609375 0.421875q1.0 0 1.734375 -0.984375q0.734375 -0.96875 1.5 -3.265625l4.1875 -12.75l-3.359375 0l0.375 -1.109375zm29.328125 -9.640625q0 0.15625 -0.171875 0.28125q-0.171875 0.125 -0.40625 0.265625q-1.421875 0.921875 -3.5 3.234375q-2.0625 2.3125 -3.46875 4.890625q-1.390625 2.578125 -2.328125 5.453125q-0.9375 2.875 -1.25 4.84375q-0.296875 1.96875 -0.296875 4.109375q0 1.15625 0.046875 2.03125q0.0625 0.890625 0.171875 1.9375q0.125 1.046875 0.453125 2.140625q0.09375 0.25 0.09375 0.421875q0 0.28125 -0.296875 0.28125q-0.265625 0 -0.5 -0.375q-1.046875 -1.578125 -1.671875 -3.953125q-0.609375 -2.375 -0.609375 -4.984375q0 -4.359375 2.109375 -8.765625q3.671875 -7.625 9.453125 -11.171875q1.484375 -0.921875 1.875 -0.921875q0.296875 0 0.296875 0.28125zm3.0625 5.25l-1.5 4.390625l2.53125 0l-0.328125 1.109375l-2.515625 0l-1.828125 5.21875q-0.859375 2.484375 -0.859375 3.53125q0 0.5625 0.34375 0.5625q0.578125 0 3.546875 -2.296875l0.515625 0.703125q-2.53125 2.0 -3.40625 2.546875q-0.875 0.546875 -1.703125 0.875q-0.828125 0.328125 -1.640625 0.328125q-1.21875 0 -1.21875 -1.484375q0 -1.265625 0.9375 -3.765625l2.109375 -6.21875l-2.3125 0l0.390625 -1.109375l2.234375 0l1.1875 -3.421875l3.515625 -0.96875zm-4.46875 24.359375q0 -0.203125 0.09375 -0.296875q0.078125 -0.078125 0.34375 -0.21875q1.3125 -0.71875 3.328125 -2.859375q2.015625 -2.125 3.359375 -4.46875q1.421875 -2.421875 2.5 -5.609375q1.09375 -3.1875 1.4375 -5.21875q0.359375 -2.03125 0.359375 -4.34375q0 -3.609375 -0.609375 -5.921875q-0.125 -0.421875 -0.125 -0.640625q0 -0.3125 0.28125 -0.3125q0.375 0 1.109375 1.390625q0.734375 1.390625 1.203125 3.625q0.46875 2.21875 0.46875 4.390625q0 4.203125 -2.140625 8.703125q-3.5625 7.53125 -9.375 11.140625q-1.53125 0.921875 -1.953125 0.921875q-0.28125 0 -0.28125 -0.28125z" fill-rule="nonzero"></path><path fill="#ff9900" d="m180.82939 252.26509l36.503937 0l0 8.000015l-36.503937 0z" fill-rule="nonzero"></path><path fill="#000000" fill-opacity="0.0" d="m180.0 261.71915l0 -98.834625" fill-rule="nonzero"></path><path stroke="#000000" stroke-width="1.0" stroke-linejoin="round" stroke-linecap="butt" d="m180.0 261.71915l0 -92.834625" fill-rule="evenodd"></path><path fill="#000000" stroke="#000000" stroke-width="1.0" stroke-linecap="butt" d="m181.65173 168.88452l-1.6517334 -4.538101l-1.6517334 4.538101z" fill-rule="evenodd"></path><path fill="#000000" fill-opacity="0.0" d="m180.0 260.99863l192.09448 0" fill-rule="nonzero"></path><path stroke="#000000" stroke-width="1.0" stroke-linejoin="round" stroke-linecap="butt" d="m180.0 260.99863l192.09448 0" fill-rule="nonzero"></path><path fill="#ff9900" d="m218.16273 239.89764l36.503937 0l0 20.409454l-36.503937 0z" fill-rule="nonzero"></path><path fill="#ff9900" d="m255.49606 230.14174l36.503937 0l0 30.173233l-36.503937 0z" fill-rule="nonzero"></path><path fill="#ff9900" d="m292.8294 208.63518l36.503937 0l0 51.685043l-36.503937 0z" fill-rule="nonzero"></path><path fill="#ff9900" d="m330.16272 188.66142l36.503937 0l0 71.622055l-36.503937 0z" fill-rule="nonzero"></path><path fill="#000000" fill-opacity="0.0" d="m393.53018 193.69925l197.95273 0l0 59.307083l-197.95273 0z" fill-rule="nonzero"></path><path fill="#000000" d="m414.3583 225.73924l-9.984375 0l0 -16.796875l3.078125 0l0 13.828125l6.90625 0l0 2.96875zm11.8593445 -2.203125l-0.265625 2.4375l-1.078125 0q-1.9375 0 -2.6875 -1.390625q-1.25 1.390625 -3.671875 1.390625q-0.75 0 -1.390625 -0.25q-0.625 -0.25 -1.09375 -0.71875q-0.46875 -0.46875 -0.734375 -1.125q-0.265625 -0.65625 -0.265625 -1.5q0 -1.21875 0.71875 -2.03125q0.71875 -0.828125 1.75 -1.3125q1.046875 -0.5 2.203125 -0.703125q1.171875 -0.21875 2.078125 -0.25q-0.046875 -1.078125 -0.53125 -1.515625q-0.484375 -0.453125 -1.625 -0.453125q-1.421875 0 -3.296875 0.90625l-0.265625 -2.421875q2.234375 -1.046875 4.375 -1.046875q4.34375 0 4.34375 4.8125l0 3.25q0 0.640625 0.03125 1.03125q0.03125 0.375 0.140625 0.59375q0.109375 0.203125 0.328125 0.25q0.21875 0.046875 0.546875 0.046875l0.390625 0zm-4.421875 -0.703125l0 -2.734375q-0.6875 0.046875 -1.359375 0.203125q-0.65625 0.140625 -1.15625 0.421875q-0.5 0.265625 -0.8125 0.65625q-0.3125 0.375 -0.3125 0.875q0 1.4375 1.609375 1.4375q1.125 0 2.03125 -0.859375zm16.545715 2.90625l-2.78125 0l-0.046875 -0.71875q-1.25 0.953125 -2.671875 0.953125q-5.09375 0 -5.09375 -5.78125l0 -6.453125l2.984375 0l0 6.453125q0 1.6875 0.5625 2.5q0.5625 0.796875 1.8125 0.796875q1.390625 0 2.25 -1.015625l0 -8.734375l2.984375 0l0 12.0zm9.122955 -9.546875l-2.640625 0l0 9.546875l-2.984375 0l0 -9.546875l-1.703125 0l0.265625 -2.453125l1.4375 0l0 -2.859375q0 -0.625 0.1875 -1.1875q0.203125 -0.578125 0.5625 -1.015625q0.359375 -0.4375 0.890625 -0.6875q0.546875 -0.25 1.234375 -0.25q1.140625 0 2.71875 0.140625l-0.265625 2.46875q-0.265625 -0.046875 -0.578125 -0.078125q-0.3125 -0.03125 -0.6875 -0.03125q-0.65625 0 -0.875 0.390625q-0.203125 0.375 -0.203125 1.484375l0 1.625l2.640625 0l0 2.453125zm5.222473 9.78125q-2.734375 0 -4.046875 -0.875l0.265625 -2.546875q0.28125 0.21875 0.71875 0.4375q0.453125 0.203125 0.9375 0.375q0.5 0.171875 1.015625 0.28125q0.53125 0.109375 1.015625 0.109375q1.015625 0 1.421875 -0.390625q0.40625 -0.390625 0.40625 -0.9375q0 -0.53125 -0.296875 -0.796875q-0.28125 -0.28125 -0.828125 -0.484375q-0.53125 -0.203125 -1.296875 -0.421875q-0.765625 -0.234375 -1.734375 -0.71875q-0.71875 -0.40625 -1.078125 -0.984375q-0.359375 -0.59375 -0.4375 -1.65625q0 -0.75 0.25 -1.421875q0.265625 -0.6875 0.78125 -1.21875q0.53125 -0.53125 1.359375 -0.84375q0.828125 -0.328125 2.0 -0.328125q1.109375 0 2.171875 0.265625q1.078125 0.265625 1.609375 0.625l-0.265625 2.53125q-0.265625 -0.234375 -0.640625 -0.46875q-0.375 -0.25 -0.8125 -0.421875q-0.421875 -0.1875 -0.90625 -0.296875q-0.484375 -0.109375 -0.9375 -0.109375q-0.859375 0 -1.421875 0.328125q-0.5625 0.328125 -0.5625 1.0q0 0.578125 0.359375 0.875q0.375 0.28125 1.0 0.515625l0.40625 0.125q0.15625 0.046875 0.46875 0.125q0.328125 0.078125 0.5 0.140625q0.734375 0.203125 1.34375 0.5q0.625 0.28125 1.046875 0.71875q0.4375 0.4375 0.65625 1.03125q0.234375 0.59375 0.234375 1.421875q0 3.515625 -4.703125 3.515625zm13.058228 -2.4375l-0.265625 2.4375l-2.140625 0q-0.78125 0 -1.390625 -0.25q-0.59375 -0.25 -1.0 -0.671875q-0.40625 -0.421875 -0.609375 -0.984375q-0.203125 -0.578125 -0.203125 -1.234375l0 -6.640625l-1.703125 0l0.25 -2.453125l1.453125 0l0 -2.640625l2.96875 -0.3125l0 2.953125l2.640625 0l0 2.453125l-2.640625 0l0 5.421875q0 0.6875 0.046875 1.078125q0.046875 0.390625 0.21875 0.578125q0.1875 0.1875 0.546875 0.234375q0.359375 0.03125 1.015625 0.03125l0.8125 0zm12.412231 2.203125l-2.78125 0l-0.046875 -0.71875q-1.25 0.953125 -2.671875 0.953125q-5.09375 0 -5.09375 -5.78125l0 -6.453125l2.984375 0l0 6.453125q0 1.6875 0.5625 2.5q0.5625 0.796875 1.8125 0.796875q1.390625 0 2.25 -1.015625l0 -8.734375l2.984375 0l0 12.0zm9.122955 -9.546875l-2.640625 0l0 9.546875l-2.984375 0l0 -9.546875l-1.703125 0l0.265625 -2.453125l1.4375 0l0 -2.859375q0 -0.625 0.1875 -1.1875q0.203125 -0.578125 0.5625 -1.015625q0.359375 -0.4375 0.890625 -0.6875q0.546875 -0.25 1.234375 -0.25q1.140625 0 2.71875 0.140625l-0.265625 2.46875q-0.265625 -0.046875 -0.578125 -0.078125q-0.3125 -0.03125 -0.6875 -0.03125q-0.65625 0 -0.875 0.390625q-0.203125 0.375 -0.203125 1.484375l0 1.625l2.640625 0l0 2.453125zm11.941223 4.1875l-7.75 0q0.25 1.5625 1.265625 2.359375q1.015625 0.796875 2.3125 0.796875q0.40625 0 0.890625 -0.078125q0.484375 -0.078125 0.96875 -0.203125q0.5 -0.125 0.96875 -0.296875q0.484375 -0.1875 0.875 -0.40625l0.140625 2.515625q-1.75 0.90625 -4.015625 0.90625q-1.578125 0 -2.796875 -0.46875q-1.203125 -0.484375 -2.03125 -1.3125q-0.828125 -0.828125 -1.25 -1.96875q-0.421875 -1.140625 -0.421875 -2.453125q0 -1.296875 0.390625 -2.421875q0.40625 -1.140625 1.140625 -1.984375q0.75 -0.859375 1.8125 -1.328125q1.078125 -0.484375 2.421875 -0.484375q1.125 0 2.09375 0.375q0.96875 0.359375 1.671875 1.046875q0.71875 0.6875 1.109375 1.65625q0.40625 0.953125 0.40625 2.125q0 0.671875 -0.203125 1.625zm-7.671875 -2.015625l4.84375 0q0 -0.921875 -0.53125 -1.640625q-0.53125 -0.734375 -1.625 -0.734375q-1.109375 0 -1.78125 0.65625q-0.671875 0.640625 -0.90625 1.71875zm20.484985 7.375l-2.96875 0l0 -6.453125q0 -1.6875 -0.5625 -2.484375q-0.5625 -0.8125 -1.8125 -0.8125q-1.375 0 -2.25 1.03125l0 8.71875l-2.984375 0l0 -12.0l2.78125 0l0.046875 0.71875q1.28125 -0.90625 2.640625 -0.90625q5.109375 0 5.109375 5.734375l0 6.453125z" fill-rule="nonzero"></path><path fill="#cfe2f3" d="m346.11548 259.6509l2.2992249 -6.771637l2.2991943 6.771637z" fill-rule="nonzero"></path><path stroke="#000000" stroke-width="1.0" stroke-linejoin="round" stroke-linecap="butt" d="m346.11548 259.6509l2.2992249 -6.771637l2.2991943 6.771637z" fill-rule="nonzero"></path><path fill="#cfe2f3" d="m308.78217 259.6509l2.2991943 -6.771637l2.2992249 6.771637z" fill-rule="nonzero"></path><path stroke="#000000" stroke-width="1.0" stroke-linejoin="round" stroke-linecap="butt" d="m308.78217 259.6509l2.2991943 -6.771637l2.2992249 6.771637z" fill-rule="nonzero"></path><path fill="#cfe2f3" d="m271.44882 259.6509l2.2991943 -6.771637l2.2992249 6.771637z" fill-rule="nonzero"></path><path stroke="#000000" stroke-width="1.0" stroke-linejoin="round" stroke-linecap="butt" d="m271.44882 259.6509l2.2991943 -6.771637l2.2992249 6.771637z" fill-rule="nonzero"></path><path fill="#cfe2f3" d="m234.11548 259.6509l2.2992249 -6.771637l2.2992096 6.771637z" fill-rule="nonzero"></path><path stroke="#000000" stroke-width="1.0" stroke-linejoin="round" stroke-linecap="butt" d="m234.11548 259.6509l2.2992249 -6.771637l2.2992096 6.771637z" fill-rule="nonzero"></path><path fill="#cfe2f3" d="m196.78215 259.65128l2.2992096 -6.771652l2.2992249 6.771652z" fill-rule="nonzero"></path><path stroke="#000000" stroke-width="1.0" stroke-linejoin="round" stroke-linecap="butt" d="m196.78215 259.65128l2.2992096 -6.771652l2.2992249 6.771652z" fill-rule="nonzero"></path><path fill="#000000" fill-opacity="0.0" d="m550.0105 186.8189l205.16534 0l0 59.3071l-205.16534 0z" fill-rule="nonzero"></path><path fill="#000000" d="m569.573 215.45807q0.796875 -0.453125 1.21875 -0.453125q0.1875 0 0.328125 0.203125q0.140625 0.1875 0.140625 0.40625q0 0.234375 -0.171875 0.4375q-0.15625 0.203125 -0.75 0.5q-1.109375 1.71875 -1.59375 2.765625q-0.46875 1.046875 -0.75 2.15625q-0.28125 1.109375 -0.28125 2.296875q0 0.78125 0.125 2.859375q2.71875 -1.8125 4.265625 -4.046875q1.5625 -2.25 1.5625 -4.34375q0 -0.546875 -0.203125 -1.125q-0.21875 -0.578125 -0.21875 -0.953125q0 -0.59375 0.34375 -0.984375q0.359375 -0.390625 1.03125 -0.390625q0.6875 0 0.96875 0.390625q0.28125 0.390625 0.28125 1.140625q0 2.328125 -1.421875 4.828125q-1.40625 2.484375 -3.9375 4.59375q-2.53125 2.109375 -5.765625 3.484375q-0.0625 -1.515625 -0.234375 -3.015625q-0.15625 -1.5 -0.15625 -2.84375q0 -4.25 3.484375 -6.984375q-2.140625 0.046875 -3.171875 0.421875q-1.015625 0.359375 -1.015625 1.125q0 0.21875 0.125 0.609375q0.125 0.40625 0.125 0.671875q0 0.375 -0.234375 0.71875q-0.21875 0.328125 -0.71875 0.328125q-0.890625 0 -0.890625 -1.28125q0 -1.703125 1.5625 -2.609375q1.5625 -0.90625 4.484375 -0.90625l1.46875 0z" fill-rule="nonzero"></path><path fill="#000000" d="m592.4324 223.8487q1.015625 0 1.546875 0.703125q0.546875 0.703125 0.34375 1.6875q-0.21875 0.984375 -1.078125 1.6875q-0.84375 0.703125 -1.828125 0.703125q-0.984375 0 -1.546875 -0.703125q-0.546875 -0.703125 -0.328125 -1.6875q0.203125 -1.015625 1.046875 -1.703125q0.859375 -0.6875 1.84375 -0.6875zm10.671875 0q0.984375 0 1.53125 0.703125q0.5625 0.703125 0.359375 1.6875q-0.21875 0.984375 -1.078125 1.6875q-0.84375 0.703125 -1.828125 0.703125q-0.984375 0 -1.546875 -0.703125q-0.546875 -0.703125 -0.328125 -1.6875q0.203125 -1.015625 1.046875 -1.703125q0.859375 -0.6875 1.84375 -0.6875zm10.671875 0q0.984375 0 1.53125 0.703125q0.5625 0.703125 0.359375 1.6875q-0.21875 0.984375 -1.078125 1.6875q-0.84375 0.703125 -1.828125 0.703125q-0.984375 0 -1.546875 -0.703125q-0.546875 -0.703125 -0.328125 -1.6875q0.203125 -1.0 1.046875 -1.6875q0.84375 -0.703125 1.84375 -0.703125z" fill-rule="nonzero"></path><path fill="#000000" d="m634.4324 215.45807q0.796875 -0.453125 1.21875 -0.453125q0.1875 0 0.328125 0.203125q0.140625 0.1875 0.140625 0.40625q0 0.234375 -0.171875 0.4375q-0.15625 0.203125 -0.75 0.5q-1.109375 1.71875 -1.59375 2.765625q-0.46875 1.046875 -0.75 2.15625q-0.28125 1.109375 -0.28125 2.296875q0 0.78125 0.125 2.859375q2.71875 -1.8125 4.265625 -4.046875q1.5625 -2.25 1.5625 -4.34375q0 -0.546875 -0.203125 -1.125q-0.21875 -0.578125 -0.21875 -0.953125q0 -0.59375 0.34375 -0.984375q0.359375 -0.390625 1.03125 -0.390625q0.6875 0 0.96875 0.390625q0.28125 0.390625 0.28125 1.140625q0 2.328125 -1.421875 4.828125q-1.40625 2.484375 -3.9375 4.59375q-2.53125 2.109375 -5.765625 3.484375q-0.0625 -1.515625 -0.234375 -3.015625q-0.15625 -1.5 -0.15625 -2.84375q0 -4.25 3.484375 -6.984375q-2.140625 0.046875 -3.171875 0.421875q-1.015625 0.359375 -1.015625 1.125q0 0.21875 0.125 0.609375q0.125 0.40625 0.125 0.671875q0 0.375 -0.234375 0.71875q-0.21875 0.328125 -0.71875 0.328125q-0.890625 0 -0.890625 -1.28125q0 -1.703125 1.5625 -2.609375q1.5625 -0.90625 4.484375 -0.90625l1.46875 0z" fill-rule="nonzero"></path><path fill="#ffffff" d="m655.0105 199.2237l14.109375 0l0 36.796875l-14.109375 0l0 -36.796875z" fill-rule="nonzero"></path><path fill="#252525" d="m669.8699 211.5987l-0.515625 2.484375l-4.359375 0q-2.0 0 -3.375 1.3125q-1.25 1.1875 -1.703125 3.15625l5.546875 0l-0.484375 2.234375l-5.46875 0q-0.109375 1.0 -0.109375 1.65625q0 1.53125 0.96875 2.40625q0.96875 0.859375 2.671875 0.859375l3.859375 0l-0.515625 2.484375l-3.9375 0q-2.90625 0 -4.4375 -1.75q-1.4375 -1.640625 -1.4375 -4.5625q0 -4.25 2.15625 -7.109375q2.390625 -3.171875 6.546875 -3.171875l4.59375 0z" fill-rule="nonzero"></path><path fill="#ffffff" d="m669.1199 202.9112l32.203125 0l0 34.984375l-32.203125 0l0 -34.984375z" fill-rule="nonzero"></path><path fill="#252525" d="m694.66675 210.56744q-1.640625 0.0625 -3.234375 0.765625q-1.59375 0.6875 -2.640625 1.953125q-1.03125 1.265625 -1.03125 2.515625q0 0.53125 0.25 1.15625q0.296875 0.609375 0.296875 1.125q0 0.546875 -0.34375 0.84375q-0.328125 0.28125 -0.78125 0.28125q-0.5625 0 -0.890625 -0.59375q-0.328125 -0.59375 -0.328125 -1.65625q0 -1.96875 1.5625 -3.828125q1.578125 -1.875 4.046875 -2.765625q1.046875 -0.359375 2.078125 -0.53125q1.046875 -0.1875 3.171875 -0.296875l1.9375 -0.15625q-2.328125 3.140625 -3.15625 5.375q-0.828125 2.21875 -1.1875 4.65625q-0.34375 2.4375 -0.296875 4.59375l0.046875 0.953125l4.984375 -5.28125q6.53125 -6.84375 6.53125 -10.140625q0 -0.6875 -0.15625 -1.375q-0.140625 -0.5625 -0.140625 -0.765625q0 -0.515625 0.359375 -0.84375q0.375 -0.34375 0.953125 -0.34375q0.578125 0 0.953125 0.484375q0.390625 0.484375 0.390625 1.375q0 1.8125 -0.90625 3.578125q-0.890625 1.765625 -2.828125 4.046875q-1.9375 2.28125 -5.125 5.421875q-2.71875 2.65625 -8.21875 8.484375l0.25 -8.09375q0.125 -3.25 0.46875 -4.890625q0.34375 -1.65625 1.0625 -3.109375q0.71875 -1.46875 1.921875 -2.9375z" fill-rule="nonzero"></path><path fill="#000000" fill-opacity="0.0" d="m561.7638 210.07611l192.09448 0l0 55.93701l-192.09448 0z" fill-rule="nonzero"></path><path fill="#000000" d="m580.04504 225.79298q-0.890625 2.46875 -1.6875 4.984375l-1.4375 4.65625q-0.234375 0.75 -0.234375 0.8125q0 0.1875 0.15625 0.265625q0.171875 0.078125 0.59375 0.125q0.46875 0.046875 0.734375 0.109375l-0.21875 0.46875q-2.15625 -0.21875 -2.859375 -0.21875q-1.109375 0 -2.578125 0.21875l0.171875 -0.46875q0.484375 -0.15625 1.015625 -0.265625q0.59375 -0.140625 0.796875 -0.359375q0.34375 -0.390625 0.75 -1.5625l1.3125 -3.828125q0.703125 -2.109375 0.703125 -2.53125q0 -0.28125 -0.203125 -0.28125q-0.1875 0 -1.78125 0.75l-0.109375 -0.46875q1.390625 -0.59375 2.203125 -0.984375q0.828125 -0.40625 1.296875 -0.703125q0.46875 -0.3125 0.984375 -0.71875l0.390625 0zm57.976257 2.5625q0.796875 -1.3125 1.671875 -1.90625q0.875 -0.59375 2.046875 -0.59375q1.03125 0 1.703125 0.640625q0.671875 0.640625 0.671875 1.609375q0 0.65625 -0.328125 1.328125q-0.3125 0.671875 -1.046875 1.46875q-0.546875 0.53125 -2.265625 1.875q-2.140625 1.65625 -3.234375 2.875q1.046875 -0.078125 2.0 -0.078125l1.234375 0.015625q0.421875 0 0.625 -0.046875q0.21875 -0.046875 0.515625 -0.34375q0.296875 -0.3125 0.640625 -0.8125l0.59375 0q-0.84375 1.234375 -1.484375 2.859375q-1.28125 -0.25 -2.9375 -0.25q-1.015625 0 -2.890625 0.109375l0.21875 -0.5625q0.953125 -1.34375 2.5625 -2.828125q1.734375 -1.625 2.15625 -2.1875q1.4375 -1.671875 1.4375 -3.125q0 -0.734375 -0.328125 -1.15625q-0.328125 -0.421875 -0.890625 -0.421875q-0.5625 0 -1.078125 0.453125q-0.515625 0.453125 -1.09375 1.390625l-0.5 -0.3125zm61.86682 2.59375q1.0 -0.84375 1.9375 -1.3125q0.953125 -0.46875 1.5625 -0.46875q0.421875 0 0.421875 0.28125q0 0.203125 -0.171875 0.75l-0.4375 1.328125q0.703125 -0.984375 1.703125 -1.671875q1.0 -0.6875 1.8125 -0.6875q0.21875 0 0.375 0.140625q0.15625 0.140625 0.15625 0.40625q0 0.375 -0.140625 0.75q-0.140625 0.359375 -0.234375 0.71875q0.84375 -0.9375 1.6875 -1.46875q0.84375 -0.546875 1.421875 -0.546875q0.703125 0 0.703125 0.765625q0 0.484375 -0.375 1.265625q-0.34375 0.734375 -0.984375 2.5q-0.640625 1.75 -0.640625 2.265625q0 0.265625 0.21875 0.265625q0.171875 0 0.453125 -0.21875q0.296875 -0.234375 0.96875 -0.859375l0.25 0.34375q-0.875 0.828125 -1.28125 1.125q-0.390625 0.296875 -0.796875 0.453125q-0.390625 0.171875 -0.796875 0.171875q-0.390625 0 -0.65625 -0.234375q-0.25 -0.234375 -0.25 -0.671875q0 -0.6875 0.90625 -2.875q0.46875 -1.15625 0.671875 -1.78125q0.21875 -0.640625 0.21875 -0.953125q0 -0.296875 -0.21875 -0.296875q-0.28125 0 -1.25 1.046875q-0.296875 0.40625 -0.453125 0.796875l-0.28125 0.75q-0.8125 2.0625 -1.421875 3.96875l-1.859375 0l1.625 -4.984375q0.390625 -1.15625 0.390625 -1.359375q0 -0.21875 -0.1875 -0.21875q-0.234375 0 -0.84375 0.578125q-0.59375 0.578125 -1.0625 1.296875q-0.15625 0.359375 -0.359375 0.96875q-0.203125 0.609375 -1.15625 3.71875l-1.859375 0l1.8125 -5.828125q0.15625 -0.515625 0.15625 -0.609375q0 -0.203125 -0.140625 -0.203125q-0.390625 0 -1.359375 0.984375l-0.234375 -0.390625z" fill-rule="nonzero"></path></g></svg>

