<?xml version="1.0" standalone="yes"?>

<svg version="1.1" viewBox="0.0 0.0 961.7637795275591 679.4120734908137" fill="none" stroke="none" stroke-linecap="square" stroke-miterlimit="10" xmlns="http://www.w3.org/2000/svg" xmlns:xlink="http://www.w3.org/1999/xlink"><clipPath id="p.0"><path d="m0 0l961.7638 0l0 679.41205l-961.7638 0l0 -679.41205z" clip-rule="nonzero"></path></clipPath><g clip-path="url(#p.0)"><path fill="#000000" fill-opacity="0.0" d="m0 0l961.7638 0l0 679.41205l-961.7638 0z" fill-rule="nonzero"></path><path fill="#000000" fill-opacity="0.0" d="m55.785625 273.47467l843.43304 0l0 192.28345l-843.43304 0z" fill-rule="nonzero"></path><path stroke="#666666" stroke-width="3.0" stroke-linejoin="round" stroke-linecap="butt" stroke-dasharray="12.0,9.0" d="m55.785625 273.47467l843.43304 0l0 192.28345l-843.43304 0z" fill-rule="nonzero"></path><path fill="#b7b7b7" d="m77.66522 451.31766l66.17586 0l180.88188 -123.53018l-24.706024 0z" fill-rule="nonzero"></path><path fill="#b7b7b7" d="m277.63635 287.03946l6.173218 0l0 42.362183l-6.173218 0z" fill-rule="nonzero"></path><path fill="#b7b7b7" d="m331.78595 287.03946l6.1732483 0l0 42.362183l-6.1732483 0z" fill-rule="nonzero"></path><path fill="#b7b7b7" d="m286.61536 300.9712l0 -11.5590515l42.362213 0l0 11.5590515z" fill-rule="nonzero"></path><path fill="#b7b7b7" d="m68.379135 342.75336l9.291344 0l0 104.62991l-9.291344 0z" fill-rule="nonzero"></path><path fill="#cccccc" d="m71.91982 345.39902l0 0c0 1.4611816 4.302353 2.645691 9.609573 2.645691c5.307228 0 9.609581 -1.1845093 9.609581 -2.645691l0 0c0 -1.4611511 4.3023605 -2.6456604 9.609581 -2.6456604c5.307228 0 9.609581 1.1845093 9.609581 2.6456604l0 21.165375c0 -1.4611816 -4.302353 -2.645691 -9.609581 -2.645691c-5.3072205 0 -9.609581 1.1845093 -9.609581 2.645691c0 1.4611511 -4.302353 2.6456604 -9.609581 2.6456604c-5.3072205 0 -9.609573 -1.1845093 -9.609573 -2.6456604z" fill-rule="nonzero"></path><path fill="#000000" fill-opacity="0.0" d="m185.88832 451.31766l167.05513 -115.590546" fill-rule="nonzero"></path><path stroke="#a61c00" stroke-width="4.0" stroke-linejoin="round" stroke-linecap="butt" d="m185.88832 451.31766l147.31902 -101.93454" fill-rule="evenodd"></path><path fill="#a61c00" stroke="#a61c00" stroke-width="4.0" stroke-linecap="butt" d="m336.9667 354.81625l11.16803 -15.761841l-18.686737 4.8955994z" fill-rule="evenodd"></path><path fill="#000000" fill-opacity="0.0" d="m395.29443 351.4964l197.95276 0l0 59.3071l-197.95276 0z" fill-rule="nonzero"></path><path fill="#000000" d="m427.26318 366.73953l-4.921875 16.796875l-2.703125 0l-3.75 -11.203125l-3.71875 11.203125l-2.90625 0l-4.734375 -16.796875l3.203125 0l3.359375 11.921875l3.734375 -11.921875l2.140625 0l3.890625 11.609375l3.21875 -11.609375l3.1875 0zm11.658813 11.4375l-7.75 0q0.25 1.5625 1.265625 2.359375q1.015625 0.796875 2.3125 0.796875q0.40625 0 0.890625 -0.078125q0.484375 -0.078125 0.96875 -0.203125q0.5 -0.125 0.96875 -0.296875q0.484375 -0.1875 0.875 -0.40625l0.140625 2.515625q-1.75 0.90625 -4.015625 0.90625q-1.578125 0 -2.796875 -0.46875q-1.203125 -0.484375 -2.03125 -1.3125q-0.828125 -0.828125 -1.25 -1.96875q-0.421875 -1.140625 -0.421875 -2.453125q0 -1.296875 0.390625 -2.421875q0.40625 -1.140625 1.140625 -1.984375q0.75 -0.859375 1.8125 -1.328125q1.078125 -0.484375 2.421875 -0.484375q1.125 0 2.09375 0.375q0.96875 0.359375 1.671875 1.046875q0.71875 0.6875 1.109375 1.65625q0.40625 0.953125 0.40625 2.125q0 0.671875 -0.203125 1.625zm-7.671875 -2.015625l4.84375 0q0 -0.921875 -0.53125 -1.640625q-0.53125 -0.734375 -1.625 -0.734375q-1.109375 0 -1.78125 0.65625q-0.671875 0.640625 -0.90625 1.71875zm14.75058 13.375q-1.390625 0 -2.453125 -0.296875q-1.046875 -0.28125 -1.765625 -0.765625q-0.71875 -0.46875 -1.078125 -1.125q-0.359375 -0.640625 -0.359375 -1.359375q0 -1.65625 1.96875 -2.6875q-1.078125 -0.671875 -1.078125 -1.734375q0 -1.0625 1.1875 -1.625q-1.84375 -1.34375 -1.84375 -3.875q0 -1.0 0.328125 -1.859375q0.34375 -0.875 0.984375 -1.5q0.640625 -0.640625 1.53125 -1.0q0.90625 -0.359375 2.03125 -0.359375q1.609375 0 2.734375 0.71875q0.96875 -0.53125 2.5625 -0.53125l0.78125 0l-0.203125 1.875l-1.078125 0q-0.1875 0 -0.375 0q-0.171875 0 -0.296875 0.015625q0.71875 1.140625 0.71875 2.640625q0 0.984375 -0.328125 1.859375q-0.3125 0.859375 -0.9375 1.5q-0.609375 0.625 -1.515625 1.0q-0.90625 0.375 -2.0625 0.375q-0.3125 0 -0.625 -0.03125q-0.3125 -0.046875 -0.640625 -0.09375q-0.265625 0.125 -0.265625 0.390625q0 0.421875 0.65625 0.59375q0.65625 0.171875 2.34375 0.390625q0.78125 0.09375 1.609375 0.28125q0.828125 0.171875 1.515625 0.578125q0.6875 0.390625 1.15625 1.046875q0.46875 0.65625 0.53125 1.71875q0 1.796875 -1.484375 2.828125q-1.484375 1.03125 -4.25 1.03125zm-0.546875 -16.015625q-1.078125 0 -1.640625 0.6875q-0.5625 0.6875 -0.5625 1.859375q0 1.1875 0.5625 1.875q0.5625 0.671875 1.640625 0.671875q1.078125 0 1.625 -0.671875q0.5625 -0.6875 0.5625 -1.875q0 -1.171875 -0.5625 -1.859375q-0.546875 -0.6875 -1.625 -0.6875zm0.453125 10.734375q-0.640625 -0.078125 -1.4375 -0.21875q-1.65625 0.5625 -1.65625 1.65625q0 0.796875 0.796875 1.265625q0.8125 0.46875 2.25 0.46875q1.4375 0 2.34375 -0.4375q0.90625 -0.421875 0.90625 -1.203125q0 -0.765625 -0.90625 -1.078125q-0.90625 -0.3125 -2.296875 -0.453125zm10.680237 -0.484375q-2.734375 0 -4.046875 -0.875l0.265625 -2.546875q0.28125 0.21875 0.71875 0.4375q0.453125 0.203125 0.9375 0.375q0.5 0.171875 1.015625 0.28125q0.53125 0.109375 1.015625 0.109375q1.015625 0 1.421875 -0.390625q0.40625 -0.390625 0.40625 -0.9375q0 -0.53125 -0.296875 -0.796875q-0.28125 -0.28125 -0.828125 -0.484375q-0.53125 -0.203125 -1.296875 -0.421875q-0.765625 -0.234375 -1.734375 -0.71875q-0.71875 -0.40625 -1.078125 -0.984375q-0.359375 -0.59375 -0.4375 -1.65625q0 -0.75 0.25 -1.421875q0.265625 -0.6875 0.78125 -1.21875q0.53125 -0.53125 1.359375 -0.84375q0.828125 -0.328125 2.0 -0.328125q1.109375 0 2.171875 0.265625q1.078125 0.265625 1.609375 0.625l-0.265625 2.53125q-0.265625 -0.234375 -0.640625 -0.46875q-0.375 -0.25 -0.8125 -0.421875q-0.421875 -0.1875 -0.90625 -0.296875q-0.484375 -0.109375 -0.9375 -0.109375q-0.859375 0 -1.421875 0.328125q-0.5625 0.328125 -0.5625 1.0q0 0.578125 0.359375 0.875q0.375 0.28125 1.0 0.515625l0.40625 0.125q0.15625 0.046875 0.46875 0.125q0.328125 0.078125 0.5 0.140625q0.734375 0.203125 1.34375 0.5q0.625 0.28125 1.046875 0.71875q0.4375 0.4375 0.65625 1.03125q0.234375 0.59375 0.234375 1.421875q0 3.515625 -4.703125 3.515625zm13.058228 -2.4375l-0.265625 2.4375l-2.140625 0q-0.78125 0 -1.390625 -0.25q-0.59375 -0.25 -1.0 -0.671875q-0.40625 -0.421875 -0.609375 -0.984375q-0.203125 -0.578125 -0.203125 -1.234375l0 -6.640625l-1.703125 0l0.25 -2.453125l1.453125 0l0 -2.640625l2.96875 -0.3125l0 2.953125l2.640625 0l0 2.453125l-2.640625 0l0 5.421875q0 0.6875 0.046875 1.078125q0.046875 0.390625 0.21875 0.578125q0.1875 0.1875 0.546875 0.234375q0.359375 0.03125 1.015625 0.03125l0.8125 0zm8.787231 -9.984375l-0.578125 2.796875l-1.109375 0q-0.71875 0 -1.328125 0.34375q-0.59375 0.328125 -0.84375 0.859375l0 8.1875l-2.984375 0l0 -12.0l2.78125 0l0.078125 1.265625q1.390625 -1.453125 3.1875 -1.453125l0.796875 0zm11.489227 6.828125l-7.75 0q0.25 1.5625 1.265625 2.359375q1.015625 0.796875 2.3125 0.796875q0.40625 0 0.890625 -0.078125q0.484375 -0.078125 0.96875 -0.203125q0.5 -0.125 0.96875 -0.296875q0.484375 -0.1875 0.875 -0.40625l0.140625 2.515625q-1.75 0.90625 -4.015625 0.90625q-1.578125 0 -2.796875 -0.46875q-1.203125 -0.484375 -2.03125 -1.3125q-0.828125 -0.828125 -1.25 -1.96875q-0.421875 -1.140625 -0.421875 -2.453125q0 -1.296875 0.390625 -2.421875q0.40625 -1.140625 1.140625 -1.984375q0.75 -0.859375 1.8125 -1.328125q1.078125 -0.484375 2.421875 -0.484375q1.125 0 2.09375 0.375q0.96875 0.359375 1.671875 1.046875q0.71875 0.6875 1.109375 1.65625q0.40625 0.953125 0.40625 2.125q0 0.671875 -0.203125 1.625zm-7.671875 -2.015625l4.84375 0q0 -0.921875 -0.53125 -1.640625q-0.53125 -0.734375 -1.625 -0.734375q-1.109375 0 -1.78125 0.65625q-0.671875 0.640625 -0.90625 1.71875zm15.016205 7.609375q-1.390625 0 -2.46875 -0.46875q-1.078125 -0.484375 -1.828125 -1.3125q-0.734375 -0.828125 -1.140625 -1.96875q-0.390625 -1.140625 -0.390625 -2.453125q0 -1.328125 0.390625 -2.453125q0.40625 -1.125 1.140625 -1.96875q0.75 -0.84375 1.828125 -1.3125q1.078125 -0.484375 2.46875 -0.484375q2.21875 0 3.609375 0.890625l-0.265625 2.53125q-1.484375 -0.984375 -3.09375 -0.984375q-1.453125 0 -2.25 1.03125q-0.78125 1.015625 -0.78125 2.75q0 1.71875 0.78125 2.75q0.796875 1.015625 2.25 1.015625q1.609375 0 3.09375 -0.984375l0.265625 2.546875q-1.390625 0.875 -3.609375 0.875zm8.595734 -0.234375l-2.96875 0l0 -18.0l2.96875 0l0 10.921875l3.8125 -4.921875l3.359375 0l-4.390625 5.765625l4.390625 6.234375l-3.359375 0l-3.8125 -5.328125l0 5.328125zm18.811829 -5.359375l-7.75 0q0.25 1.5625 1.265625 2.359375q1.015625 0.796875 2.3125 0.796875q0.40625 0 0.890625 -0.078125q0.484375 -0.078125 0.96875 -0.203125q0.5 -0.125 0.96875 -0.296875q0.484375 -0.1875 0.875 -0.40625l0.140625 2.515625q-1.75 0.90625 -4.015625 0.90625q-1.578125 0 -2.796875 -0.46875q-1.203125 -0.484375 -2.03125 -1.3125q-0.828125 -0.828125 -1.25 -1.96875q-0.421875 -1.140625 -0.421875 -2.453125q0 -1.296875 0.390625 -2.421875q0.40625 -1.140625 1.140625 -1.984375q0.75 -0.859375 1.8125 -1.328125q1.078125 -0.484375 2.421875 -0.484375q1.125 0 2.09375 0.375q0.96875 0.359375 1.671875 1.046875q0.71875 0.6875 1.109375 1.65625q0.40625 0.953125 0.40625 2.125q0 0.671875 -0.203125 1.625zm-7.671875 -2.015625l4.84375 0q0 -0.921875 -0.53125 -1.640625q-0.53125 -0.734375 -1.625 -0.734375q-1.109375 0 -1.78125 0.65625q-0.671875 0.640625 -0.90625 1.71875z" fill-rule="nonzero"></path><path fill="#000000" fill-opacity="0.0" d="m550.0105 344.72205l76.12598 0l0 59.307068l-76.12598 0z" fill-rule="nonzero"></path><path fill="#000000" d="m571.10425 377.14246l-2.78125 8.3125q0.671875 0.09375 1.09375 0.09375q0.734375 0 1.53125 -0.21875l-0.21875 0.765625q-0.796875 0.21875 -1.484375 0.21875q-0.703125 0 -1.75 -0.125q-1.15625 -0.09375 -1.953125 -0.09375q-1.3125 0 -3.234375 0.359375l0.28125 -0.875q1.625 -0.4375 2.125 -0.859375q0.703125 -0.53125 1.34375 -2.375l2.875 -8.734375q0.578125 -1.828125 0.578125 -2.015625q0 -0.265625 -0.203125 -0.359375q-0.1875 -0.109375 -0.640625 -0.109375l0.296875 -0.78125q1.890625 0 4.640625 -0.5625q-0.140625 0.34375 -0.265625 0.65625q-0.109375 0.3125 -1.9375 5.703125q0.4375 0.15625 0.984375 0.15625q1.734375 0 2.9375 -1.4375q1.21875 -1.453125 1.21875 -3.515625q0 -1.328125 -0.796875 -2.15625q-0.78125 -0.828125 -2.234375 -0.828125q-2.421875 0 -4.734375 1.234375q-2.3125 1.234375 -3.671875 3.046875q-1.359375 1.796875 -1.359375 3.65625q0 0.734375 0.28125 1.25q0.28125 0.515625 0.8125 0.96875q0.796875 0.671875 0.796875 1.28125q0 0.421875 -0.3125 0.765625q-0.296875 0.34375 -0.75 0.34375q-0.90625 0 -1.484375 -1.296875q-0.5625 -1.296875 -0.5625 -2.40625q0 -2.546875 1.5 -4.734375q1.5 -2.1875 4.171875 -3.671875q2.671875 -1.484375 5.828125 -1.484375q2.796875 0 4.453125 1.015625q1.65625 1.015625 1.65625 2.796875q0 1.53125 -0.921875 2.859375q-0.90625 1.3125 -2.1875 2.078125q-1.265625 0.765625 -3.109375 1.109375q0.4375 1.125 0.703125 2.3125q0.28125 1.171875 0.546875 2.453125q0.9375 4.78125 1.875 6.40625q0.953125 1.625 2.25 1.625q0.4375 0 0.796875 -0.34375q0.359375 -0.328125 0.546875 -1.0q0.453125 -1.640625 1.34375 -1.640625q0.453125 0 0.734375 0.28125q0.296875 0.296875 0.296875 0.78125q0 1.0 -1.1875 1.921875q-1.171875 0.921875 -2.84375 0.921875q-2.296875 0 -3.828125 -1.578125q-1.53125 -1.578125 -2.4375 -4.921875q-0.375 -1.40625 -0.765625 -3.65625q-0.4375 -2.46875 -0.71875 -3.5625l-0.125 -0.03125z" fill-rule="nonzero"></path><path fill="#000000" fill-opacity="0.0" d="m682.1076 337.99417l240.81891 0l0 71.62204l-240.81891 0z" fill-rule="nonzero"></path><path fill="#000000" d="m698.7326 368.54977l-0.15625 1.71875l-1.953125 0q-1.5625 0 -2.3125 -0.8125q-0.75 -0.8125 -0.75 -1.984375l0 -7.515625l-2.015625 0l0.1875 -1.6875l1.828125 0l0 -2.890625l2.15625 -0.21875l0 3.109375l3.09375 0l0 1.6875l-3.09375 0l0 6.1875q0 0.84375 0.046875 1.328125q0.046875 0.46875 0.265625 0.71875q0.234375 0.234375 0.734375 0.296875q0.515625 0.0625 1.421875 0.0625l0.546875 0zm11.931763 -4.390625l-8.515625 0q0.390625 4.1875 4.421875 4.1875q1.796875 0 3.375 -0.6875l0.296875 1.703125q-2.09375 0.90625 -3.9375 0.90625q-1.5 0 -2.6875 -0.46875q-1.1875 -0.484375 -2.0 -1.3125q-0.8125 -0.828125 -1.25 -1.96875q-0.421875 -1.140625 -0.421875 -2.453125q0 -1.28125 0.40625 -2.375q0.40625 -1.109375 1.140625 -1.90625q0.75 -0.8125 1.8125 -1.28125q1.078125 -0.46875 2.390625 -0.46875q1.125 0 2.0625 0.34375q0.9375 0.328125 1.59375 0.984375q0.671875 0.640625 1.03125 1.5625q0.375 0.921875 0.375 2.078125q0 0.671875 -0.09375 1.15625zm-5.015625 -4.203125q-2.609375 0 -3.3125 2.703125l6.203125 0q0 -1.28125 -0.734375 -1.984375q-0.71875 -0.71875 -2.15625 -0.71875zm13.522339 -2.109375l-0.484375 2.375l-0.75 0q-0.359375 0 -0.765625 0.140625q-0.40625 0.125 -0.78125 0.34375q-0.375 0.203125 -0.6875 0.46875q-0.3125 0.265625 -0.453125 0.5625l0 8.296875l-2.296875 0l0 -11.765625l1.765625 0l0.265625 1.953125q1.109375 -1.25 2.0 -1.8125q0.90625 -0.5625 1.984375 -0.5625l0.203125 0zm7.7039795 0l-0.484375 2.375l-0.75 0q-0.359375 0 -0.765625 0.140625q-0.40625 0.125 -0.78125 0.34375q-0.375 0.203125 -0.6875 0.46875q-0.3125 0.265625 -0.453125 0.5625l0 8.296875l-2.296875 0l0 -11.765625l1.765625 0l0.265625 1.953125q1.109375 -1.25 2.0 -1.8125q0.90625 -0.5625 1.984375 -0.5625l0.203125 0zm11.4852295 6.3125l-8.515625 0q0.390625 4.1875 4.421875 4.1875q1.796875 0 3.375 -0.6875l0.296875 1.703125q-2.09375 0.90625 -3.9375 0.90625q-1.5 0 -2.6875 -0.46875q-1.1875 -0.484375 -2.0 -1.3125q-0.8125 -0.828125 -1.25 -1.96875q-0.421875 -1.140625 -0.421875 -2.453125q0 -1.28125 0.40625 -2.375q0.40625 -1.109375 1.140625 -1.90625q0.75 -0.8125 1.8125 -1.28125q1.078125 -0.46875 2.390625 -0.46875q1.125 0 2.0625 0.34375q0.9375 0.328125 1.59375 0.984375q0.671875 0.640625 1.03125 1.5625q0.375 0.921875 0.375 2.078125q0 0.671875 -0.09375 1.15625zm-5.015625 -4.203125q-2.609375 0 -3.3125 2.703125l6.203125 0q0 -1.28125 -0.734375 -1.984375q-0.71875 -0.71875 -2.15625 -0.71875zm10.631714 10.3125q-2.5625 0 -4.03125 -1.03125l0.265625 -2.078125q0.484375 0.421875 1.46875 0.8125q1.0 0.375 2.203125 0.375q2.359375 0 2.359375 -1.453125q0 -1.328125 -2.359375 -1.953125q-0.71875 -0.15625 -1.359375 -0.390625q-0.625 -0.234375 -1.140625 -0.59375q-0.5 -0.375 -0.828125 -0.953125q-0.3125 -0.578125 -0.359375 -1.4375q0 -1.515625 1.078125 -2.515625q1.078125 -1.015625 3.328125 -1.015625q1.609375 0 3.1875 0.765625l-0.25 1.96875q-1.25 -1.03125 -2.890625 -1.03125q-2.28125 0 -2.28125 1.578125q0 0.390625 0.125 0.65625q0.125 0.265625 0.4375 0.46875q0.3125 0.203125 0.828125 0.390625q0.53125 0.1875 1.34375 0.4375q0.515625 0.140625 1.09375 0.390625q0.59375 0.25 1.09375 0.671875q0.5 0.40625 0.828125 1.0q0.34375 0.59375 0.34375 1.4375q0 0.578125 -0.1875 1.203125q-0.1875 0.625 -0.703125 1.125q-0.5 0.5 -1.375 0.84375q-0.875 0.328125 -2.21875 0.328125zm12.764099 -1.71875l-0.15625 1.71875l-1.953125 0q-1.5625 0 -2.3125 -0.8125q-0.75 -0.8125 -0.75 -1.984375l0 -7.515625l-2.015625 0l0.1875 -1.6875l1.828125 0l0 -2.890625l2.15625 -0.21875l0 3.109375l3.09375 0l0 1.6875l-3.09375 0l0 6.1875q0 0.84375 0.046875 1.328125q0.046875 0.46875 0.265625 0.71875q0.234375 0.234375 0.734375 0.296875q0.515625 0.0625 1.421875 0.0625l0.546875 0zm8.150452 -10.703125l-0.484375 2.375l-0.75 0q-0.359375 0 -0.765625 0.140625q-0.40625 0.125 -0.78125 0.34375q-0.375 0.203125 -0.6875 0.46875q-0.3125 0.265625 -0.453125 0.5625l0 8.296875l-2.296875 0l0 -11.765625l1.765625 0l0.265625 1.953125q1.109375 -1.25 2.0 -1.8125q0.90625 -0.5625 1.984375 -0.5625l0.203125 0zm3.6414795 -2.21875l-2.15625 0l0 -2.390625l2.15625 0l0 2.390625zm0 14.40625l-2.15625 0l0 -11.765625l2.15625 0l0 11.765625zm6.2598877 0.234375q-2.5625 0 -4.03125 -1.03125l0.265625 -2.078125q0.484375 0.421875 1.46875 0.8125q1.0 0.375 2.203125 0.375q2.359375 0 2.359375 -1.453125q0 -1.328125 -2.359375 -1.953125q-0.71875 -0.15625 -1.359375 -0.390625q-0.625 -0.234375 -1.140625 -0.59375q-0.5 -0.375 -0.828125 -0.953125q-0.3125 -0.578125 -0.359375 -1.4375q0 -1.515625 1.078125 -2.515625q1.078125 -1.015625 3.328125 -1.015625q1.609375 0 3.1875 0.765625l-0.25 1.96875q-1.25 -1.03125 -2.890625 -1.03125q-2.28125 0 -2.28125 1.578125q0 0.390625 0.125 0.65625q0.125 0.265625 0.4375 0.46875q0.3125 0.203125 0.828125 0.390625q0.53125 0.1875 1.34375 0.4375q0.515625 0.140625 1.09375 0.390625q0.59375 0.25 1.09375 0.671875q0.5 0.40625 0.828125 1.0q0.34375 0.59375 0.34375 1.4375q0 0.578125 -0.1875 1.203125q-0.1875 0.625 -0.703125 1.125q-0.5 0.5 -1.375 0.84375q-0.875 0.328125 -2.21875 0.328125zm11.779724 0q-1.40625 0 -2.484375 -0.46875q-1.078125 -0.46875 -1.84375 -1.296875q-0.75 -0.828125 -1.140625 -1.9375q-0.375 -1.109375 -0.375 -2.4375q0 -1.34375 0.375 -2.453125q0.390625 -1.125 1.125 -1.9375q0.734375 -0.8125 1.8125 -1.25q1.09375 -0.453125 2.515625 -0.453125q2.34375 0 3.625 0.703125l-0.34375 1.9375q-1.484375 -0.71875 -3.046875 -0.71875q-1.9375 0 -2.90625 1.078125q-0.953125 1.078125 -0.953125 3.09375q0 2.015625 0.953125 3.140625q0.96875 1.109375 2.90625 1.109375q1.59375 0 3.078125 -0.71875l0.28125 1.734375q-1.3125 0.875 -3.578125 0.875zm15.91156 -0.234375l-2.15625 0l0 -6.28125q0 -2.09375 -0.625 -2.9375q-0.625 -0.859375 -2.171875 -0.859375q-2.125 0 -3.078125 1.53125l0 8.546875l-2.1875 0l0 -18.0l2.1875 0l0 7.515625q1.171875 -1.515625 3.40625 -1.515625q4.625 0 4.625 5.71875l0 6.28125zm12.820496 -5.875l-8.515625 0q0.390625 4.1875 4.421875 4.1875q1.796875 0 3.375 -0.6875l0.296875 1.703125q-2.09375 0.90625 -3.9375 0.90625q-1.5 0 -2.6875 -0.46875q-1.1875 -0.484375 -2.0 -1.3125q-0.8125 -0.828125 -1.25 -1.96875q-0.421875 -1.140625 -0.421875 -2.453125q0 -1.28125 0.40625 -2.375q0.40625 -1.109375 1.140625 -1.90625q0.75 -0.8125 1.8125 -1.28125q1.078125 -0.46875 2.390625 -0.46875q1.125 0 2.0625 0.34375q0.9375 0.328125 1.59375 0.984375q0.671875 0.640625 1.03125 1.5625q0.375 0.921875 0.375 2.078125q0 0.671875 -0.09375 1.15625zm-5.015625 -4.203125q-2.609375 0 -3.3125 2.703125l6.203125 0q0 -1.28125 -0.734375 -1.984375q-0.71875 -0.71875 -2.15625 -0.71875z" fill-rule="nonzero"></path><path fill="#000000" d="m703.4982 399.03415l-10.46875 0l0 -16.796875l10.25 0l0 2.0625l-7.96875 0l0 4.921875l6.328125 0l0 2.0625l-6.328125 0l0 5.6875l8.1875 0l0 2.0625zm4.5303345 -14.40625l-2.15625 0l0 -2.390625l2.15625 0l0 2.390625zm0 14.40625l-2.15625 0l0 -11.765625l2.15625 0l0 11.765625zm7.5880127 6.0q-1.390625 0 -2.4375 -0.296875q-1.03125 -0.28125 -1.71875 -0.78125q-0.671875 -0.484375 -1.015625 -1.140625q-0.328125 -0.640625 -0.328125 -1.328125q0 -1.875 2.09375 -2.640625q-1.203125 -0.578125 -1.203125 -1.5q0 -0.40625 0.3125 -0.890625q0.328125 -0.5 1.078125 -0.859375q-2.046875 -1.453125 -2.046875 -3.828125q0 -1.015625 0.328125 -1.875q0.328125 -0.875 0.9375 -1.5q0.609375 -0.640625 1.5 -1.0q0.90625 -0.359375 2.03125 -0.359375q1.59375 0 3.0 0.859375q1.25 -0.671875 2.859375 -0.671875l0.203125 0l-0.265625 1.4375l-0.5625 0q-0.734375 0 -1.390625 0.171875q1.078125 1.296875 1.078125 2.8125q0 0.9375 -0.34375 1.78125q-0.328125 0.828125 -0.9375 1.484375q-0.609375 0.640625 -1.484375 1.03125q-0.875 0.375 -1.984375 0.375q-0.9375 0 -1.671875 -0.203125q-0.578125 0.328125 -0.578125 0.71875q0 0.21875 0.125 0.375q0.140625 0.140625 0.53125 0.265625q0.390625 0.125 1.09375 0.265625q0.71875 0.125 1.890625 0.34375q0.796875 0.140625 1.640625 0.359375q0.84375 0.203125 1.515625 0.578125q0.6875 0.359375 1.140625 0.921875q0.453125 0.5625 0.515625 1.390625q0 0.75 -0.421875 1.421875q-0.40625 0.671875 -1.15625 1.171875q-0.75 0.515625 -1.859375 0.8125q-1.109375 0.296875 -2.46875 0.296875zm-0.4375 -16.265625q-1.3125 0 -2.046875 0.8125q-0.71875 0.796875 -0.71875 2.109375q0 1.375 0.78125 2.171875q0.78125 0.796875 2.03125 0.796875q1.296875 0 2.03125 -0.859375q0.75 -0.859375 0.75 -2.1875q0 -1.359375 -0.765625 -2.09375q-0.765625 -0.75 -2.0625 -0.75zm1.015625 10.890625q-0.421875 0 -2.140625 -0.28125q-0.8125 0.234375 -1.34375 0.828125q-0.53125 0.609375 -0.53125 1.234375q0 0.828125 0.9375 1.359375q0.9375 0.546875 2.59375 0.546875q1.71875 0 2.671875 -0.5625q0.953125 -0.5625 0.953125 -1.296875q0 -1.25 -3.140625 -1.828125zm16.71759 -6.5l-8.515625 0q0.390625 4.1875 4.421875 4.1875q1.796875 0 3.375 -0.6875l0.296875 1.703125q-2.09375 0.90625 -3.9375 0.90625q-1.5 0 -2.6875 -0.46875q-1.1875 -0.484375 -2.0 -1.3125q-0.8125 -0.828125 -1.25 -1.96875q-0.421875 -1.140625 -0.421875 -2.453125q0 -1.28125 0.40625 -2.375q0.40625 -1.109375 1.140625 -1.90625q0.75 -0.8125 1.8125 -1.28125q1.078125 -0.46875 2.390625 -0.46875q1.125 0 2.0625 0.34375q0.9375 0.328125 1.59375 0.984375q0.671875 0.640625 1.03125 1.5625q0.375 0.921875 0.375 2.078125q0 0.671875 -0.09375 1.15625zm-5.015625 -4.203125q-2.609375 0 -3.3125 2.703125l6.203125 0q0 -1.28125 -0.734375 -1.984375q-0.71875 -0.71875 -2.15625 -0.71875zm17.912964 10.078125l-2.171875 0l0 -6.484375q0 -1.890625 -0.703125 -2.734375q-0.703125 -0.859375 -2.359375 -0.859375q-2.359375 0 -3.21875 1.53125l0 8.546875l-2.15625 0l0 -11.765625l1.671875 0l0.25 1.25q1.671875 -1.484375 3.875 -1.484375q4.8125 0 4.8125 5.515625l0 6.484375zm6.1347046 0.234375q-2.5625 0 -4.03125 -1.03125l0.265625 -2.078125q0.484375 0.421875 1.46875 0.8125q1.0 0.375 2.203125 0.375q2.359375 0 2.359375 -1.453125q0 -1.328125 -2.359375 -1.953125q-0.71875 -0.15625 -1.359375 -0.390625q-0.625 -0.234375 -1.140625 -0.59375q-0.5 -0.375 -0.828125 -0.953125q-0.3125 -0.578125 -0.359375 -1.4375q0 -1.515625 1.078125 -2.515625q1.078125 -1.015625 3.328125 -1.015625q1.609375 0 3.1875 0.765625l-0.25 1.96875q-1.25 -1.03125 -2.890625 -1.03125q-2.28125 0 -2.28125 1.578125q0 0.390625 0.125 0.65625q0.125 0.265625 0.4375 0.46875q0.3125 0.203125 0.828125 0.390625q0.53125 0.1875 1.34375 0.4375q0.515625 0.140625 1.09375 0.390625q0.59375 0.25 1.09375 0.671875q0.5 0.40625 0.828125 1.0q0.34375 0.59375 0.34375 1.4375q0 0.578125 -0.1875 1.203125q-0.1875 0.625 -0.703125 1.125q-0.5 0.5 -1.375 0.84375q-0.875 0.328125 -2.21875 0.328125zm11.779724 0q-1.40625 0 -2.484375 -0.46875q-1.078125 -0.46875 -1.84375 -1.296875q-0.75 -0.828125 -1.140625 -1.9375q-0.375 -1.109375 -0.375 -2.4375q0 -1.34375 0.375 -2.453125q0.390625 -1.125 1.125 -1.9375q0.734375 -0.8125 1.8125 -1.25q1.09375 -0.453125 2.515625 -0.453125q2.34375 0 3.625 0.703125l-0.34375 1.9375q-1.484375 -0.71875 -3.046875 -0.71875q-1.9375 0 -2.90625 1.078125q-0.953125 1.078125 -0.953125 3.09375q0 2.015625 0.953125 3.140625q0.96875 1.109375 2.90625 1.109375q1.59375 0 3.078125 -0.71875l0.28125 1.734375q-1.3125 0.875 -3.578125 0.875zm15.91156 -0.234375l-2.15625 0l0 -6.28125q0 -2.09375 -0.625 -2.9375q-0.625 -0.859375 -2.171875 -0.859375q-2.125 0 -3.078125 1.53125l0 8.546875l-2.1875 0l0 -18.0l2.1875 0l0 7.515625q1.171875 -1.515625 3.40625 -1.515625q4.625 0 4.625 5.71875l0 6.28125zm12.679871 -1.484375l-0.34375 1.71875l-0.15625 0q-0.71875 0 -1.203125 -0.078125q-0.484375 -0.078125 -0.828125 -0.28125q-0.328125 -0.21875 -0.5625 -0.546875q-0.21875 -0.34375 -0.4375 -0.8125q-1.484375 1.71875 -3.59375 1.71875q-1.65625 0 -2.640625 -0.9375q-0.984375 -0.953125 -0.984375 -2.46875q0 -1.21875 0.65625 -2.0q0.65625 -0.796875 1.671875 -1.28125q1.03125 -0.484375 2.28125 -0.6875q1.25 -0.203125 2.421875 -0.234375q0 -1.578125 -0.609375 -2.140625q-0.609375 -0.5625 -1.953125 -0.5625q-1.546875 0 -3.109375 1.046875l-0.3125 -1.75q1.59375 -1.21875 3.984375 -1.21875q1.140625 0 1.921875 0.296875q0.796875 0.296875 1.28125 0.96875q0.5 0.65625 0.71875 1.734375q0.234375 1.078125 0.234375 2.640625l0 2.40625q0 1.390625 0.234375 1.9375q0.25 0.53125 1.109375 0.53125l0.21875 0zm-3.71875 -1.59375l0 -2.796875q-2.59375 0.09375 -3.71875 0.6875q-1.109375 0.578125 -1.109375 1.90625q0 1.796875 1.828125 1.796875q0.859375 0 1.65625 -0.4375q0.8125 -0.4375 1.34375 -1.15625zm11.5199585 -7.0l-3.171875 0l0 10.078125l-2.15625 0l0 -10.078125l-2.046875 0l0.296875 -1.6875l1.75 0l0 -2.96875q0 -1.46875 0.703125 -2.359375q0.71875 -0.90625 2.03125 -0.90625q1.53125 0 2.453125 0.3125l-0.34375 1.828125q-0.6875 -0.21875 -1.4375 -0.21875q-0.40625 0 -0.65625 0.09375q-0.234375 0.078125 -0.375 0.375q-0.125 0.296875 -0.171875 0.875q-0.046875 0.578125 -0.046875 1.53125l0 1.4375l3.171875 0l0 1.6875zm7.9595947 8.59375l-0.15625 1.71875l-1.953125 0q-1.5625 0 -2.3125 -0.8125q-0.75 -0.8125 -0.75 -1.984375l0 -7.515625l-2.015625 0l0.1875 -1.6875l1.828125 0l0 -2.890625l2.15625 -0.21875l0 3.109375l3.09375 0l0 1.6875l-3.09375 0l0 6.1875q0 0.84375 0.046875 1.328125q0.046875 0.46875 0.265625 0.71875q0.234375 0.234375 0.734375 0.296875q0.515625 0.0625 1.421875 0.0625l0.546875 0zm11.931702 -4.390625l-8.515625 0q0.390625 4.1875 4.421875 4.1875q1.796875 0 3.375 -0.6875l0.296875 1.703125q-2.09375 0.90625 -3.9375 0.90625q-1.5 0 -2.6875 -0.46875q-1.1875 -0.484375 -2.0 -1.3125q-0.8125 -0.828125 -1.25 -1.96875q-0.421875 -1.140625 -0.421875 -2.453125q0 -1.28125 0.40625 -2.375q0.40625 -1.109375 1.140625 -1.90625q0.75 -0.8125 1.8125 -1.28125q1.078125 -0.46875 2.390625 -0.46875q1.125 0 2.0625 0.34375q0.9375 0.328125 1.59375 0.984375q0.671875 0.640625 1.03125 1.5625q0.375 0.921875 0.375 2.078125q0 0.671875 -0.09375 1.15625zm-5.015625 -4.203125q-2.609375 0 -3.3125 2.703125l6.203125 0q0 -1.28125 -0.734375 -1.984375q-0.71875 -0.71875 -2.15625 -0.71875zm17.912964 10.078125l-2.171875 0l0 -6.484375q0 -1.890625 -0.703125 -2.734375q-0.703125 -0.859375 -2.359375 -0.859375q-2.359375 0 -3.21875 1.53125l0 8.546875l-2.15625 0l0 -11.765625l1.671875 0l0.25 1.25q1.671875 -1.484375 3.875 -1.484375q4.8125 0 4.8125 5.515625l0 6.484375z" fill-rule="nonzero"></path><path fill="#000000" fill-opacity="0.0" d="m643.46436 345.8244l38.425232 0l0 55.93701l-38.425232 0z" fill-rule="nonzero"></path><path fill="#000000" d="m659.7925 382.24753l0 -5.953125l-6.0 0l0 -4.109375l6.0 0l0 -5.953125l4.0 0l0 5.953125l6.015625 0l0 4.109375l-6.015625 0l0 5.953125l-4.0 0z" fill-rule="nonzero"></path><path fill="#000000" fill-opacity="0.0" d="m851.9452 266.39047l56.629944 0l0 55.93701l-56.629944 0z" fill-rule="nonzero"></path><path fill="#666666" d="m872.7577 293.3105l-2.515625 0l-1.140625 -3.21875l-4.4375 0l-1.140625 3.21875l-2.515625 0l4.71875 -13.296875l2.3125 0l4.71875 13.296875zm-4.5 -5.5625l-1.390625 -3.90625l-1.359375 3.90625l2.75 0zm10.613281 1.1875l-2.375 0l0 4.375l-2.421875 0l0 -13.296875l3.75 0q1.453125 0 2.515625 0.15625q1.078125 0.15625 1.78125 0.625q0.703125 0.46875 1.046875 1.296875q0.359375 0.828125 0.359375 2.140625q0 1.390625 -0.4375 2.296875q-0.4375 0.890625 -1.125 1.4375q-0.671875 0.53125 -1.5 0.75q-0.828125 0.21875 -1.59375 0.21875zm-0.375 -6.890625l-2.0 0l0 4.609375l2.0625 0q1.34375 0 1.921875 -0.53125q0.578125 -0.546875 0.578125 -1.875q0 -0.59375 -0.125 -1.0q-0.125 -0.421875 -0.421875 -0.6875q-0.28125 -0.265625 -0.78125 -0.390625q-0.5 -0.125 -1.234375 -0.125zm10.400391 11.265625l-2.4375 0l0 -9.859375q-0.796875 0.546875 -1.671875 0.6875l-0.203125 -2.0625q0.296875 -0.078125 0.671875 -0.28125q0.390625 -0.203125 0.734375 -0.5q0.359375 -0.296875 0.625 -0.625q0.28125 -0.34375 0.421875 -0.65625l1.859375 0l0 13.296875z" fill-rule="nonzero"></path></g></svg>

