<?xml version="1.0" standalone="yes"?>

<svg version="1.1" viewBox="0.0 0.0 961.7637795275591 679.4120734908137" fill="none" stroke="none" stroke-linecap="square" stroke-miterlimit="10" xmlns="http://www.w3.org/2000/svg" xmlns:xlink="http://www.w3.org/1999/xlink"><clipPath id="p.0"><path d="m0 0l961.7638 0l0 679.41205l-961.7638 0l0 -679.41205z" clip-rule="nonzero"></path></clipPath><g clip-path="url(#p.0)"><path fill="#000000" fill-opacity="0.0" d="m0 0l961.7638 0l0 679.41205l-961.7638 0z" fill-rule="nonzero"></path><path fill="#000000" fill-opacity="0.0" d="m54.952755 478.21658l843.43304 0l0 192.28348l-843.43304 0z" fill-rule="nonzero"></path><path stroke="#666666" stroke-width="3.0" stroke-linejoin="round" stroke-linecap="butt" stroke-dasharray="12.0,9.0" d="m54.952755 478.21658l843.43304 0l0 192.28348l-843.43304 0z" fill-rule="nonzero"></path><path fill="#000000" fill-opacity="0.0" d="m704.24756 533.958l180.66144 0l0 71.62207l-180.66144 0z" fill-rule="nonzero"></path><path stroke="#4a86e8" stroke-width="8.0" stroke-linejoin="round" stroke-linecap="butt" d="m704.24756 533.958l180.66144 0l0 71.62207l-180.66144 0z" fill-rule="nonzero"></path><path fill="#000000" fill-opacity="0.0" d="m718.9029 529.7848l156.34644 0l0 71.62201l-156.34644 0z" fill-rule="nonzero"></path><path fill="#000000" d="m743.93414 563.78455q-1.734375 4.078125 -2.84375 7.640625q-1.109375 3.546875 -1.28125 5.40625q-0.296875 2.5625 -0.953125 4.03125q-0.640625 1.484375 -1.765625 2.546875q-1.125 1.078125 -2.59375 1.625q-1.46875 0.5625 -3.171875 0.5625q-1.953125 0 -3.15625 -0.84375q-1.1875 -0.84375 -1.1875 -2.1875q0 -0.875 0.4375 -1.640625q0.4375 -0.75 1.25 -1.390625q0.8125 -0.625 3.0625 -1.78125q0.625 -0.328125 1.125 -0.6875q-0.578125 0.25 -1.078125 0.25q-1.40625 0 -1.40625 -1.984375q0 -2.15625 1.5625 -4.78125q1.578125 -2.625 3.96875 -4.40625q1.484375 -0.9375 2.65625 -1.28125q1.171875 -0.34375 2.875 -0.34375l1.125 0.03125l0.1875 -0.484375l1.1875 -0.28125zm-4.15625 2.59375q-0.46875 -0.171875 -1.0 -0.171875q-0.953125 0 -1.71875 0.4375q-0.75 0.421875 -1.3125 1.21875q-0.546875 0.78125 -1.046875 2.203125q-0.5 1.40625 -0.765625 2.421875q-0.265625 1.015625 -0.265625 1.859375q0 0.578125 0.234375 0.90625q0.25 0.328125 0.65625 0.328125q0.25 0 0.515625 -0.1875q0.28125 -0.203125 1.390625 -1.328125q1.109375 -1.140625 1.84375 -3.53125l1.46875 -4.15625zm-2.6875 8.4375q-0.921875 0.734375 -1.625 1.390625l-1.296875 1.140625l-1.71875 1.40625q-1.453125 1.140625 -2.0625 1.953125q-0.59375 0.828125 -0.59375 1.765625q0 0.96875 0.546875 1.53125q0.546875 0.578125 1.375 0.578125q1.71875 0 3.0 -1.78125q1.296875 -1.78125 1.828125 -5.03125q0.359375 -2.28125 0.546875 -2.953125zm26.765625 -19.265625q0 0.15625 -0.171875 0.28125q-0.171875 0.125 -0.40625 0.265625q-1.421875 0.921875 -3.5 3.234375q-2.0625 2.3125 -3.46875 4.890625q-1.390625 2.578125 -2.328125 5.453125q-0.9375 2.875 -1.25 4.84375q-0.296875 1.96875 -0.296875 4.109375q0 1.15625 0.046875 2.03125q0.0625 0.890625 0.171875 1.9375q0.125 1.046875 0.453125 2.140625q0.09375 0.25 0.09375 0.421875q0 0.28125 -0.296875 0.28125q-0.265625 0 -0.5 -0.375q-1.046875 -1.578125 -1.671875 -3.953125q-0.609375 -2.375 -0.609375 -4.984375q0 -4.359375 2.109375 -8.765625q3.671875 -7.625 9.453125 -11.171875q1.484375 -0.921875 1.875 -0.921875q0.296875 0 0.296875 0.28125zm3.0625 5.25l-1.5 4.390625l2.53125 0l-0.328125 1.109375l-2.515625 0l-1.828125 5.21875q-0.859375 2.484375 -0.859375 3.53125q0 0.5625 0.34375 0.5625q0.578125 0 3.546875 -2.296875l0.515625 0.703125q-2.53125 2.0 -3.40625 2.546875q-0.875 0.546875 -1.703125 0.875q-0.828125 0.328125 -1.640625 0.328125q-1.21875 0 -1.21875 -1.484375q0 -1.265625 0.9375 -3.765625l2.109375 -6.21875l-2.3125 0l0.390625 -1.109375l2.234375 0l1.1875 -3.421875l3.515625 -0.96875zm-4.46875 24.359375q0 -0.203125 0.09375 -0.296875q0.078125 -0.078125 0.34375 -0.21875q1.3125 -0.71875 3.328125 -2.859375q2.015625 -2.125 3.359375 -4.46875q1.421875 -2.421875 2.5 -5.609375q1.09375 -3.1875 1.4375 -5.21875q0.359375 -2.03125 0.359375 -4.34375q0 -3.609375 -0.609375 -5.921875q-0.125 -0.421875 -0.125 -0.640625q0 -0.3125 0.28125 -0.3125q0.375 0 1.109375 1.390625q0.734375 1.390625 1.203125 3.625q0.46875 2.21875 0.46875 4.390625q0 4.203125 -2.140625 8.703125q-3.5625 7.53125 -9.375 11.140625q-1.53125 0.921875 -1.953125 0.921875q-0.28125 0 -0.28125 -0.28125z" fill-rule="nonzero"></path><path fill="#f9f9f9" d="m784.94977 548.8002l17.5625 0l0 36.796875l-17.5625 0l0 -36.796875z" fill-rule="nonzero"></path><path fill="#000000" d="m805.1685 559.78455l1.9375 0q-0.671875 2.890625 -2.234375 4.234375q-1.546875 1.34375 -3.390625 1.34375q-0.8125 0 -1.640625 -0.25q-0.828125 -0.25 -4.03125 -1.6875q-2.109375 -0.953125 -3.0 -0.953125q-0.84375 0 -1.546875 0.53125q-0.6875 0.515625 -1.421875 2.328125l-1.90625 0q0.5625 -2.21875 1.328125 -3.28125q0.765625 -1.0625 1.9375 -1.671875q1.171875 -0.625 2.234375 -0.625q0.765625 0 1.53125 0.234375q1.546875 0.46875 4.25 1.734375q1.328125 0.640625 2.15625 0.875q0.375 0.109375 0.859375 0.109375q0.90625 0 1.640625 -0.578125q0.734375 -0.578125 1.296875 -2.34375zm-1.625 7.671875l1.9375 0q-0.671875 2.90625 -2.234375 4.25q-1.5625 1.34375 -3.40625 1.34375q-0.8125 0 -2.453125 -0.515625l-3.203125 -1.4375q-2.125 -0.9375 -3.015625 -0.9375q-0.84375 0 -1.546875 0.53125q-0.6875 0.515625 -1.421875 2.328125l-1.90625 0q0.578125 -2.21875 1.328125 -3.28125q0.765625 -1.0625 1.9375 -1.6875q1.171875 -0.625 2.234375 -0.625q0.765625 0 1.515625 0.234375q1.578125 0.484375 4.28125 1.75q1.34375 0.640625 2.15625 0.859375q0.359375 0.109375 0.84375 0.109375q0.90625 0 1.640625 -0.5625q0.75 -0.578125 1.3125 -2.359375z" fill-rule="nonzero"></path><path fill="#f9f9f9" d="m802.51227 552.03455l48.296875 0l0 34.984375l-48.296875 0l0 -34.984375z" fill-rule="nonzero"></path><path fill="#000000" d="m813.07477 565.1908l3.359375 0q1.296875 -3.53125 2.734375 -5.5q1.4375 -1.96875 3.515625 -3.1875q2.09375 -1.234375 3.640625 -1.234375q0.953125 0 1.5 0.390625q0.546875 0.390625 0.546875 1.078125q0 0.625 -0.328125 1.078125q-0.328125 0.453125 -0.890625 0.453125q-0.484375 0 -1.609375 -0.5625q-1.140625 -0.546875 -1.671875 -0.546875q-0.90625 0 -1.609375 1.09375q-0.6875 1.078125 -1.53125 3.609375l-1.09375 3.328125l3.75 0l-0.359375 1.109375l-3.734375 0l-3.234375 9.953125q-0.90625 2.734375 -2.5 4.828125q-1.59375 2.09375 -3.625 3.265625q-2.015625 1.1875 -4.015625 1.1875q-0.9375 0 -1.390625 -0.4375q-0.46875 -0.4375 -0.46875 -1.09375q0 -0.71875 0.40625 -1.125q0.40625 -0.40625 1.0 -0.40625q0.4375 0 1.5625 0.40625q1.109375 0.421875 1.609375 0.421875q1.0 0 1.734375 -0.984375q0.734375 -0.96875 1.5 -3.265625l4.1875 -12.75l-3.359375 0l0.375 -1.109375zm29.328125 -9.640625q0 0.15625 -0.171875 0.28125q-0.171875 0.125 -0.40625 0.265625q-1.421875 0.921875 -3.5 3.234375q-2.0625 2.3125 -3.46875 4.890625q-1.390625 2.578125 -2.328125 5.453125q-0.9375 2.875 -1.25 4.84375q-0.296875 1.96875 -0.296875 4.109375q0 1.15625 0.046875 2.03125q0.0625 0.890625 0.171875 1.9375q0.125 1.046875 0.453125 2.140625q0.09375 0.25 0.09375 0.421875q0 0.28125 -0.296875 0.28125q-0.265625 0 -0.5 -0.375q-1.046875 -1.578125 -1.671875 -3.953125q-0.609375 -2.375 -0.609375 -4.984375q0 -4.359375 2.109375 -8.765625q3.671875 -7.625 9.453125 -11.171875q1.484375 -0.921875 1.875 -0.921875q0.296875 0 0.296875 0.28125zm3.0625 5.25l-1.5 4.390625l2.53125 0l-0.328125 1.109375l-2.515625 0l-1.828125 5.21875q-0.859375 2.484375 -0.859375 3.53125q0 0.5625 0.34375 0.5625q0.578125 0 3.546875 -2.296875l0.515625 0.703125q-2.53125 2.0 -3.40625 2.546875q-0.875 0.546875 -1.703125 0.875q-0.828125 0.328125 -1.640625 0.328125q-1.21875 0 -1.21875 -1.484375q0 -1.265625 0.9375 -3.765625l2.109375 -6.21875l-2.3125 0l0.390625 -1.109375l2.234375 0l1.1875 -3.421875l3.515625 -0.96875zm-4.46875 24.359375q0 -0.203125 0.09375 -0.296875q0.078125 -0.078125 0.34375 -0.21875q1.3125 -0.71875 3.328125 -2.859375q2.015625 -2.125 3.359375 -4.46875q1.421875 -2.421875 2.5 -5.609375q1.09375 -3.1875 1.4375 -5.21875q0.359375 -2.03125 0.359375 -4.34375q0 -3.609375 -0.609375 -5.921875q-0.125 -0.421875 -0.125 -0.640625q0 -0.3125 0.28125 -0.3125q0.375 0 1.109375 1.390625q0.734375 1.390625 1.203125 3.625q0.46875 2.21875 0.46875 4.390625q0 4.203125 -2.140625 8.703125q-3.5625 7.53125 -9.375 11.140625q-1.53125 0.921875 -1.953125 0.921875q-0.28125 0 -0.28125 -0.28125z" fill-rule="nonzero"></path><path fill="#6aa84f" d="m75.91601 604.95264l52.88189 0l0 30.173279l-52.88189 0z" fill-rule="nonzero"></path><path fill="#000000" fill-opacity="0.0" d="m74.71391 637.1868l0 -143.18112" fill-rule="nonzero"></path><path stroke="#000000" stroke-width="2.0" stroke-linejoin="round" stroke-linecap="butt" d="m74.71391 637.1868l0 -131.18112" fill-rule="evenodd"></path><path fill="#000000" stroke="#000000" stroke-width="2.0" stroke-linecap="butt" d="m78.01737 506.0057l-3.3034592 -9.076202l-3.3034668 9.076202z" fill-rule="evenodd"></path><path fill="#6aa84f" d="m129.99475 570.33856l52.881897 0l0 64.81891l-52.881897 0z" fill-rule="nonzero"></path><path fill="#6aa84f" d="m184.07349 545.36237l52.881897 0l0 89.76373l-52.881897 0z" fill-rule="nonzero"></path><path fill="#6aa84f" d="m238.15224 586.7953l52.88188 0l0 48.346436l-52.88188 0z" fill-rule="nonzero"></path><path fill="#6aa84f" d="m292.23096 614.68787l52.881897 0l0 20.409424l-52.881897 0z" fill-rule="nonzero"></path><path fill="#000000" fill-opacity="0.0" d="m74.71391 636.1431l291.84253 0" fill-rule="nonzero"></path><path stroke="#a61c00" stroke-width="4.0" stroke-linejoin="round" stroke-linecap="butt" d="m74.71391 636.1431l267.84253 0" fill-rule="evenodd"></path><path fill="#a61c00" stroke="#a61c00" stroke-width="4.0" stroke-linecap="butt" d="m342.55643 642.75006l18.152405 -6.6069336l-18.152405 -6.6069336z" fill-rule="evenodd"></path><path fill="#000000" fill-opacity="0.0" d="m80.215225 613.64044l260.59845 0" fill-rule="nonzero"></path><path stroke="#ff9900" stroke-width="2.0" stroke-linejoin="round" stroke-linecap="butt" stroke-dasharray="16.0,6.0" d="m80.215225 613.64044l260.59845 0" fill-rule="nonzero"></path><path fill="#000000" fill-opacity="0.0" d="m80.215225 603.46326l260.59845 0" fill-rule="nonzero"></path><path stroke="#ff9900" stroke-width="2.0" stroke-linejoin="round" stroke-linecap="butt" stroke-dasharray="16.0,6.0" d="m80.215225 603.46326l260.59845 0" fill-rule="nonzero"></path><path fill="#000000" fill-opacity="0.0" d="m80.447815 585.1397l260.59842 0" fill-rule="nonzero"></path><path stroke="#ff9900" stroke-width="2.0" stroke-linejoin="round" stroke-linecap="butt" stroke-dasharray="16.0,6.0" d="m80.447815 585.1397l260.59842 0" fill-rule="nonzero"></path><path fill="#000000" fill-opacity="0.0" d="m80.215225 569.76904l260.59845 0" fill-rule="nonzero"></path><path stroke="#ff9900" stroke-width="2.0" stroke-linejoin="round" stroke-linecap="butt" stroke-dasharray="16.0,6.0" d="m80.215225 569.76904l260.59845 0" fill-rule="nonzero"></path><path fill="#000000" fill-opacity="0.0" d="m80.215225 545.13257l260.59845 0" fill-rule="nonzero"></path><path stroke="#ff9900" stroke-width="2.0" stroke-linejoin="round" stroke-linecap="butt" stroke-dasharray="16.0,6.0" d="m80.215225 545.13257l260.59845 0" fill-rule="nonzero"></path><path fill="#000000" fill-opacity="0.0" d="m381.48032 545.6737l201.48032 0l0 59.307068l-201.48032 0z" fill-rule="nonzero"></path><path fill="#000000" d="m402.30844 577.7137l-9.984375 0l0 -16.796875l3.078125 0l0 13.828125l6.90625 0l0 2.96875zm11.6874695 -5.359375l-7.75 0q0.25 1.5625 1.265625 2.359375q1.015625 0.796875 2.3125 0.796875q0.40625 0 0.890625 -0.078125q0.484375 -0.078125 0.96875 -0.203125q0.5 -0.125 0.96875 -0.296875q0.484375 -0.1875 0.875 -0.40625l0.140625 2.515625q-1.75 0.90625 -4.015625 0.90625q-1.578125 0 -2.796875 -0.46875q-1.203125 -0.484375 -2.03125 -1.3125q-0.828125 -0.828125 -1.25 -1.96875q-0.421875 -1.140625 -0.421875 -2.453125q0 -1.296875 0.390625 -2.421875q0.40625 -1.140625 1.140625 -1.984375q0.75 -0.859375 1.8125 -1.328125q1.078125 -0.484375 2.421875 -0.484375q1.125 0 2.09375 0.375q0.96875 0.359375 1.671875 1.046875q0.71875 0.6875 1.109375 1.65625q0.40625 0.953125 0.40625 2.125q0 0.671875 -0.203125 1.625zm-7.671875 -2.015625l4.84375 0q0 -0.921875 -0.53125 -1.640625q-0.53125 -0.734375 -1.625 -0.734375q-1.109375 0 -1.78125 0.65625q-0.671875 0.640625 -0.90625 1.71875zm12.891205 -6.453125l-2.984375 0l0 -2.96875l2.984375 0l0 2.96875zm0 13.828125l-2.984375 0l0 -12.0l2.984375 0l0 12.0zm6.1818542 0.234375q-2.734375 0 -4.046875 -0.875l0.265625 -2.546875q0.28125 0.21875 0.71875 0.4375q0.453125 0.203125 0.9375 0.375q0.5 0.171875 1.015625 0.28125q0.53125 0.109375 1.015625 0.109375q1.015625 0 1.421875 -0.390625q0.40625 -0.390625 0.40625 -0.9375q0 -0.53125 -0.296875 -0.796875q-0.28125 -0.28125 -0.828125 -0.484375q-0.53125 -0.203125 -1.296875 -0.421875q-0.765625 -0.234375 -1.734375 -0.71875q-0.71875 -0.40625 -1.078125 -0.984375q-0.359375 -0.59375 -0.4375 -1.65625q0 -0.75 0.25 -1.421875q0.265625 -0.6875 0.78125 -1.21875q0.53125 -0.53125 1.359375 -0.84375q0.828125 -0.328125 2.0 -0.328125q1.109375 0 2.171875 0.265625q1.078125 0.265625 1.609375 0.625l-0.265625 2.53125q-0.265625 -0.234375 -0.640625 -0.46875q-0.375 -0.25 -0.8125 -0.421875q-0.421875 -0.1875 -0.90625 -0.296875q-0.484375 -0.109375 -0.9375 -0.109375q-0.859375 0 -1.421875 0.328125q-0.5625 0.328125 -0.5625 1.0q0 0.578125 0.359375 0.875q0.375 0.28125 1.0 0.515625l0.40625 0.125q0.15625 0.046875 0.46875 0.125q0.328125 0.078125 0.5 0.140625q0.734375 0.203125 1.34375 0.5q0.625 0.28125 1.046875 0.71875q0.4375 0.4375 0.65625 1.03125q0.234375 0.59375 0.234375 1.421875q0 3.515625 -4.703125 3.515625zm13.058228 -2.4375l-0.265625 2.4375l-2.140625 0q-0.78125 0 -1.390625 -0.25q-0.59375 -0.25 -1.0 -0.671875q-0.40625 -0.421875 -0.609375 -0.984375q-0.203125 -0.578125 -0.203125 -1.234375l0 -6.640625l-1.703125 0l0.25 -2.453125l1.453125 0l0 -2.640625l2.96875 -0.3125l0 2.953125l2.640625 0l0 2.453125l-2.640625 0l0 5.421875q0 0.6875 0.046875 1.078125q0.046875 0.390625 0.21875 0.578125q0.1875 0.1875 0.546875 0.234375q0.359375 0.03125 1.015625 0.03125l0.8125 0zm12.412231 2.203125l-2.78125 0l-0.046875 -0.71875q-1.25 0.953125 -2.671875 0.953125q-5.09375 0 -5.09375 -5.78125l0 -6.453125l2.984375 0l0 6.453125q0 1.6875 0.5625 2.5q0.5625 0.796875 1.8125 0.796875q1.390625 0 2.25 -1.015625l0 -8.734375l2.984375 0l0 12.0zm13.35733 0l-2.96875 0l0 -6.453125q0 -1.6875 -0.5625 -2.484375q-0.5625 -0.8125 -1.8125 -0.8125q-1.375 0 -2.25 1.03125l0 8.71875l-2.984375 0l0 -12.0l2.78125 0l0.046875 0.71875q1.28125 -0.90625 2.640625 -0.90625q5.109375 0 5.109375 5.734375l0 6.453125zm7.5135803 6.0q-1.390625 0 -2.453125 -0.296875q-1.046875 -0.28125 -1.765625 -0.765625q-0.71875 -0.46875 -1.078125 -1.125q-0.359375 -0.640625 -0.359375 -1.359375q0 -1.65625 1.96875 -2.6875q-1.078125 -0.671875 -1.078125 -1.734375q0 -1.0625 1.1875 -1.625q-1.84375 -1.34375 -1.84375 -3.875q0 -1.0 0.328125 -1.859375q0.34375 -0.875 0.984375 -1.5q0.640625 -0.640625 1.53125 -1.0q0.90625 -0.359375 2.03125 -0.359375q1.609375 0 2.734375 0.71875q0.96875 -0.53125 2.5625 -0.53125l0.78125 0l-0.203125 1.875l-1.078125 0q-0.1875 0 -0.375 0q-0.171875 0 -0.296875 0.015625q0.71875 1.140625 0.71875 2.640625q0 0.984375 -0.328125 1.859375q-0.3125 0.859375 -0.9375 1.5q-0.609375 0.625 -1.515625 1.0q-0.90625 0.375 -2.0625 0.375q-0.3125 0 -0.625 -0.03125q-0.3125 -0.046875 -0.640625 -0.09375q-0.265625 0.125 -0.265625 0.390625q0 0.421875 0.65625 0.59375q0.65625 0.171875 2.34375 0.390625q0.78125 0.09375 1.609375 0.28125q0.828125 0.171875 1.515625 0.578125q0.6875 0.390625 1.15625 1.046875q0.46875 0.65625 0.53125 1.71875q0 1.796875 -1.484375 2.828125q-1.484375 1.03125 -4.25 1.03125zm-0.546875 -16.015625q-1.078125 0 -1.640625 0.6875q-0.5625 0.6875 -0.5625 1.859375q0 1.1875 0.5625 1.875q0.5625 0.671875 1.640625 0.671875q1.078125 0 1.625 -0.671875q0.5625 -0.6875 0.5625 -1.875q0 -1.171875 -0.5625 -1.859375q-0.546875 -0.6875 -1.625 -0.6875zm0.453125 10.734375q-0.640625 -0.078125 -1.4375 -0.21875q-1.65625 0.5625 -1.65625 1.65625q0 0.796875 0.796875 1.265625q0.8125 0.46875 2.25 0.46875q1.4375 0 2.34375 -0.4375q0.90625 -0.421875 0.90625 -1.203125q0 -0.765625 -0.90625 -1.078125q-0.90625 -0.3125 -2.296875 -0.453125zm10.680237 -0.484375q-2.734375 0 -4.046875 -0.875l0.265625 -2.546875q0.28125 0.21875 0.71875 0.4375q0.453125 0.203125 0.9375 0.375q0.5 0.171875 1.015625 0.28125q0.53125 0.109375 1.015625 0.109375q1.015625 0 1.421875 -0.390625q0.40625 -0.390625 0.40625 -0.9375q0 -0.53125 -0.296875 -0.796875q-0.28125 -0.28125 -0.828125 -0.484375q-0.53125 -0.203125 -1.296875 -0.421875q-0.765625 -0.234375 -1.734375 -0.71875q-0.71875 -0.40625 -1.078125 -0.984375q-0.359375 -0.59375 -0.4375 -1.65625q0 -0.75 0.25 -1.421875q0.265625 -0.6875 0.78125 -1.21875q0.53125 -0.53125 1.359375 -0.84375q0.828125 -0.328125 2.0 -0.328125q1.109375 0 2.171875 0.265625q1.078125 0.265625 1.609375 0.625l-0.265625 2.53125q-0.265625 -0.234375 -0.640625 -0.46875q-0.375 -0.25 -0.8125 -0.421875q-0.421875 -0.1875 -0.90625 -0.296875q-0.484375 -0.109375 -0.9375 -0.109375q-0.859375 0 -1.421875 0.328125q-0.5625 0.328125 -0.5625 1.0q0 0.578125 0.359375 0.875q0.375 0.28125 1.0 0.515625l0.40625 0.125q0.15625 0.046875 0.46875 0.125q0.328125 0.078125 0.5 0.140625q0.734375 0.203125 1.34375 0.5q0.625 0.28125 1.046875 0.71875q0.4375 0.4375 0.65625 1.03125q0.234375 0.59375 0.234375 1.421875q0 3.515625 -4.703125 3.515625zm12.526978 0q-1.609375 0 -2.796875 -0.8125l0 6.390625l-2.984375 0l0 -17.8125l2.59375 0l0.234375 0.703125q1.328125 -0.890625 2.953125 -0.890625q1.375 0 2.46875 0.484375q1.09375 0.46875 1.84375 1.3125q0.75 0.84375 1.15625 1.984375q0.421875 1.140625 0.421875 2.4375q0 1.28125 -0.40625 2.421875q-0.390625 1.125 -1.140625 1.984375q-0.734375 0.84375 -1.84375 1.328125q-1.109375 0.46875 -2.5 0.46875zm-0.1875 -9.984375q-1.390625 0 -2.078125 1.015625q-0.6875 1.0 -0.6875 2.765625q0 1.75 0.6875 2.765625q0.6875 1.0 2.078125 1.0q1.4375 0 2.234375 -1.015625q0.796875 -1.03125 0.796875 -2.75q0 -1.734375 -0.796875 -2.75q-0.796875 -1.03125 -2.234375 -1.03125zm14.977966 -2.4375l-0.578125 2.796875l-1.109375 0q-0.71875 0 -1.328125 0.34375q-0.59375 0.328125 -0.84375 0.859375l0 8.1875l-2.984375 0l0 -12.0l2.78125 0l0.078125 1.265625q1.390625 -1.453125 3.1875 -1.453125l0.796875 0zm11.129822 10.625q-1.625 1.796875 -4.40625 1.796875q-1.390625 0 -2.515625 -0.46875q-1.109375 -0.484375 -1.9062195 -1.328125q-0.796875 -0.84375 -1.234375 -1.96875q-0.421875 -1.125 -0.421875 -2.4375q0 -1.296875 0.421875 -2.4375q0.4375 -1.140625 1.234375 -1.984375q0.7968445 -0.84375 1.9062195 -1.3125q1.125 -0.484375 2.515625 -0.484375q1.390625 0 2.515625 0.5q1.125 0.484375 1.90625 1.328125q0.796875 0.828125 1.21875 1.96875q0.421875 1.125 0.421875 2.421875q0 2.609375 -1.65625 4.40625zm-2.203125 -7.15625q-0.796875 -1.03125 -2.203125 -1.03125q-1.453125 0 -2.25 1.03125q-0.78125 1.03125 -0.78125 2.75q0 1.703125 0.78125 2.734375q0.796875 1.03125 2.25 1.03125q1.4375 0 2.21875 -1.046875q0.796875 -1.0625 0.796875 -2.71875q0 -1.71875 -0.8125 -2.75zm12.269226 -0.828125l-2.640625 0l0 9.546875l-2.984375 0l0 -9.546875l-1.703125 0l0.265625 -2.453125l1.4375 0l0 -2.859375q0 -0.625 0.1875 -1.1875q0.203125 -0.578125 0.5625 -1.015625q0.359375 -0.4375 0.890625 -0.6875q0.546875 -0.25 1.234375 -0.25q1.140625 0 2.71875 0.140625l-0.265625 2.46875q-0.265625 -0.046875 -0.578125 -0.078125q-0.3125 -0.03125 -0.6875 -0.03125q-0.65625 0 -0.875 0.390625q-0.203125 0.375 -0.203125 1.484375l0 1.625l2.640625 0l0 2.453125zm4.800598 -4.28125l-2.984375 0l0 -2.96875l2.984375 0l0 2.96875zm0 13.828125l-2.984375 0l0 -12.0l2.984375 0l0 12.0zm7.19751 -2.203125l-0.265625 2.4375l-1.078125 0q-1.546875 0 -2.3125 -0.875q-0.765625 -0.875 -0.765625 -2.265625l0 -15.09375l2.984375 0l0 13.875q0 0.6875 0.03125 1.078125q0.03125 0.390625 0.171875 0.578125q0.15625 0.171875 0.4375 0.21875q0.28125 0.046875 0.796875 0.046875z" fill-rule="nonzero"></path><path fill="#000000" fill-opacity="0.0" d="m550.0105 534.5591l76.12598 0l0 59.307068l-76.12598 0z" fill-rule="nonzero"></path><path fill="#000000" d="m579.23944 562.40137q-1.734375 4.078125 -2.84375 7.640625q-1.109375 3.546875 -1.28125 5.40625q-0.296875 2.5625 -0.953125 4.03125q-0.640625 1.484375 -1.765625 2.546875q-1.125 1.078125 -2.59375 1.625q-1.46875 0.5625 -3.171875 0.5625q-1.953125 0 -3.15625 -0.84375q-1.1875 -0.84375 -1.1875 -2.1875q0 -0.875 0.4375 -1.640625q0.4375 -0.75 1.25 -1.390625q0.8125 -0.625 3.0625 -1.78125q0.625 -0.328125 1.125 -0.6875q-0.578125 0.25 -1.078125 0.25q-1.40625 0 -1.40625 -1.984375q0 -2.15625 1.5625 -4.78125q1.578125 -2.625 3.96875 -4.40625q1.484375 -0.9375 2.65625 -1.28125q1.171875 -0.34375 2.875 -0.34375l1.125 0.03125l0.1875 -0.484375l1.1875 -0.28125zm-4.15625 2.59375q-0.46875 -0.171875 -1.0 -0.171875q-0.953125 0 -1.71875 0.4375q-0.75 0.421875 -1.3125 1.21875q-0.546875 0.78125 -1.046875 2.203125q-0.5 1.40625 -0.765625 2.421875q-0.265625 1.015625 -0.265625 1.859375q0 0.578125 0.234375 0.90625q0.25 0.328125 0.65625 0.328125q0.25 0 0.515625 -0.1875q0.28125 -0.203125 1.390625 -1.328125q1.109375 -1.140625 1.84375 -3.53125l1.46875 -4.15625zm-2.6875 8.4375q-0.921875 0.734375 -1.625 1.390625l-1.296875 1.140625l-1.71875 1.40625q-1.453125 1.140625 -2.0625 1.953125q-0.59375 0.828125 -0.59375 1.765625q0 0.96875 0.546875 1.53125q0.546875 0.578125 1.375 0.578125q1.71875 0 3.0 -1.78125q1.296875 -1.78125 1.828125 -5.03125q0.359375 -2.28125 0.546875 -2.953125zm26.765625 -19.265625q0 0.15625 -0.171875 0.28125q-0.171875 0.125 -0.40625 0.265625q-1.421875 0.921875 -3.5 3.234375q-2.0625 2.3125 -3.46875 4.890625q-1.390625 2.578125 -2.328125 5.453125q-0.9375 2.875 -1.25 4.84375q-0.296875 1.96875 -0.296875 4.109375q0 1.15625 0.046875 2.03125q0.0625 0.890625 0.171875 1.9375q0.125 1.046875 0.453125 2.140625q0.09375 0.25 0.09375 0.421875q0 0.28125 -0.296875 0.28125q-0.265625 0 -0.5 -0.375q-1.046875 -1.578125 -1.671875 -3.953125q-0.609375 -2.375 -0.609375 -4.984375q0 -4.359375 2.109375 -8.765625q3.671875 -7.625 9.453125 -11.171875q1.484375 -0.921875 1.875 -0.921875q0.296875 0 0.296875 0.28125zm2.203125 8.609375q1.328125 0 2.09375 0.515625q0.78125 0.515625 0.78125 1.3125q0 0.515625 -0.390625 0.90625q-0.375 0.375 -0.890625 0.375q-0.484375 0 -0.734375 -0.1875q-0.25 -0.203125 -0.34375 -0.640625q-0.125 -0.53125 -0.34375 -0.890625q-0.21875 -0.359375 -0.75 -0.359375q-0.625 0 -1.046875 0.5625q-0.421875 0.546875 -0.421875 1.453125q0 1.0 0.609375 1.71875q1.046875 1.359375 1.375 1.953125q0.328125 0.578125 0.484375 1.140625q0.15625 0.5625 0.15625 1.171875q0 1.265625 -0.703125 2.328125q-0.6875 1.046875 -1.953125 1.640625q-1.265625 0.578125 -2.875 0.578125q-1.765625 0 -2.734375 -0.734375q-0.953125 -0.734375 -0.953125 -1.953125q0 -0.6875 0.46875 -1.15625q0.46875 -0.484375 1.203125 -0.484375q0.546875 0 0.859375 0.34375q0.3125 0.328125 0.3125 0.71875l-0.125 1.21875q0 1.109375 1.4375 1.109375q0.96875 0 1.515625 -0.578125q0.5625 -0.59375 0.5625 -1.625q0 -0.921875 -0.703125 -1.953125q-1.28125 -1.828125 -1.640625 -2.640625q-0.34375 -0.828125 -0.34375 -1.609375q0 -1.125 0.65625 -2.109375q0.671875 -1.0 1.828125 -1.5625q1.171875 -0.5625 2.609375 -0.5625zm-3.21875 21.0q0 -0.203125 0.09375 -0.296875q0.078125 -0.078125 0.34375 -0.21875q1.3125 -0.71875 3.328125 -2.859375q2.015625 -2.125 3.359375 -4.46875q1.421875 -2.421875 2.5 -5.609375q1.09375 -3.1875 1.4375 -5.21875q0.359375 -2.03125 0.359375 -4.34375q0 -3.609375 -0.609375 -5.921875q-0.125 -0.421875 -0.125 -0.640625q0 -0.3125 0.28125 -0.3125q0.375 0 1.109375 1.390625q0.734375 1.390625 1.203125 3.625q0.46875 2.21875 0.46875 4.390625q0 4.203125 -2.140625 8.703125q-3.5625 7.53125 -9.375 11.140625q-1.53125 0.921875 -1.953125 0.921875q-0.28125 0 -0.28125 -0.28125z" fill-rule="nonzero"></path><path fill="#c9daf8" d="m641.4934 560.2021l18.252014 0l0 -9.566895l18.251953 19.13385l-18.251953 19.13385l0 -9.566956l-18.252014 0z" fill-rule="nonzero"></path><path fill="#000000" fill-opacity="0.0" d="m850.27997 469.3948l56.629944 0l0 55.93698l-56.629944 0z" fill-rule="nonzero"></path><path fill="#666666" d="m871.09247 496.31482l-2.515625 0l-1.140625 -3.21875l-4.4375 0l-1.140625 3.21875l-2.515625 0l4.71875 -13.296875l2.3125 0l4.71875 13.296875zm-4.5 -5.5625l-1.390625 -3.90625l-1.359375 3.90625l2.75 0zm10.613281 1.1875l-2.375 0l0 4.375l-2.421875 0l0 -13.296875l3.75 0q1.453125 0 2.515625 0.15625q1.078125 0.15625 1.78125 0.625q0.703125 0.46875 1.046875 1.296875q0.359375 0.828125 0.359375 2.140625q0 1.390625 -0.4375 2.296875q-0.4375 0.890625 -1.125 1.4375q-0.671875 0.53125 -1.5 0.75q-0.828125 0.21875 -1.59375 0.21875zm-0.375 -6.890625l-2.0 0l0 4.609375l2.0625 0q1.34375 0 1.921875 -0.53125q0.578125 -0.546875 0.578125 -1.875q0 -0.59375 -0.125 -1.0q-0.125 -0.421875 -0.421875 -0.6875q-0.28125 -0.265625 -0.78125 -0.390625q-0.5 -0.125 -1.234375 -0.125zm14.197266 11.265625l-8.125 0q1.25 -1.8125 2.125 -3.15625q0.890625 -1.359375 1.484375 -2.34375q0.59375 -1.0 0.9375 -1.671875q0.34375 -0.6875 0.515625 -1.15625q0.1875 -0.46875 0.234375 -0.765625q0.046875 -0.3125 0.046875 -0.546875q0 -0.90625 -0.484375 -1.390625q-0.484375 -0.5 -1.359375 -0.5q-1.703125 0 -3.046875 2.03125l-0.3125 -2.1875q0.1875 -0.34375 0.53125 -0.671875q0.359375 -0.328125 0.859375 -0.59375q0.5 -0.265625 1.125 -0.4375q0.625 -0.171875 1.34375 -0.171875q0.953125 0 1.640625 0.296875q0.703125 0.28125 1.140625 0.78125q0.453125 0.5 0.65625 1.140625q0.21875 0.640625 0.21875 1.34375q0 0.671875 -0.203125 1.421875q-0.1875 0.734375 -0.609375 1.65625q-0.40625 0.90625 -1.078125 2.03125q-0.65625 1.109375 -1.59375 2.53125l3.953125 0l0 2.359375z" fill-rule="nonzero"></path></g></svg>

