<?xml version="1.0" standalone="yes"?>

<svg version="1.1" viewBox="0.0 0.0 456.9448818897638 212.88451443569554" fill="none" stroke="none" stroke-linecap="square" stroke-miterlimit="10" xmlns="http://www.w3.org/2000/svg" xmlns:xlink="http://www.w3.org/1999/xlink"><clipPath id="p.0"><path d="m0 0l456.9449 0l0 212.88452l-456.9449 0l0 -212.88452z" clip-rule="nonzero"></path></clipPath><g clip-path="url(#p.0)"><path fill="#000000" fill-opacity="0.0" d="m0 0l456.9449 0l0 212.88452l-456.9449 0z" fill-rule="nonzero"></path><path fill="#4a86e8" d="m138.92076 77.43876l36.503937 0l0 26.456688l-36.503937 0z" fill-rule="nonzero"></path><path fill="#000000" fill-opacity="0.0" d="m138.09137 105.32327l0 -98.83465" fill-rule="nonzero"></path><path stroke="#000000" stroke-width="1.0" stroke-linejoin="round" stroke-linecap="butt" d="m138.09135 105.32327l0 -92.83465" fill-rule="evenodd"></path><path fill="#000000" stroke="#000000" stroke-width="1.0" stroke-linecap="butt" d="m139.74309 12.488626l-1.6517334 -4.5380974l-1.6517181 4.5380974z" fill-rule="evenodd"></path><path fill="#000000" fill-opacity="0.0" d="m138.09137 104.602745l201.48032 0" fill-rule="nonzero"></path><path stroke="#000000" stroke-width="1.0" stroke-linejoin="round" stroke-linecap="butt" d="m138.09135 104.602745l195.48033 0" fill-rule="evenodd"></path><path fill="#000000" stroke="#000000" stroke-width="1.0" stroke-linecap="butt" d="m333.5717 106.25447l4.538086 -1.6517258l-4.538086 -1.6517334z" fill-rule="evenodd"></path><path fill="#4a86e8" d="m176.25409 55.559494l36.503937 0l0 48.34646l-36.503937 0z" fill-rule="nonzero"></path><path fill="#4a86e8" d="m213.58743 30.869204l36.503937 0l0 73.039375l-36.503937 0z" fill-rule="nonzero"></path><path fill="#4a86e8" d="m250.92076 65.64348l36.503952 0l0 38.267723l-36.503952 0z" fill-rule="nonzero"></path><path fill="#4a86e8" d="m288.2541 85.465004l36.503937 0l0 18.425194l-36.503937 0z" fill-rule="nonzero"></path><path fill="#3c78d8" d="m203.63992 133.36482l13.480316 0l0 -16.83464l26.960632 0l0 16.83464l13.480316 0l-26.960632 16.834656z" fill-rule="nonzero"></path><path fill="#000000" fill-opacity="0.0" d="m18.847271 159.48032l416.44095 0" fill-rule="nonzero"></path><path stroke="#6aa84f" stroke-width="3.0" stroke-linejoin="round" stroke-linecap="butt" d="m30.217272 159.48032l393.70093 0" fill-rule="evenodd"></path><path fill="#6aa84f" stroke="#6aa84f" stroke-width="3.0" stroke-linecap="butt" d="m30.21727 164.41531l-9.869999 0l0 -9.869995l9.869999 0l0 9.869995z" fill-rule="nonzero"></path><path fill="#6aa84f" stroke="#6aa84f" stroke-width="3.0" stroke-linecap="butt" d="m423.9182 154.54532l9.869995 0l0 9.869995l-9.869995 0l0 -9.869995z" fill-rule="nonzero"></path><path fill="#000000" fill-opacity="0.0" d="m193.17213 146.44925l71.43306 0l0 59.3071l-71.43306 0z" fill-rule="nonzero"></path><path fill="#000000" d="m234.92773 184.61967q-1.234375 1.453125 -2.890625 2.5625q-1.640625 1.09375 -3.125 1.09375q-0.65625 0 -1.0625 -0.328125q-0.40625 -0.328125 -0.40625 -0.921875q0 -0.84375 1.46875 -5.3125l2.796875 -8.328125q0.609375 -1.8125 1.0625 -2.546875q0.46875 -0.75 1.46875 -1.78125q1.015625 -1.046875 2.046875 -1.765625q1.03125 -0.71875 2.09375 -1.109375q1.0625 -0.40625 2.09375 -0.40625q0.71875 0 1.125 0.328125q0.40625 0.328125 0.40625 0.828125q0 0.59375 -0.421875 1.015625q-0.421875 0.421875 -1.140625 0.421875q-0.578125 0 -1.40625 -0.328125q-0.78125 -0.28125 -1.25 -0.28125q-0.65625 0 -0.953125 0.296875q-0.28125 0.28125 -0.515625 0.71875q-0.234375 0.4375 -0.765625 2.03125q-0.53125 1.59375 -1.125 3.546875l-2.078125 6.5625q-1.609375 4.953125 -1.609375 5.3125q0 0.3125 0.296875 0.3125q0.359375 0 1.484375 -0.8125q1.140625 -0.828125 2.0 -1.6875l0.40625 0.578125z" fill-rule="nonzero"></path></g></svg>

