<?xml version="1.0" standalone="yes"?>

<svg version="1.1" viewBox="0.0 0.0 457.1653543307087 342.0288713910761" fill="none" stroke="none" stroke-linecap="square" stroke-miterlimit="10" xmlns="http://www.w3.org/2000/svg" xmlns:xlink="http://www.w3.org/1999/xlink"><clipPath id="p.0"><path d="m0 0l457.16534 0l0 342.02887l-457.16534 0l0 -342.02887z" clip-rule="nonzero"></path></clipPath><g clip-path="url(#p.0)"><path fill="#000000" fill-opacity="0.0" d="m0 0l457.16534 0l0 342.02887l-457.16534 0z" fill-rule="nonzero"></path><path fill="#000000" fill-opacity="0.0" d="m20.346457 290.27646l416.44095 0" fill-rule="nonzero"></path><path stroke="#6aa84f" stroke-width="3.0" stroke-linejoin="round" stroke-linecap="butt" d="m31.716455 290.27646l393.70096 0" fill-rule="evenodd"></path><path fill="#6aa84f" stroke="#6aa84f" stroke-width="3.0" stroke-linecap="butt" d="m31.716455 295.2115l-9.869999 0l0 -9.870026l9.869999 0l0 9.870026z" fill-rule="nonzero"></path><path fill="#6aa84f" stroke="#6aa84f" stroke-width="3.0" stroke-linecap="butt" d="m425.4174 285.34146l9.870026 0l0 9.870026l-9.870026 0l0 -9.870026z" fill-rule="nonzero"></path><path fill="#000000" fill-opacity="0.0" d="m264.079 293.38538l71.433075 0l0 59.3071l-71.433075 0z" fill-rule="nonzero"></path><path fill="#000000" d="m287.5423 331.55582q-1.234375 1.453125 -2.890625 2.5625q-1.640625 1.09375 -3.125 1.09375q-0.65625 0 -1.0625 -0.328125q-0.40625 -0.328125 -0.40625 -0.921875q0 -0.84375 1.46875 -5.3125l2.796875 -8.328125q0.609375 -1.8125 1.0625 -2.546875q0.46875 -0.75 1.46875 -1.78125q1.015625 -1.046875 2.046875 -1.765625q1.03125 -0.71875 2.09375 -1.109375q1.0625 -0.40625 2.09375 -0.40625q0.71875 0 1.125 0.328125q0.40625 0.328125 0.40625 0.828125q0 0.59375 -0.421875 1.015625q-0.421875 0.421875 -1.140625 0.421875q-0.578125 0 -1.40625 -0.328125q-0.78125 -0.28125 -1.25 -0.28125q-0.65625 0 -0.953125 0.296875q-0.28125 0.28125 -0.515625 0.71875q-0.234375 0.4375 -0.765625 2.03125q-0.53125 1.59375 -1.125 3.546875l-2.078125 6.5625q-1.609375 4.953125 -1.609375 5.3125q0 0.3125 0.296875 0.3125q0.359375 0 1.484375 -0.8125q1.140625 -0.828125 2.0 -1.6875l0.40625 0.578125z" fill-rule="nonzero"></path><path fill="#ff9900" d="m149.75574 283.08466l5.8695526 -5.1151733l5.666046 6.501648l5.666046 -6.501648l5.8695526 5.1151733l-6.371933 7.311676l6.371933 7.311676l-5.8695526 5.1151733l-5.666046 -6.5016785l-5.666046 6.5016785l-5.8695526 -5.1151733l6.3719482 -7.311676z" fill-rule="nonzero"></path><path fill="#980000" d="m14.38566 283.4731l5.8695564 -5.1151733l5.6660423 6.501648l5.666044 -6.501648l5.8695564 5.1151733l-6.3719444 7.311676l6.3719444 7.3116455l-5.8695564 5.1151733l-5.666044 -6.501648l-5.6660423 6.501648l-5.8695564 -5.1151733l6.3719444 -7.3116455z" fill-rule="nonzero"></path><path fill="#980000" d="m418.89047 283.4731l5.869568 -5.1151733l5.666046 6.501648l5.6660156 -6.501648l5.869568 5.1151733l-6.3719482 7.311676l6.3719482 7.3116455l-5.869568 5.1151733l-5.6660156 -6.501648l-5.666046 6.501648l-5.869568 -5.1151733l6.3719482 -7.3116455z" fill-rule="nonzero"></path><path fill="#000000" fill-opacity="0.0" d="m161.51968 302.6719l0 0c0 3.183258 -0.43006897 5.763794 -0.96058655 5.763794l-65.37016 0c-0.5305176 0 -0.96058655 2.580536 -0.96058655 5.7637634l0 0c0 -3.1832275 -0.43006897 -5.7637634 -0.9605942 -5.7637634l-65.370155 0c-0.5305214 0 -0.96059227 -2.580536 -0.96059227 -5.763794z" fill-rule="nonzero"></path><path fill="#000000" fill-opacity="0.0" d="m161.51968 302.6719l0 0c0 3.183258 -0.43006897 5.763794 -0.96058655 5.763794l-65.37016 0c-0.5305176 0 -0.96058655 2.580536 -0.96058655 5.7637634l0 0c0 -3.1832275 -0.43006897 -5.7637634 -0.9605942 -5.7637634l-65.370155 0c-0.5305214 0 -0.96059227 -2.580536 -0.96059227 -5.763794" fill-rule="nonzero"></path><path stroke="#000000" stroke-width="1.0" stroke-linejoin="round" stroke-linecap="butt" d="m161.51968 302.6719l0 0c0 3.183258 -0.43006897 5.763794 -0.96058655 5.763794l-65.37016 0c-0.5305176 0 -0.96058655 2.580536 -0.96058655 5.7637634l0 0c0 -3.1832275 -0.43006897 -5.7637634 -0.9605942 -5.7637634l-65.370155 0c-0.5305214 0 -0.96059227 -2.580536 -0.96059227 -5.763794" fill-rule="nonzero"></path><path fill="#000000" fill-opacity="0.0" d="m61.629322 293.38715l71.433075 0l0 59.307068l-71.433075 0z" fill-rule="nonzero"></path><path fill="#000000" d="m85.092606 331.55756q-1.234375 1.453125 -2.890625 2.5625q-1.640625 1.09375 -3.125 1.09375q-0.65625 0 -1.0625 -0.328125q-0.40625 -0.328125 -0.40625 -0.921875q0 -0.84375 1.46875 -5.3125l2.796875 -8.328125q0.609375 -1.8125 1.0625 -2.546875q0.46875 -0.75 1.46875 -1.78125q1.015625 -1.046875 2.046875 -1.765625q1.03125 -0.71875 2.09375 -1.109375q1.0625 -0.40625 2.09375 -0.40625q0.71875 0 1.125 0.328125q0.40625 0.328125 0.40625 0.828125q0 0.59375 -0.421875 1.015625q-0.421875 0.421875 -1.140625 0.421875q-0.578125 0 -1.40625 -0.328125q-0.78125 -0.28125 -1.25 -0.28125q-0.65625 0 -0.953125 0.296875q-0.28125 0.28125 -0.515625 0.71875q-0.234375 0.4375 -0.765625 2.03125q-0.53125 1.59375 -1.125 3.546875l-2.078125 6.5625q-1.609375 4.953125 -1.609375 5.3125q0 0.3125 0.296875 0.3125q0.359375 0 1.484375 -0.8125q1.140625 -0.828125 2.0 -1.6875l0.40625 0.578125z" fill-rule="nonzero"></path><path fill="#000000" fill-opacity="0.0" d="m70.6273 309.7773l71.43307 0l0 40.53543l-71.43307 0z" fill-rule="nonzero"></path><path fill="#000000" d="m92.429695 328.87128l-0.875 2.359375q-0.46875 1.328125 -0.9375 2.84375q-0.453125 1.515625 -0.453125 1.71875q0 0.21875 0.203125 0.21875q0.28125 0 1.171875 -0.734375l0.375 -0.3125l0.203125 0.359375q-0.9375 0.875 -1.390625 1.203125q-0.4375 0.3125 -0.859375 0.5q-0.421875 0.203125 -0.828125 0.203125q-0.4375 0 -0.4375 -0.375q0 -0.203125 0.109375 -0.4375l0.4375 -1.265625q-0.90625 0.9375 -1.75 1.515625q-0.828125 0.5625 -1.328125 0.5625q-0.453125 0 -0.703125 -0.375q-0.234375 -0.390625 -0.234375 -1.0625q0 -0.765625 0.34375 -1.703125q0.359375 -0.953125 0.984375 -1.859375q0.625 -0.90625 1.375 -1.59375q0.75 -0.6875 1.453125 -1.0q0.703125 -0.3125 1.78125 -0.3125q0.3125 0 0.546875 0.046875l0.25 -0.359375l0.5625 -0.140625zm-1.859375 1.546875q-0.390625 -0.109375 -0.75 -0.109375q-0.765625 0 -1.40625 0.59375q-0.640625 0.578125 -1.25 1.859375q-0.609375 1.265625 -0.609375 2.3125q0 0.921875 0.59375 0.921875q0.609375 0 1.3125 -0.75q0.71875 -0.765625 1.125 -1.921875l0.984375 -2.90625zm5.096237 0.375q0.78125 -0.84375 1.484375 -1.21875q0.703125 -0.390625 1.234375 -0.390625q0.515625 0 0.796875 0.421875q0.296875 0.421875 0.296875 1.265625q0 1.375 -0.75 2.921875q-0.734375 1.53125 -1.859375 2.484375q-1.109375 0.953125 -2.234375 0.953125q-0.75 0 -1.15625 -0.4375q-0.40625 -0.4375 -0.40625 -1.15625q0 -0.578125 0.421875 -1.96875l1.5 -4.9375q0.5 -1.5625 1.109375 -2.515625q0.625 -0.953125 1.609375 -1.609375q1.0 -0.671875 1.90625 -0.671875q0.9375 0 0.9375 0.609375q0 0.296875 -0.21875 0.515625q-0.21875 0.203125 -0.625 0.203125q-0.25 0 -0.765625 -0.109375q-0.515625 -0.09375 -0.734375 -0.09375q-0.78125 0 -1.390625 1.96875l-1.15625 3.765625zm1.671875 -0.578125q-0.59375 0 -1.3125 0.875q-0.703125 0.859375 -1.21875 2.15625q-0.515625 1.28125 -0.515625 2.3125q0 0.46875 0.234375 0.765625q0.25 0.28125 0.609375 0.28125q0.625 0 1.25 -0.765625q0.625 -0.78125 1.109375 -2.140625q0.484375 -1.359375 0.484375 -2.234375q0 -0.5625 -0.171875 -0.90625q-0.171875 -0.34375 -0.46875 -0.34375z" fill-rule="nonzero"></path><path fill="#000000" fill-opacity="0.0" d="m430.0481 302.6706l0 0c0 3.183258 -0.4300537 5.763794 -0.9605713 5.763794l-131.38593 0c-0.5305176 0 -0.9605713 2.580536 -0.9605713 5.7637634l0 0c0 -3.1832275 -0.43008423 -5.7637634 -0.9606018 -5.7637634l-131.38591 0c-0.5305176 0 -0.96058655 -2.580536 -0.96058655 -5.763794z" fill-rule="nonzero"></path><path fill="#000000" fill-opacity="0.0" d="m430.0481 302.6706l0 0c0 3.183258 -0.4300537 5.763794 -0.9605713 5.763794l-131.38593 0c-0.5305176 0 -0.9605713 2.580536 -0.9605713 5.7637634l0 0c0 -3.1832275 -0.43008423 -5.7637634 -0.9606018 -5.7637634l-131.38591 0c-0.5305176 0 -0.96058655 -2.580536 -0.96058655 -5.763794" fill-rule="nonzero"></path><path stroke="#000000" stroke-width="1.0" stroke-linejoin="round" stroke-linecap="butt" d="m430.0481 302.6706l0 0c0 3.183258 -0.4300537 5.763794 -0.9605713 5.763794l-131.38593 0c-0.5305176 0 -0.9605713 2.580536 -0.9605713 5.7637634l0 0c0 -3.1832275 -0.43008423 -5.7637634 -0.9606018 -5.7637634l-131.38591 0c-0.5305176 0 -0.96058655 -2.580536 -0.96058655 -5.763794" fill-rule="nonzero"></path><path fill="#000000" fill-opacity="0.0" d="m273.38452 309.7773l71.433075 0l0 40.53543l-71.433075 0z" fill-rule="nonzero"></path><path fill="#000000" d="m291.21817 330.79315q0.78125 -0.84375 1.484375 -1.21875q0.703125 -0.390625 1.234375 -0.390625q0.515625 0 0.796875 0.421875q0.296875 0.421875 0.296875 1.265625q0 1.375 -0.75 2.921875q-0.734375 1.53125 -1.859375 2.484375q-1.109375 0.953125 -2.234375 0.953125q-0.75 0 -1.15625 -0.4375q-0.40625 -0.4375 -0.40625 -1.15625q0 -0.578125 0.421875 -1.96875l1.5 -4.9375q0.5 -1.5625 1.109375 -2.515625q0.625 -0.953125 1.609375 -1.609375q1.0 -0.671875 1.90625 -0.671875q0.9375 0 0.9375 0.609375q0 0.296875 -0.21875 0.515625q-0.21875 0.203125 -0.625 0.203125q-0.25 0 -0.765625 -0.109375q-0.515625 -0.09375 -0.734375 -0.09375q-0.78125 0 -1.390625 1.96875l-1.15625 3.765625zm1.671875 -0.578125q-0.59375 0 -1.3125 0.875q-0.703125 0.859375 -1.21875 2.15625q-0.515625 1.28125 -0.515625 2.3125q0 0.46875 0.234375 0.765625q0.25 0.28125 0.609375 0.28125q0.625 0 1.25 -0.765625q0.625 -0.78125 1.109375 -2.140625q0.484375 -1.359375 0.484375 -2.234375q0 -0.5625 -0.171875 -0.90625q-0.171875 -0.34375 -0.46875 -0.34375zm7.335785 5.265625q-2.171875 1.75 -3.5625 1.75q-0.609375 0 -0.953125 -0.4375q-0.34375 -0.4375 -0.34375 -1.25q0 -0.9375 0.421875 -2.03125q0.421875 -1.109375 1.078125 -2.078125q0.671875 -0.984375 1.53125 -1.625q0.859375 -0.65625 1.875 -0.65625q0.609375 0 0.890625 0.25q0.296875 0.25 0.296875 0.578125q0 0.296875 -0.1875 0.515625q-0.1875 0.203125 -0.53125 0.203125q-0.296875 0 -0.71875 -0.296875q-0.484375 -0.3125 -0.765625 -0.3125q-0.90625 0 -1.65625 1.71875q-0.75 1.703125 -0.75 3.046875q0 0.6875 0.203125 1.03125q0.203125 0.328125 0.59375 0.328125q1.0 0 2.46875 -1.265625l0.109375 0.53125zm8.024109 -6.609375l-0.875 2.359375q-0.46875 1.328125 -0.9375 2.84375q-0.453125 1.515625 -0.453125 1.71875q0 0.21875 0.203125 0.21875q0.28125 0 1.171875 -0.734375l0.375 -0.3125l0.203125 0.359375q-0.9375 0.875 -1.390625 1.203125q-0.4375 0.3125 -0.859375 0.5q-0.421875 0.203125 -0.828125 0.203125q-0.4375 0 -0.4375 -0.375q0 -0.203125 0.109375 -0.4375l0.4375 -1.265625q-0.90625 0.9375 -1.75 1.515625q-0.828125 0.5625 -1.328125 0.5625q-0.453125 0 -0.703125 -0.375q-0.234375 -0.390625 -0.234375 -1.0625q0 -0.765625 0.34375 -1.703125q0.359375 -0.953125 0.984375 -1.859375q0.625 -0.90625 1.375 -1.59375q0.75 -0.6875 1.453125 -1.0q0.703125 -0.3125 1.78125 -0.3125q0.3125 0 0.546875 0.046875l0.25 -0.359375l0.5625 -0.140625zm-1.859375 1.546875q-0.390625 -0.109375 -0.75 -0.109375q-0.765625 0 -1.40625 0.59375q-0.640625 0.578125 -1.25 1.859375q-0.609375 1.265625 -0.609375 2.3125q0 0.921875 0.59375 0.921875q0.609375 0 1.3125 -0.75q0.71875 -0.765625 1.125 -1.921875l0.984375 -2.90625z" fill-rule="nonzero"></path><path fill="#0000ff" d="m291.50726 283.4731l5.869568 -5.1151733l5.666046 6.501648l5.666046 -6.501648l5.8695374 5.1151733l-6.3719482 7.311676l6.3719482 7.3116455l-5.8695374 5.1151733l-5.666046 -6.501648l-5.666046 6.501648l-5.869568 -5.1151733l6.3719482 -7.3116455z" fill-rule="nonzero"></path><path fill="#0000ff" d="m217.03221 65.75263l5.8695526 -5.115177l5.666046 6.5016594l5.666031 -6.5016594l5.869568 5.115177l-6.3719482 7.3116684l6.3719482 7.3116684l-5.869568 5.115181l-5.666031 -6.501663l-5.666046 6.501663l-5.8695526 -5.115181l6.371933 -7.3116684z" fill-rule="nonzero"></path></g></svg>

