<?xml version="1.0" standalone="yes"?>

<svg version="1.1" viewBox="0.0 0.0 414.7690288713911 100.0" fill="none" stroke="none" stroke-linecap="square" stroke-miterlimit="10" xmlns="http://www.w3.org/2000/svg" xmlns:xlink="http://www.w3.org/1999/xlink"><clipPath id="p.0"><path d="m0 0l414.76904 0l0 100.0l-414.76904 0l0 -100.0z" clip-rule="nonzero"></path></clipPath><g clip-path="url(#p.0)"><path fill="#000000" fill-opacity="0.0" d="m0 0l414.76904 0l0 100.0l-414.76904 0z" fill-rule="nonzero"></path><path fill="#000000" fill-opacity="0.0" d="m375.82715 -3.3532033l39.968506 0l0 52.692913l-39.968506 0z" fill-rule="nonzero"></path><path fill="#000000" d="m395.6709 21.835548q0 -0.546875 -0.578125 -0.546875l-0.4375 0.03125l0.15625 -0.671875q2.65625 -0.203125 4.984375 -0.671875q-0.8125 2.1875 -1.203125 3.9375l-1.03125 4.359375q-1.203125 5.1875 -2.5 7.140625q1.078125 0.25 2.25 0.25q2.546875 0 4.53125 -1.1875q2.0 -1.203125 3.078125 -3.359375q1.09375 -2.15625 1.09375 -4.828125q0 -2.25 -0.890625 -4.015625q-0.875 -1.78125 -2.5 -2.734375q-1.625 -0.96875 -3.71875 -0.96875q-2.609375 0 -4.984375 1.265625q-2.359375 1.25 -3.84375 3.390625q-1.46875 2.140625 -1.46875 4.375q0 1.0625 0.453125 1.84375q0.453125 0.78125 1.59375 1.390625q0.546875 0.25 0.546875 0.671875q0 0.359375 -0.296875 0.65625q-0.296875 0.296875 -0.734375 0.296875q-1.265625 0 -2.203125 -1.3125q-0.9375 -1.3125 -0.9375 -2.9375q0 -2.796875 1.75 -5.296875q1.765625 -2.515625 4.703125 -3.9375q2.9375 -1.421875 6.390625 -1.421875q2.90625 0 5.1875 1.03125q2.28125 1.015625 3.515625 2.875q1.234375 1.84375 1.234375 4.1875q0 2.9375 -1.59375 5.484375q-1.59375 2.53125 -4.375 4.0q-2.78125 1.453125 -6.09375 1.453125q-1.15625 0 -2.75 -0.125q-1.59375 -0.125 -3.578125 -0.125q-1.640625 0 -2.140625 0.03125l0.34375 -0.765625q1.296875 -0.03125 1.640625 -0.15625q0.359375 -0.140625 0.609375 -0.4375q0.265625 -0.3125 0.5 -0.90625q0.78125 -1.90625 1.0625 -3.015625l0.875 -3.390625q1.359375 -5.234375 1.359375 -5.859375z" fill-rule="nonzero"></path><path fill="#000000" fill-opacity="0.0" d="m253.56262 -6.0828457l39.968506 0l0 52.692917l-39.968506 0z" fill-rule="nonzero"></path><path fill="#000000" d="m280.93762 21.855906q0.09375 -1.3125 0.09375 -1.78125q0 -2.109375 -0.875 -3.1875q-0.859375 -1.078125 -2.421875 -1.078125q-2.046875 0 -4.03125 1.890625q-1.96875 1.875 -3.125 4.84375q-1.140625 2.96875 -1.140625 6.03125q0 3.078125 1.21875 4.937502q1.234375 1.859375 3.328125 1.859375q0.8125 0 1.46875 -0.28125q0.671875 -0.265625 1.203125 -0.671875q0.546875 -0.40625 0.953125 -0.875q0.40625 -0.46875 0.71875 -0.875q0.328125 -0.40625 0.546875 -0.6718769q0.234375 -0.28125 0.390625 -0.28125q0.21875 0 0.34375 0.15625q0.140625 0.1562519 0.140625 0.2968769q0 0.421875 -0.828125 1.375q-0.8125 0.953125 -1.796875 1.640625q-0.984375 0.6875 -2.15625 1.09375q-1.15625 0.40625 -2.296875 0.40625q-2.03125 0 -3.640625 -0.96875q-1.609375 -0.96875 -2.5 -2.78125q-0.890625 -1.8125019 -0.890625 -4.156252q0 -3.375 1.734375 -6.65625q1.75 -3.28125 4.546875 -5.25q2.796875 -1.984375 5.65625 -1.984375q1.65625 0 4.03125 0.8125l1.234375 0.40625q-0.9375 2.875 -1.046875 5.75l-0.859375 0z" fill-rule="nonzero"></path><path fill="#000000" fill-opacity="0.0" d="m-3.0098054 -6.0832324l39.968502 0l0 52.692913l-39.968502 0z" fill-rule="nonzero"></path><path fill="#000000" d="m23.84957 32.808643q1.09375 0.28125 2.078125 0.28125q0.71875 0 1.3125 -0.15625l-0.15625 0.890625q-0.34375 0.0625 -1.0 0.0625q-0.65625 0 -2.09375 -0.125l-1.8125 -0.125q-1.34375 0 -2.390625 0.1875q0.875 -2.140625 1.1875 -4.671875l0.15625 -1.140625l-1.1875 0l-4.453125 0.0625q-2.609375 4.0 -3.75 5.46875q-1.125 1.46875 -1.96875 2.21875q-0.84375 0.75 -1.734375 1.09375q-0.875 0.359375 -1.859375 0.359375q-1.8125 0 -1.8125 -1.59375q0 -0.53125 0.234375 -0.84375q0.234375 -0.3125 0.6875 -0.3125q0.1875 0 0.828125 0.140625q0.640625 0.15625 0.96875 0.15625q1.578125 0 2.515625 -0.90625q1.1875 -1.125 2.515625 -2.875q1.34375 -1.75 3.578125 -5.171875q4.1875 -6.421875 7.328125 -9.906249q-3.09375 0.29687405 -3.921875 0.46874905q-0.828125 0.171875 -1.375 0.421875q-0.546875 0.234375 -0.890625 0.578125q-0.34375 0.328125 -0.5625 0.828125q-0.203125 0.5 -0.203125 1.03125q0 0.453125 0.234375 1.046875q0.21875 0.609375 0.21875 0.84375q0 0.359375 -0.375 0.640625q-0.375 0.265625 -0.84375 0.265625q-0.71875 0 -1.109375 -0.421875q-0.390625 -0.4375 -0.390625 -1.1875q0 -2.15625 1.9375 -3.59375q1.9375 -1.437499 5.265625 -1.687499l1.625 -0.109375q1.34375 -0.0625 2.25 -0.328125q0.921875 -0.265625 1.5625 -0.78125q-0.46875 1.859375 -0.703125 3.531249l-1.21875 8.859375l-0.671875 6.5zm-1.09375 -15.234375q-3.234375 4.328125 -6.46875 9.28125l1.78125 0.03125q2.875 0 3.1875 -0.03125q0.640625 -5.671875 1.5 -9.28125z" fill-rule="nonzero"></path><path fill="#000000" fill-opacity="0.0" d="m129.17577 -3.3534262l39.968506 0l0 52.692917l-39.968506 0z" fill-rule="nonzero"></path><path fill="#000000" d="m152.86327 20.0072q-0.25 0.734375 -0.421875 1.34375q-0.171875 0.609375 -1.203125 4.75q2.484375 0 3.703125 -1.40625q1.21875 -1.40625 1.21875 -3.265625q0 -1.34375 -0.9375 -2.15625q-0.921875 -0.828125 -2.75 -0.828125q-2.859375 0 -5.484375 1.296875q-2.609375 1.296875 -4.125 3.4375q-1.515625 2.140625 -1.515625 4.484375q0 1.734375 1.375 2.5q0.984375 0.5625 1.265625 0.859375q0.296875 0.28125 0.296875 0.671875q0 0.4843731 -0.34375 0.7656231q-0.328125 0.265625 -0.78125 0.265625q-0.71875 0 -1.40625 -0.671875q-0.6875 -0.6718731 -1.0625 -1.7187481q-0.375 -1.0625 -0.375 -2.359375q0 -2.234375 1.078125 -4.203125q1.078125 -1.984375 2.828125 -3.375q1.75 -1.40625 3.953125 -2.15625q2.203125 -0.75 4.8125 -0.75q2.96875 0 4.671875 1.046875q1.703125 1.046875 1.703125 2.75q0 1.515625 -1.15625 2.765625q-1.140625 1.234375 -3.453125 1.90625q2.296875 0.3125 3.375 1.328125q1.078125 1.015625 1.078125 2.546875q0 1.671875 -1.0625 3.156248q-1.046875 1.46875 -3.140625 2.5q-2.078125 1.03125 -4.546875 1.03125q-1.125 0 -2.84375 -0.125q-1.625 -0.03125 -2.203125 -0.03125q-1.59375 0 -2.84375 0.25l0.21875 -0.859375q1.765625 -0.09375 2.421875 -0.859375q0.65625 -0.78125 1.21875 -3.015623l2.3125 -9.046875q0.15625 -0.59375 0.15625 -0.90625q0 -0.21875 -0.203125 -0.390625q-0.1875 -0.1875 -0.5 -0.1875l-0.3125 0.046875l0.1875 -0.78125q2.53125 -0.171875 4.796875 -0.609375zm-4.703125 15.234373q1.3125 0.359375 2.234375 0.359375q2.5625 0 3.828125 -1.71875q1.265625 -1.71875 1.265625 -3.749998q0 -0.96875 -0.484375 -1.734375q-0.484375 -0.78125 -1.25 -1.078125q-0.765625 -0.296875 -2.78125 -0.296875q-1.15625 4.578125 -1.53125 5.718748q-0.375 1.140625 -0.65625 1.65625q-0.265625 0.5 -0.625 0.84375z" fill-rule="nonzero"></path><path fill="#d9d9d9" d="m4.84929 56.641533l0 0c0 -6.6969986 5.4289885 -12.125984 12.125985 -12.125984l0 0c3.216011 0 6.3003025 1.2775536 8.574366 3.5516167c2.274063 2.274063 3.5516186 5.3583565 3.5516186 8.574368l0 0c0 6.696995 -5.4289894 12.125984 -12.125984 12.125984l0 0c-6.6969967 0 -12.125985 -5.4289894 -12.125985 -12.125984z" fill-rule="nonzero"></path><path stroke="#3c78d8" stroke-width="3.0" stroke-linejoin="round" stroke-linecap="butt" d="m4.84929 56.641533l0 0c0 -6.6969986 5.4289885 -12.125984 12.125985 -12.125984l0 0c3.216011 0 6.3003025 1.2775536 8.574366 3.5516167c2.274063 2.274063 3.5516186 5.3583565 3.5516186 8.574368l0 0c0 6.696995 -5.4289894 12.125984 -12.125984 12.125984l0 0c-6.6969967 0 -12.125985 -5.4289894 -12.125985 -12.125984z" fill-rule="nonzero"></path><path fill="#d9d9d9" d="m136.99759 56.641533l0 0c0 -6.6969986 5.4289856 -12.125984 12.125977 -12.125984l0 0c3.2160187 0 6.300308 1.2775536 8.574371 3.5516167c2.274063 2.274063 3.5516205 5.3583565 3.5516205 8.574368l0 0c0 6.696995 -5.4289856 12.125984 -12.125992 12.125984l0 0c-6.696991 0 -12.125977 -5.4289894 -12.125977 -12.125984z" fill-rule="nonzero"></path><path stroke="#3c78d8" stroke-width="3.0" stroke-linejoin="round" stroke-linecap="butt" d="m136.99759 56.641533l0 0c0 -6.6969986 5.4289856 -12.125984 12.125977 -12.125984l0 0c3.2160187 0 6.300308 1.2775536 8.574371 3.5516167c2.274063 2.274063 3.5516205 5.3583565 3.5516205 8.574368l0 0c0 6.696995 -5.4289856 12.125984 -12.125992 12.125984l0 0c-6.696991 0 -12.125977 -5.4289894 -12.125977 -12.125984z" fill-rule="nonzero"></path><path fill="#000000" fill-opacity="0.0" d="m29.10126 56.641533l107.90552 0" fill-rule="nonzero"></path><path stroke="#434343" stroke-width="2.0" stroke-linejoin="round" stroke-linecap="butt" d="m29.101257 56.641533l95.90551 0" fill-rule="evenodd"></path><path fill="#434343" stroke="#434343" stroke-width="2.0" stroke-linecap="butt" d="m125.00677 59.944996l9.076195 -3.303463l-9.076195 -3.3034668z" fill-rule="evenodd"></path><path fill="#000000" fill-opacity="0.0" d="m63.14101 26.791317l24.251965 0l0 39.05512l-24.251965 0z" fill-rule="nonzero"></path><path fill="#000000" d="m72.98476 50.211315l2.59375 -0.265625q0.109375 0.875 0.65625 1.390625q0.546875 0.515625 1.265625 0.515625q0.8125 0 1.375 -0.65625q0.578125 -0.671875 0.578125 -2.0q0 -1.25 -0.5625 -1.875q-0.5625 -0.625 -1.46875 -0.625q-1.109375 0 -2.0 0.984375l-2.125 -0.3125l1.34375 -7.078125l6.890625 0l0 2.453125l-4.921875 0l-0.40625 2.296875q0.875 -0.421875 1.78125 -0.421875q1.734375 0 2.9375 1.265625q1.203125 1.25 1.203125 3.265625q0 1.671875 -0.96875 3.0q-1.328125 1.796875 -3.6875 1.796875q-1.875 0 -3.0625 -1.015625q-1.1875 -1.015625 -1.421875 -2.71875z" fill-rule="nonzero"></path><path fill="#000000" fill-opacity="0.0" d="m212.11806 69.45544l24.251968 0l0 39.055115l-24.251968 0z" fill-rule="nonzero"></path><path fill="#000000" fill-opacity="0.0" d="m188.96608 27.127096l48.220474 0l0 39.055115l-48.220474 0z" fill-rule="nonzero"></path><path fill="#000000" d="m205.45045 54.047092l-2.609375 0l0 -9.828125q-1.4375 1.34375 -3.375 1.984375l0 -2.375q1.03125 -0.328125 2.21875 -1.25q1.203125 -0.9375 1.640625 -2.1875l2.125 0l0 13.65625zm8.110092 -13.65625q1.96875 0 3.078125 1.40625q1.328125 1.671875 1.328125 5.546875q0 3.859375 -1.328125 5.546875q-1.109375 1.390625 -3.078125 1.390625q-1.984375 0 -3.203125 -1.53125q-1.21875 -1.53125 -1.21875 -5.4375q0 -3.84375 1.34375 -5.53125q1.09375 -1.390625 3.078125 -1.390625zm0 2.15625q-0.484375 0 -0.859375 0.3125q-0.359375 0.296875 -0.5625 1.078125q-0.265625 1.015625 -0.265625 3.40625q0 2.390625 0.234375 3.28125q0.25 0.890625 0.609375 1.1875q0.359375 0.296875 0.84375 0.296875q0.46875 0 0.828125 -0.296875q0.375 -0.296875 0.59375 -1.078125q0.265625 -1.0 0.265625 -3.390625q0 -2.390625 -0.25 -3.28125q-0.234375 -0.90625 -0.609375 -1.203125q-0.359375 -0.3125 -0.828125 -0.3125z" fill-rule="nonzero"></path><path fill="#d9d9d9" d="m261.3585 56.641533l0 0c0 -6.6969986 5.4289856 -12.125984 12.125977 -12.125984l0 0c3.2160034 0 6.300293 1.2775536 8.574371 3.5516167c2.2740479 2.274063 3.5516052 5.3583565 3.5516052 8.574368l0 0c0 6.696995 -5.4289856 12.125984 -12.125977 12.125984l0 0c-6.696991 0 -12.125977 -5.4289894 -12.125977 -12.125984z" fill-rule="nonzero"></path><path stroke="#3c78d8" stroke-width="3.0" stroke-linejoin="round" stroke-linecap="butt" d="m261.3585 56.641533l0 0c0 -6.6969986 5.4289856 -12.125984 12.125977 -12.125984l0 0c3.2160034 0 6.300293 1.2775536 8.574371 3.5516167c2.2740479 2.274063 3.5516052 5.3583565 3.5516052 8.574368l0 0c0 6.696995 -5.4289856 12.125984 -12.125977 12.125984l0 0c-6.696991 0 -12.125977 -5.4289894 -12.125977 -12.125984z" fill-rule="nonzero"></path><path fill="#d9d9d9" d="m385.84274 56.641533l0 0c0 -6.6969986 5.4289856 -12.125984 12.125977 -12.125984l0 0c3.2160034 0 6.300293 1.2775536 8.574371 3.5516167c2.2740479 2.274063 3.5516052 5.3583565 3.5516052 8.574368l0 0c0 6.696995 -5.4289856 12.125984 -12.125977 12.125984l0 0c-6.696991 0 -12.125977 -5.4289894 -12.125977 -12.125984z" fill-rule="nonzero"></path><path stroke="#3c78d8" stroke-width="3.0" stroke-linejoin="round" stroke-linecap="butt" d="m385.84274 56.641533l0 0c0 -6.6969986 5.4289856 -12.125984 12.125977 -12.125984l0 0c3.2160034 0 6.300293 1.2775536 8.574371 3.5516167c2.2740479 2.274063 3.5516052 5.3583565 3.5516052 8.574368l0 0c0 6.696995 -5.4289856 12.125984 -12.125977 12.125984l0 0c-6.696991 0 -12.125977 -5.4289894 -12.125977 -12.125984z" fill-rule="nonzero"></path><path fill="#000000" fill-opacity="0.0" d="m161.24956 56.641533l100.0945 0" fill-rule="nonzero"></path><path stroke="#434343" stroke-width="2.0" stroke-linejoin="round" stroke-linecap="butt" d="m161.24954 56.641533l88.0945 0" fill-rule="evenodd"></path><path fill="#434343" stroke="#434343" stroke-width="2.0" stroke-linecap="butt" d="m249.34404 59.944996l9.076187 -3.303463l-9.076187 -3.3034668z" fill-rule="evenodd"></path><path fill="#000000" fill-opacity="0.0" d="m285.61044 56.641533l100.22046 0" fill-rule="nonzero"></path><path stroke="#434343" stroke-width="2.0" stroke-linejoin="round" stroke-linecap="butt" d="m285.61044 56.641533l88.22046 0" fill-rule="evenodd"></path><path fill="#434343" stroke="#434343" stroke-width="2.0" stroke-linecap="butt" d="m373.8309 59.944996l9.076202 -3.303463l-9.076202 -3.3034668z" fill-rule="evenodd"></path><path fill="#000000" fill-opacity="0.0" d="m321.7164 62.429787l24.251953 0l0 39.055122l-24.251953 0z" fill-rule="nonzero"></path><path fill="#000000" d="m336.63828 89.349785l0 -2.734375l-5.5625 0l0 -2.28125l5.890625 -8.640625l2.1875 0l0 8.625l1.6875 0l0 2.296875l-1.6875 0l0 2.734375l-2.515625 0zm0 -5.03125l0 -4.640625l-3.125 4.640625l3.125 0z" fill-rule="nonzero"></path><path fill="#666666" d="m13.904408 56.641533l0 0c0 -1.6959953 1.3748732 -3.0708656 3.0708666 -3.0708656l0 0c0.8144436 0 1.5955296 0.32353592 2.1714287 0.89943314c0.5758991 0.57590103 0.89943695 1.356987 0.89943695 2.1714325l0 0c0 1.6959915 -1.3748741 3.0708656 -3.0708656 3.0708656l0 0c-1.6959934 0 -3.0708666 -1.3748741 -3.0708666 -3.0708656z" fill-rule="nonzero"></path><path stroke="#a4c2f4" stroke-width="1.0" stroke-linejoin="round" stroke-linecap="butt" d="m13.904408 56.641533l0 0c0 -1.6959953 1.3748732 -3.0708656 3.0708666 -3.0708656l0 0c0.8144436 0 1.5955296 0.32353592 2.1714287 0.89943314c0.5758991 0.57590103 0.89943695 1.356987 0.89943695 2.1714325l0 0c0 1.6959915 -1.3748741 3.0708656 -3.0708656 3.0708656l0 0c-1.6959934 0 -3.0708666 -1.3748741 -3.0708666 -3.0708656z" fill-rule="nonzero"></path><path fill="#000000" fill-opacity="0.0" d="m25.54964 65.2159c0 14.27581 28.748032 28.543747 57.49606 28.55162c28.748032 0.007873535 57.496063 -14.244316 57.496063 -28.488625" fill-rule="nonzero"></path><path stroke="#434343" stroke-width="2.0" stroke-linejoin="round" stroke-linecap="butt" d="m25.54964 65.2159c0 14.27581 28.748028 28.54374 57.49606 28.551613c14.374023 0.0039367676 28.74804 -3.5571365 39.52855 -8.8997345c2.6951294 -1.3356552 5.1656647 -2.7826462 7.3554535 -4.3131256c1.0948944 -0.7652359 2.1195984 -1.5513458 3.0671082 -2.354828c0.47375488 -0.40174866 0.9282074 -0.80784607 1.3624878 -1.2178421c0.21713257 -0.20500946 0.42921448 -0.41098785 0.6361542 -0.6178894l0.2922516 -0.29655457" fill-rule="evenodd"></path><path fill="#434343" stroke="#434343" stroke-width="2.0" stroke-linecap="butt" d="m138.2577 77.513916l1.0039062 -9.606369l-6.9438934 6.713608z" fill-rule="evenodd"></path><path fill="#000000" fill-opacity="0.0" d="m25.54964 48.067165c0 -14.27581 28.748032 -28.559492 57.49606 -28.551619c28.748032 0.007873535 57.496063 14.307306 57.496063 28.61461" fill-rule="nonzero"></path><path stroke="#434343" stroke-width="2.0" stroke-linejoin="round" stroke-linecap="butt" d="m25.54964 48.067165c0 -14.27581 28.748028 -28.559492 57.49606 -28.551619c14.374023 0.0039367676 28.74804 3.5807629 39.52855 8.945019c2.6951294 1.3410645 5.1656647 2.7938423 7.3554535 4.3304386c1.0948944 0.7682953 2.1195984 1.5575447 3.0671082 2.3642654c0.47375488 0.40335846 0.9282074 0.81108475 1.3624878 1.222744c0.21713257 0.2058258 0.42921448 0.4126358 0.6361542 0.6203766c0.10346985 0.10387039 0.20565796 0.20796967 0.3065338 0.31229782l0.015563965 0.016342163" fill-rule="evenodd"></path><path fill="#434343" stroke="#434343" stroke-width="2.0" stroke-linecap="butt" d="m132.34357 38.765198l6.9253235 6.732773l-0.97735596 -9.609108z" fill-rule="evenodd"></path><path fill="#000000" fill-opacity="0.0" d="m157.69794 48.067165c0 -14.27581 26.803146 -28.559492 53.606293 -28.551619c26.803146 0.007873535 53.606293 14.307306 53.606293 28.61461" fill-rule="nonzero"></path><path stroke="#434343" stroke-width="2.0" stroke-linejoin="round" stroke-linecap="butt" d="m157.69794 48.067165c0 -14.27581 26.803146 -28.559492 53.606293 -28.551619c13.401581 0.0039367676 26.803162 3.5807629 36.85434 8.945019c2.5127869 1.3410645 4.8161926 2.7938423 6.857834 4.3304386c1.0208282 0.7682953 1.9762115 1.5575447 2.8596344 2.3642654c0.4416809 0.40335846 0.86538696 0.81108475 1.2702942 1.222744c0.20245361 0.2058258 0.400177 0.4126358 0.59310913 0.6203766l0.19439697 0.21240997" fill-rule="evenodd"></path><path fill="#434343" stroke="#434343" stroke-width="2.0" stroke-linecap="butt" d="m256.92786 38.58083l6.770111 6.8888206l-0.7581482 -9.628883z" fill-rule="evenodd"></path><path fill="#000000" fill-opacity="0.0" d="m157.69794 65.2159c0 14.27581 26.803146 28.543747 53.606293 28.55162c26.803146 0.007873535 53.606293 -14.244316 53.606293 -28.488625" fill-rule="nonzero"></path><path stroke="#434343" stroke-width="2.0" stroke-linejoin="round" stroke-linecap="butt" d="m157.69794 65.2159c0 14.27581 26.803146 28.54374 53.606293 28.551613c13.401581 0.0039367676 26.803162 -3.5571365 36.85434 -8.8997345c2.5127869 -1.3356552 4.8161926 -2.7826462 6.857834 -4.3131256c1.0208282 -0.7652359 1.9762115 -1.5513458 2.8596344 -2.354828c0.4416809 -0.40174866 0.86538696 -0.80784607 1.2702942 -1.2178421c0.20245361 -0.20500946 0.400177 -0.41098785 0.59310913 -0.6178894l0.16482544 -0.17936707" fill-rule="evenodd"></path><path fill="#434343" stroke="#434343" stroke-width="2.0" stroke-linecap="butt" d="m262.9065 77.5629l0.78427124 -9.626793l-6.7887573 6.8704453z" fill-rule="evenodd"></path><path fill="#000000" fill-opacity="0.0" d="m282.05884 48.067165c0 -14.27581 26.834625 -28.559492 53.66928 -28.551619c26.834656 0.007873535 53.66928 14.307306 53.66928 28.61461" fill-rule="nonzero"></path><path stroke="#434343" stroke-width="2.0" stroke-linejoin="round" stroke-linecap="butt" d="m282.05884 48.067165c0 -14.27581 26.834625 -28.559492 53.66928 -28.551619c13.417297 0.0039367676 26.834625 3.5807629 36.897614 8.945019c2.515747 1.3410645 4.821869 2.7938423 6.865906 4.3304386c1.0220032 0.7682953 1.9785461 1.5575447 2.862976 2.3642654c0.44223022 0.40335846 0.86642456 0.81108475 1.2717896 1.222744c0.20266724 0.2058258 0.40066528 0.4126358 0.59381104 0.6203766l0.19631958 0.21429062" fill-rule="evenodd"></path><path fill="#434343" stroke="#434343" stroke-width="2.0" stroke-linecap="butt" d="m381.4111 38.583847l6.772705 6.886261l-0.7617798 -9.628593z" fill-rule="evenodd"></path><path fill="#000000" fill-opacity="0.0" d="m282.05884 65.2159c0 14.27581 26.834625 28.543747 53.66928 28.55162c26.834656 0.007873535 53.66928 -14.244316 53.66928 -28.488625" fill-rule="nonzero"></path><path stroke="#434343" stroke-width="2.0" stroke-linejoin="round" stroke-linecap="butt" d="m282.05884 65.2159c0 14.27581 26.834625 28.54374 53.66928 28.551613c13.417297 0.0039367676 26.834625 -3.5571365 36.897614 -8.8997345c2.515747 -1.3356552 4.821869 -2.7826462 6.865906 -4.3131256c1.0220032 -0.7652359 1.9785461 -1.5513458 2.862976 -2.354828c0.44223022 -0.40174866 0.86642456 -0.80784607 1.2717896 -1.2178421c0.20266724 -0.20500946 0.40066528 -0.41098785 0.59381104 -0.6178894l0.16674805 -0.18126678" fill-rule="evenodd"></path><path fill="#434343" stroke="#434343" stroke-width="2.0" stroke-linecap="butt" d="m387.3887 77.56213l0.78790283 -9.626495l-6.7913513 6.867874z" fill-rule="evenodd"></path><path fill="#000000" fill-opacity="0.0" d="m60.245605 -10.78629l39.968506 0l0 39.05512l-39.968506 0z" fill-rule="nonzero"></path><path fill="#000000" d="m76.72998 16.133709l-2.609375 0l0 -9.828125q-1.4375 1.34375 -3.375 1.9843745l0 -2.3749995q1.03125 -0.328125 2.21875 -1.25q1.203125 -0.9375 1.640625 -2.1875l2.125 0l0 13.65625zm10.375717 0l-2.609375 0l0 -9.828125q-1.4375 1.34375 -3.375 1.9843745l0 -2.3749995q1.03125 -0.328125 2.21875 -1.25q1.203125 -0.9375 1.640625 -2.1875l2.125 0l0 13.65625z" fill-rule="nonzero"></path><path fill="#000000" fill-opacity="0.0" d="m64.881165 62.42911l24.251968 0l0 39.05512l-24.251968 0z" fill-rule="nonzero"></path><path fill="#000000" d="m74.599915 85.73974l2.515625 -0.3125q0.125 0.96875 0.65625 1.484375q0.53125 0.5 1.28125 0.5q0.796875 0 1.34375 -0.609375q0.5625 -0.609375 0.5625 -1.640625q0 -0.984375 -0.53125 -1.5625q-0.53125 -0.578125 -1.28125 -0.578125q-0.5 0 -1.203125 0.203125l0.28125 -2.125q1.0625 0.015625 1.609375 -0.46875q0.5625 -0.484375 0.5625 -1.296875q0 -0.6875 -0.40625 -1.09375q-0.40625 -0.40625 -1.078125 -0.40625q-0.671875 0 -1.140625 0.46875q-0.46875 0.46875 -0.578125 1.359375l-2.40625 -0.421875q0.25 -1.234375 0.75 -1.96875q0.515625 -0.734375 1.421875 -1.15625q0.90625 -0.421875 2.03125 -0.421875q1.90625 0 3.078125 1.21875q0.953125 1.0 0.953125 2.265625q0 1.796875 -1.953125 2.859375q1.15625 0.25 1.859375 1.125q0.703125 0.875 0.703125 2.109375q0 1.78125 -1.3125 3.046875q-1.296875 1.265625 -3.25 1.265625q-1.84375 0 -3.0625 -1.0625q-1.21875 -1.0625 -1.40625 -2.78125z" fill-rule="nonzero"></path><path fill="#000000" fill-opacity="0.0" d="m195.34573 63.77557l24.251968 0l0 39.05512l-24.251968 0z" fill-rule="nonzero"></path><path fill="#000000" d="m213.98636 80.42994l-2.53125 0.28125q-0.09375 -0.78125 -0.484375 -1.15625q-0.375 -0.375 -1.0 -0.375q-0.828125 0 -1.40625 0.75q-0.5625 0.734375 -0.71875 3.078125q0.984375 -1.140625 2.421875 -1.140625q1.640625 0 2.796875 1.25q1.171875 1.234375 1.171875 3.203125q0 2.078125 -1.234375 3.34375q-1.21875 1.265625 -3.140625 1.265625q-2.0625 0 -3.390625 -1.59375q-1.3125 -1.609375 -1.3125 -5.25q0 -3.75 1.375 -5.390625q1.390625 -1.65625 3.59375 -1.65625q1.546875 0 2.5625 0.875q1.015625 0.859375 1.296875 2.515625zm-5.90625 5.6875q0 1.265625 0.578125 1.953125q0.59375 0.6875 1.34375 0.6875q0.71875 0 1.203125 -0.5625q0.484375 -0.5625 0.484375 -1.84375q0 -1.328125 -0.53125 -1.9375q-0.515625 -0.625 -1.296875 -0.625q-0.75 0 -1.265625 0.59375q-0.515625 0.578125 -0.515625 1.734375z" fill-rule="nonzero"></path><path fill="#000000" fill-opacity="0.0" d="m188.96608 -10.78629l48.220474 0l0 39.05512l-48.220474 0z" fill-rule="nonzero"></path><path fill="#000000" d="m207.57545 13.711833l0 2.421876l-9.140625 0q0.15625 -1.375001 0.890625 -2.593751q0.75 -1.234375 2.9375 -3.265625q1.765625 -1.640625 2.15625 -2.234375q0.546875 -0.7968745 0.546875 -1.5937495q0 -0.875 -0.46875 -1.34375q-0.46875 -0.46875 -1.296875 -0.46875q-0.8125 0 -1.296875 0.5q-0.484375 0.484375 -0.5625 1.625l-2.59375 -0.25q0.234375 -2.15625 1.453125 -3.09375q1.21875 -0.9375 3.0625 -0.9375q2.015625 0 3.15625 1.09375q1.15625 1.078125 1.15625 2.6875q0 0.921875 -0.328125 1.7499995q-0.328125 0.828125 -1.046875 1.734375q-0.46875 0.609375 -1.703125 1.75q-1.234375 1.125 -1.5625 1.5q-0.328125 0.359375 -0.53125 0.71875l5.171875 0zm1.4850922 -1.1875l2.515625 -0.3125q0.125 0.96875 0.65625 1.484375q0.53125 0.5 1.28125 0.5q0.796875 0 1.34375 -0.609375q0.5625 -0.609375 0.5625 -1.640625q0 -0.984375 -0.53125 -1.5625q-0.53125 -0.578125 -1.28125 -0.578125q-0.5 0 -1.203125 0.203125l0.28125 -2.1249995q1.0625 0.015625 1.609375 -0.46875q0.5625 -0.484375 0.5625 -1.296875q0 -0.6875 -0.40625 -1.09375q-0.40625 -0.40625 -1.078125 -0.40625q-0.671875 0 -1.140625 0.46875q-0.46875 0.46875 -0.578125 1.359375l-2.40625 -0.421875q0.25 -1.234375 0.75 -1.96875q0.515625 -0.734375 1.421875 -1.15625q0.90625 -0.421875 2.03125 -0.421875q1.90625 0 3.078125 1.21875q0.953125 1.0 0.953125 2.265625q0 1.796875 -1.953125 2.8593745q1.15625 0.25 1.859375 1.125q0.703125 0.875 0.703125 2.109375q0 1.78125 -1.3125 3.046875q-1.296875 1.265626 -3.25 1.265626q-1.84375 0 -3.0625 -1.062501q-1.21875 -1.0625 -1.40625 -2.78125z" fill-rule="nonzero"></path><path fill="#000000" fill-opacity="0.0" d="m321.7164 26.791992l24.251953 0l0 39.055122l-24.251953 0z" fill-rule="nonzero"></path><path fill="#000000" d="m331.5289 42.71199l0 -2.421875l8.90625 0l0 1.90625q-1.09375 1.078125 -2.234375 3.109375q-1.140625 2.03125 -1.75 4.328125q-0.59375 2.28125 -0.578125 4.078125l-2.515625 0q0.0625 -2.828125 1.15625 -5.75q1.109375 -2.9375 2.9375 -5.25l-5.921875 0z" fill-rule="nonzero"></path><path fill="#000000" fill-opacity="0.0" d="m315.42017 -10.78629l48.22046 0l0 39.05512l-48.22046 0z" fill-rule="nonzero"></path><path fill="#000000" d="m331.90454 16.133709l-2.609375 0l0 -9.828125q-1.4375 1.34375 -3.375 1.9843745l0 -2.3749995q1.03125 -0.328125 2.21875 -1.25q1.203125 -0.9375 1.640625 -2.1875l2.125 0l0 13.65625zm12.531952 -10.265625l-2.53125 0.28125q-0.09375 -0.78125 -0.484375 -1.15625q-0.375 -0.375 -1.0 -0.375q-0.828125 0 -1.40625 0.75q-0.5625 0.734375 -0.71875 3.0781245q0.984375 -1.1406245 2.421875 -1.1406245q1.640625 0 2.796875 1.2499995q1.171875 1.234375 1.171875 3.203125q0 2.078125 -1.234375 3.34375q-1.21875 1.265626 -3.140625 1.265626q-2.0625 0 -3.390625 -1.593751q-1.3125 -1.609375 -1.3125 -5.25q0 -3.7499995 1.375 -5.3906245q1.390625 -1.65625 3.59375 -1.65625q1.546875 0 2.5625 0.875q1.015625 0.859375 1.296875 2.515625zm-5.90625 5.6874995q0 1.265625 0.578125 1.953125q0.59375 0.6875 1.34375 0.6875q0.71875 0 1.203125 -0.5625q0.484375 -0.5625 0.484375 -1.84375q0 -1.328125 -0.53125 -1.9375q-0.515625 -0.625 -1.296875 -0.625q-0.75 0 -1.265625 0.59375q-0.515625 0.578125 -0.515625 1.734375z" fill-rule="nonzero"></path></g></svg>

