<?xml version="1.0" standalone="yes"?>

<svg version="1.1" viewBox="0.0 0.0 414.7690288713911 100.0" fill="none" stroke="none" stroke-linecap="square" stroke-miterlimit="10" xmlns="http://www.w3.org/2000/svg" xmlns:xlink="http://www.w3.org/1999/xlink"><clipPath id="p.0"><path d="m0 0l414.76904 0l0 100.0l-414.76904 0l0 -100.0z" clip-rule="nonzero"></path></clipPath><g clip-path="url(#p.0)"><path fill="#000000" fill-opacity="0.0" d="m0 0l414.76904 0l0 100.0l-414.76904 0z" fill-rule="nonzero"></path><path fill="#000000" fill-opacity="0.0" d="m375.82715 -3.3532033l39.968506 0l0 52.692913l-39.968506 0z" fill-rule="nonzero"></path><path fill="#000000" d="m395.6709 21.835548q0 -0.546875 -0.578125 -0.546875l-0.4375 0.03125l0.15625 -0.671875q2.65625 -0.203125 4.984375 -0.671875q-0.8125 2.1875 -1.203125 3.9375l-1.03125 4.359375q-1.203125 5.1875 -2.5 7.140625q1.078125 0.25 2.25 0.25q2.546875 0 4.53125 -1.1875q2.0 -1.203125 3.078125 -3.359375q1.09375 -2.15625 1.09375 -4.828125q0 -2.25 -0.890625 -4.015625q-0.875 -1.78125 -2.5 -2.734375q-1.625 -0.96875 -3.71875 -0.96875q-2.609375 0 -4.984375 1.265625q-2.359375 1.25 -3.84375 3.390625q-1.46875 2.140625 -1.46875 4.375q0 1.0625 0.453125 1.84375q0.453125 0.78125 1.59375 1.390625q0.546875 0.25 0.546875 0.671875q0 0.359375 -0.296875 0.65625q-0.296875 0.296875 -0.734375 0.296875q-1.265625 0 -2.203125 -1.3125q-0.9375 -1.3125 -0.9375 -2.9375q0 -2.796875 1.75 -5.296875q1.765625 -2.515625 4.703125 -3.9375q2.9375 -1.421875 6.390625 -1.421875q2.90625 0 5.1875 1.03125q2.28125 1.015625 3.515625 2.875q1.234375 1.84375 1.234375 4.1875q0 2.9375 -1.59375 5.484375q-1.59375 2.53125 -4.375 4.0q-2.78125 1.453125 -6.09375 1.453125q-1.15625 0 -2.75 -0.125q-1.59375 -0.125 -3.578125 -0.125q-1.640625 0 -2.140625 0.03125l0.34375 -0.765625q1.296875 -0.03125 1.640625 -0.15625q0.359375 -0.140625 0.609375 -0.4375q0.265625 -0.3125 0.5 -0.90625q0.78125 -1.90625 1.0625 -3.015625l0.875 -3.390625q1.359375 -5.234375 1.359375 -5.859375z" fill-rule="nonzero"></path><path fill="#000000" fill-opacity="0.0" d="m253.56262 -6.0828457l39.968506 0l0 52.692917l-39.968506 0z" fill-rule="nonzero"></path><path fill="#000000" d="m280.93762 21.855906q0.09375 -1.3125 0.09375 -1.78125q0 -2.109375 -0.875 -3.1875q-0.859375 -1.078125 -2.421875 -1.078125q-2.046875 0 -4.03125 1.890625q-1.96875 1.875 -3.125 4.84375q-1.140625 2.96875 -1.140625 6.03125q0 3.078125 1.21875 4.937502q1.234375 1.859375 3.328125 1.859375q0.8125 0 1.46875 -0.28125q0.671875 -0.265625 1.203125 -0.671875q0.546875 -0.40625 0.953125 -0.875q0.40625 -0.46875 0.71875 -0.875q0.328125 -0.40625 0.546875 -0.6718769q0.234375 -0.28125 0.390625 -0.28125q0.21875 0 0.34375 0.15625q0.140625 0.1562519 0.140625 0.2968769q0 0.421875 -0.828125 1.375q-0.8125 0.953125 -1.796875 1.640625q-0.984375 0.6875 -2.15625 1.09375q-1.15625 0.40625 -2.296875 0.40625q-2.03125 0 -3.640625 -0.96875q-1.609375 -0.96875 -2.5 -2.78125q-0.890625 -1.8125019 -0.890625 -4.156252q0 -3.375 1.734375 -6.65625q1.75 -3.28125 4.546875 -5.25q2.796875 -1.984375 5.65625 -1.984375q1.65625 0 4.03125 0.8125l1.234375 0.40625q-0.9375 2.875 -1.046875 5.75l-0.859375 0z" fill-rule="nonzero"></path><path fill="#000000" fill-opacity="0.0" d="m-3.0098054 -6.0832324l39.968502 0l0 52.692913l-39.968502 0z" fill-rule="nonzero"></path><path fill="#000000" d="m23.84957 32.808643q1.09375 0.28125 2.078125 0.28125q0.71875 0 1.3125 -0.15625l-0.15625 0.890625q-0.34375 0.0625 -1.0 0.0625q-0.65625 0 -2.09375 -0.125l-1.8125 -0.125q-1.34375 0 -2.390625 0.1875q0.875 -2.140625 1.1875 -4.671875l0.15625 -1.140625l-1.1875 0l-4.453125 0.0625q-2.609375 4.0 -3.75 5.46875q-1.125 1.46875 -1.96875 2.21875q-0.84375 0.75 -1.734375 1.09375q-0.875 0.359375 -1.859375 0.359375q-1.8125 0 -1.8125 -1.59375q0 -0.53125 0.234375 -0.84375q0.234375 -0.3125 0.6875 -0.3125q0.1875 0 0.828125 0.140625q0.640625 0.15625 0.96875 0.15625q1.578125 0 2.515625 -0.90625q1.1875 -1.125 2.515625 -2.875q1.34375 -1.75 3.578125 -5.171875q4.1875 -6.421875 7.328125 -9.906249q-3.09375 0.29687405 -3.921875 0.46874905q-0.828125 0.171875 -1.375 0.421875q-0.546875 0.234375 -0.890625 0.578125q-0.34375 0.328125 -0.5625 0.828125q-0.203125 0.5 -0.203125 1.03125q0 0.453125 0.234375 1.046875q0.21875 0.609375 0.21875 0.84375q0 0.359375 -0.375 0.640625q-0.375 0.265625 -0.84375 0.265625q-0.71875 0 -1.109375 -0.421875q-0.390625 -0.4375 -0.390625 -1.1875q0 -2.15625 1.9375 -3.59375q1.9375 -1.437499 5.265625 -1.687499l1.625 -0.109375q1.34375 -0.0625 2.25 -0.328125q0.921875 -0.265625 1.5625 -0.78125q-0.46875 1.859375 -0.703125 3.531249l-1.21875 8.859375l-0.671875 6.5zm-1.09375 -15.234375q-3.234375 4.328125 -6.46875 9.28125l1.78125 0.03125q2.875 0 3.1875 -0.03125q0.640625 -5.671875 1.5 -9.28125z" fill-rule="nonzero"></path><path fill="#000000" fill-opacity="0.0" d="m129.17577 -3.3534262l39.968506 0l0 52.692917l-39.968506 0z" fill-rule="nonzero"></path><path fill="#000000" d="m152.86327 20.0072q-0.25 0.734375 -0.421875 1.34375q-0.171875 0.609375 -1.203125 4.75q2.484375 0 3.703125 -1.40625q1.21875 -1.40625 1.21875 -3.265625q0 -1.34375 -0.9375 -2.15625q-0.921875 -0.828125 -2.75 -0.828125q-2.859375 0 -5.484375 1.296875q-2.609375 1.296875 -4.125 3.4375q-1.515625 2.140625 -1.515625 4.484375q0 1.734375 1.375 2.5q0.984375 0.5625 1.265625 0.859375q0.296875 0.28125 0.296875 0.671875q0 0.4843731 -0.34375 0.7656231q-0.328125 0.265625 -0.78125 0.265625q-0.71875 0 -1.40625 -0.671875q-0.6875 -0.6718731 -1.0625 -1.7187481q-0.375 -1.0625 -0.375 -2.359375q0 -2.234375 1.078125 -4.203125q1.078125 -1.984375 2.828125 -3.375q1.75 -1.40625 3.953125 -2.15625q2.203125 -0.75 4.8125 -0.75q2.96875 0 4.671875 1.046875q1.703125 1.046875 1.703125 2.75q0 1.515625 -1.15625 2.765625q-1.140625 1.234375 -3.453125 1.90625q2.296875 0.3125 3.375 1.328125q1.078125 1.015625 1.078125 2.546875q0 1.671875 -1.0625 3.156248q-1.046875 1.46875 -3.140625 2.5q-2.078125 1.03125 -4.546875 1.03125q-1.125 0 -2.84375 -0.125q-1.625 -0.03125 -2.203125 -0.03125q-1.59375 0 -2.84375 0.25l0.21875 -0.859375q1.765625 -0.09375 2.421875 -0.859375q0.65625 -0.78125 1.21875 -3.015623l2.3125 -9.046875q0.15625 -0.59375 0.15625 -0.90625q0 -0.21875 -0.203125 -0.390625q-0.1875 -0.1875 -0.5 -0.1875l-0.3125 0.046875l0.1875 -0.78125q2.53125 -0.171875 4.796875 -0.609375zm-4.703125 15.234373q1.3125 0.359375 2.234375 0.359375q2.5625 0 3.828125 -1.71875q1.265625 -1.71875 1.265625 -3.749998q0 -0.96875 -0.484375 -1.734375q-0.484375 -0.78125 -1.25 -1.078125q-0.765625 -0.296875 -2.78125 -0.296875q-1.15625 4.578125 -1.53125 5.718748q-0.375 1.140625 -0.65625 1.65625q-0.265625 0.5 -0.625 0.84375z" fill-rule="nonzero"></path><path fill="#d9d9d9" d="m4.84929 56.641533l0 0c0 -6.6969986 5.4289885 -12.125984 12.125985 -12.125984l0 0c3.216011 0 6.3003025 1.2775536 8.574366 3.5516167c2.274063 2.274063 3.5516186 5.3583565 3.5516186 8.574368l0 0c0 6.696995 -5.4289894 12.125984 -12.125984 12.125984l0 0c-6.6969967 0 -12.125985 -5.4289894 -12.125985 -12.125984z" fill-rule="nonzero"></path><path stroke="#3c78d8" stroke-width="3.0" stroke-linejoin="round" stroke-linecap="butt" d="m4.84929 56.641533l0 0c0 -6.6969986 5.4289885 -12.125984 12.125985 -12.125984l0 0c3.216011 0 6.3003025 1.2775536 8.574366 3.5516167c2.274063 2.274063 3.5516186 5.3583565 3.5516186 8.574368l0 0c0 6.696995 -5.4289894 12.125984 -12.125984 12.125984l0 0c-6.6969967 0 -12.125985 -5.4289894 -12.125985 -12.125984z" fill-rule="nonzero"></path><path fill="#d9d9d9" d="m136.99759 56.641533l0 0c0 -6.6969986 5.4289856 -12.125984 12.125977 -12.125984l0 0c3.2160187 0 6.300308 1.2775536 8.574371 3.5516167c2.274063 2.274063 3.5516205 5.3583565 3.5516205 8.574368l0 0c0 6.696995 -5.4289856 12.125984 -12.125992 12.125984l0 0c-6.696991 0 -12.125977 -5.4289894 -12.125977 -12.125984z" fill-rule="nonzero"></path><path stroke="#3c78d8" stroke-width="3.0" stroke-linejoin="round" stroke-linecap="butt" d="m136.99759 56.641533l0 0c0 -6.6969986 5.4289856 -12.125984 12.125977 -12.125984l0 0c3.2160187 0 6.300308 1.2775536 8.574371 3.5516167c2.274063 2.274063 3.5516205 5.3583565 3.5516205 8.574368l0 0c0 6.696995 -5.4289856 12.125984 -12.125992 12.125984l0 0c-6.696991 0 -12.125977 -5.4289894 -12.125977 -12.125984z" fill-rule="nonzero"></path><path fill="#000000" fill-opacity="0.0" d="m29.10126 56.641533l107.90552 0" fill-rule="nonzero"></path><path stroke="#434343" stroke-width="2.0" stroke-linejoin="round" stroke-linecap="butt" d="m29.101257 56.641533l95.90551 0" fill-rule="evenodd"></path><path fill="#434343" stroke="#434343" stroke-width="2.0" stroke-linecap="butt" d="m125.00677 59.944996l9.076195 -3.303463l-9.076195 -3.3034668z" fill-rule="evenodd"></path><path fill="#d9d9d9" d="m261.3585 56.641533l0 0c0 -6.6969986 5.4289856 -12.125984 12.125977 -12.125984l0 0c3.2160034 0 6.300293 1.2775536 8.574371 3.5516167c2.2740479 2.274063 3.5516052 5.3583565 3.5516052 8.574368l0 0c0 6.696995 -5.4289856 12.125984 -12.125977 12.125984l0 0c-6.696991 0 -12.125977 -5.4289894 -12.125977 -12.125984z" fill-rule="nonzero"></path><path stroke="#3c78d8" stroke-width="3.0" stroke-linejoin="round" stroke-linecap="butt" d="m261.3585 56.641533l0 0c0 -6.6969986 5.4289856 -12.125984 12.125977 -12.125984l0 0c3.2160034 0 6.300293 1.2775536 8.574371 3.5516167c2.2740479 2.274063 3.5516052 5.3583565 3.5516052 8.574368l0 0c0 6.696995 -5.4289856 12.125984 -12.125977 12.125984l0 0c-6.696991 0 -12.125977 -5.4289894 -12.125977 -12.125984z" fill-rule="nonzero"></path><path fill="#d9d9d9" d="m385.84274 56.641533l0 0c0 -6.6969986 5.4289856 -12.125984 12.125977 -12.125984l0 0c3.2160034 0 6.300293 1.2775536 8.574371 3.5516167c2.2740479 2.274063 3.5516052 5.3583565 3.5516052 8.574368l0 0c0 6.696995 -5.4289856 12.125984 -12.125977 12.125984l0 0c-6.696991 0 -12.125977 -5.4289894 -12.125977 -12.125984z" fill-rule="nonzero"></path><path stroke="#3c78d8" stroke-width="3.0" stroke-linejoin="round" stroke-linecap="butt" d="m385.84274 56.641533l0 0c0 -6.6969986 5.4289856 -12.125984 12.125977 -12.125984l0 0c3.2160034 0 6.300293 1.2775536 8.574371 3.5516167c2.2740479 2.274063 3.5516052 5.3583565 3.5516052 8.574368l0 0c0 6.696995 -5.4289856 12.125984 -12.125977 12.125984l0 0c-6.696991 0 -12.125977 -5.4289894 -12.125977 -12.125984z" fill-rule="nonzero"></path><path fill="#000000" fill-opacity="0.0" d="m161.24956 56.641533l100.0945 0" fill-rule="nonzero"></path><path stroke="#434343" stroke-width="2.0" stroke-linejoin="round" stroke-linecap="butt" d="m161.24954 56.641533l88.0945 0" fill-rule="evenodd"></path><path fill="#434343" stroke="#434343" stroke-width="2.0" stroke-linecap="butt" d="m249.34404 59.944996l9.076187 -3.303463l-9.076187 -3.3034668z" fill-rule="evenodd"></path><path fill="#000000" fill-opacity="0.0" d="m285.61044 56.641533l100.22046 0" fill-rule="nonzero"></path><path stroke="#434343" stroke-width="2.0" stroke-linejoin="round" stroke-linecap="butt" d="m285.61044 56.641533l88.22046 0" fill-rule="evenodd"></path><path fill="#434343" stroke="#434343" stroke-width="2.0" stroke-linecap="butt" d="m373.8309 59.944996l9.076202 -3.303463l-9.076202 -3.3034668z" fill-rule="evenodd"></path><path fill="#666666" d="m13.904408 56.641533l0 0c0 -1.6959953 1.3748732 -3.0708656 3.0708666 -3.0708656l0 0c0.8144436 0 1.5955296 0.32353592 2.1714287 0.89943314c0.5758991 0.57590103 0.89943695 1.356987 0.89943695 2.1714325l0 0c0 1.6959915 -1.3748741 3.0708656 -3.0708656 3.0708656l0 0c-1.6959934 0 -3.0708666 -1.3748741 -3.0708666 -3.0708656z" fill-rule="nonzero"></path><path stroke="#a4c2f4" stroke-width="1.0" stroke-linejoin="round" stroke-linecap="butt" d="m13.904408 56.641533l0 0c0 -1.6959953 1.3748732 -3.0708656 3.0708666 -3.0708656l0 0c0.8144436 0 1.5955296 0.32353592 2.1714287 0.89943314c0.5758991 0.57590103 0.89943695 1.356987 0.89943695 2.1714325l0 0c0 1.6959915 -1.3748741 3.0708656 -3.0708656 3.0708656l0 0c-1.6959934 0 -3.0708666 -1.3748741 -3.0708666 -3.0708656z" fill-rule="nonzero"></path><path fill="#000000" fill-opacity="0.0" d="m25.54964 65.2159c0 6.3172455 28.748032 12.626625 57.49606 12.634499c28.748032 0.007873535 57.496063 -6.2857513 57.496063 -12.571503" fill-rule="nonzero"></path><path stroke="#434343" stroke-width="2.0" stroke-linejoin="round" stroke-linecap="butt" d="m25.54964 65.2159c0 6.317253 28.748028 12.626625 57.49606 12.634499c14.374023 0.0039367676 28.74804 -1.5675049 39.52855 -3.925644c2.6951294 -0.5895386 5.1656647 -1.228241 7.3554535 -1.9037933l0.56607056 -0.17868805" fill-rule="evenodd"></path><path fill="#434343" stroke="#434343" stroke-width="2.0" stroke-linecap="butt" d="m132.3026 74.60782l5.791458 -7.729759l-9.405106 2.1986618z" fill-rule="evenodd"></path><path fill="#000000" fill-opacity="0.0" d="m25.54964 48.067165c0 -6.5493317 28.748032 -13.106537 57.49606 -13.0986595c28.748032 0.007873535 57.496063 6.580826 57.496063 13.161652" fill-rule="nonzero"></path><path stroke="#434343" stroke-width="2.0" stroke-linejoin="round" stroke-linecap="butt" d="m25.54964 48.067165c0 -6.5493317 28.748028 -13.106537 57.49606 -13.098663c14.374023 0.0039405823 28.74804 1.649147 39.52855 4.1159706c2.6951294 0.61670685 5.1656647 1.2847672 7.3554535 1.9913673l0.73313904 0.24206924" fill-rule="evenodd"></path><path fill="#434343" stroke="#434343" stroke-width="2.0" stroke-linecap="butt" d="m128.7875 44.037468l9.3472595 2.4328842l-5.596588 -7.8720016z" fill-rule="evenodd"></path><path fill="#000000" fill-opacity="0.0" d="m157.69794 48.067165c0 -5.7803 26.803146 -11.568478 53.606293 -11.560604c26.803146 0.007873535 53.606293 5.811798 53.606293 11.623596" fill-rule="nonzero"></path><path stroke="#434343" stroke-width="2.0" stroke-linejoin="round" stroke-linecap="butt" d="m157.69794 48.067165c0 -5.780304 26.803146 -11.568478 53.606293 -11.560604c13.401581 0.0039367676 26.803162 1.4568863 36.85434 3.6353264c1.2563934 0.27230453 2.4604492 0.55594635 3.605606 0.8495102c0.57255554 0.14678192 1.1304321 0.2960434 1.6727295 0.44760895c0.27116394 0.07578659 0.53842163 0.15214539 0.80171204 0.22905731l0.47177124 0.14094925" fill-rule="evenodd"></path><path fill="#434343" stroke="#434343" stroke-width="2.0" stroke-linecap="butt" d="m252.97025 44.617l9.455017 1.9730072l-5.9747314 -7.5889816z" fill-rule="evenodd"></path><path fill="#000000" fill-opacity="0.0" d="m157.69794 65.2159c0 7.3080597 26.803146 14.6082535 53.606293 14.616127c26.803146 0.007873535 53.606293 -7.2765656 53.606293 -14.553131" fill-rule="nonzero"></path><path stroke="#434343" stroke-width="2.0" stroke-linejoin="round" stroke-linecap="butt" d="m157.69794 65.2159c0 7.3080673 26.803146 14.6082535 53.606293 14.616127c13.401581 0.0039367676 26.803162 -1.8152084 36.85434 -4.5449066c2.5127869 -0.6824188 4.8161926 -1.4217529 6.857834 -2.2037354l0.58677673 -0.22998047" fill-rule="evenodd"></path><path fill="#434343" stroke="#434343" stroke-width="2.0" stroke-linecap="butt" d="m257.68835 75.41561l4.9544373 -8.291183l-9.124786 3.166771z" fill-rule="evenodd"></path><path fill="#000000" fill-opacity="0.0" d="m282.05884 48.067165c0 -5.5598297 26.834625 -11.127533 53.66928 -11.119659c26.834656 0.007873535 53.66928 5.5913277 53.66928 11.1826515" fill-rule="nonzero"></path><path stroke="#434343" stroke-width="2.0" stroke-linejoin="round" stroke-linecap="butt" d="m282.05884 48.067165c0 -5.5598297 26.834625 -11.127533 53.66928 -11.119659c13.417297 0.0039367676 26.834625 1.4017715 36.897614 3.497532c1.2578735 0.26197052 2.4633484 0.53484726 3.6098328 0.8172684c0.5732422 0.14120865 1.1317749 0.2848053 1.6747131 0.4306183c0.27148438 0.072906494 0.5390625 0.14636993 0.8026428 0.22036362l0.35876465 0.1029892" fill-rule="evenodd"></path><path fill="#434343" stroke="#434343" stroke-width="2.0" stroke-linecap="butt" d="m377.38858 44.858833l9.49295 1.7816734l-6.12677 -7.4667816z" fill-rule="evenodd"></path><path fill="#000000" fill-opacity="0.0" d="m282.05884 65.2159c0 6.758194 26.834625 13.508514 53.66928 13.516388c26.834656 0.007873535 53.66928 -6.7267 53.66928 -13.453392" fill-rule="nonzero"></path><path stroke="#434343" stroke-width="2.0" stroke-linejoin="round" stroke-linecap="butt" d="m282.05884 65.2159c0 6.758194 26.834625 13.508514 53.66928 13.516388c13.417297 0.0039367676 26.834625 -1.677742 36.897614 -4.201233c2.515747 -0.63087463 4.821869 -1.3143616 6.865906 -2.0372772l0.24963379 -0.09033966" fill-rule="evenodd"></path><path fill="#434343" stroke="#434343" stroke-width="2.0" stroke-linecap="butt" d="m381.70258 75.06166l5.342102 -8.046875l-9.264709 2.730423z" fill-rule="evenodd"></path></g></svg>

