<?xml version="1.0" standalone="yes"?>

<svg version="1.1" viewBox="0.0 0.0 493.1732283464567 182.5564304461942" fill="none" stroke="none" stroke-linecap="square" stroke-miterlimit="10" xmlns="http://www.w3.org/2000/svg" xmlns:xlink="http://www.w3.org/1999/xlink"><clipPath id="p.0"><path d="m0 0l493.17322 0l0 182.55643l-493.17322 0l0 -182.55643z" clip-rule="nonzero"></path></clipPath><g clip-path="url(#p.0)"><path fill="#000000" fill-opacity="0.0" d="m0 0l493.17322 0l0 182.55643l-493.17322 0z" fill-rule="nonzero"></path><path fill="#000000" fill-opacity="0.0" d="m413.5748 129.86351l39.968506 0l0 52.692917l-39.968506 0z" fill-rule="nonzero"></path><path fill="#000000" d="m428.52792 157.64601q0 0.4375 -0.34375 0.734375q-0.34375 0.296875 -0.84375 0.296875q-0.703125 0 -1.15625 -0.53125q-0.4375 -0.53125 -0.4375 -1.328125q0 -1.078125 0.40625 -1.984375q0.40625 -0.90625 1.15625 -1.578125q0.765625 -0.671875 2.015625 -1.1875q1.25 -0.515625 3.0625 -0.75q1.8125 -0.234375 5.15625 -0.203125q-1.234375 2.4375 -2.578125 8.0625q3.65625 0 5.84375 -0.28125q1.390625 -4.25 2.46875 -6.078125q1.09375 -1.828125 2.5 -2.71875q1.40625 -0.90625 3.328125 -0.90625q1.390625 0 2.25 0.609375q0.875 0.59375 0.875 1.546875q0 0.484375 -0.296875 0.78125q-0.28125 0.296875 -0.625 0.296875q-0.5625 0 -0.953125 -0.5q-0.578125 -0.796875 -1.0 -1.25q-0.40625 -0.453125 -0.890625 -0.453125q-1.609375 0 -3.21875 4.640625q-1.59375 4.625 -3.46875 13.890625q0.21875 0.03125 0.5 0.078125q0.28125 0.046875 0.578125 0.09375q0.296875 0.046875 0.59375 0.078125q0.296875 0.03125 0.53125 0.03125q0.8125 0 1.4375 -0.15625l-0.21875 0.890625q-0.5 0.09375 -1.4375 0.09375q-0.96875 0 -2.015625 -0.109375q-1.046875 -0.109375 -1.921875 -0.109375q-1.109375 0 -2.015625 0.21875q0.375 -1.046875 0.78125 -2.515625q0.421875 -1.46875 1.90625 -7.171875q-1.375 0.078125 -2.859375 0.109375q-1.46875 0.03125 -3.03125 0.203125q-0.578125 2.3125 -1.234375 4.109375q-0.640625 1.796875 -1.515625 3.03125q-0.859375 1.234375 -2.359375 2.0625q-1.484375 0.84375 -2.953125 0.84375q-1.359375 0 -2.328125 -0.65625q-0.96875 -0.640625 -0.96875 -1.578125q0 -0.484375 0.265625 -0.75q0.265625 -0.265625 0.6875 -0.265625q0.671875 0 1.0 0.671875l0.25 0.5q0.5625 1.15625 1.15625 1.15625q1.3125 0 2.4375 -2.3125q1.125 -2.328125 2.96875 -9.4375q1.0625 -3.9375 1.703125 -5.71875q-1.84375 0.015625 -3.28125 0.453125q-1.421875 0.4375 -2.21875 1.203125q-0.78125 0.765625 -0.78125 1.671875q0 0.328125 0.171875 0.609375q0.171875 0.28125 0.375 0.546875q0.203125 0.25 0.375 0.5q0.171875 0.234375 0.171875 0.515625z" fill-rule="nonzero"></path><path fill="#000000" fill-opacity="0.0" d="m7.999172 -7.695893l39.968502 0l0 52.692913l-39.968502 0z" fill-rule="nonzero"></path><path fill="#000000" d="m34.858547 31.195984q1.09375 0.28125 2.078125 0.28125q0.71875 0 1.3125 -0.15625l-0.15625 0.890625q-0.34375 0.0625 -1.0 0.0625q-0.65625 0 -2.09375 -0.125l-1.8125 -0.125q-1.34375 0 -2.390625 0.1875q0.875 -2.140625 1.1875 -4.671875l0.15625 -1.140625l-1.1875 0l-4.453125 0.0625q-2.609375 4.0 -3.75 5.46875q-1.125 1.46875 -1.96875 2.21875q-0.84375 0.75 -1.734375 1.09375q-0.875 0.359375 -1.859375 0.359375q-1.8125 0 -1.8125 -1.59375q0 -0.53125 0.234375 -0.84375q0.234375 -0.3125 0.6875 -0.3125q0.1875 0 0.828125 0.140625q0.640625 0.15625 0.96875 0.15625q1.578125 0 2.515625 -0.90625q1.1875 -1.125 2.515625 -2.875q1.34375 -1.75 3.578125 -5.171875q4.1875 -6.421875 7.328125 -9.90625q-3.09375 0.296875 -3.921875 0.46875q-0.828125 0.171875 -1.375 0.421875q-0.546875 0.234375 -0.890625 0.578125q-0.34375 0.328125 -0.5625 0.828125q-0.203125 0.5 -0.203125 1.03125q0 0.453125 0.234375 1.046875q0.21875 0.609375 0.21875 0.84375q0 0.359375 -0.375 0.640625q-0.375 0.265625 -0.84375 0.265625q-0.71875 0 -1.109375 -0.421875q-0.390625 -0.4375 -0.390625 -1.1875q0 -2.15625 1.9375 -3.59375q1.9375 -1.4375 5.265625 -1.6875l1.625 -0.109375q1.34375 -0.0625 2.25 -0.328125q0.921875 -0.265625 1.5625 -0.78125q-0.46875 1.859375 -0.703125 3.53125l-1.21875 8.859375l-0.671875 6.5zm-1.09375 -15.234375q-3.234375 4.328125 -6.46875 9.28125l1.78125 0.03125q2.875 0 3.1875 -0.03125q0.640625 -5.671875 1.5 -9.28125z" fill-rule="nonzero"></path><path fill="#d9d9d9" d="m39.968502 40.08399l0 0c0 -6.696995 5.4289894 -12.125982 12.125988 -12.125982l0 0c3.2160072 0 6.3003006 1.2775555 8.574364 3.5516186c2.274063 2.274063 3.5516205 5.3583527 3.5516205 8.574364l0 0c0 6.6969986 -5.4289894 12.125984 -12.125984 12.125984l0 0c-6.6969986 0 -12.125988 -5.4289856 -12.125988 -12.125984z" fill-rule="nonzero"></path><path stroke="#3c78d8" stroke-width="3.0" stroke-linejoin="round" stroke-linecap="butt" d="m39.968502 40.08399l0 0c0 -6.696995 5.4289894 -12.125982 12.125988 -12.125982l0 0c3.2160072 0 6.3003006 1.2775555 8.574364 3.5516186c2.274063 2.274063 3.5516205 5.3583527 3.5516205 8.574364l0 0c0 6.6969986 -5.4289894 12.125984 -12.125984 12.125984l0 0c-6.6969986 0 -12.125988 -5.4289856 -12.125988 -12.125984z" fill-rule="nonzero"></path><path fill="#d9d9d9" d="m187.85957 42.17848l0 0c0 -6.6969986 5.429001 -12.125984 12.125992 -12.125984l0 0c3.2160034 0 6.300308 1.2775555 8.574371 3.5516167c2.274063 2.274063 3.5516052 5.3583565 3.5516052 8.574368l0 0c0 6.696995 -5.4289856 12.125984 -12.125977 12.125984l0 0c-6.696991 0 -12.125992 -5.4289894 -12.125992 -12.125984z" fill-rule="nonzero"></path><path stroke="#3c78d8" stroke-width="3.0" stroke-linejoin="round" stroke-linecap="butt" d="m187.85957 42.17848l0 0c0 -6.6969986 5.429001 -12.125984 12.125992 -12.125984l0 0c3.2160034 0 6.300308 1.2775555 8.574371 3.5516167c2.274063 2.274063 3.5516052 5.3583565 3.5516052 8.574368l0 0c0 6.696995 -5.4289856 12.125984 -12.125977 12.125984l0 0c-6.696991 0 -12.125992 -5.4289894 -12.125992 -12.125984z" fill-rule="nonzero"></path><path fill="#d9d9d9" d="m191.36745 141.36745l0 0c0 -6.696991 5.429001 -12.125977 12.125992 -12.125977l0 0c3.2160034 0 6.300308 1.2775574 8.574371 3.5516205c2.274063 2.274063 3.5516052 5.3583527 3.5516052 8.574356l0 0c0 6.697006 -5.4289856 12.125992 -12.125977 12.125992l0 0c-6.696991 0 -12.125992 -5.4289856 -12.125992 -12.125992z" fill-rule="nonzero"></path><path stroke="#3c78d8" stroke-width="3.0" stroke-linejoin="round" stroke-linecap="butt" d="m191.36745 141.36745l0 0c0 -6.696991 5.429001 -12.125977 12.125992 -12.125977l0 0c3.2160034 0 6.300308 1.2775574 8.574371 3.5516205c2.274063 2.274063 3.5516052 5.3583527 3.5516052 8.574356l0 0c0 6.697006 -5.4289856 12.125992 -12.125977 12.125992l0 0c-6.696991 0 -12.125992 -5.4289856 -12.125992 -12.125992z" fill-rule="nonzero"></path><path fill="#d9d9d9" d="m50.53806 141.49213l0 0c0 -6.696991 5.4289856 -12.125992 12.125984 -12.125992l0 0c3.2160072 0 6.3003044 1.2775574 8.574368 3.5516205c2.274063 2.274063 3.5516129 5.3583527 3.5516129 8.574371l0 0c0 6.696991 -5.4289856 12.125977 -12.12598 12.125977l0 0c-6.6969986 0 -12.125984 -5.4289856 -12.125984 -12.125977z" fill-rule="nonzero"></path><path stroke="#3c78d8" stroke-width="3.0" stroke-linejoin="round" stroke-linecap="butt" d="m50.53806 141.49213l0 0c0 -6.696991 5.4289856 -12.125992 12.125984 -12.125992l0 0c3.2160072 0 6.3003044 1.2775574 8.574368 3.5516205c2.274063 2.274063 3.5516129 5.3583527 3.5516129 8.574371l0 0c0 6.696991 -5.4289856 12.125977 -12.12598 12.125977l0 0c-6.6969986 0 -12.125984 -5.4289856 -12.125984 -12.125977z" fill-rule="nonzero"></path><path fill="#000000" fill-opacity="0.0" d="m52.09449 52.209972l10.582676 77.16536" fill-rule="nonzero"></path><path stroke="#434343" stroke-width="2.0" stroke-linejoin="round" stroke-linecap="butt" d="m52.09449 52.209972l8.952221 65.27664" fill-rule="evenodd"></path><path fill="#434343" stroke="#434343" stroke-width="2.0" stroke-linecap="butt" d="m57.773884 117.935455l4.5060196 8.543182l2.0396385 -9.440872z" fill-rule="evenodd"></path><path fill="#000000" fill-opacity="0.0" d="m64.220474 40.08399l123.653534 2.1102371" fill-rule="nonzero"></path><path stroke="#434343" stroke-width="2.0" stroke-linejoin="round" stroke-linecap="butt" d="m64.220474 40.08399l111.65529 1.9054794" fill-rule="evenodd"></path><path fill="#434343" stroke="#434343" stroke-width="2.0" stroke-linecap="butt" d="m175.8194 45.29245l9.131241 -3.1481133l-9.018509 -3.4578552z" fill-rule="evenodd"></path><path fill="#000000" fill-opacity="0.0" d="m199.98557 54.304462l3.4960632 74.92914" fill-rule="nonzero"></path><path stroke="#434343" stroke-width="2.0" stroke-linejoin="round" stroke-linecap="butt" d="m199.98557 54.304462l2.9367828 62.942173" fill-rule="evenodd"></path><path fill="#434343" stroke="#434343" stroke-width="2.0" stroke-linecap="butt" d="m199.62247 117.400604l3.7228851 8.912361l2.8768616 -9.220291z" fill-rule="evenodd"></path><path fill="#000000" fill-opacity="0.0" d="m71.23841 132.91776l120.15748 -82.17322" fill-rule="nonzero"></path><path stroke="#434343" stroke-width="2.0" stroke-linejoin="round" stroke-linecap="butt" d="m71.23841 132.91777l110.252266 -75.39927" fill-rule="evenodd"></path><path fill="#434343" stroke="#434343" stroke-width="2.0" stroke-linecap="butt" d="m183.35548 60.245296l5.626999 -7.8502846l-9.356598 2.396698z" fill-rule="evenodd"></path><path fill="#000000" fill-opacity="0.0" d="m161.52567 -6.847737l39.968506 0l0 52.692913l-39.968506 0z" fill-rule="nonzero"></path><path fill="#000000" d="m188.90067 21.091015q0.09375 -1.3125 0.09375 -1.78125q0 -2.109375 -0.875 -3.1875q-0.859375 -1.078126 -2.421875 -1.078126q-2.046875 0 -4.03125 1.890626q-1.96875 1.875 -3.125 4.84375q-1.140625 2.96875 -1.140625 6.03125q0 3.078125 1.21875 4.9375q1.234375 1.859375 3.328125 1.859375q0.8125 0 1.46875 -0.28125q0.671875 -0.265625 1.203125 -0.671875q0.546875 -0.40625 0.953125 -0.875q0.40625 -0.46875 0.71875 -0.875q0.328125 -0.40625 0.546875 -0.671875q0.234375 -0.28125 0.390625 -0.28125q0.21875 0 0.34375 0.15625q0.140625 0.15625 0.140625 0.296875q0 0.421875 -0.828125 1.375q-0.8125 0.953125 -1.796875 1.640625q-0.984375 0.6875 -2.15625 1.09375q-1.15625 0.40625 -2.296875 0.40625q-2.03125 0 -3.640625 -0.96875q-1.609375 -0.96875 -2.5 -2.78125q-0.890625 -1.8125 -0.890625 -4.15625q0 -3.375 1.734375 -6.65625q1.75 -3.28125 4.546875 -5.25q2.796875 -1.984376 5.65625 -1.984376q1.65625 0 4.03125 0.8125l1.234375 0.40625q-0.9375 2.875001 -1.046875 5.750001l-0.859375 0z" fill-rule="nonzero"></path><path fill="#000000" fill-opacity="0.0" d="m74.79002 141.49213l116.566925 -0.12599182" fill-rule="nonzero"></path><path stroke="#434343" stroke-width="2.0" stroke-linejoin="round" stroke-linecap="butt" d="m74.79002 141.49213l104.566925 -0.11302185" fill-rule="evenodd"></path><path fill="#434343" stroke="#434343" stroke-width="2.0" stroke-linecap="butt" d="m179.36053 144.68257l9.072617 -3.313263l-9.079758 -3.2936554z" fill-rule="evenodd"></path><path fill="#000000" fill-opacity="0.0" d="m158.19833 125.9554l39.968506 0l0 52.692917l-39.968506 0z" fill-rule="nonzero"></path><path fill="#000000" d="m178.04208 151.14415q0 -0.546875 -0.578125 -0.546875l-0.4375 0.03125l0.15625 -0.671875q2.65625 -0.203125 4.984375 -0.671875q-0.8125 2.1875 -1.203125 3.9375l-1.03125 4.359375q-1.203125 5.1875 -2.5 7.140625q1.078125 0.25 2.25 0.25q2.546875 0 4.53125 -1.1875q2.0 -1.203125 3.078125 -3.359375q1.09375 -2.15625 1.09375 -4.828125q0 -2.25 -0.890625 -4.015625q-0.875 -1.78125 -2.5 -2.734375q-1.625 -0.96875 -3.71875 -0.96875q-2.609375 0 -4.984375 1.265625q-2.359375 1.25 -3.84375 3.390625q-1.46875 2.140625 -1.46875 4.375q0 1.0625 0.453125 1.84375q0.453125 0.78125 1.59375 1.390625q0.546875 0.25 0.546875 0.671875q0 0.359375 -0.296875 0.65625q-0.296875 0.296875 -0.734375 0.296875q-1.265625 0 -2.203125 -1.3125q-0.9375 -1.3125 -0.9375 -2.9375q0 -2.796875 1.75 -5.296875q1.765625 -2.515625 4.703125 -3.9375q2.9375 -1.421875 6.390625 -1.421875q2.90625 0 5.1875 1.03125q2.28125 1.015625 3.515625 2.875q1.234375 1.84375 1.234375 4.1875q0 2.9375 -1.59375 5.484375q-1.59375 2.53125 -4.375 4.0q-2.78125 1.453125 -6.09375 1.453125q-1.15625 0 -2.75 -0.125q-1.59375 -0.125 -3.578125 -0.125q-1.640625 0 -2.140625 0.03125l0.34375 -0.765625q1.296875 -0.03125 1.640625 -0.15625q0.359375 -0.140625 0.609375 -0.4375q0.265625 -0.3125 0.5 -0.90625q0.78125 -1.90625 1.0625 -3.015625l0.875 -3.390625q1.359375 -5.234375 1.359375 -5.859375z" fill-rule="nonzero"></path><path fill="#000000" fill-opacity="0.0" d="m266.84232 -8.203483l39.968506 0l0 52.692913l-39.968506 0z" fill-rule="nonzero"></path><path fill="#000000" d="m296.60794 16.95402q0.265625 -1.390626 0.265625 -1.687501q0 -0.5 -0.359375 -0.765625q-0.359375 -0.265625 -1.34375 -0.265625l-4.28125 0q-0.09375 0.296875 -0.90625 3.343751q-0.8125 3.03125 -0.890625 3.46875l2.875 0q0.953125 0 1.328125 -0.15625q0.375 -0.15625 0.65625 -1.1875l0.859375 0q-0.5 1.828125 -0.859375 4.125l-0.859375 0q0.125 -0.71875 0.125 -1.046875q0 -0.328125 -0.28125 -0.515625q-0.28125 -0.1875 -1.28125 -0.1875l-2.828125 0q-0.109375 0.46875 -0.234375 0.96875q-0.109375 0.484375 -0.265625 1.015625q-0.140625 0.515625 -0.734375 2.71875q-0.59375 2.1875 -1.21875 3.875q1.234375 0.1875 2.234375 0.1875q0.609375 0 1.25 -0.09375l-0.25 0.890625l-0.84375 0.0625l-1.078125 -0.03125q-2.703125 -0.15625 -3.65625 -0.15625q-1.703125 0 -3.453125 0.28125l0.1875 -0.859375q1.34375 -0.28125 1.890625 -0.65625q0.5625 -0.375 1.0 -1.625q0.4375 -1.265625 1.4375 -5.046875l2.390625 -9.375001q-1.5 0 -2.984375 0.890625q-1.484375 0.87500095 -2.390625 2.312501q-0.890625 1.421875 -0.890625 2.9375q0 1.328125 0.640625 2.40625q0.21875 0.40625 0.296875 0.609375q0.09375 0.1875 0.09375 0.40625q0 0.453125 -0.34375 0.75q-0.328125 0.28125 -0.78125 0.28125q-0.796875 0 -1.25 -0.921875q-0.453125 -0.9375 -0.453125 -2.375q0 -3.109375 2.5625 -5.687501q2.578125 -2.59375 6.75 -2.59375l5.921875 0q0.859375 0 1.671875 -0.078125q0.828125 -0.078125 2.078125 -0.375q-0.734375 2.9375 -0.9375 4.156251l-0.859375 0z" fill-rule="nonzero"></path><path fill="#000000" fill-opacity="0.0" d="m18.162441 125.805565l39.968502 0l0 52.69291l-39.968502 0z" fill-rule="nonzero"></path><path fill="#000000" d="m41.84994 149.1662q-0.25 0.734375 -0.421875 1.34375q-0.171875 0.609375 -1.203125 4.75q2.484375 0 3.703125 -1.40625q1.21875 -1.40625 1.21875 -3.265625q0 -1.34375 -0.9375 -2.15625q-0.921875 -0.828125 -2.75 -0.828125q-2.859375 0 -5.484375 1.296875q-2.609375 1.296875 -4.125 3.4375q-1.515625 2.140625 -1.515625 4.484375q0 1.734375 1.375 2.5q0.984375 0.5625 1.265625 0.859375q0.296875 0.28125 0.296875 0.671875q0 0.484375 -0.34375 0.765625q-0.328125 0.265625 -0.78125 0.265625q-0.71875 0 -1.40625 -0.671875q-0.6875 -0.671875 -1.0625 -1.71875q-0.375 -1.0625 -0.375 -2.359375q0 -2.234375 1.078125 -4.203125q1.078125 -1.984375 2.828125 -3.375q1.75 -1.40625 3.953125 -2.15625q2.203125 -0.75 4.8125 -0.75q2.96875 0 4.671875 1.046875q1.703125 1.046875 1.703125 2.75q0 1.515625 -1.15625 2.765625q-1.140625 1.234375 -3.453125 1.90625q2.296875 0.3125 3.375 1.328125q1.078125 1.015625 1.078125 2.546875q0 1.671875 -1.0625 3.15625q-1.046875 1.46875 -3.140625 2.5q-2.078125 1.03125 -4.546875 1.03125q-1.125 0 -2.84375 -0.125q-1.625 -0.03125 -2.203125 -0.03125q-1.59375 0 -2.84375 0.25l0.21875 -0.859375q1.765625 -0.09375 2.421875 -0.859375q0.65625 -0.78125 1.21875 -3.015625l2.3125 -9.046875q0.15625 -0.59375 0.15625 -0.90625q0 -0.21875 -0.203125 -0.390625q-0.1875 -0.1875 -0.5 -0.1875l-0.3125 0.046875l0.1875 -0.78125q2.53125 -0.171875 4.796875 -0.609375zm-4.703125 15.234375q1.3125 0.359375 2.234375 0.359375q2.5625 0 3.828125 -1.71875q1.265625 -1.71875 1.265625 -3.75q0 -0.96875 -0.484375 -1.734375q-0.484375 -0.78125 -1.25 -1.078125q-0.765625 -0.296875 -2.78125 -0.296875q-1.15625 4.578125 -1.53125 5.71875q-0.375 1.140625 -0.65625 1.65625q-0.265625 0.5 -0.625 0.84375z" fill-rule="nonzero"></path><path fill="#000000" fill-opacity="0.0" d="m106.26022 10.233774l24.251968 0l0 39.055115l-24.251968 0z" fill-rule="nonzero"></path><path fill="#000000" d="m116.10397 33.653774l2.59375 -0.265625q0.109375 0.875 0.65625 1.390625q0.546875 0.515625 1.265625 0.515625q0.8125 0 1.375 -0.65625q0.578125 -0.671875 0.578125 -2.0q0 -1.2500019 -0.5625 -1.8750019q-0.5625 -0.625 -1.46875 -0.625q-1.109375 0 -2.0 0.984375l-2.125 -0.3125l1.34375 -7.078125l6.890625 0l0 2.453125l-4.921875 0l-0.40625 2.296875q0.875 -0.421875 1.78125 -0.421875q1.734375 0 2.9375 1.265625q1.203125 1.25 1.203125 3.265627q0 1.671875 -0.96875 3.0q-1.328125 1.796875 -3.6875 1.796875q-1.875 0 -3.0625 -1.015625q-1.1875 -1.015625 -1.421875 -2.71875z" fill-rule="nonzero"></path><path fill="#000000" fill-opacity="0.0" d="m113.62014 111.48663l24.251976 0l0 39.055115l-24.251976 0z" fill-rule="nonzero"></path><path fill="#000000" d="m132.26077 128.141l-2.53125 0.28125q-0.09375 -0.78125 -0.484375 -1.15625q-0.375 -0.375 -1.0 -0.375q-0.8281326 0 -1.4062576 0.75q-0.5625 0.734375 -0.71875 3.078125q0.984375 -1.140625 2.4218826 -1.140625q1.640625 0 2.796875 1.25q1.171875 1.234375 1.171875 3.203125q0 2.078125 -1.234375 3.34375q-1.21875 1.265625 -3.140625 1.265625q-2.0625076 0 -3.3906326 -1.59375q-1.3125 -1.609375 -1.3125 -5.25q0 -3.75 1.375 -5.390625q1.390625 -1.65625 3.5937576 -1.65625q1.546875 0 2.5625 0.875q1.015625 0.859375 1.296875 2.515625zm-5.9062576 5.6875q0 1.265625 0.578125 1.953125q0.59375 0.6875 1.3437576 0.6875q0.71875 0 1.203125 -0.5625q0.484375 -0.5625 0.484375 -1.84375q0 -1.328125 -0.53125 -1.9375q-0.515625 -0.625 -1.296875 -0.625q-0.7500076 0 -1.2656326 0.59375q-0.515625 0.578125 -0.515625 1.734375z" fill-rule="nonzero"></path><path fill="#000000" fill-opacity="0.0" d="m34.284065 71.13123l24.251968 0l0 39.055115l-24.251968 0z" fill-rule="nonzero"></path><path fill="#000000" d="m50.76844 98.05123l-2.609375 0l0 -9.828125q-1.4375 1.34375 -3.375 1.984375l0 -2.375q1.03125 -0.328125 2.21875 -1.25q1.203125 -0.9375 1.640625 -2.1875l2.125 0l0 13.65625z" fill-rule="nonzero"></path><path fill="#000000" fill-opacity="0.0" d="m178.47829 73.38988l24.251968 0l0 39.055122l-24.251968 0z" fill-rule="nonzero"></path><path fill="#000000" d="m193.40016 100.309875l0 -2.734375l-5.5625 0l0 -2.28125l5.890625 -8.640625l2.1875 0l0 8.625l1.6875 0l0 2.296875l-1.6875 0l0 2.734375l-2.515625 0zm0 -5.03125l0 -4.640625l-3.125 4.640625l3.125 0z" fill-rule="nonzero"></path><path fill="#000000" fill-opacity="0.0" d="m246.96956 111.01338l24.251968 0l0 39.055115l-24.251968 0z" fill-rule="nonzero"></path><path fill="#000000" d="m265.57895 135.5115l0 2.421875l-9.140625 0q0.15625 -1.375 0.890625 -2.59375q0.75 -1.234375 2.9375 -3.265625q1.765625 -1.640625 2.15625 -2.234375q0.546875 -0.796875 0.546875 -1.59375q0 -0.875 -0.46875 -1.34375q-0.46875 -0.46875 -1.296875 -0.46875q-0.8125 0 -1.296875 0.5q-0.484375 0.484375 -0.5625 1.625l-2.59375 -0.25q0.234375 -2.15625 1.453125 -3.09375q1.21875 -0.9375 3.0625 -0.9375q2.015625 0 3.15625 1.09375q1.15625 1.078125 1.15625 2.6875q0 0.921875 -0.328125 1.75q-0.328125 0.828125 -1.046875 1.734375q-0.46875 0.609375 -1.703125 1.75q-1.234375 1.125 -1.5625 1.5q-0.328125 0.359375 -0.53125 0.71875l5.171875 0z" fill-rule="nonzero"></path><path fill="#000000" fill-opacity="0.0" d="m113.44725 61.757244l24.251968 0l0 39.05512l-24.251968 0z" fill-rule="nonzero"></path><path fill="#000000" d="m123.166 85.06787l2.515625 -0.3125q0.125 0.96875 0.65625 1.484375q0.53125 0.5 1.28125 0.5q0.796875 0 1.34375 -0.609375q0.5625 -0.609375 0.5625 -1.640625q0 -0.984375 -0.53125 -1.5625q-0.53125 -0.578125 -1.28125 -0.578125q-0.5 0 -1.203125 0.203125l0.28125 -2.125q1.0625 0.015625 1.609375 -0.46875q0.5625 -0.484375 0.5625 -1.296875q0 -0.6875 -0.40625 -1.09375q-0.40625 -0.40625 -1.078125 -0.40625q-0.671875 0 -1.140625 0.46875q-0.46875 0.46875 -0.578125 1.359375l-2.40625 -0.421875q0.25 -1.234375 0.75 -1.96875q0.515625 -0.734375 1.421875 -1.15625q0.90625 -0.421875 2.03125 -0.421875q1.90625 0 3.078125 1.21875q0.953125 1.0 0.953125 2.265625q0 1.796875 -1.953125 2.859375q1.15625 0.25 1.859375 1.125q0.703125 0.875 0.703125 2.109375q0 1.78125 -1.3125 3.046875q-1.296875 1.265625 -3.25 1.265625q-1.84375 0 -3.0625 -1.0625q-1.21875 -1.0625 -1.40625 -2.78125z" fill-rule="nonzero"></path><path fill="#000000" fill-opacity="0.0" d="m237.97389 10.568877l24.251968 0l0 39.05512l-24.251968 0z" fill-rule="nonzero"></path><path fill="#000000" d="m250.02077 30.145126q-1.015625 -0.421875 -1.484375 -1.171875q-0.453125 -0.75 -0.453125 -1.640625q0 -1.515625 1.0625 -2.5q1.0625 -1.0 3.03125 -1.0q1.9375 0 3.0 1.0q1.0781097 0.984375 1.0781097 2.5q0 0.953125 -0.49998474 1.6875q-0.484375 0.734375 -1.375 1.125q1.125 0.453125 1.7187347 1.328125q0.59375 0.875 0.59375 2.015625q0 1.890625 -1.2031097 3.0625q-1.203125 1.171875 -3.203125 1.171875q-1.859375 0 -3.078125 -0.96875q-1.46875 -1.15625 -1.46875 -3.15625q0 -1.09375 0.546875 -2.015625q0.546875 -0.9375 1.734375 -1.4375zm0.53125 -2.625q0 0.78125 0.4375 1.21875q0.453125 0.4375 1.1875 0.4375q0.734375 0 1.171875 -0.4375q0.453125 -0.4375 0.453125 -1.21875q0 -0.734375 -0.4375 -1.171875q-0.4375 -0.453125 -1.171875 -0.453125q-0.75 0 -1.203125 0.453125q-0.4375 0.4375 -0.4375 1.171875zm-0.234375 5.828125q0 1.078125 0.546875 1.6875q0.546875 0.59375 1.375 0.59375q0.8125 0 1.34375 -0.578125q0.53125 -0.578125 0.53125 -1.671875q0 -0.953125 -0.546875 -1.53125q-0.53125 -0.578125 -1.359375 -0.578125q-0.953125 0 -1.421875 0.65625q-0.46875 0.65625 -0.46875 1.421875z" fill-rule="nonzero"></path><path fill="#000000" fill-opacity="0.0" d="m283.31314 67.50217l24.251953 0l0 39.055115l-24.251953 0z" fill-rule="nonzero"></path><path fill="#000000" d="m293.1569 90.922165l2.59375 -0.265625q0.109375 0.875 0.65625 1.390625q0.546875 0.515625 1.265625 0.515625q0.8125 0 1.375 -0.65625q0.578125 -0.671875 0.578125 -2.0q0 -1.25 -0.5625 -1.875q-0.5625 -0.625 -1.46875 -0.625q-1.109375 0 -2.0 0.984375l-2.125 -0.3125l1.34375 -7.078125l6.890625 0l0 2.453125l-4.921875 0l-0.40625 2.296875q0.875 -0.421875 1.78125 -0.421875q1.734375 0 2.9375 1.265625q1.203125 1.25 1.203125 3.265625q0 1.671875 -0.96875 3.0q-1.328125 1.796875 -3.6875 1.796875q-1.875 0 -3.0625 -1.015625q-1.1875 -1.015625 -1.421875 -2.71875z" fill-rule="nonzero"></path><path fill="#d9d9d9" d="m293.30447 40.08399l0 0c0 -6.696995 5.4289856 -12.125982 12.125977 -12.125982l0 0c3.2160034 0 6.300293 1.2775555 8.574371 3.5516186c2.2740479 2.274063 3.5516052 5.3583527 3.5516052 8.574364l0 0c0 6.6969986 -5.4289856 12.125984 -12.125977 12.125984l0 0c-6.696991 0 -12.125977 -5.4289856 -12.125977 -12.125984z" fill-rule="nonzero"></path><path stroke="#3c78d8" stroke-width="3.0" stroke-linejoin="round" stroke-linecap="butt" d="m293.30447 40.08399l0 0c0 -6.696995 5.4289856 -12.125982 12.125977 -12.125982l0 0c3.2160034 0 6.300293 1.2775555 8.574371 3.5516186c2.2740479 2.274063 3.5516052 5.3583527 3.5516052 8.574364l0 0c0 6.6969986 -5.4289856 12.125984 -12.125977 12.125984l0 0c-6.696991 0 -12.125977 -5.4289856 -12.125977 -12.125984z" fill-rule="nonzero"></path><path fill="#d9d9d9" d="m311.22046 144.43832l0 0c0 -6.697006 5.429016 -12.125992 12.126007 -12.125992l0 0c3.2160034 0 6.300293 1.2775574 8.574371 3.5516205c2.2740479 2.274063 3.5516052 5.3583527 3.5516052 8.574371l0 0c0 6.696991 -5.4289856 12.125977 -12.125977 12.125977l0 0c-6.696991 0 -12.126007 -5.4289856 -12.126007 -12.125977z" fill-rule="nonzero"></path><path stroke="#3c78d8" stroke-width="3.0" stroke-linejoin="round" stroke-linecap="butt" d="m311.22046 144.43832l0 0c0 -6.697006 5.429016 -12.125992 12.126007 -12.125992l0 0c3.2160034 0 6.300293 1.2775574 8.574371 3.5516205c2.2740479 2.274063 3.5516052 5.3583527 3.5516052 8.574371l0 0c0 6.696991 -5.4289856 12.125977 -12.125977 12.125977l0 0c-6.696991 0 -12.126007 -5.4289856 -12.126007 -12.125977z" fill-rule="nonzero"></path><path fill="#d9d9d9" d="m416.65747 42.17848l0 0c0 -6.6969986 5.4289856 -12.125984 12.126007 -12.125984l0 0c3.2160034 0 6.300293 1.2775555 8.574341 3.5516167c2.2740784 2.274063 3.5516357 5.3583565 3.5516357 8.574368l0 0c0 6.696995 -5.4289856 12.125984 -12.125977 12.125984l0 0c-6.6970215 0 -12.126007 -5.4289894 -12.126007 -12.125984z" fill-rule="nonzero"></path><path stroke="#3c78d8" stroke-width="3.0" stroke-linejoin="round" stroke-linecap="butt" d="m416.65747 42.17848l0 0c0 -6.6969986 5.4289856 -12.125984 12.126007 -12.125984l0 0c3.2160034 0 6.300293 1.2775555 8.574341 3.5516167c2.2740784 2.274063 3.5516357 5.3583565 3.5516357 8.574368l0 0c0 6.696995 -5.4289856 12.125984 -12.125977 12.125984l0 0c-6.6970215 0 -12.126007 -5.4289894 -12.126007 -12.125984z" fill-rule="nonzero"></path><path fill="#d9d9d9" d="m446.76904 138.31233l0 0c0 -6.696991 5.4289856 -12.125984 12.125977 -12.125984l0 0c3.2160034 0 6.300293 1.2775574 8.574371 3.551628c2.2740479 2.274063 3.5516052 5.3583527 3.5516052 8.574356l0 0c0 6.697006 -5.4289856 12.125992 -12.125977 12.125992l0 0c-6.696991 0 -12.125977 -5.4289856 -12.125977 -12.125992z" fill-rule="nonzero"></path><path stroke="#3c78d8" stroke-width="3.0" stroke-linejoin="round" stroke-linecap="butt" d="m446.76904 138.31233l0 0c0 -6.696991 5.4289856 -12.125984 12.125977 -12.125984l0 0c3.2160034 0 6.300293 1.2775574 8.574371 3.551628c2.2740479 2.274063 3.5516052 5.3583527 3.5516052 8.574356l0 0c0 6.697006 -5.4289856 12.125992 -12.125977 12.125992l0 0c-6.696991 0 -12.125977 -5.4289856 -12.125977 -12.125992z" fill-rule="nonzero"></path><path fill="#000000" fill-opacity="0.0" d="m212.11154 42.17848l81.19687 -2.0787392" fill-rule="nonzero"></path><path stroke="#434343" stroke-width="2.0" stroke-linejoin="round" stroke-linecap="butt" d="m212.11154 42.17848l69.200806 -1.7716255" fill-rule="evenodd"></path><path fill="#434343" stroke="#434343" stroke-width="2.0" stroke-linecap="butt" d="m281.39688 43.709236l8.988678 -3.5346718l-9.157776 -3.070095z" fill-rule="evenodd"></path><path fill="#000000" fill-opacity="0.0" d="m215.61942 141.36745l95.590546 3.0866241" fill-rule="nonzero"></path><path stroke="#434343" stroke-width="2.0" stroke-linejoin="round" stroke-linecap="butt" d="m215.61942 141.36745l83.5968 2.6993408" fill-rule="evenodd"></path><path fill="#434343" stroke="#434343" stroke-width="2.0" stroke-linecap="butt" d="m299.10962 147.36853l9.17807 -3.0088196l-8.964844 -3.5946655z" fill-rule="evenodd"></path><path fill="#000000" fill-opacity="0.0" d="m335.47244 144.43832l111.3071 -6.141739" fill-rule="nonzero"></path><path stroke="#434343" stroke-width="2.0" stroke-linejoin="round" stroke-linecap="butt" d="m335.47244 144.43832l99.32529 -5.480606" fill-rule="evenodd"></path><path fill="#434343" stroke="#434343" stroke-width="2.0" stroke-linecap="butt" d="m434.97977 142.25616l8.880402 -3.7984924l-9.244415 -2.7984009z" fill-rule="evenodd"></path><path fill="#000000" fill-opacity="0.0" d="m323.34647 132.31233l-17.921265 -80.09448" fill-rule="nonzero"></path><path stroke="#434343" stroke-width="2.0" stroke-linejoin="round" stroke-linecap="butt" d="m323.34647 132.31233l-15.301056 -68.38405" fill-rule="evenodd"></path><path fill="#434343" stroke="#434343" stroke-width="2.0" stroke-linecap="butt" d="m311.26917 63.206966l-5.205536 -8.135864l-1.2419434 9.578503z" fill-rule="evenodd"></path><path fill="#000000" fill-opacity="0.0" d="m277.07117 129.73647l39.968506 0l0 52.6929l-39.968506 0z" fill-rule="nonzero"></path><path fill="#000000" d="m294.4618 169.45647q-2.484375 0 -5.546875 0.390625l0.265625 -0.875l1.234375 -0.34375q0.71875 -0.203125 1.046875 -0.546875q0.34375 -0.359375 0.875 -1.640625q0.953125 -2.265625 3.9375 -14.328125q-1.8125 0.15625 -3.21875 1.0q-1.390625 0.84375 -2.15625 2.234375q-0.765625 1.390625 -0.765625 2.96875q0 1.3125 0.640625 2.40625q0.390625 0.65625 0.390625 1.015625q0 0.453125 -0.375 0.75q-0.359375 0.28125 -0.8125 0.28125q-0.875 0 -1.34375 -0.890625q-0.453125 -0.890625 -0.453125 -2.40625q0 -2.015625 1.265625 -4.09375q1.265625 -2.078125 3.359375 -3.140625q2.09375 -1.078125 5.015625 -1.078125l6.109375 0q2.328125 0 3.765625 -0.359375q-0.1875 0.828125 -0.421875 1.75q-0.21875 0.921875 -0.375 1.9375l-0.828125 0q0.125 -0.703125 0.125 -1.28125q0 -0.453125 -0.28125 -0.65625q-0.265625 -0.21875 -0.953125 -0.296875q-0.671875 -0.078125 -3.25 -0.078125l-2.109375 0.03125l-1.71875 6.90625l3.390625 0q0.765625 0 1.140625 -0.078125q0.390625 -0.09375 0.578125 -0.3125q0.203125 -0.21875 0.359375 -0.984375l0.859375 0q-0.265625 0.875 -0.453125 1.9375q-0.1875 1.0625 -0.40625 2.234375l-0.796875 0l0 -0.171875l0.0625 -0.984375q0 -0.40625 -0.46875 -0.53125q-0.453125 -0.140625 -1.109375 -0.140625l-3.421875 0q-0.578125 2.234375 -1.21875 4.234375q-0.625 2.0 -1.5 3.765625q1.28125 -0.453125 2.28125 -0.453125q1.0625 0 1.984375 0.1875q0.921875 0.1875 1.671875 0.421875q0.765625 0.234375 1.375 0.421875q0.625 0.1875 1.078125 0.1875q0.890625 0 1.265625 -0.234375q0.390625 -0.25 0.390625 -0.59375q0 -0.265625 -0.203125 -0.828125q-0.203125 -0.546875 -0.203125 -0.9375q0 -0.46875 0.328125 -0.78125q0.34375 -0.328125 0.921875 -0.328125q0.578125 0 0.921875 0.421875q0.34375 0.421875 0.34375 1.078125q0 1.453125 -1.296875 2.40625q-1.296875 0.953125 -3.375 0.953125q-0.828125 0 -3.484375 -0.28125q-2.671875 -0.265625 -4.4375 -0.265625z" fill-rule="nonzero"></path><path fill="#000000" fill-opacity="0.0" d="m391.12506 -13.102983l39.968506 0l0 52.692917l-39.968506 0z" fill-rule="nonzero"></path><path fill="#000000" d="m421.04694 14.335768l0.0625 -1.125q0 -1.890625 -1.1875 -3.140625q-1.171875 -1.25 -3.03125 -1.25q-2.171875 0 -4.34375 1.703125q-2.15625 1.6875 -3.421875 4.25q-1.25 2.546875 -1.25 5.28125q0 3.0625 1.25 4.421875q1.265625 1.34375 2.78125 1.34375q1.796875 0 3.328125 -1.09375q0.734375 -2.484375 0.734375 -3.265625q0 -0.828125 -1.3125 -0.828125l-1.21875 0.0625l0.125 -0.765625q0.578125 -0.125 1.40625 -0.125l0.640625 0q1.796875 0.0625 2.015625 0.0625q0.71875 0 2.109375 -0.09375l1.3125 -0.0625l-0.1875 0.796875q-0.953125 0 -1.234375 0.46875q-0.28125 0.46875 -0.5625 1.671875q-1.40625 5.703125 -2.515625 7.71875q-2.4375 4.468752 -6.890625 4.468752q-1.5625 0 -2.671875 -0.65625q-1.09375 -0.65625 -1.09375 -1.609375q0 -0.4375 0.375 -0.7968769q0.375 -0.359375 0.90625 -0.359375q0.546875 0 1.375 0.9687519q0.59375 0.75 0.96875 1.046875q0.390625 0.296875 0.8125 0.296875q1.28125 0 2.375 -1.9062519q1.09375 -1.890625 2.171875 -5.875q-2.125 1.125 -4.25 1.125q-3.140625 0 -4.8125 -1.890625q-1.65625 -1.90625 -1.65625 -4.96875q0 -2.375 0.96875 -4.578125q0.96875 -2.21875 2.78125 -3.984375q1.8125 -1.765625 4.0 -2.75q2.203125 -0.9999995 4.25 -0.9999995q1.140625 0 2.046875 0.12499952q0.921875 0.109375 1.703125 0.25q0.78125 0.125 1.46875 0.25q0.703125 0.109375 1.40625 0.109375q-0.890625 3.046875 -0.890625 5.703125l-0.84375 0z" fill-rule="nonzero"></path><path fill="#000000" fill-opacity="0.0" d="m317.55643 40.08399l99.08661 2.1102371" fill-rule="nonzero"></path><path stroke="#434343" stroke-width="2.0" stroke-linejoin="round" stroke-linecap="butt" d="m317.55643 40.08399l87.089325 1.8547325" fill-rule="evenodd"></path><path fill="#434343" stroke="#434343" stroke-width="2.0" stroke-linecap="butt" d="m404.57544 45.241436l9.14447 -3.1094627l-9.003815 -3.4959679z" fill-rule="evenodd"></path><path fill="#000000" fill-opacity="0.0" d="m428.78348 54.304462l30.11023 71.87401" fill-rule="nonzero"></path><path stroke="#434343" stroke-width="2.0" stroke-linejoin="round" stroke-linecap="butt" d="m428.78348 54.304462l25.47348 60.80601" fill-rule="evenodd"></path><path fill="#434343" stroke="#434343" stroke-width="2.0" stroke-linecap="butt" d="m451.21008 116.38691l6.5538635 7.094841l-0.460083 -9.64772z" fill-rule="evenodd"></path><path fill="#000000" fill-opacity="0.0" d="m371.89844 132.77513l24.251984 0l0 39.055115l-24.251984 0z" fill-rule="nonzero"></path><path fill="#000000" d="m381.7578 156.5545l2.53125 -0.28125q0.09375 0.765625 0.484375 1.140625q0.390625 0.375 1.03125 0.375q0.796875 0 1.359375 -0.734375q0.578125 -0.75 0.734375 -3.09375q-0.984375 1.140625 -2.46875 1.140625q-1.59375 0 -2.765625 -1.234375q-1.15625 -1.234375 -1.15625 -3.234375q0 -2.0625 1.21875 -3.328125q1.234375 -1.265625 3.140625 -1.265625q2.0625 0 3.390625 1.609375q1.328125 1.59375 1.328125 5.25q0 3.734375 -1.390625 5.390625q-1.375 1.640625 -3.59375 1.640625q-1.59375 0 -2.578125 -0.84375q-0.984375 -0.84375 -1.265625 -2.53125zm5.90625 -5.703125q0 -1.265625 -0.578125 -1.953125q-0.578125 -0.703125 -1.34375 -0.703125q-0.71875 0 -1.203125 0.578125q-0.484375 0.5625 -0.484375 1.859375q0 1.328125 0.515625 1.953125q0.53125 0.609375 1.3125 0.609375q0.75 0 1.265625 -0.59375q0.515625 -0.59375 0.515625 -1.75z" fill-rule="nonzero"></path><path fill="#000000" fill-opacity="0.0" d="m354.98242 10.570409l24.251984 0l0 39.05512l-24.251984 0z" fill-rule="nonzero"></path><path fill="#000000" d="m371.4668 37.490406l-2.609375 0l0 -9.828125q-1.4375 1.34375 -3.375 1.984375l0 -2.375q1.03125 -0.328125 2.21875 -1.25q1.203125 -0.9375 1.640625 -2.1875l2.125 0l0 13.65625z" fill-rule="nonzero"></path><path fill="#000000" fill-opacity="0.0" d="m416.6596 66.50217l24.251953 0l0 39.055115l-24.251953 0z" fill-rule="nonzero"></path><path fill="#000000" d="m435.26898 91.00029l0 2.421875l-9.140625 0q0.15625 -1.375 0.890625 -2.59375q0.75 -1.234375 2.9375 -3.265625q1.765625 -1.640625 2.15625 -2.234375q0.546875 -0.796875 0.546875 -1.59375q0 -0.875 -0.46875 -1.34375q-0.46875 -0.46875 -1.296875 -0.46875q-0.8125 0 -1.296875 0.5q-0.484375 0.484375 -0.5625 1.625l-2.59375 -0.25q0.234375 -2.15625 1.453125 -3.09375q1.21875 -0.9375 3.0625 -0.9375q2.015625 0 3.15625 1.09375q1.15625 1.078125 1.15625 2.6875q0 0.921875 -0.328125 1.75q-0.328125 0.828125 -1.046875 1.734375q-0.46875 0.609375 -1.703125 1.75q-1.234375 1.125 -1.5625 1.5q-0.328125 0.359375 -0.53125 0.71875l5.171875 0z" fill-rule="nonzero"></path><path fill="#000000" fill-opacity="0.0" d="m366.7151 56.171314l24.251953 0l0 39.05512l-24.251953 0z" fill-rule="nonzero"></path><path fill="#000000" d="m385.3557 72.82568l-2.53125 0.28125q-0.09375 -0.78125 -0.484375 -1.15625q-0.375 -0.375 -1.0 -0.375q-0.828125 0 -1.40625 0.75q-0.5625 0.734375 -0.71875 3.078125q0.984375 -1.140625 2.421875 -1.140625q1.640625 0 2.796875 1.25q1.171875 1.234375 1.171875 3.203125q0 2.078125 -1.234375 3.34375q-1.21875 1.265625 -3.140625 1.265625q-2.0625 0 -3.390625 -1.59375q-1.3125 -1.609375 -1.3125 -5.25q0 -3.75 1.375 -5.390625q1.390625 -1.65625 3.59375 -1.65625q1.546875 0 2.5625 0.875q1.015625 0.859375 1.296875 2.515625zm-5.90625 5.6875q0 1.265625 0.578125 1.953125q0.59375 0.6875 1.34375 0.6875q0.71875 0 1.203125 -0.5625q0.484375 -0.5625 0.484375 -1.84375q0 -1.328125 -0.53125 -1.9375q-0.515625 -0.625 -1.296875 -0.625q-0.75 0 -1.265625 0.59375q-0.515625 0.578125 -0.515625 1.734375z" fill-rule="nonzero"></path><path fill="#000000" fill-opacity="0.0" d="m314.00482 48.658356l136.31494 81.07086" fill-rule="nonzero"></path><path stroke="#434343" stroke-width="2.0" stroke-linejoin="round" stroke-linecap="butt" d="m314.00482 48.658356l126.00113 74.93691" fill-rule="evenodd"></path><path fill="#434343" stroke="#434343" stroke-width="2.0" stroke-linecap="butt" d="m438.31735 126.43454l9.489441 1.8001404l-6.1122437 -7.478691z" fill-rule="evenodd"></path><path fill="#4a86e8" d="m49.02362 40.08399l0 0c0 -1.6959915 1.3748741 -3.0708656 3.0708694 -3.0708656l0 0c0.8144417 0 1.5955276 0.32353592 2.1714287 0.89943695c0.5758972 0.5758972 0.89943695 1.356987 0.89943695 2.1714287l0 0c0 1.6959953 -1.3748741 3.0708656 -3.0708656 3.0708656l0 0c-1.6959953 0 -3.0708694 -1.3748703 -3.0708694 -3.0708656z" fill-rule="nonzero"></path><path stroke="#c9daf8" stroke-width="1.0" stroke-linejoin="round" stroke-linecap="butt" d="m49.02362 40.08399l0 0c0 -1.6959915 1.3748741 -3.0708656 3.0708694 -3.0708656l0 0c0.8144417 0 1.5955276 0.32353592 2.1714287 0.89943695c0.5758972 0.5758972 0.89943695 1.356987 0.89943695 2.1714287l0 0c0 1.6959953 -1.3748741 3.0708656 -3.0708656 3.0708656l0 0c-1.6959953 0 -3.0708694 -1.3748703 -3.0708694 -3.0708656z" fill-rule="nonzero"></path></g></svg>

