<?xml version="1.0" standalone="yes"?>

<svg version="1.1" viewBox="0.0 0.0 817.3648293963255 335.8950131233596" fill="none" stroke="none" stroke-linecap="square" stroke-miterlimit="10" xmlns="http://www.w3.org/2000/svg" xmlns:xlink="http://www.w3.org/1999/xlink"><clipPath id="p.0"><path d="m0 0l817.3648 0l0 335.89502l-817.3648 0l0 -335.89502z" clip-rule="nonzero"></path></clipPath><g clip-path="url(#p.0)"><path fill="#000000" fill-opacity="0.0" d="m0 0l817.3648 0l0 335.89502l-817.3648 0z" fill-rule="nonzero"></path><path fill="#000000" fill-opacity="0.0" d="m2.6548557 6.734908l39.968506 0l0 52.692913l-39.968506 0z" fill-rule="nonzero"></path><path fill="#000000" d="m23.811106 37.501785l-2.109375 8.3125q0.765625 0.09375 1.21875 0.09375q0.8125 0 1.6875 -0.21875l-0.15625 0.765625q-0.875 0.21875 -1.59375 0.21875q-0.828125 0 -1.953125 -0.125q-1.203125 -0.09375 -2.046875 -0.09375q-1.359375 0 -3.390625 0.359375l0.21875 -0.875q1.703125 -0.421875 2.234375 -0.859375q0.796875 -0.703125 1.21875 -2.375l2.171875 -8.734375q0.421875 -1.625 0.421875 -1.953125q0 -0.28125 -0.203125 -0.40625q-0.203125 -0.125 -0.78125 -0.125l0.21875 -0.78125q1.9375 0 4.734375 -0.5625q-0.265625 0.859375 -1.65625 6.359375q0.5625 0.15625 1.140625 0.15625q1.765625 0 3.0 -1.40625q1.234375 -1.40625 1.234375 -3.203125q0 -1.5 -1.046875 -2.40625q-1.046875 -0.921875 -2.796875 -0.921875q-2.625 0 -4.96875 1.1875q-2.328125 1.171875 -3.59375 2.890625q-1.265625 1.71875 -1.265625 3.546875q0 0.875 0.34375 1.4375q0.359375 0.5625 1.0625 1.09375q0.546875 0.390625 0.78125 0.703125q0.25 0.3125 0.25 0.703125q0 0.390625 -0.28125 0.6875q-0.28125 0.296875 -0.71875 0.296875q-1.046875 0 -1.765625 -1.296875q-0.71875 -1.296875 -0.71875 -3.015625q0 -2.609375 1.578125 -4.71875q1.59375 -2.125 4.25 -3.34375q2.671875 -1.21875 5.5 -1.21875q3.234375 0 5.125 1.109375q1.9062481 1.09375 1.9062481 3.015625q0 1.953125 -1.6562481 3.609375q-1.640625 1.640625 -4.546875 2.125q0.390625 0.71875 0.78125 1.59375q0.390625 0.859375 1.140625 3.171875q1.453125 4.375 2.765625 6.203125q1.3124981 1.828125 2.890623 1.828125q0.546875 0 0.9375 -0.34375q0.390625 -0.328125 0.53125 -1.0q0.21875 -0.96875 0.515625 -1.3125q0.3125 -0.328125 0.765625 -0.328125q0.5 0 0.828125 0.328125q0.328125 0.328125 0.328125 0.859375q0 0.78125 -0.671875 1.4375q-0.671875 0.671875 -1.515625 0.96875q-0.84375 0.3125 -1.875 0.3125q-5.046873 0 -7.749998 -6.5q-0.625 -1.421875 -1.6875 -4.953125l-0.703125 -2.265625l-0.328125 -0.03125z" fill-rule="nonzero"></path><path fill="#000000" fill-opacity="0.0" d="m96.85433 54.396324l634.96063 0" fill-rule="nonzero"></path><path stroke="#666666" stroke-width="4.0" stroke-linejoin="round" stroke-linecap="butt" d="m96.85433 54.396324l634.96063 0" fill-rule="nonzero"></path><path fill="#efefef" d="m81.16929 54.396324l0 0c0 -4.3313026 3.5112152 -7.842518 7.8425217 -7.842518l0 0c2.0799637 0 4.074745 0.8262634 5.5455017 2.29702c1.4707565 1.4707565 2.29702 3.4655342 2.29702 5.545498l0 0c0 4.3313065 -3.5112152 7.8425217 -7.8425217 7.8425217l0 0c-4.3313065 0 -7.8425217 -3.5112152 -7.8425217 -7.8425217z" fill-rule="nonzero"></path><path stroke="#999999" stroke-width="2.0" stroke-linejoin="round" stroke-linecap="butt" d="m81.16929 54.396324l0 0c0 -4.3313026 3.5112152 -7.842518 7.8425217 -7.842518l0 0c2.0799637 0 4.074745 0.8262634 5.5455017 2.29702c1.4707565 1.4707565 2.29702 3.4655342 2.29702 5.545498l0 0c0 4.3313065 -3.5112152 7.8425217 -7.8425217 7.8425217l0 0c-4.3313065 0 -7.8425217 -3.5112152 -7.8425217 -7.8425217z" fill-rule="nonzero"></path><path fill="#efefef" d="m731.8202 54.396324l0 0c0 -4.3313026 3.5112305 -7.842518 7.8425293 -7.842518l0 0c2.079956 0 4.074768 0.8262634 5.545532 2.29702c1.4707642 1.4707565 2.296997 3.4655342 2.296997 5.545498l0 0c0 4.3313065 -3.5112305 7.8425217 -7.8425293 7.8425217l0 0c-4.331299 0 -7.8425293 -3.5112152 -7.8425293 -7.8425217z" fill-rule="nonzero"></path><path stroke="#999999" stroke-width="2.0" stroke-linejoin="round" stroke-linecap="butt" d="m731.8202 54.396324l0 0c0 -4.3313026 3.5112305 -7.842518 7.8425293 -7.842518l0 0c2.079956 0 4.074768 0.8262634 5.545532 2.29702c1.4707642 1.4707565 2.296997 3.4655342 2.296997 5.545498l0 0c0 4.3313065 -3.5112305 7.8425217 -7.8425293 7.8425217l0 0c-4.331299 0 -7.8425293 -3.5112152 -7.8425293 -7.8425217z" fill-rule="nonzero"></path><path fill="#000000" fill-opacity="0.0" d="m169.26378 48.834644l0 10.960632" fill-rule="nonzero"></path><path stroke="#434343" stroke-width="3.0" stroke-linejoin="round" stroke-linecap="butt" d="m169.26378 48.834644l0 10.960632" fill-rule="nonzero"></path><path fill="#000000" fill-opacity="0.0" d="m284.7546 48.91601l0 10.9606285" fill-rule="nonzero"></path><path stroke="#434343" stroke-width="3.0" stroke-linejoin="round" stroke-linecap="butt" d="m284.7546 48.91601l0 10.9606285" fill-rule="nonzero"></path><path fill="#000000" fill-opacity="0.0" d="m354.3924 48.834644l0 10.960632" fill-rule="nonzero"></path><path stroke="#434343" stroke-width="3.0" stroke-linejoin="round" stroke-linecap="butt" d="m354.3924 48.834644l0 10.960632" fill-rule="nonzero"></path><path fill="#000000" fill-opacity="0.0" d="m466.73096 48.91601l0 10.9606285" fill-rule="nonzero"></path><path stroke="#434343" stroke-width="3.0" stroke-linejoin="round" stroke-linecap="butt" d="m466.73096 48.91601l0 10.9606285" fill-rule="nonzero"></path><path fill="#000000" fill-opacity="0.0" d="m547.8307 48.834644l0 10.960632" fill-rule="nonzero"></path><path stroke="#434343" stroke-width="3.0" stroke-linejoin="round" stroke-linecap="butt" d="m547.8307 48.834644l0 10.960632" fill-rule="nonzero"></path><path fill="#000000" fill-opacity="0.0" d="m627.5 48.834644l0 10.960632" fill-rule="nonzero"></path><path stroke="#434343" stroke-width="3.0" stroke-linejoin="round" stroke-linecap="butt" d="m627.5 48.834644l0 10.960632" fill-rule="nonzero"></path><path fill="#000000" fill-opacity="0.0" d="m114.473755 0l39.968506 0l0 52.692913l-39.968506 0z" fill-rule="nonzero"></path><path fill="#000000" d="m136.14563 36.485626q-2.140625 1.796875 -3.984375 2.734375q-1.828125 0.921875 -3.53125 0.921875q-2.5625 0 -2.5625 -3.171875q0 -2.515625 1.25 -5.015625q1.265625 -2.515625 3.203125 -3.96875q1.953125 -1.453125 4.0 -1.453125q1.25 0 1.890625 0.546875q0.65625 0.546875 0.65625 1.53125q0 1.046875 -0.65625 1.921875q-0.65625 0.859375 -1.9375 1.671875q-1.28125 0.8125 -4.796875 2.328125q-0.15625 0.71875 -0.15625 1.609375q0 0.984375 0.3125 1.484375q0.3125 0.5 1.15625 0.5q0.890625 0 2.015625 -0.640625q1.125 -0.640625 2.625 -1.703125l0.515625 0.703125zm-6.265625 -2.9375q2.0 -1.03125 3.0 -2.125q1.0 -1.09375 1.0 -2.109375q0 -0.625 -0.296875 -1.046875q-0.296875 -0.421875 -0.796875 -0.421875q-0.953125 0 -1.765625 1.5625q-0.796875 1.5625 -1.140625 4.140625z" fill-rule="nonzero"></path><path fill="#000000" fill-opacity="0.0" d="m122.41338 19.062992l28.535439 0l0 37.102364l-28.535439 0z" fill-rule="nonzero"></path><path fill="#000000" d="m140.22589 34.779865l-1.28125 4.984375l-1.078125 4.65625q-0.140625 0.59375 -0.140625 0.78125q0 0.21875 0.21875 0.296875q0.21875 0.078125 0.65625 0.125q0.421875 0.03125 0.8125 0.109375l-0.1875 0.46875q-2.34375 -0.21875 -3.09375 -0.21875q-1.21875 0 -2.765625 0.21875l0.15625 -0.46875l0.53125 -0.125q0.8125 -0.15625 1.046875 -0.25q0.25 -0.109375 0.359375 -0.25q0.28125 -0.28125 0.640625 -1.5625l1.015625 -3.828125q0.5 -1.96875 0.5 -2.46875q0 -0.34375 -0.28125 -0.34375q-0.203125 0 -1.875 0.75l-0.171875 -0.46875q1.40625 -0.59375 2.234375 -0.984375q0.84375 -0.390625 1.28125 -0.6875q0.453125 -0.296875 1.03125 -0.734375l0.390625 0z" fill-rule="nonzero"></path><path fill="#000000" fill-opacity="0.0" d="m206.35301 0l39.968506 0l0 52.692913l-39.968506 0z" fill-rule="nonzero"></path><path fill="#000000" d="m228.02489 36.485626q-2.140625 1.796875 -3.984375 2.734375q-1.828125 0.921875 -3.53125 0.921875q-2.5625 0 -2.5625 -3.171875q0 -2.515625 1.25 -5.015625q1.265625 -2.515625 3.203125 -3.96875q1.953125 -1.453125 4.0 -1.453125q1.25 0 1.890625 0.546875q0.65625 0.546875 0.65625 1.53125q0 1.046875 -0.65625 1.921875q-0.65625 0.859375 -1.9375 1.671875q-1.28125 0.8125 -4.796875 2.328125q-0.15625 0.71875 -0.15625 1.609375q0 0.984375 0.3125 1.484375q0.3125 0.5 1.15625 0.5q0.890625 0 2.015625 -0.640625q1.125 -0.640625 2.625 -1.703125l0.515625 0.703125zm-6.265625 -2.9375q2.0 -1.03125 3.0 -2.125q1.0 -1.09375 1.0 -2.109375q0 -0.625 -0.296875 -1.046875q-0.296875 -0.421875 -0.796875 -0.421875q-0.953125 0 -1.765625 1.5625q-0.796875 1.5625 -1.140625 4.140625z" fill-rule="nonzero"></path><path fill="#000000" fill-opacity="0.0" d="m215.0439 19.062992l28.535446 0l0 37.102364l-28.535446 0z" fill-rule="nonzero"></path><path fill="#000000" d="m227.2939 37.404865q0.75 -1.34375 1.609375 -1.953125q0.859375 -0.609375 1.984375 -0.609375q1.21875 0 2.015625 0.703125q0.8125 0.703125 0.8125 1.765625q0 1.296875 -1.1875 2.578125q-0.5625 0.578125 -2.21875 1.875q-2.203125 1.6875 -3.21875 2.875q1.125 -0.078125 2.5625 -0.078125l0.984375 0.015625q0.46875 0 0.78125 -0.09375q0.3125 -0.109375 0.984375 -1.109375l0.65625 0q-0.78125 1.1875 -1.328125 2.859375q-1.421875 -0.25 -3.203125 -0.25q-1.078125 0 -3.09375 0.109375l0.171875 -0.5625q0.875 -1.28125 2.515625 -2.828125q1.671875 -1.5625 2.15625 -2.1875q1.25 -1.53125 1.25 -2.859375q0 -0.84375 -0.4375 -1.34375q-0.421875 -0.5 -1.140625 -0.5q-0.625 0 -1.15625 0.453125q-0.515625 0.453125 -1.03125 1.390625l-0.46875 -0.25z" fill-rule="nonzero"></path><path fill="#000000" fill-opacity="0.0" d="m302.7362 0l39.968506 0l0 52.692913l-39.968506 0z" fill-rule="nonzero"></path><path fill="#000000" d="m324.40808 36.485626q-2.140625 1.796875 -3.984375 2.734375q-1.828125 0.921875 -3.53125 0.921875q-2.5625 0 -2.5625 -3.171875q0 -2.515625 1.25 -5.015625q1.265625 -2.515625 3.203125 -3.96875q1.953125 -1.453125 4.0 -1.453125q1.25 0 1.890625 0.546875q0.65625 0.546875 0.65625 1.53125q0 1.046875 -0.65625 1.921875q-0.65625 0.859375 -1.9375 1.671875q-1.28125 0.8125 -4.796875 2.328125q-0.15625 0.71875 -0.15625 1.609375q0 0.984375 0.3125 1.484375q0.3125 0.5 1.15625 0.5q0.890625 0 2.015625 -0.640625q1.125 -0.640625 2.625 -1.703125l0.515625 0.703125zm-6.265625 -2.9375q2.0 -1.03125 3.0 -2.125q1.0 -1.09375 1.0 -2.109375q0 -0.625 -0.296875 -1.046875q-0.296875 -0.421875 -0.796875 -0.421875q-0.953125 0 -1.765625 1.5625q-0.796875 1.5625 -1.140625 4.140625z" fill-rule="nonzero"></path><path fill="#000000" fill-opacity="0.0" d="m311.4271 19.062992l28.535461 0l0 37.102364l-28.535461 0z" fill-rule="nonzero"></path><path fill="#000000" d="m324.00522 36.76424q0.953125 -1.046875 1.75 -1.453125q0.796875 -0.421875 1.65625 -0.421875q0.921875 0 1.46875 0.4375q0.5625 0.421875 0.5625 1.125q0 1.46875 -2.671875 3.078125q1.28125 0.03125 1.890625 0.546875q0.609375 0.5 0.609375 1.5625q0 1.75 -1.953125 3.3125q-1.625 1.34375 -3.40625 1.34375q-0.828125 0 -1.484375 -0.359375q-0.640625 -0.375 -0.640625 -0.859375q0 -0.25 0.171875 -0.421875q0.171875 -0.171875 0.40625 -0.171875q0.359375 0 0.75 0.375q0.3125 0.328125 0.625 0.578125q0.3125 0.234375 0.671875 0.234375q0.65625 0 1.390625 -0.640625q0.734375 -0.640625 1.03125 -1.390625q0.3125 -0.75 0.3125 -1.578125q0 -0.71875 -0.40625 -1.171875q-0.40625 -0.453125 -1.046875 -0.453125q-0.46875 0 -1.078125 0.21875l0.078125 -0.59375q1.21875 -0.421875 2.0 -1.234375q0.78125 -0.828125 0.78125 -1.734375q0 -0.578125 -0.296875 -0.90625q-0.28125 -0.328125 -0.78125 -0.328125q-1.0625 0 -2.015625 1.171875l-0.375 -0.265625z" fill-rule="nonzero"></path><path fill="#000000" fill-opacity="0.0" d="m653.79395 0l39.968506 0l0 52.692913l-39.968506 0z" fill-rule="nonzero"></path><path fill="#000000" d="m675.4658 36.485626q-2.140625 1.796875 -3.984375 2.734375q-1.828125 0.921875 -3.53125 0.921875q-2.5625 0 -2.5625 -3.171875q0 -2.515625 1.25 -5.015625q1.265625 -2.515625 3.203125 -3.96875q1.953125 -1.453125 4.0 -1.453125q1.25 0 1.890625 0.546875q0.65625 0.546875 0.65625 1.53125q0 1.046875 -0.65625 1.921875q-0.65625 0.859375 -1.9375 1.671875q-1.28125 0.8125 -4.796875 2.328125q-0.15625 0.71875 -0.15625 1.609375q0 0.984375 0.3125 1.484375q0.3125 0.5 1.15625 0.5q0.890625 0 2.015625 -0.640625q1.125 -0.640625 2.625 -1.703125l0.515625 0.703125zm-6.265625 -2.9375q2.0 -1.03125 3.0 -2.125q1.0 -1.09375 1.0 -2.109375q0 -0.625 -0.296875 -1.046875q-0.296875 -0.421875 -0.796875 -0.421875q-0.953125 0 -1.765625 1.5625q-0.796875 1.5625 -1.140625 4.140625z" fill-rule="nonzero"></path><path fill="#000000" fill-opacity="0.0" d="m661.7336 19.062992l28.535461 0l0 37.102364l-28.535461 0z" fill-rule="nonzero"></path><path fill="#000000" d="m678.46796 39.67049q0 -0.125 -0.09375 -0.203125q-0.078125 -0.078125 -0.203125 -0.078125q-0.421875 0 -1.09375 0.578125q-0.671875 0.5625 -1.03125 1.1875q-0.359375 0.609375 -0.578125 1.578125l-0.75 3.234375l-1.953125 0l0.21875 -0.84375l1.234375 -5.0625q0.09375 -0.375 0.09375 -0.59375q0 -0.234375 -0.171875 -0.234375q-0.171875 0 -0.625 0.328125q-0.4375 0.328125 -0.890625 0.796875l-0.3125 -0.34375q1.140625 -1.0625 1.9375 -1.453125q0.8125 -0.40625 1.578125 -0.40625q0.5625 0 0.5625 0.28125l-0.03125 0.296875l-0.421875 1.84375q2.09375 -2.421875 3.78125 -2.421875q0.390625 0 0.59375 0.25q0.203125 0.25 0.203125 0.671875q0 0.734375 -0.734375 2.828125q-0.75 2.078125 -0.75 2.9375q0 0.375 0.25 0.375q0.4375 0 1.625 -1.171875l0.25 0.296875q-0.78125 0.875 -1.578125 1.390625q-0.796875 0.5 -1.40625 0.5q-1.03125 0 -1.03125 -1.078125q0 -0.96875 0.65625 -2.96875q0.671875 -1.984375 0.671875 -2.515625z" fill-rule="nonzero"></path><path fill="#000000" fill-opacity="0.0" d="m458.18634 0l80.12598 0l0 52.692913l-80.12598 0z" fill-rule="nonzero"></path><path fill="#000000" d="m471.43634 36.235626q0.75 0 1.234375 0.484375q0.5 0.46875 0.5 1.234375q0 1.03125 -0.578125 1.609375q-0.578125 0.578125 -1.46875 0.578125q-0.703125 0 -1.15625 -0.421875q-0.4375 -0.4375 -0.4375 -1.125q0 -1.015625 0.546875 -1.6875q0.546875 -0.671875 1.359375 -0.671875zm7.546875 0q0.75 0 1.234375 0.484375q0.5 0.46875 0.5 1.234375q0 1.03125 -0.578125 1.609375q-0.578125 0.578125 -1.46875 0.578125q-0.703125 0 -1.15625 -0.421875q-0.4375 -0.4375 -0.4375 -1.125q0 -1.015625 0.546875 -1.6875q0.546875 -0.671875 1.359375 -0.671875zm7.546875 0q0.75 0 1.234375 0.484375q0.5 0.46875 0.5 1.234375q0 1.03125 -0.578125 1.609375q-0.578125 0.578125 -1.46875 0.578125q-0.703125 0 -1.15625 -0.421875q-0.4375 -0.4375 -0.4375 -1.125q0 -1.015625 0.546875 -1.6875q0.546875 -0.671875 1.359375 -0.671875z" fill-rule="nonzero"></path></g></svg>

