<?xml version="1.0" standalone="yes"?>

<svg version="1.1" viewBox="0.0 0.0 817.3648293963255 335.8950131233596" fill="none" stroke="none" stroke-linecap="square" stroke-miterlimit="10" xmlns="http://www.w3.org/2000/svg" xmlns:xlink="http://www.w3.org/1999/xlink"><clipPath id="p.0"><path d="m0 0l817.3648 0l0 335.89502l-817.3648 0l0 -335.89502z" clip-rule="nonzero"></path></clipPath><g clip-path="url(#p.0)"><path fill="#000000" fill-opacity="0.0" d="m0 0l817.3648 0l0 335.89502l-817.3648 0z" fill-rule="nonzero"></path><path fill="#000000" fill-opacity="0.0" d="m628.3894 284.46667l112.12598 0" fill-rule="nonzero"></path><path stroke="#ff9900" stroke-width="1.0" stroke-linejoin="round" stroke-linecap="butt" stroke-dasharray="4.0,3.0" d="m628.3894 284.46667l112.12598 0" fill-rule="nonzero"></path><path fill="#000000" fill-opacity="0.0" d="m89.58137 281.98425l80.37795 0" fill-rule="nonzero"></path><path stroke="#6aa84f" stroke-width="3.0" stroke-linejoin="round" stroke-linecap="butt" stroke-dasharray="12.0,9.0" d="m89.58137 281.98425l80.37795 0" fill-rule="nonzero"></path><path fill="#000000" fill-opacity="0.0" d="m89.58137 231.87401l80.37795 0" fill-rule="nonzero"></path><path stroke="#ff9900" stroke-width="2.0" stroke-linejoin="round" stroke-linecap="butt" stroke-dasharray="8.0,6.0,2.0,6.0" d="m89.58137 231.87401l80.37795 0" fill-rule="nonzero"></path><path fill="#000000" fill-opacity="0.0" d="m169.06168 215.52756l115.84253 0" fill-rule="nonzero"></path><path stroke="#ff9900" stroke-width="2.0" stroke-linejoin="round" stroke-linecap="butt" stroke-dasharray="8.0,6.0,2.0,6.0" d="m169.06168 215.52756l115.84253 0" fill-rule="nonzero"></path><path fill="#000000" fill-opacity="0.0" d="m284.55414 220.08408l70.299225 0" fill-rule="nonzero"></path><path stroke="#ff9900" stroke-width="2.0" stroke-linejoin="round" stroke-linecap="butt" stroke-dasharray="8.0,6.0,2.0,6.0" d="m284.55414 220.08408l70.299225 0" fill-rule="nonzero"></path><path fill="#000000" fill-opacity="0.0" d="m354.47638 239.52756l112.09448 0" fill-rule="nonzero"></path><path stroke="#ff9900" stroke-width="2.0" stroke-linejoin="round" stroke-linecap="butt" stroke-dasharray="8.0,6.0,2.0,6.0" d="m354.47638 239.52756l112.09448 0" fill-rule="nonzero"></path><path fill="#000000" fill-opacity="0.0" d="m466.47638 209.058l81.60632 0" fill-rule="nonzero"></path><path stroke="#ff9900" stroke-width="2.0" stroke-linejoin="round" stroke-linecap="butt" stroke-dasharray="8.0,6.0,2.0,6.0" d="m466.47638 209.058l81.60632 0" fill-rule="nonzero"></path><path fill="#000000" fill-opacity="0.0" d="m547.6242 223.52756l80.787415 0" fill-rule="nonzero"></path><path stroke="#ff9900" stroke-width="2.0" stroke-linejoin="round" stroke-linecap="butt" stroke-dasharray="8.0,6.0,2.0,6.0" d="m547.6242 223.52756l80.787415 0" fill-rule="nonzero"></path><path fill="#000000" fill-opacity="0.0" d="m628.3894 239.87537l112.12598 0" fill-rule="nonzero"></path><path stroke="#ff9900" stroke-width="2.0" stroke-linejoin="round" stroke-linecap="butt" stroke-dasharray="8.0,6.0,2.0,6.0" d="m628.3894 239.87537l112.12598 0" fill-rule="nonzero"></path><path fill="#000000" fill-opacity="0.0" d="m89.58137 185.43176l80.37795 0" fill-rule="nonzero"></path><path stroke="#ff9900" stroke-width="2.0" stroke-linejoin="round" stroke-linecap="butt" stroke-dasharray="16.0,6.0" d="m89.58137 185.43176l80.37795 0" fill-rule="nonzero"></path><path fill="#000000" fill-opacity="0.0" d="m169.06168 159.52756l115.84253 0" fill-rule="nonzero"></path><path stroke="#ff9900" stroke-width="2.0" stroke-linejoin="round" stroke-linecap="butt" stroke-dasharray="16.0,6.0" d="m169.06168 159.52756l115.84253 0" fill-rule="nonzero"></path><path fill="#000000" fill-opacity="0.0" d="m284.55414 167.52756l70.299225 0" fill-rule="nonzero"></path><path stroke="#ff9900" stroke-width="2.0" stroke-linejoin="round" stroke-linecap="butt" stroke-dasharray="16.0,6.0" d="m284.55414 167.52756l70.299225 0" fill-rule="nonzero"></path><path fill="#000000" fill-opacity="0.0" d="m354.47638 191.52756l112.09448 0" fill-rule="nonzero"></path><path stroke="#ff9900" stroke-width="2.0" stroke-linejoin="round" stroke-linecap="butt" stroke-dasharray="16.0,6.0" d="m354.47638 191.52756l112.09448 0" fill-rule="nonzero"></path><path fill="#000000" fill-opacity="0.0" d="m466.47638 151.52756l81.60632 0" fill-rule="nonzero"></path><path stroke="#ff9900" stroke-width="2.0" stroke-linejoin="round" stroke-linecap="butt" stroke-dasharray="16.0,6.0" d="m466.47638 151.52756l81.60632 0" fill-rule="nonzero"></path><path fill="#000000" fill-opacity="0.0" d="m547.6242 167.52756l80.787415 0" fill-rule="nonzero"></path><path stroke="#ff9900" stroke-width="2.0" stroke-linejoin="round" stroke-linecap="butt" stroke-dasharray="16.0,6.0" d="m547.6242 167.52756l80.787415 0" fill-rule="nonzero"></path><path fill="#000000" fill-opacity="0.0" d="m628.3894 188.46669l112.12598 0" fill-rule="nonzero"></path><path stroke="#ff9900" stroke-width="2.0" stroke-linejoin="round" stroke-linecap="butt" stroke-dasharray="16.0,6.0" d="m628.3894 188.46669l112.12598 0" fill-rule="nonzero"></path><path fill="#000000" fill-opacity="0.0" d="m627.9171 284.3584l112.59839 0" fill-rule="nonzero"></path><path stroke="#6aa84f" stroke-width="3.0" stroke-linejoin="round" stroke-linecap="butt" d="m627.9171 284.3584l112.59839 0" fill-rule="nonzero"></path><path fill="#000000" fill-opacity="0.0" d="m546.9282 223.41418l81.35437 0" fill-rule="nonzero"></path><path stroke="#6aa84f" stroke-width="3.0" stroke-linejoin="round" stroke-linecap="butt" d="m546.9282 223.41418l81.35437 0" fill-rule="nonzero"></path><path fill="#000000" fill-opacity="0.0" d="m466.43384 209.39186l81.25983 0" fill-rule="nonzero"></path><path stroke="#6aa84f" stroke-width="3.0" stroke-linejoin="round" stroke-linecap="butt" d="m466.43384 209.39186l81.25983 0" fill-rule="nonzero"></path><path fill="#000000" fill-opacity="0.0" d="m284.5008 167.9086l70.86612 0" fill-rule="nonzero"></path><path stroke="#6aa84f" stroke-width="3.0" stroke-linejoin="round" stroke-linecap="butt" d="m284.5008 167.9086l70.86612 0" fill-rule="nonzero"></path><path fill="#000000" fill-opacity="0.0" d="m353.9394 191.3249l112.69293 0" fill-rule="nonzero"></path><path stroke="#6aa84f" stroke-width="3.0" stroke-linejoin="round" stroke-linecap="butt" d="m353.9394 191.3249l112.69293 0" fill-rule="nonzero"></path><path fill="#000000" fill-opacity="0.0" d="m169.44499 215.9086l115.2126 0" fill-rule="nonzero"></path><path stroke="#6aa84f" stroke-width="3.0" stroke-linejoin="round" stroke-linecap="butt" d="m169.44499 215.9086l115.2126 0" fill-rule="nonzero"></path><path fill="#000000" fill-opacity="0.0" d="m89.93941 281.8863l79.055115 0" fill-rule="nonzero"></path><path stroke="#6aa84f" stroke-width="3.0" stroke-linejoin="round" stroke-linecap="butt" d="m89.93941 281.8863l79.055115 0" fill-rule="nonzero"></path><path fill="#000000" fill-opacity="0.0" d="m169.06168 62.609478l0 245.64455" fill-rule="nonzero"></path><path stroke="#999999" stroke-width="1.0" stroke-linejoin="round" stroke-linecap="butt" stroke-dasharray="1.0,3.0" d="m169.06168 62.609478l0 245.64455" fill-rule="nonzero"></path><path fill="#000000" fill-opacity="0.0" d="m284.4517 62.609478l0 245.64455" fill-rule="nonzero"></path><path stroke="#999999" stroke-width="1.0" stroke-linejoin="round" stroke-linecap="butt" stroke-dasharray="1.0,3.0" d="m284.4517 62.609478l0 245.64455" fill-rule="nonzero"></path><path fill="#000000" fill-opacity="0.0" d="m354.2916 62.609478l0 245.64455" fill-rule="nonzero"></path><path stroke="#999999" stroke-width="1.0" stroke-linejoin="round" stroke-linecap="butt" stroke-dasharray="1.0,3.0" d="m354.2916 62.609478l0 245.64455" fill-rule="nonzero"></path><path fill="#000000" fill-opacity="0.0" d="m466.21405 62.609478l0 245.64455" fill-rule="nonzero"></path><path stroke="#999999" stroke-width="1.0" stroke-linejoin="round" stroke-linecap="butt" stroke-dasharray="1.0,3.0" d="m466.21405 62.609478l0 245.64455" fill-rule="nonzero"></path><path fill="#000000" fill-opacity="0.0" d="m547.3805 62.609478l0 245.64455" fill-rule="nonzero"></path><path stroke="#999999" stroke-width="1.0" stroke-linejoin="round" stroke-linecap="butt" stroke-dasharray="1.0,3.0" d="m547.3805 62.609478l0 245.64455" fill-rule="nonzero"></path><path fill="#000000" fill-opacity="0.0" d="m628.0748 62.609478l0 245.64455" fill-rule="nonzero"></path><path stroke="#999999" stroke-width="1.0" stroke-linejoin="round" stroke-linecap="butt" stroke-dasharray="1.0,3.0" d="m628.0748 62.609478l0 245.64455" fill-rule="nonzero"></path><path fill="#000000" fill-opacity="0.0" d="m740.16846 62.609478l0 245.64455" fill-rule="nonzero"></path><path stroke="#999999" stroke-width="1.0" stroke-linejoin="round" stroke-linecap="butt" stroke-dasharray="1.0,3.0" d="m740.16846 62.609478l0 245.64455" fill-rule="nonzero"></path><path fill="#000000" fill-opacity="0.0" d="m88.65951 307.23618l0 -204.48349" fill-rule="nonzero"></path><path stroke="#999999" stroke-width="3.0" stroke-linejoin="round" stroke-linecap="butt" d="m88.65951 307.23618l0 -186.48349" fill-rule="evenodd"></path><path fill="#999999" stroke="#999999" stroke-width="3.0" stroke-linecap="butt" d="m93.61471 120.752686l-4.9552 -13.614296l-4.9551926 13.614296z" fill-rule="evenodd"></path><path fill="#000000" fill-opacity="0.0" d="m88.18444 308.26892l698.1732 0" fill-rule="nonzero"></path><path stroke="#999999" stroke-width="3.0" stroke-linejoin="round" stroke-linecap="butt" d="m88.18445 308.26892l680.1732 0" fill-rule="evenodd"></path><path fill="#999999" stroke="#999999" stroke-width="3.0" stroke-linecap="butt" d="m768.35767 313.22412l13.614319 -4.9552l-13.614319 -4.9552z" fill-rule="evenodd"></path><path fill="#000000" fill-opacity="0.0" d="m747.96454 241.67453l66.0473 0l0 62.087402l-66.0473 0z" fill-rule="nonzero"></path><path fill="#000000" d="m772.7458 267.86328q-1.640625 5.234375 -2.359375 8.5q-0.703125 3.265625 -0.71875 4.546875q-0.0625 1.921875 -0.25 2.90625q-0.1875 0.984375 -0.484375 1.703125q-0.796875 1.953125 -2.75 3.046875q-1.953125 1.109375 -4.609375 1.109375q-1.46875 0 -2.625 -0.4375q-1.15625 -0.421875 -1.78125 -1.171875q-0.625 -0.75 -0.625 -1.640625q0 -0.796875 0.390625 -1.484375q0.390625 -0.6875 1.125 -1.28125q0.734375 -0.578125 3.140625 -1.796875q0.625 -0.3125 1.140625 -0.65625q-0.453125 0.1875 -1.0625 0.1875q-0.84375 0 -1.328125 -0.640625q-0.484375 -0.640625 -0.484375 -1.734375q0 -1.359375 0.625 -2.9375q0.640625 -1.59375 1.75 -3.046875q1.125 -1.453125 2.515625 -2.53125q1.40625 -1.078125 2.640625 -1.484375q1.25 -0.421875 3.125 -0.421875l1.21875 0.03125l0.15625 -0.484375l1.25 -0.28125zm-3.96875 2.59375q-0.6875 -0.171875 -1.1875 -0.171875q-1.46875 0 -2.515625 0.96875q-1.046875 0.953125 -1.703125 3.203125q-0.375 1.296875 -0.546875 2.078125q-0.15625 0.765625 -0.15625 1.65625q0 0.6875 0.34375 1.078125q0.359375 0.390625 0.859375 0.390625q0.625 0 1.4375 -0.703125q0.828125 -0.703125 1.296875 -1.53125q0.46875 -0.828125 1.015625 -2.8125l1.15625 -4.15625zm-2.046875 8.4375q-0.875 0.78125 -1.78125 1.4375q-0.890625 0.65625 -1.71875 1.25q-0.8125 0.609375 -1.53125 1.15625q-0.703125 0.5625 -1.234375 1.125q-0.515625 0.578125 -0.828125 1.1875q-0.296875 0.609375 -0.296875 1.296875q0 0.953125 0.71875 1.625q0.734375 0.6875 1.734375 0.6875q2.015625 0 3.359375 -1.90625q1.34375 -1.90625 1.34375 -4.90625q0 -1.71875 0.234375 -2.953125zm19.953125 -19.203125q0 0.25 -0.53125 0.484375q-1.109375 0.53125 -3.34375 2.9375q-2.234375 2.40625 -3.59375 5.234375q-1.359375 2.8125 -2.0625 5.859375q-0.703125 3.046875 -0.703125 5.625q0 3.265625 0.609375 5.65625q0.609375 2.390625 1.125 3.328125q0.125 0.203125 0.125 0.390625q0 0.3125 -0.25 0.3125q-0.484375 0 -1.53125 -1.65625q-1.046875 -1.65625 -1.8125 -4.171875q-0.765625 -2.5 -0.765625 -5.046875q0 -3.75 1.375 -7.203125q3.171875 -7.625 9.0625 -11.171875q1.5625 -0.921875 1.984375 -0.921875q0.3125 0 0.3125 0.34375zm3.296875 8.546875q1.421875 0 2.359375 0.546875q0.9375 0.53125 0.9375 1.40625q0 0.453125 -0.375 0.8125q-0.359375 0.34375 -0.875 0.34375q-0.453125 0 -0.734375 -0.1875q-0.265625 -0.203125 -0.515625 -0.640625q-0.4375 -0.765625 -0.75 -1.0q-0.3125 -0.25 -0.65625 -0.25q-0.65625 0 -1.0625 0.46875q-0.40625 0.46875 -0.40625 1.3125q0 1.015625 0.828125 1.953125l1.09375 1.171875q0.875 0.9375 1.296875 1.78125q0.4375 0.828125 0.4375 1.6875q0 1.78125 -1.515625 2.984375q-1.5 1.1875 -3.96875 1.1875q-2.0 0 -3.109375 -0.796875q-1.109375 -0.8125 -1.109375 -2.15625q0 -0.578125 0.4375 -0.96875q0.4375 -0.40625 1.09375 -0.40625q0.609375 0 0.96875 0.328125q0.375 0.328125 0.375 0.734375l0 0.859375q0 0.671875 0.40625 1.0625q0.40625 0.375 1.046875 0.375q1.09375 0 1.703125 -0.5625q0.625 -0.5625 0.625 -1.578125q0 -1.046875 -0.890625 -2.078125q-1.296875 -1.40625 -1.71875 -2.015625q-0.40625 -0.625 -0.640625 -1.234375q-0.234375 -0.609375 -0.234375 -1.296875q0 -0.984375 0.625 -1.875q0.640625 -0.90625 1.78125 -1.4375q1.140625 -0.53125 2.546875 -0.53125zm-1.203125 20.96875q0 -0.28125 0.5625 -0.515625q1.09375 -0.53125 3.296875 -2.90625q2.21875 -2.359375 3.546875 -5.0625q1.328125 -2.703125 2.078125 -5.84375q0.75 -3.140625 0.75 -5.84375q0 -3.5 -0.765625 -6.234375q-0.6875 -2.25 -0.9375 -2.75q-0.15625 -0.265625 -0.15625 -0.390625q0 -0.3125 0.265625 -0.3125q0.453125 0 1.46875 1.59375q1.015625 1.578125 1.8125 4.203125q0.8125 2.609375 0.8125 5.078125q0 2.5 -0.59375 4.796875q-0.59375 2.296875 -1.984375 4.9375q-1.375 2.640625 -3.171875 4.6875q-1.78125 2.0625 -3.890625 3.46875q-2.09375 1.40625 -2.78125 1.40625q-0.3125 0 -0.3125 -0.3125z" fill-rule="nonzero"></path><path fill="#000000" fill-opacity="0.0" d="m762.0171 301.3281l66.04724 0l0 52.6929l-66.04724 0z" fill-rule="nonzero"></path><path fill="#666666" d="m771.4702 325.43558l2.609375 -0.390625q0.171875 0.75 0.671875 1.15625q0.515625 0.390625 1.4375 0.390625q1.0 0 1.515625 -0.375q0.34375 -0.265625 0.34375 -0.703125q0 -0.296875 -0.1875 -0.484375q-0.1875 -0.1875 -0.875 -0.34375q-3.140625 -0.703125 -4.0 -1.265625q-1.15625 -0.796875 -1.15625 -2.21875q0 -1.28125 1.0 -2.15625q1.015625 -0.875 3.140625 -0.875q2.03125 0 3.0 0.65625q0.984375 0.65625 1.359375 1.953125l-2.453125 0.453125q-0.15625 -0.578125 -0.609375 -0.875q-0.4375 -0.3125 -1.25 -0.3125q-1.03125 0 -1.46875 0.296875q-0.296875 0.203125 -0.296875 0.515625q0 0.28125 0.25 0.484375q0.359375 0.25 2.4375 0.734375q2.078125 0.46875 2.90625 1.15625q0.828125 0.6875 0.828125 1.9375q0 1.359375 -1.140625 2.328125q-1.125 0.96875 -3.34375 0.96875q-2.015625 0 -3.1875 -0.8125q-1.171875 -0.8125 -1.53125 -2.21875zm16.465271 6.640625l0 -17.421875l4.609375 0l0 2.046875l-2.140625 0l0 13.328125l2.140625 0l0 2.046875l-4.609375 0zm6.0251465 -13.6875l2.40625 0l0 1.359375q1.28125 -1.578125 3.0625 -1.578125q0.953125 0 1.640625 0.390625q0.703125 0.390625 1.140625 1.1875q0.65625 -0.796875 1.40625 -1.1875q0.75 -0.390625 1.609375 -0.390625q1.078125 0 1.828125 0.453125q0.75 0.4375 1.125 1.28125q0.265625 0.640625 0.265625 2.046875l0 6.296875l-2.609375 0l0 -5.625q0 -1.46875 -0.265625 -1.90625q-0.359375 -0.546875 -1.109375 -0.546875q-0.546875 0 -1.03125 0.34375q-0.484375 0.328125 -0.703125 0.96875q-0.203125 0.640625 -0.203125 2.03125l0 4.734375l-2.609375 0l0 -5.40625q0 -1.4375 -0.140625 -1.84375q-0.140625 -0.421875 -0.4375 -0.625q-0.28125 -0.203125 -0.78125 -0.203125q-0.609375 0 -1.09375 0.328125q-0.484375 0.3125 -0.6875 0.9375q-0.203125 0.609375 -0.203125 2.03125l0 4.78125l-2.609375 0l0 -9.859375zm20.385254 -3.734375l0 17.421875l-4.609375 0l0 -2.046875l2.140625 0l0 -13.34375l-2.140625 0l0 -2.03125l4.609375 0z" fill-rule="nonzero"></path><path fill="#000000" fill-opacity="0.0" d="m2.6548557 86.33071l102.89764 0l0 52.69291l-102.89764 0z" fill-rule="nonzero"></path><path fill="#666666" d="m14.811106 106.20634q0 2.0 1.609375 2.0q0.375 0 0.6875 -0.09375q0.328125 -0.09375 0.546875 -0.21875l0 -3.8125q-0.171875 -0.03125 -0.421875 -0.046875q-0.234375 -0.03125 -0.546875 -0.03125q-0.953125 0 -1.421875 0.625q-0.453125 0.625 -0.453125 1.578125zm5.234375 3.421875q0 2.078125 -1.0625 3.078125q-1.046875 1.0 -3.234375 1.0q-0.765625 0 -1.53125 -0.140625q-0.765625 -0.140625 -1.421875 -0.359375l0.40625 -2.0q0.5625 0.21875 1.171875 0.34375q0.625 0.125 1.40625 0.125q1.03125 0 1.453125 -0.453125q0.421875 -0.4375 0.421875 -1.140625l0 -0.296875q-0.390625 0.171875 -0.796875 0.265625q-0.40625 0.078125 -0.890625 0.078125q-1.734375 0 -2.671875 -1.03125q-0.921875 -1.03125 -0.921875 -2.890625q0 -0.921875 0.28125 -1.671875q0.296875 -0.765625 0.84375 -1.3125q0.5625 -0.546875 1.359375 -0.84375q0.796875 -0.296875 1.8125 -0.296875q0.421875 0 0.875 0.046875q0.46875 0.03125 0.90625 0.09375q0.453125 0.0625 0.859375 0.15625q0.40625 0.09375 0.734375 0.1875l0 7.0625zm6.3908997 -11.46875l4.34375 0l0 1.90625l-2.0625 0l0 11.6875l2.0625 0l0 1.890625l-4.34375 0l0 -15.484375zm7.9985027 7.15625q0.359375 -0.390625 0.734375 -0.796875q0.375 -0.421875 0.71875 -0.828125q0.359375 -0.40625 0.671875 -0.765625q0.3125 -0.375 0.53125 -0.65625l2.828125 0q-0.84375 0.984375 -1.65625 1.875q-0.796875 0.890625 -1.765625 1.828125q0.484375 0.4375 1.0 1.03125q0.515625 0.59375 0.984375 1.234375q0.484375 0.640625 0.875 1.28125q0.40625 0.640625 0.6875 1.171875l-2.734375 0q-0.265625 -0.421875 -0.59375 -0.921875q-0.328125 -0.5 -0.703125 -1.0q-0.359375 -0.515625 -0.765625 -0.96875q-0.40625 -0.46875 -0.8125 -0.796875l0 3.6875l-2.375 0l0 -12.03125l2.375 -0.390625l0 7.046875zm6.482773 1.171875q0 -0.921875 0.296875 -1.71875q0.296875 -0.8125 0.859375 -1.40625q0.5625 -0.609375 1.359375 -0.953125q0.796875 -0.359375 1.828125 -0.359375q0.671875 0 1.21875 0.125q0.5625 0.109375 1.09375 0.34375l-0.5 1.90625q-0.328125 -0.140625 -0.734375 -0.234375q-0.390625 -0.09375 -0.890625 -0.09375q-1.0625 0 -1.578125 0.65625q-0.515625 0.65625 -0.515625 1.734375q0 1.125 0.484375 1.75q0.484375 0.625 1.703125 0.625q0.4375 0 0.921875 -0.078125q0.5 -0.078125 0.921875 -0.25l0.328125 1.953125q-0.40625 0.171875 -1.03125 0.296875q-0.625 0.125 -1.375 0.125q-1.15625 0 -2.0 -0.34375q-0.828125 -0.34375 -1.359375 -0.921875q-0.53125 -0.59375 -0.78125 -1.40625q-0.25 -0.8125 -0.25 -1.75zm11.625015 2.546875q0.34375 0 0.65625 -0.015625q0.328125 -0.03125 0.515625 -0.0625l0 -1.796875q-0.140625 -0.03125 -0.4375 -0.0625q-0.28125 -0.03125 -0.515625 -0.03125q-0.34375 0 -0.640625 0.046875q-0.296875 0.03125 -0.515625 0.140625q-0.21875 0.109375 -0.359375 0.3125q-0.125 0.1875 -0.125 0.46875q0 0.5625 0.375 0.78125q0.390625 0.21875 1.046875 0.21875zm-0.203125 -6.984375q1.0625 0 1.765625 0.25q0.703125 0.234375 1.125 0.6875q0.421875 0.4375 0.59375 1.078125q0.1875 0.640625 0.1875 1.421875l0 4.96875q-0.515625 0.109375 -1.4375 0.25q-0.90625 0.15625 -2.203125 0.15625q-0.8125 0 -1.484375 -0.140625q-0.65625 -0.140625 -1.140625 -0.46875q-0.46875 -0.328125 -0.734375 -0.859375q-0.25 -0.53125 -0.25 -1.296875q0 -0.734375 0.296875 -1.25q0.296875 -0.515625 0.78125 -0.8125q0.5 -0.296875 1.140625 -0.4375q0.640625 -0.140625 1.328125 -0.140625q0.46875 0 0.828125 0.046875q0.359375 0.03125 0.578125 0.09375l0 -0.21875q0 -0.609375 -0.375 -0.96875q-0.359375 -0.375 -1.265625 -0.375q-0.609375 0 -1.203125 0.09375q-0.59375 0.078125 -1.03125 0.25l-0.296875 -1.921875q0.203125 -0.0625 0.515625 -0.140625q0.3125 -0.078125 0.671875 -0.125q0.375 -0.0625 0.78125 -0.09375q0.421875 -0.046875 0.828125 -0.046875zm9.191772 8.796875q-1.046875 -0.015625 -1.703125 -0.21875q-0.640625 -0.203125 -1.015625 -0.578125q-0.375 -0.390625 -0.515625 -0.921875q-0.125 -0.53125 -0.125 -1.203125l0 -9.265625l2.375 -0.390625l0 9.171875q0 0.328125 0.046875 0.578125q0.046875 0.25 0.1875 0.4375q0.140625 0.171875 0.390625 0.28125q0.265625 0.109375 0.6875 0.140625l-0.328125 1.96875zm2.618515 2.796875l-2.453125 0l5.375 -15.484375l2.421875 0l-5.34375 15.484375zm6.0701447 -2.953125l0 -12.03125l2.375 -0.390625l0 4.03125q0.25 -0.078125 0.625 -0.140625q0.375 -0.078125 0.71875 -0.078125q1.03125 0 1.703125 0.28125q0.6875 0.28125 1.09375 0.796875q0.40625 0.5 0.578125 1.21875q0.171875 0.703125 0.171875 1.5625l0 4.75l-2.390625 0l0 -4.46875q0 -1.140625 -0.296875 -1.625q-0.296875 -0.484375 -1.09375 -0.484375q-0.328125 0 -0.609375 0.0625q-0.265625 0.046875 -0.5 0.109375l0 6.40625l-2.375 0zm12.7990265 2.953125l-4.34375 0l0 -1.890625l2.0625 0l0 -11.6875l-2.0625 0l0 -1.90625l4.34375 0l0 15.484375z" fill-rule="nonzero"></path><path fill="#000000" fill-opacity="0.0" d="m169.06168 271.52756l115.84253 0" fill-rule="nonzero"></path><path stroke="#ff9900" stroke-width="2.0" stroke-linejoin="round" stroke-linecap="butt" stroke-dasharray="8.0,6.0" d="m169.06168 271.52756l115.84253 0" fill-rule="nonzero"></path><path fill="#000000" fill-opacity="0.0" d="m284.55414 274.17102l70.299225 0" fill-rule="nonzero"></path><path stroke="#ff9900" stroke-width="2.0" stroke-linejoin="round" stroke-linecap="butt" stroke-dasharray="8.0,6.0" d="m284.55414 274.17102l70.299225 0" fill-rule="nonzero"></path><path fill="#000000" fill-opacity="0.0" d="m354.47638 287.52756l112.09448 0" fill-rule="nonzero"></path><path stroke="#ff9900" stroke-width="2.0" stroke-linejoin="round" stroke-linecap="butt" stroke-dasharray="8.0,6.0" d="m354.47638 287.52756l112.09448 0" fill-rule="nonzero"></path><path fill="#000000" fill-opacity="0.0" d="m466.47638 263.52756l81.60632 0" fill-rule="nonzero"></path><path stroke="#ff9900" stroke-width="2.0" stroke-linejoin="round" stroke-linecap="butt" stroke-dasharray="8.0,6.0" d="m466.47638 263.52756l81.60632 0" fill-rule="nonzero"></path><path fill="#000000" fill-opacity="0.0" d="m547.6242 274.58844l80.787415 0" fill-rule="nonzero"></path><path stroke="#ff9900" stroke-width="2.0" stroke-linejoin="round" stroke-linecap="butt" stroke-dasharray="8.0,6.0" d="m547.6242 274.58844l80.787415 0" fill-rule="nonzero"></path><path fill="#000000" fill-opacity="0.0" d="m17.04714 256.48758l80.125984 0l0 50.48819l-80.125984 0z" fill-rule="nonzero"></path><path fill="#000000" d="m27.906515 277.7357l-0.265625 -0.375q0.90625 -0.90625 1.734375 -1.34375q0.828125 -0.4375 1.296875 -0.4375q0.203125 0 0.296875 0.09375q0.09375 0.078125 0.09375 0.21875q0 0.1875 -0.140625 0.71875q-0.21875 0.78125 -0.296875 1.234375q2.218748 -2.265625 3.406248 -2.265625q0.296875 0 0.453125 0.171875q0.15625 0.15625 0.15625 0.515625q0 0.390625 -0.265625 1.328125q1.046875 -1.09375 1.828125 -1.546875q0.78125 -0.46875 1.21875 -0.46875q0.390625 0 0.59375 0.21875q0.21875 0.21875 0.21875 0.6875q0 0.28125 -0.09375 0.671875q-0.09375 0.375 -0.671875 2.3125q-0.734375 2.390625 -0.734375 2.859375q0 0.3125 0.265625 0.3125q0.171875 0 0.34375 -0.109375q0.546875 -0.390625 1.109375 -0.96875l0.3125 0.34375q-0.1875 0.15625 -0.734375 0.640625q-0.734375 0.671875 -1.015625 0.84375q-0.546875 0.3125 -0.90625 0.3125q-0.28125 0 -0.5 -0.28125q-0.203125 -0.265625 -0.203125 -0.75q0 -0.4375 0.125 -1.03125q0.125 -0.609375 0.765625 -2.703125q0.46875 -1.5625 0.46875 -1.890625q0 -0.328125 -0.28125 -0.328125q-0.234375 0 -0.625 0.234375q-0.796875 0.484375 -1.328125 1.1875q-0.375 0.484375 -0.65625 1.53125q-0.625 2.28125 -0.921875 3.734375l-1.3281231 0l1.3906231 -5.671875q0.140625 -0.609375 0.140625 -0.703125q0 -0.140625 -0.078125 -0.21875q-0.0625 -0.09375 -0.203125 -0.09375q-0.25 0 -0.78125 0.390625q-0.9218731 0.671875 -1.3281231 1.296875q-0.390625 0.609375 -0.6875 1.859375l-0.703125 3.140625l-1.328125 0l1.046875 -4.421875q0.453125 -1.921875 0.453125 -2.09375q0 -0.203125 -0.15625 -0.203125q-0.359375 0 -1.484375 1.046875zm18.72531 -7.21875q0 0.15625 -0.34375 0.296875q-0.5625 0.234375 -1.859375 1.5q-1.296875 1.265625 -2.1875 2.828125q-0.890625 1.5625 -1.4375 3.53125q-0.546875 1.953125 -0.546875 3.796875q0 1.125 0.140625 2.03125q0.15625 0.90625 0.453125 1.671875q0.4375 1.1875 0.703125 1.640625q0.09375 0.15625 0.09375 0.234375q0 0.1875 -0.15625 0.1875q-0.125 0 -0.296875 -0.21875q-0.75 -0.984375 -1.3125 -2.765625q-0.546875 -1.765625 -0.546875 -3.484375q0 -2.28125 0.796875 -4.28125q0.796875 -2.0 2.0625 -3.71875q1.265625 -1.734375 3.09375 -2.890625q0.875 -0.5625 1.140625 -0.5625q0.203125 0 0.203125 0.203125zm2.2993774 10.5625l0.3125 0.40625q-2.265625 2.15625 -3.890625 2.15625q-0.65625 0 -1.015625 -0.4375q-0.34375 -0.453125 -0.34375 -1.4375q0 -1.984375 1.203125 -3.9375q1.359375 -2.25 3.234375 -2.25q0.671875 0 1.015625 0.34375q0.34375 0.328125 0.34375 0.890625q0 0.609375 -0.421875 1.203125q-0.40625 0.578125 -1.484375 1.203125q-0.546875 0.3125 -2.296875 1.109375q-0.09375 0.5 -0.09375 0.953125q0 0.65625 0.203125 0.921875q0.21875 0.25 0.609375 0.25q0.390625 0 0.84375 -0.203125q0.609375 -0.296875 1.78125 -1.171875zm-3.234375 -1.34375q1.484375 -0.671875 2.234375 -1.4375q0.515625 -0.546875 0.515625 -1.0625q0 -0.40625 -0.21875 -0.640625q-0.203125 -0.234375 -0.53125 -0.234375q-0.34375 0 -0.671875 0.25q-0.4375 0.34375 -0.734375 1.046875q-0.421875 1.015625 -0.59375 2.078125zm11.820007 6.5625l-0.171875 -0.609375q0.84375 -0.640625 1.296875 -1.28125q0.296875 -0.421875 0.296875 -0.6875q0 -0.265625 -0.21875 -0.6875q-0.21875 -0.421875 -0.21875 -0.703125q0 -0.34375 0.25 -0.609375q0.25 -0.265625 0.59375 -0.265625q0.375 0 0.640625 0.3125q0.28125 0.3125 0.28125 0.75q0 0.5 -0.28125 1.125q-0.28125 0.640625 -0.84375 1.25q-0.765625 0.828125 -1.625 1.40625zm9.561512 -2.515625l-0.34375 -4.484375q-0.09375 -1.375 -0.09375 -1.8125q0 -1.25 0.359375 -2.296875q0.359375 -1.0625 1.265625 -2.265625q-1.09375 0 -2.21875 0.53125q-1.125 0.515625 -1.65625 1.1875q-0.5156288 0.671875 -0.5156288 1.359375q0 0.3125 0.18750381 0.671875q0.25 0.4375 0.25 0.671875q0 0.21875 -0.125 0.359375q-0.125 0.125 -0.3281288 0.125q-0.296875 0 -0.515625 -0.3125q-0.28125 -0.40625 -0.28125 -1.015625q0 -1.125 0.84375 -2.171875q0.8593788 -1.046875 2.3437538 -1.546875q0.953125 -0.328125 2.78125 -0.453125q0.5 -0.03125 1.0 -0.09375q-1.25 1.84375 -1.640625 3.078125q-0.375 1.21875 -0.375 3.328125q0 1.609375 0.171875 2.953125l1.78125 -1.90625l1.515625 -1.5625q2.3125 -2.359375 3.109375 -3.734375q0.59375 -1.015625 0.59375 -1.859375q0 -0.46875 -0.203125 -1.03125q-0.140625 -0.34375 -0.140625 -0.53125q0 -0.25 0.1875 -0.4375q0.1875 -0.1875 0.453125 -0.1875q0.34375 0 0.578125 0.359375q0.25 0.359375 0.25 1.140625q0 0.75 -0.3125 1.59375q-0.3125 0.828125 -1.328125 2.125q-1.015625 1.296875 -3.125 3.453125q-2.21875 2.234375 -4.46875 4.765625zm8.729324 4.25q0 -0.15625 0.328125 -0.296875q0.5625 -0.234375 1.859375 -1.5q1.296875 -1.265625 2.1875 -2.828125q0.890625 -1.5625 1.4375 -3.53125q0.546875 -1.96875 0.546875 -3.796875q0 -1.125 -0.15625 -2.03125q-0.140625 -0.90625 -0.421875 -1.671875q-0.453125 -1.1875 -0.71875 -1.640625q-0.09375 -0.15625 -0.09375 -0.234375q0 -0.1875 0.15625 -0.1875q0.125 0 0.296875 0.21875q0.765625 0.984375 1.3125 2.765625q0.546875 1.765625 0.546875 3.484375q0 2.28125 -0.796875 4.28125q-0.796875 2.0 -2.0625 3.734375q-1.265625 1.734375 -3.09375 2.875q-0.875 0.5625 -1.140625 0.5625q-0.1875 0 -0.1875 -0.203125z" fill-rule="nonzero"></path><path fill="#000000" fill-opacity="0.0" d="m38.748787 269.4355l51.685043 0l0 30.834656l-51.685043 0z" fill-rule="nonzero"></path><path fill="#000000" d="m53.733162 288.67548l-1.515625 0l0 -2.90625q0 -0.921875 -0.09375 -1.1875q-0.09375 -0.28125 -0.3125 -0.421875q-0.21875 -0.15625 -0.53125 -0.15625q-0.390625 0 -0.703125 0.21875q-0.3125 0.203125 -0.4375 0.5625q-0.109375 0.34375 -0.109375 1.3125l0 2.578125l-1.5 0l0 -5.703125l1.40625 0l0 0.84375q0.734375 -0.96875 1.875 -0.96875q0.5 0 0.90625 0.1875q0.421875 0.171875 0.625 0.453125q0.21875 0.265625 0.296875 0.625q0.09375 0.359375 0.09375 1.015625l0 3.546875zm19.65625 0l-1.515625 0l0 -5.6875q-0.8125 0.765625 -1.9375 1.140625l0 -1.359375q0.59375 -0.203125 1.28125 -0.734375q0.6875 -0.546875 0.953125 -1.265625l1.21875 0l0 7.90625z" fill-rule="nonzero"></path><path fill="#000000" fill-opacity="0.0" d="m17.04714 208.48758l80.125984 0l0 50.48819l-80.125984 0z" fill-rule="nonzero"></path><path fill="#000000" d="m27.906515 229.7357l-0.265625 -0.375q0.90625 -0.90625 1.734375 -1.34375q0.828125 -0.4375 1.296875 -0.4375q0.203125 0 0.296875 0.09375q0.09375 0.078125 0.09375 0.21875q0 0.1875 -0.140625 0.71875q-0.21875 0.78125 -0.296875 1.234375q2.218748 -2.265625 3.406248 -2.265625q0.296875 0 0.453125 0.171875q0.15625 0.15625 0.15625 0.515625q0 0.390625 -0.265625 1.328125q1.046875 -1.09375 1.828125 -1.546875q0.78125 -0.46875 1.21875 -0.46875q0.390625 0 0.59375 0.21875q0.21875 0.21875 0.21875 0.6875q0 0.28125 -0.09375 0.671875q-0.09375 0.375 -0.671875 2.3125q-0.734375 2.390625 -0.734375 2.859375q0 0.3125 0.265625 0.3125q0.171875 0 0.34375 -0.109375q0.546875 -0.390625 1.109375 -0.96875l0.3125 0.34375q-0.1875 0.15625 -0.734375 0.640625q-0.734375 0.671875 -1.015625 0.84375q-0.546875 0.3125 -0.90625 0.3125q-0.28125 0 -0.5 -0.28125q-0.203125 -0.265625 -0.203125 -0.75q0 -0.4375 0.125 -1.03125q0.125 -0.609375 0.765625 -2.703125q0.46875 -1.5625 0.46875 -1.890625q0 -0.328125 -0.28125 -0.328125q-0.234375 0 -0.625 0.234375q-0.796875 0.484375 -1.328125 1.1875q-0.375 0.484375 -0.65625 1.53125q-0.625 2.28125 -0.921875 3.734375l-1.3281231 0l1.3906231 -5.671875q0.140625 -0.609375 0.140625 -0.703125q0 -0.140625 -0.078125 -0.21875q-0.0625 -0.09375 -0.203125 -0.09375q-0.25 0 -0.78125 0.390625q-0.9218731 0.671875 -1.3281231 1.296875q-0.390625 0.609375 -0.6875 1.859375l-0.703125 3.140625l-1.328125 0l1.046875 -4.421875q0.453125 -1.921875 0.453125 -2.09375q0 -0.203125 -0.15625 -0.203125q-0.359375 0 -1.484375 1.046875zm18.72531 -7.21875q0 0.15625 -0.34375 0.296875q-0.5625 0.234375 -1.859375 1.5q-1.296875 1.265625 -2.1875 2.828125q-0.890625 1.5625 -1.4375 3.53125q-0.546875 1.953125 -0.546875 3.796875q0 1.125 0.140625 2.03125q0.15625 0.90625 0.453125 1.671875q0.4375 1.1875 0.703125 1.640625q0.09375 0.15625 0.09375 0.234375q0 0.1875 -0.15625 0.1875q-0.125 0 -0.296875 -0.21875q-0.75 -0.984375 -1.3125 -2.765625q-0.546875 -1.765625 -0.546875 -3.484375q0 -2.28125 0.796875 -4.28125q0.796875 -2.0 2.0625 -3.71875q1.265625 -1.734375 3.09375 -2.890625q0.875 -0.5625 1.140625 -0.5625q0.203125 0 0.203125 0.203125zm2.2993774 10.5625l0.3125 0.40625q-2.265625 2.15625 -3.890625 2.15625q-0.65625 0 -1.015625 -0.4375q-0.34375 -0.453125 -0.34375 -1.4375q0 -1.984375 1.203125 -3.9375q1.359375 -2.25 3.234375 -2.25q0.671875 0 1.015625 0.34375q0.34375 0.328125 0.34375 0.890625q0 0.609375 -0.421875 1.203125q-0.40625 0.578125 -1.484375 1.203125q-0.546875 0.3125 -2.296875 1.109375q-0.09375 0.5 -0.09375 0.953125q0 0.65625 0.203125 0.921875q0.21875 0.25 0.609375 0.25q0.390625 0 0.84375 -0.203125q0.609375 -0.296875 1.78125 -1.171875zm-3.234375 -1.34375q1.484375 -0.671875 2.234375 -1.4375q0.515625 -0.546875 0.515625 -1.0625q0 -0.40625 -0.21875 -0.640625q-0.203125 -0.234375 -0.53125 -0.234375q-0.34375 0 -0.671875 0.25q-0.4375 0.34375 -0.734375 1.046875q-0.421875 1.015625 -0.59375 2.078125zm11.820007 6.5625l-0.171875 -0.609375q0.84375 -0.640625 1.296875 -1.28125q0.296875 -0.421875 0.296875 -0.6875q0 -0.265625 -0.21875 -0.6875q-0.21875 -0.421875 -0.21875 -0.703125q0 -0.34375 0.25 -0.609375q0.25 -0.265625 0.59375 -0.265625q0.375 0 0.640625 0.3125q0.28125 0.3125 0.28125 0.75q0 0.5 -0.28125 1.125q-0.28125 0.640625 -0.84375 1.25q-0.765625 0.828125 -1.625 1.40625zm9.561512 -2.515625l-0.34375 -4.484375q-0.09375 -1.375 -0.09375 -1.8125q0 -1.25 0.359375 -2.296875q0.359375 -1.0625 1.265625 -2.265625q-1.09375 0 -2.21875 0.53125q-1.125 0.515625 -1.65625 1.1875q-0.5156288 0.671875 -0.5156288 1.359375q0 0.3125 0.18750381 0.671875q0.25 0.4375 0.25 0.671875q0 0.21875 -0.125 0.359375q-0.125 0.125 -0.3281288 0.125q-0.296875 0 -0.515625 -0.3125q-0.28125 -0.40625 -0.28125 -1.015625q0 -1.125 0.84375 -2.171875q0.8593788 -1.046875 2.3437538 -1.546875q0.953125 -0.328125 2.78125 -0.453125q0.5 -0.03125 1.0 -0.09375q-1.25 1.84375 -1.640625 3.078125q-0.375 1.21875 -0.375 3.328125q0 1.609375 0.171875 2.953125l1.78125 -1.90625l1.515625 -1.5625q2.3125 -2.359375 3.109375 -3.734375q0.59375 -1.015625 0.59375 -1.859375q0 -0.46875 -0.203125 -1.03125q-0.140625 -0.34375 -0.140625 -0.53125q0 -0.25 0.1875 -0.4375q0.1875 -0.1875 0.453125 -0.1875q0.34375 0 0.578125 0.359375q0.25 0.359375 0.25 1.140625q0 0.75 -0.3125 1.59375q-0.3125 0.828125 -1.328125 2.125q-1.015625 1.296875 -3.125 3.453125q-2.21875 2.234375 -4.46875 4.765625zm8.729324 4.25q0 -0.15625 0.328125 -0.296875q0.5625 -0.234375 1.859375 -1.5q1.296875 -1.265625 2.1875 -2.828125q0.890625 -1.5625 1.4375 -3.53125q0.546875 -1.96875 0.546875 -3.796875q0 -1.125 -0.15625 -2.03125q-0.140625 -0.90625 -0.421875 -1.671875q-0.453125 -1.1875 -0.71875 -1.640625q-0.09375 -0.15625 -0.09375 -0.234375q0 -0.1875 0.15625 -0.1875q0.125 0 0.296875 0.21875q0.765625 0.984375 1.3125 2.765625q0.546875 1.765625 0.546875 3.484375q0 2.28125 -0.796875 4.28125q-0.796875 2.0 -2.0625 3.734375q-1.265625 1.734375 -3.09375 2.875q-0.875 0.5625 -1.140625 0.5625q-0.1875 0 -0.1875 -0.203125z" fill-rule="nonzero"></path><path fill="#000000" fill-opacity="0.0" d="m38.748787 221.43549l51.685043 0l0 30.83464l-51.685043 0z" fill-rule="nonzero"></path><path fill="#000000" d="m53.733162 240.67549l-1.515625 0l0 -2.90625q0 -0.921875 -0.09375 -1.1875q-0.09375 -0.28125 -0.3125 -0.421875q-0.21875 -0.15625 -0.53125 -0.15625q-0.390625 0 -0.703125 0.21875q-0.3125 0.203125 -0.4375 0.5625q-0.109375 0.34375 -0.109375 1.3125l0 2.578125l-1.5 0l0 -5.703125l1.40625 0l0 0.84375q0.734375 -0.96875 1.875 -0.96875q0.5 0 0.90625 0.1875q0.421875 0.171875 0.625 0.453125q0.21875 0.265625 0.296875 0.625q0.09375 0.359375 0.09375 1.015625l0 3.546875zm20.890625 -1.40625l0 1.40625l-5.28125 0q0.078125 -0.796875 0.5 -1.5q0.4375 -0.71875 1.703125 -1.890625q1.015625 -0.953125 1.25 -1.296875q0.3125 -0.46875 0.3125 -0.921875q0 -0.5 -0.28125 -0.765625q-0.265625 -0.28125 -0.734375 -0.28125q-0.46875 0 -0.75 0.296875q-0.28125 0.28125 -0.328125 0.9375l-1.5 -0.15625q0.125 -1.25 0.828125 -1.78125q0.71875 -0.546875 1.78125 -0.546875q1.171875 0 1.828125 0.625q0.671875 0.625 0.671875 1.5625q0 0.53125 -0.1875 1.015625q-0.1875 0.484375 -0.609375 1.0q-0.265625 0.359375 -0.984375 1.015625q-0.71875 0.65625 -0.90625 0.875q-0.1875 0.203125 -0.3125 0.40625l3.0 0z" fill-rule="nonzero"></path><path fill="#000000" fill-opacity="0.0" d="m17.04714 160.48758l80.125984 0l0 50.48819l-80.125984 0z" fill-rule="nonzero"></path><path fill="#000000" d="m27.906515 181.7357l-0.265625 -0.375q0.90625 -0.90625 1.734375 -1.34375q0.828125 -0.4375 1.296875 -0.4375q0.203125 0 0.296875 0.09375q0.09375 0.078125 0.09375 0.21875q0 0.1875 -0.140625 0.71875q-0.21875 0.78125 -0.296875 1.234375q2.218748 -2.265625 3.406248 -2.265625q0.296875 0 0.453125 0.171875q0.15625 0.15625 0.15625 0.515625q0 0.390625 -0.265625 1.328125q1.046875 -1.09375 1.828125 -1.546875q0.78125 -0.46875 1.21875 -0.46875q0.390625 0 0.59375 0.21875q0.21875 0.21875 0.21875 0.6875q0 0.28125 -0.09375 0.671875q-0.09375 0.375 -0.671875 2.3125q-0.734375 2.390625 -0.734375 2.859375q0 0.3125 0.265625 0.3125q0.171875 0 0.34375 -0.109375q0.546875 -0.390625 1.109375 -0.96875l0.3125 0.34375q-0.1875 0.15625 -0.734375 0.640625q-0.734375 0.671875 -1.015625 0.84375q-0.546875 0.3125 -0.90625 0.3125q-0.28125 0 -0.5 -0.28125q-0.203125 -0.265625 -0.203125 -0.75q0 -0.4375 0.125 -1.03125q0.125 -0.609375 0.765625 -2.703125q0.46875 -1.5625 0.46875 -1.890625q0 -0.328125 -0.28125 -0.328125q-0.234375 0 -0.625 0.234375q-0.796875 0.484375 -1.328125 1.1875q-0.375 0.484375 -0.65625 1.53125q-0.625 2.28125 -0.921875 3.734375l-1.3281231 0l1.3906231 -5.671875q0.140625 -0.609375 0.140625 -0.703125q0 -0.140625 -0.078125 -0.21875q-0.0625 -0.09375 -0.203125 -0.09375q-0.25 0 -0.78125 0.390625q-0.9218731 0.671875 -1.3281231 1.296875q-0.390625 0.609375 -0.6875 1.859375l-0.703125 3.140625l-1.328125 0l1.046875 -4.421875q0.453125 -1.921875 0.453125 -2.09375q0 -0.203125 -0.15625 -0.203125q-0.359375 0 -1.484375 1.046875zm18.72531 -7.21875q0 0.15625 -0.34375 0.296875q-0.5625 0.234375 -1.859375 1.5q-1.296875 1.265625 -2.1875 2.828125q-0.890625 1.5625 -1.4375 3.53125q-0.546875 1.953125 -0.546875 3.796875q0 1.125 0.140625 2.03125q0.15625 0.90625 0.453125 1.671875q0.4375 1.1875 0.703125 1.640625q0.09375 0.15625 0.09375 0.234375q0 0.1875 -0.15625 0.1875q-0.125 0 -0.296875 -0.21875q-0.75 -0.984375 -1.3125 -2.765625q-0.546875 -1.765625 -0.546875 -3.484375q0 -2.28125 0.796875 -4.28125q0.796875 -2.0 2.0625 -3.71875q1.265625 -1.734375 3.09375 -2.890625q0.875 -0.5625 1.140625 -0.5625q0.203125 0 0.203125 0.203125zm2.2993774 10.5625l0.3125 0.40625q-2.265625 2.15625 -3.890625 2.15625q-0.65625 0 -1.015625 -0.4375q-0.34375 -0.453125 -0.34375 -1.4375q0 -1.984375 1.203125 -3.9375q1.359375 -2.25 3.234375 -2.25q0.671875 0 1.015625 0.34375q0.34375 0.328125 0.34375 0.890625q0 0.609375 -0.421875 1.203125q-0.40625 0.578125 -1.484375 1.203125q-0.546875 0.3125 -2.296875 1.109375q-0.09375 0.5 -0.09375 0.953125q0 0.65625 0.203125 0.921875q0.21875 0.25 0.609375 0.25q0.390625 0 0.84375 -0.203125q0.609375 -0.296875 1.78125 -1.171875zm-3.234375 -1.34375q1.484375 -0.671875 2.234375 -1.4375q0.515625 -0.546875 0.515625 -1.0625q0 -0.40625 -0.21875 -0.640625q-0.203125 -0.234375 -0.53125 -0.234375q-0.34375 0 -0.671875 0.25q-0.4375 0.34375 -0.734375 1.046875q-0.421875 1.015625 -0.59375 2.078125zm11.820007 6.5625l-0.171875 -0.609375q0.84375 -0.640625 1.296875 -1.28125q0.296875 -0.421875 0.296875 -0.6875q0 -0.265625 -0.21875 -0.6875q-0.21875 -0.421875 -0.21875 -0.703125q0 -0.34375 0.25 -0.609375q0.25 -0.265625 0.59375 -0.265625q0.375 0 0.640625 0.3125q0.28125 0.3125 0.28125 0.75q0 0.5 -0.28125 1.125q-0.28125 0.640625 -0.84375 1.25q-0.765625 0.828125 -1.625 1.40625zm9.561512 -2.515625l-0.34375 -4.484375q-0.09375 -1.375 -0.09375 -1.8125q0 -1.25 0.359375 -2.296875q0.359375 -1.0625 1.265625 -2.265625q-1.09375 0 -2.21875 0.53125q-1.125 0.515625 -1.65625 1.1875q-0.5156288 0.671875 -0.5156288 1.359375q0 0.3125 0.18750381 0.671875q0.25 0.4375 0.25 0.671875q0 0.21875 -0.125 0.359375q-0.125 0.125 -0.3281288 0.125q-0.296875 0 -0.515625 -0.3125q-0.28125 -0.40625 -0.28125 -1.015625q0 -1.125 0.84375 -2.171875q0.8593788 -1.046875 2.3437538 -1.546875q0.953125 -0.328125 2.78125 -0.453125q0.5 -0.03125 1.0 -0.09375q-1.25 1.84375 -1.640625 3.078125q-0.375 1.21875 -0.375 3.328125q0 1.609375 0.171875 2.953125l1.78125 -1.90625l1.515625 -1.5625q2.3125 -2.359375 3.109375 -3.734375q0.59375 -1.015625 0.59375 -1.859375q0 -0.46875 -0.203125 -1.03125q-0.140625 -0.34375 -0.140625 -0.53125q0 -0.25 0.1875 -0.4375q0.1875 -0.1875 0.453125 -0.1875q0.34375 0 0.578125 0.359375q0.25 0.359375 0.25 1.140625q0 0.75 -0.3125 1.59375q-0.3125 0.828125 -1.328125 2.125q-1.015625 1.296875 -3.125 3.453125q-2.21875 2.234375 -4.46875 4.765625zm8.729324 4.25q0 -0.15625 0.328125 -0.296875q0.5625 -0.234375 1.859375 -1.5q1.296875 -1.265625 2.1875 -2.828125q0.890625 -1.5625 1.4375 -3.53125q0.546875 -1.96875 0.546875 -3.796875q0 -1.125 -0.15625 -2.03125q-0.140625 -0.90625 -0.421875 -1.671875q-0.453125 -1.1875 -0.71875 -1.640625q-0.09375 -0.15625 -0.09375 -0.234375q0 -0.1875 0.15625 -0.1875q0.125 0 0.296875 0.21875q0.765625 0.984375 1.3125 2.765625q0.546875 1.765625 0.546875 3.484375q0 2.28125 -0.796875 4.28125q-0.796875 2.0 -2.0625 3.734375q-1.265625 1.734375 -3.09375 2.875q-0.875 0.5625 -1.140625 0.5625q-0.1875 0 -0.1875 -0.203125z" fill-rule="nonzero"></path><path fill="#000000" fill-opacity="0.0" d="m38.748787 173.43549l51.685043 0l0 30.83464l-51.685043 0z" fill-rule="nonzero"></path><path fill="#000000" d="m53.733162 192.67549l-1.515625 0l0 -2.90625q0 -0.921875 -0.09375 -1.1875q-0.09375 -0.28125 -0.3125 -0.421875q-0.21875 -0.15625 -0.53125 -0.15625q-0.390625 0 -0.703125 0.21875q-0.3125 0.203125 -0.4375 0.5625q-0.109375 0.34375 -0.109375 1.3125l0 2.578125l-1.5 0l0 -5.703125l1.40625 0l0 0.84375q0.734375 -0.96875 1.875 -0.96875q0.5 0 0.90625 0.1875q0.421875 0.171875 0.625 0.453125q0.21875 0.265625 0.296875 0.625q0.09375 0.359375 0.09375 1.015625l0 3.546875zm15.734375 -2.09375l1.46875 -0.171875q0.0625 0.5625 0.375 0.859375q0.3125 0.28125 0.734375 0.28125q0.46875 0 0.78125 -0.34375q0.328125 -0.359375 0.328125 -0.953125q0 -0.578125 -0.3125 -0.90625q-0.296875 -0.328125 -0.734375 -0.328125q-0.296875 0 -0.6875 0.109375l0.15625 -1.234375q0.609375 0.015625 0.9375 -0.265625q0.328125 -0.28125 0.328125 -0.75q0 -0.390625 -0.25 -0.625q-0.234375 -0.25 -0.625 -0.25q-0.375 0 -0.65625 0.28125q-0.265625 0.265625 -0.328125 0.78125l-1.390625 -0.234375q0.140625 -0.71875 0.421875 -1.140625q0.296875 -0.4375 0.8125 -0.671875q0.53125 -0.25 1.1875 -0.25q1.109375 0 1.78125 0.703125q0.5625 0.578125 0.5625 1.3125q0 1.046875 -1.140625 1.65625q0.671875 0.140625 1.078125 0.65625q0.40625 0.5 0.40625 1.21875q0 1.03125 -0.765625 1.765625q-0.75 0.734375 -1.875 0.734375q-1.0625 0 -1.765625 -0.609375q-0.703125 -0.625 -0.828125 -1.625z" fill-rule="nonzero"></path></g></svg>

