<?xml version="1.0" standalone="yes"?>

<svg version="1.1" viewBox="0.0 0.0 695.0341207349081 289.15485564304464" fill="none" stroke="none" stroke-linecap="square" stroke-miterlimit="10" xmlns="http://www.w3.org/2000/svg" xmlns:xlink="http://www.w3.org/1999/xlink"><clipPath id="p.0"><path d="m0 0l695.0341 0l0 289.15485l-695.0341 0l0 -289.15485z" clip-rule="nonzero"></path></clipPath><g clip-path="url(#p.0)"><path fill="#000000" fill-opacity="0.0" d="m0 0l695.0341 0l0 289.15485l-695.0341 0z" fill-rule="nonzero"></path><path fill="#000000" fill-opacity="0.0" d="m166.48294 31.017332l0 192.11298" fill-rule="nonzero"></path><path stroke="#999999" stroke-width="1.0" stroke-linejoin="round" stroke-linecap="butt" stroke-dasharray="1.0,3.0" d="m166.48294 31.017332l0 192.11298" fill-rule="nonzero"></path><path fill="#000000" fill-opacity="0.0" d="m244.61417 31.017332l0 192.11298" fill-rule="nonzero"></path><path stroke="#999999" stroke-width="1.0" stroke-linejoin="round" stroke-linecap="butt" stroke-dasharray="1.0,3.0" d="m244.61417 31.017332l0 192.11298" fill-rule="nonzero"></path><path fill="#000000" fill-opacity="0.0" d="m322.45407 31.017332l0 192.11298" fill-rule="nonzero"></path><path stroke="#999999" stroke-width="1.0" stroke-linejoin="round" stroke-linecap="butt" stroke-dasharray="1.0,3.0" d="m322.45407 31.017332l0 192.11298" fill-rule="nonzero"></path><path fill="#000000" fill-opacity="0.0" d="m400.87402 31.017332l0 192.11298" fill-rule="nonzero"></path><path stroke="#999999" stroke-width="1.0" stroke-linejoin="round" stroke-linecap="butt" stroke-dasharray="1.0,3.0" d="m400.87402 31.017332l0 192.11298" fill-rule="nonzero"></path><path fill="#000000" fill-opacity="0.0" d="m476.65353 31.017332l0 192.11298" fill-rule="nonzero"></path><path stroke="#999999" stroke-width="1.0" stroke-linejoin="round" stroke-linecap="butt" stroke-dasharray="1.0,3.0" d="m476.65353 31.017332l0 192.11298" fill-rule="nonzero"></path><path fill="#000000" fill-opacity="0.0" d="m551.2992 31.017332l0 192.11298" fill-rule="nonzero"></path><path stroke="#999999" stroke-width="1.0" stroke-linejoin="round" stroke-linecap="butt" stroke-dasharray="1.0,3.0" d="m551.2992 31.017332l0 192.11298" fill-rule="nonzero"></path><path fill="#000000" fill-opacity="0.0" d="m633.49603 31.017332l0 192.11298" fill-rule="nonzero"></path><path stroke="#999999" stroke-width="1.0" stroke-linejoin="round" stroke-linecap="butt" stroke-dasharray="1.0,3.0" d="m633.49603 31.017332l0 192.11298" fill-rule="nonzero"></path><path fill="#000000" fill-opacity="0.0" d="m90.32546 222.12383l0 -193.14397" fill-rule="nonzero"></path><path stroke="#666666" stroke-width="3.0" stroke-linejoin="round" stroke-linecap="butt" d="m90.32546 222.12381l0 -175.14395" fill-rule="evenodd"></path><path fill="#666666" stroke="#666666" stroke-width="3.0" stroke-linecap="butt" d="m95.280655 46.979855l-4.9551926 -13.614292l-4.9552 13.614292z" fill-rule="evenodd"></path><path fill="#000000" fill-opacity="0.0" d="m89.850395 222.76332l573.3543 0" fill-rule="nonzero"></path><path stroke="#666666" stroke-width="3.0" stroke-linejoin="round" stroke-linecap="butt" d="m89.850395 222.76332l555.3543 0" fill-rule="evenodd"></path><path fill="#666666" stroke="#666666" stroke-width="3.0" stroke-linecap="butt" d="m645.2047 227.71852l13.614319 -4.9552l-13.614319 -4.955185z" fill-rule="evenodd"></path><path fill="#000000" fill-opacity="0.0" d="m91.24672 169.66837l74.377945 0l0 -49.843605l74.37796 0" fill-rule="nonzero"></path><path stroke="#3c78d8" stroke-width="3.0" stroke-linejoin="round" stroke-linecap="butt" d="m91.24672 169.66837l74.377945 0l0 -49.843605l74.37796 0" fill-rule="nonzero"></path><path fill="#000000" fill-opacity="0.0" d="m239.99475 119.82793l81.51181 0l0 -15.424164l81.51181 0" fill-rule="nonzero"></path><path stroke="#3c78d8" stroke-width="3.0" stroke-linejoin="round" stroke-linecap="butt" d="m239.99475 119.82793l81.51181 0l0 -15.424164l81.51181 0" fill-rule="nonzero"></path><path fill="#000000" fill-opacity="0.0" d="m402.87402 104.40376l0 44.088028l72.47244 0l0 44.088043" fill-rule="nonzero"></path><path stroke="#3c78d8" stroke-width="3.0" stroke-linejoin="round" stroke-linecap="butt" d="m402.87402 104.40376l0 44.088028l72.47244 0l0 44.088043" fill-rule="nonzero"></path><path fill="#000000" fill-opacity="0.0" d="m475.34647 191.91817l75.52756 0l0 5.0527344l75.52753 0" fill-rule="nonzero"></path><path stroke="#3c78d8" stroke-width="3.0" stroke-linejoin="round" stroke-linecap="butt" d="m475.34647 191.91817l75.52756 0l0 5.0527344l75.52753 0" fill-rule="nonzero"></path><path fill="#000000" fill-opacity="0.0" d="m626.1076 197.02156l25.826782 0" fill-rule="nonzero"></path><path stroke="#3c78d8" stroke-width="3.0" stroke-linejoin="round" stroke-linecap="butt" d="m626.1076 197.02158l15.545532 0" fill-rule="evenodd"></path><path fill="#3c78d8" stroke="#3c78d8" stroke-width="3.0" stroke-linecap="butt" d="m641.65314 197.02158l-3.3737793 3.3737488l9.269348 -3.3737488l-9.269348 -3.3737488z" fill-rule="evenodd"></path><path fill="#000000" fill-opacity="0.0" d="m13.629921 135.03346l66.04724 0l0 63.558197l-66.04724 0z" fill-rule="nonzero"></path><path fill="#000000" d="m25.895546 162.62846l3.75 0q0.953125 -3.734375 2.25 -5.71875q1.296875 -2.0 3.390625 -3.09375q2.09375 -1.109375 3.921875 -1.109375q1.046875 0 1.671875 0.421875q0.625 0.421875 0.625 1.171875q0 0.609375 -0.3125 1.015625q-0.3125 0.390625 -0.859375 0.390625q-0.5625 0 -1.8125 -0.5625q-1.265625 -0.546875 -1.84375 -0.546875q-1.03125 0 -1.71875 1.078125q-0.6875 1.078125 -1.28125 3.625l-0.8125 3.328125l4.171875 0l-0.265625 1.109375l-4.15625 0l-2.46875 9.953125q-0.703125 2.8125 -2.1875 4.921875q-1.46875 2.125 -3.484375 3.234375q-2.015625 1.125 -4.21875 1.125q-1.078125 0 -1.625 -0.484375q-0.546875 -0.484375 -0.546875 -1.203125q0 -0.65625 0.375 -1.015625q0.375 -0.359375 1.0 -0.359375q0.40625 0 0.8125 0.125q0.40625 0.140625 0.828125 0.28125q0.421875 0.15625 0.890625 0.28125q0.46875 0.140625 1.0 0.140625q0.890625 0 1.421875 -0.40625q0.53125 -0.390625 0.9375 -1.28125q0.40625 -0.890625 0.828125 -2.5625l3.171875 -12.75l-3.75 0l0.296875 -1.109375zm23.796875 -9.578125q0 0.25 -0.53125 0.484375q-1.109375 0.53125 -3.34375 2.9375q-2.234375 2.40625 -3.59375 5.234375q-1.359375 2.8125 -2.0625 5.859375q-0.703125 3.046875 -0.703125 5.625q0 3.265625 0.609375 5.65625q0.609375 2.390625 1.125 3.328125q0.125 0.203125 0.125 0.390625q0 0.3125 -0.25 0.3125q-0.484375 0 -1.53125 -1.65625q-1.046875 -1.65625 -1.8125 -4.171875q-0.765625 -2.5 -0.765625 -5.046875q0 -3.75 1.375 -7.203125q3.171875 -7.625 9.0625 -11.171875q1.5625 -0.921875 1.984375 -0.921875q0.3125 0 0.3125 0.34375zm3.71875 5.1875l-1.15625 4.390625l2.90625 0l-0.21875 1.109375l-2.90625 0l-1.40625 5.21875q-0.578125 2.1875 -0.578125 3.296875q0 0.796875 0.578125 0.796875q0.421875 0 1.4375 -0.625q1.03125 -0.625 2.265625 -1.671875l0.609375 0.703125q-1.921875 1.59375 -3.0 2.296875q-1.078125 0.6875 -2.09375 1.0625q-1.015625 0.390625 -1.90625 0.390625q-1.34375 0 -1.34375 -1.828125q0 -0.78125 0.15625 -1.53125q0.15625 -0.75 2.046875 -8.109375l-2.53125 0l0.296875 -1.109375l2.484375 0l0.90625 -3.421875l3.453125 -0.96875zm-1.953125 24.328125q0 -0.28125 0.5625 -0.515625q1.09375 -0.53125 3.296875 -2.90625q2.21875 -2.359375 3.546875 -5.0625q1.328125 -2.703125 2.078125 -5.84375q0.75 -3.140625 0.75 -5.84375q0 -3.5 -0.765625 -6.234375q-0.6875 -2.25 -0.9375 -2.75q-0.15625 -0.265625 -0.15625 -0.390625q0 -0.3125 0.265625 -0.3125q0.453125 0 1.46875 1.59375q1.015625 1.578125 1.8125 4.203125q0.8125 2.609375 0.8125 5.078125q0 2.5 -0.59375 4.796875q-0.59375 2.296875 -1.984375 4.9375q-1.375 2.640625 -3.171875 4.6875q-1.78125 2.0625 -3.890625 3.46875q-2.09375 1.40625 -2.78125 1.40625q-0.3125 0 -0.3125 -0.3125z" fill-rule="nonzero"></path><path fill="#000000" fill-opacity="0.0" d="m643.9764 213.95901l66.04724 0l0 63.55905l-66.04724 0z" fill-rule="nonzero"></path><path fill="#434343" d="m658.8514 231.01964l0 2.078125l-1.78125 0l0 3.984375q0 1.203125 0.046875 1.40625q0.0625 0.1875 0.234375 0.328125q0.1875 0.125 0.453125 0.125q0.359375 0 1.046875 -0.25l0.21875 2.015625q-0.90625 0.390625 -2.0625 0.390625q-0.703125 0 -1.265625 -0.234375q-0.5625 -0.234375 -0.828125 -0.609375q-0.265625 -0.375 -0.375 -1.015625q-0.078125 -0.453125 -0.078125 -1.84375l0 -4.296875l-1.203125 0l0 -2.078125l1.203125 0l0 -1.953125l2.609375 -1.515625l0 3.46875l1.78125 0zm6.880371 13.6875l0 -17.421875l4.609375 0l0 2.046875l-2.140625 0l0 13.328125l2.140625 0l0 2.046875l-4.609375 0zm5.3063965 -6.640625l2.609375 -0.390625q0.171875 0.75 0.671875 1.15625q0.515625 0.390625 1.4375 0.390625q1.0 0 1.515625 -0.375q0.34375 -0.265625 0.34375 -0.703125q0 -0.296875 -0.1875 -0.484375q-0.1875 -0.1875 -0.875 -0.34375q-3.140625 -0.703125 -4.0 -1.265625q-1.15625 -0.796875 -1.15625 -2.21875q0 -1.28125 1.0 -2.15625q1.015625 -0.875 3.140625 -0.875q2.03125 0 3.0 0.65625q0.984375 0.65625 1.359375 1.953125l-2.453125 0.453125q-0.15625 -0.578125 -0.609375 -0.875q-0.4375 -0.3125 -1.25 -0.3125q-1.03125 0 -1.46875 0.296875q-0.296875 0.203125 -0.296875 0.515625q0 0.28125 0.25 0.484375q0.359375 0.25 2.4375 0.734375q2.078125 0.46875 2.90625 1.15625q0.828125 0.6875 0.828125 1.9375q0 1.359375 -1.140625 2.328125q-1.125 0.96875 -3.34375 0.96875q-2.015625 0 -3.1875 -0.8125q-1.171875 -0.8125 -1.53125 -2.21875zm14.891357 -10.78125l0 17.421875l-4.609375 0l0 -2.046875l2.140625 0l0 -13.34375l-2.140625 0l0 -2.03125l4.609375 0z" fill-rule="nonzero"></path><path fill="#000000" fill-opacity="0.0" d="m-1.3753281 23.01944l102.89764 0l0 63.37008l-102.89764 0z" fill-rule="nonzero"></path><path fill="#666666" d="m12.390297 34.957565q0.671875 0 1.234375 0.140625q0.5625 0.140625 0.859375 0.265625l-0.453125 1.90625q-0.328125 -0.140625 -0.703125 -0.21875q-0.375 -0.078125 -0.6875 -0.078125q-0.4375 0 -0.734375 0.125q-0.296875 0.125 -0.46875 0.328125q-0.171875 0.203125 -0.25 0.5q-0.0625 0.28125 -0.0625 0.625l0 0.40625l2.953125 0l0 1.984375l-2.953125 0l0 6.4375l-2.375 0l0 -8.859375q0 -1.640625 0.90625 -2.59375q0.921875 -0.96875 2.734375 -0.96875zm7.2639008 -0.109375l4.34375 0l0 1.90625l-2.0625 0l0 11.6875l2.0625 0l0 1.890625l-4.34375 0l0 -15.484375zm7.9985046 7.15625q0.359375 -0.390625 0.734375 -0.796875q0.375 -0.421875 0.71875 -0.828125q0.359375 -0.40625 0.671875 -0.765625q0.3125 -0.375 0.53125 -0.65625l2.828125 0q-0.84375 0.984375 -1.65625 1.875q-0.796875 0.890625 -1.765625 1.828125q0.484375 0.4375 1.0 1.03125q0.515625 0.59375 0.984375 1.234375q0.484375 0.640625 0.875 1.28125q0.40625 0.640625 0.6875 1.171875l-2.734375 0q-0.265625 -0.421875 -0.59375 -0.921875q-0.328125 -0.5 -0.703125 -1.0q-0.359375 -0.515625 -0.765625 -0.96875q-0.40625 -0.46875 -0.8125 -0.796875l0 3.6875l-2.375 0l0 -12.03125l2.375 -0.390625l0 7.046875zm6.482773 1.171875q0 -0.921875 0.296875 -1.71875q0.296875 -0.8125 0.859375 -1.40625q0.5625 -0.609375 1.359375 -0.953125q0.796875 -0.359375 1.828125 -0.359375q0.671875 0 1.21875 0.125q0.5625 0.109375 1.09375 0.34375l-0.5 1.90625q-0.328125 -0.140625 -0.734375 -0.234375q-0.390625 -0.09375 -0.890625 -0.09375q-1.0625 0 -1.578125 0.65625q-0.515625 0.65625 -0.515625 1.734375q0 1.125 0.484375 1.75q0.484375 0.625 1.703125 0.625q0.4375 0 0.921875 -0.078125q0.5 -0.078125 0.921875 -0.25l0.328125 1.953125q-0.40625 0.171875 -1.03125 0.296875q-0.625 0.125 -1.375 0.125q-1.15625 0 -2.0 -0.34375q-0.828125 -0.34375 -1.359375 -0.921875q-0.53125 -0.59375 -0.78125 -1.40625q-0.25 -0.8125 -0.25 -1.75zm11.625015 2.546875q0.34375 0 0.65625 -0.015625q0.328125 -0.03125 0.515625 -0.0625l0 -1.796875q-0.140625 -0.03125 -0.4375 -0.0625q-0.28125 -0.03125 -0.515625 -0.03125q-0.34375 0 -0.640625 0.046875q-0.296875 0.03125 -0.515625 0.140625q-0.21875 0.109375 -0.359375 0.3125q-0.125 0.1875 -0.125 0.46875q0 0.5625 0.375 0.78125q0.390625 0.21875 1.046875 0.21875zm-0.203125 -6.984375q1.0625 0 1.765625 0.25q0.703125 0.234375 1.125 0.6875q0.421875 0.4375 0.59375 1.078125q0.1875 0.640625 0.1875 1.421875l0 4.96875q-0.515625 0.109375 -1.4375 0.25q-0.90625 0.15625 -2.203125 0.15625q-0.8125 0 -1.484375 -0.140625q-0.65625 -0.140625 -1.140625 -0.46875q-0.46875 -0.328125 -0.734375 -0.859375q-0.25 -0.53125 -0.25 -1.296875q0 -0.734375 0.296875 -1.25q0.296875 -0.515625 0.78125 -0.8125q0.5 -0.296875 1.140625 -0.4375q0.640625 -0.140625 1.328125 -0.140625q0.46875 0 0.828125 0.046875q0.359375 0.03125 0.578125 0.09375l0 -0.21875q0 -0.609375 -0.375 -0.96875q-0.359375 -0.375 -1.265625 -0.375q-0.609375 0 -1.203125 0.09375q-0.59375 0.078125 -1.03125 0.25l-0.296875 -1.921875q0.203125 -0.0625 0.515625 -0.140625q0.3125 -0.078125 0.671875 -0.125q0.375 -0.0625 0.78125 -0.09375q0.421875 -0.046875 0.828125 -0.046875zm9.191772 8.796875q-1.046875 -0.015625 -1.703125 -0.21875q-0.640625 -0.203125 -1.015625 -0.578125q-0.375 -0.390625 -0.515625 -0.921875q-0.125 -0.53125 -0.125 -1.203125l0 -9.265625l2.375 -0.390625l0 9.171875q0 0.328125 0.046875 0.578125q0.046875 0.25 0.1875 0.4375q0.140625 0.171875 0.390625 0.28125q0.265625 0.109375 0.6875 0.140625l-0.328125 1.96875zm2.618515 2.796875l-2.453125 0l5.375 -15.484375l2.421875 0l-5.34375 15.484375zm6.0701447 -2.953125l0 -12.03125l2.375 -0.390625l0 4.03125q0.25 -0.078125 0.625 -0.140625q0.375 -0.078125 0.71875 -0.078125q1.03125 0 1.703125 0.28125q0.6875 0.28125 1.09375 0.796875q0.40625 0.5 0.578125 1.21875q0.171875 0.703125 0.171875 1.5625l0 4.75l-2.390625 0l0 -4.46875q0 -1.140625 -0.296875 -1.625q-0.296875 -0.484375 -1.09375 -0.484375q-0.328125 0 -0.609375 0.0625q-0.265625 0.046875 -0.5 0.109375l0 6.40625l-2.375 0zm12.7990265 2.953125l-4.34375 0l0 -1.890625l2.0625 0l0 -11.6875l-2.0625 0l0 -1.90625l4.34375 0l0 15.484375z" fill-rule="nonzero"></path></g></svg>

