<?xml version="1.0" standalone="yes"?>

<svg version="1.1" viewBox="0.0 0.0 695.0341207349081 289.15485564304464" fill="none" stroke="none" stroke-linecap="square" stroke-miterlimit="10" xmlns="http://www.w3.org/2000/svg" xmlns:xlink="http://www.w3.org/1999/xlink"><clipPath id="p.0"><path d="m0 0l695.0341 0l0 289.15485l-695.0341 0l0 -289.15485z" clip-rule="nonzero"></path></clipPath><g clip-path="url(#p.0)"><path fill="#000000" fill-opacity="0.0" d="m0 0l695.0341 0l0 289.15485l-695.0341 0z" fill-rule="nonzero"></path><path fill="#b7b7b7" d="m133.83202 231.13124l98.55119 0l0 23.181091l-98.55119 0z" fill-rule="nonzero"></path><path fill="#000000" fill-opacity="0.0" d="m133.83202 30.430447l0 224.0" fill-rule="nonzero"></path><path stroke="#000000" stroke-width="1.0" stroke-linejoin="round" stroke-linecap="butt" stroke-dasharray="4.0,3.0" d="m133.83202 30.430447l0 224.0" fill-rule="nonzero"></path><path fill="#000000" fill-opacity="0.0" d="m232.38321 30.818487l0 224.0" fill-rule="nonzero"></path><path stroke="#000000" stroke-width="1.0" stroke-linejoin="round" stroke-linecap="butt" stroke-dasharray="4.0,3.0" d="m232.38321 30.818487l0 224.0" fill-rule="nonzero"></path><path fill="#000000" fill-opacity="0.0" d="m155.13965 215.40738l74.5197 0l0 63.55905l-74.5197 0z" fill-rule="nonzero"></path><path fill="#000000" d="m170.37402 239.63487q0.96875 -1.0 1.953125 -1.5q0.984375 -0.515625 1.796875 -0.515625q0.921875 0 1.40625 0.703125q0.5 0.703125 0.5 1.953125q0 1.796875 -0.90625 3.546875q-0.90625 1.75 -2.421875 2.84375q-1.515625 1.09375 -3.09375 1.09375q-1.171875 0 -1.921875 -0.609375q-0.734375 -0.609375 -0.734375 -1.625q0 -0.953125 0.3125 -2.25l1.359375 -5.953125q0.671875 -3.0 2.453125 -4.5625q0.828125 -0.859375 1.84375 -1.3125q1.015625 -0.46875 1.984375 -0.46875q0.828125 0 1.3125 0.28125q0.5 0.265625 0.5 0.796875q0 0.453125 -0.34375 0.765625q-0.328125 0.3125 -0.828125 0.3125q-0.3125 0 -0.609375 -0.109375q-0.28125 -0.125 -0.578125 -0.25q-0.28125 -0.140625 -0.5625 -0.25q-0.265625 -0.125 -0.53125 -0.125q-0.4375 0 -0.734375 0.25q-0.296875 0.234375 -0.53125 0.75q-0.234375 0.5 -0.65625 2.109375l-0.96875 4.125zm2.046875 -0.703125q-0.6875 0 -1.46875 0.984375q-0.765625 0.984375 -1.25 2.5q-0.46875 1.5 -0.46875 3.078125q0 0.609375 0.34375 1.0625q0.34375 0.4375 0.859375 0.4375q0.703125 0 1.390625 -0.859375q0.6875 -0.859375 1.140625 -2.3125q0.46875 -1.46875 0.46875 -2.96875q0 -0.875 -0.28125 -1.390625q-0.265625 -0.53125 -0.734375 -0.53125zm14.6796875 -7.765625q0 0.1875 -0.40625 0.359375q-0.828125 0.40625 -2.5 2.21875q-1.671875 1.796875 -2.703125 3.921875q-1.015625 2.109375 -1.546875 4.390625q-0.515625 2.28125 -0.515625 4.21875q0 2.453125 0.453125 4.234375q0.453125 1.796875 0.84375 2.5q0.09375 0.15625 0.09375 0.296875q0 0.234375 -0.1875 0.234375q-0.359375 0 -1.15625 -1.25q-0.78125 -1.234375 -1.359375 -3.125q-0.5625 -1.875 -0.5625 -3.78125q0 -2.8125 1.03125 -5.40625q2.375 -5.71875 6.796875 -8.375q1.171875 -0.6875 1.484375 -0.6875q0.234375 0 0.234375 0.25zm-3.2304688 16.640625q-0.546875 0 -0.953125 -0.3125q-0.40625 -0.3125 -0.40625 -0.734375q0 -0.375 0.25 -0.65625q0.265625 -0.28125 0.625 -0.28125q0.359375 0 0.734375 0.453125q0.328125 0.375 0.640625 0.375q0.40625 0 1.125 -0.71875q0.71875 -0.71875 1.40625 -1.71875l0.859375 -1.28125l-0.546875 -2.609375q-0.140625 -0.6875 -0.328125 -1.03125q-0.1875 -0.359375 -0.484375 -0.359375q-0.234375 0 -0.71875 0.3125q-0.484375 0.296875 -0.96875 0.71875l-0.328125 -0.484375q2.515625 -1.875 3.578125 -1.875q0.578125 0 0.90625 0.4375q0.203125 0.28125 0.328125 0.859375q0.140625 0.578125 0.375 1.5625q2.390625 -3.40625 4.171875 -3.40625q0.484375 0 0.78125 0.234375q0.296875 0.234375 0.296875 0.609375q0 0.3125 -0.171875 0.5q-0.171875 0.1875 -0.46875 0.296875q-0.296875 0.09375 -0.96875 0.109375l-0.5 0.03125q-0.71875 0.03125 -1.25 0.4375q-0.53125 0.390625 -1.734375 2.03125l0.828125 3.9375q0.578125 2.90625 1.3125 4.1875q0.734375 1.28125 1.640625 1.28125q0.75 0 1.078125 -1.0q0.25 -0.6875 0.84375 -0.6875q0.28125 0 0.484375 0.203125q0.21875 0.21875 0.21875 0.546875q0 0.625 -0.75 1.140625q-0.75 0.515625 -1.8125 0.515625q-1.328125 0 -2.484375 -0.8125q-1.140625 -0.796875 -1.828125 -2.390625q-0.671875 -1.59375 -1.28125 -4.359375l-0.453125 0.640625q-0.828125 1.21875 -1.515625 1.953125q-0.671875 0.734375 -1.25 1.03125q-0.578125 0.3125 -1.28125 0.3125zm7.0664062 5.5q0 -0.203125 0.421875 -0.390625q0.828125 -0.390625 2.484375 -2.171875q1.65625 -1.765625 2.65625 -3.796875q1.0 -2.03125 1.5625 -4.390625q0.5625 -2.359375 0.5625 -4.375q0 -2.625 -0.578125 -4.6875q-0.515625 -1.6875 -0.703125 -2.0625q-0.125 -0.1875 -0.125 -0.28125q0 -0.234375 0.203125 -0.234375q0.34375 0 1.09375 1.1875q0.765625 1.1875 1.375 3.15625q0.609375 1.953125 0.609375 3.8125q0 1.875 -0.453125 3.59375q-0.4375 1.71875 -1.484375 3.703125q-1.03125 1.984375 -2.375 3.515625q-1.34375 1.546875 -2.921875 2.59375q-1.578125 1.0625 -2.09375 1.0625q-0.234375 0 -0.234375 -0.234375z" fill-rule="nonzero"></path><path fill="#000000" fill-opacity="0.0" d="m105.87139 241.64043l74.51969 0l0 63.559036l-74.51969 0z" fill-rule="nonzero"></path><path fill="#000000" d="m126.63702 263.46167l-0.890625 2.96875q-0.5 1.65625 -0.90625 3.5q-0.390625 1.84375 -0.390625 2.265625q0 0.359375 0.296875 0.359375q0.21875 0 0.828125 -0.375q0.625 -0.375 1.25 -0.96875l0.3125 0.40625q-1.59375 1.46875 -2.46875 1.921875q-0.859375 0.4375 -1.84375 0.4375q-0.421875 0 -0.6875 -0.171875q-0.25 -0.171875 -0.25 -0.46875q0 -0.21875 0.140625 -0.734375l0.359375 -1.234375q-1.015625 1.15625 -2.171875 1.90625q-1.15625 0.75 -1.984375 0.75q-0.71875 0 -1.15625 -0.5625q-0.4375 -0.578125 -0.4375 -1.640625q0 -1.203125 0.671875 -2.640625q0.671875 -1.4375 1.78125 -2.625q1.125 -1.203125 2.40625 -1.875q0.65625 -0.34375 1.3125 -0.5q0.671875 -0.171875 1.84375 -0.171875l0.828125 0.078125l0.296875 -0.46875l0.859375 -0.15625zm-2.953125 1.953125q-0.53125 -0.140625 -0.984375 -0.140625q-1.03125 0 -1.75 0.671875q-0.703125 0.65625 -1.265625 2.09375q-0.5625 1.4375 -0.5625 2.9375q0 1.484375 0.84375 1.484375q0.4375 0 1.0 -0.4375q0.578125 -0.4375 1.0625 -1.21875q0.484375 -0.78125 0.71875 -1.734375l0.9375 -3.65625zm13.937492 -8.015625q0 0.1875 -0.40625 0.359375q-0.828125 0.40625 -2.5 2.21875q-1.671875 1.796875 -2.703125 3.921875q-1.015625 2.109375 -1.546875 4.390625q-0.515625 2.28125 -0.515625 4.21875q0 2.453125 0.453125 4.234375q0.453125 1.796875 0.84375 2.5q0.09375 0.15625 0.09375 0.296875q0 0.234375 -0.1875 0.234375q-0.359375 0 -1.15625 -1.25q-0.78125 -1.234375 -1.359375 -3.125q-0.5625 -1.875 -0.5625 -3.78125q0 -2.8125 1.03125 -5.40625q2.375 -5.71875 6.796875 -8.375q1.171875 -0.6875 1.484375 -0.6875q0.234375 0 0.234375 0.25zm-3.2304688 16.640625q-0.546875 0 -0.953125 -0.3125q-0.40625 -0.3125 -0.40625 -0.734375q0 -0.375 0.25 -0.65625q0.265625 -0.28125 0.625 -0.28125q0.359375 0 0.734375 0.453125q0.328125 0.375 0.640625 0.375q0.40625 0 1.125 -0.71875q0.71875 -0.71875 1.40625 -1.71875l0.859375 -1.28125l-0.546875 -2.609375q-0.140625 -0.6875 -0.328125 -1.03125q-0.1875 -0.359375 -0.484375 -0.359375q-0.234375 0 -0.71875 0.3125q-0.484375 0.296875 -0.96875 0.71875l-0.328125 -0.484375q2.515625 -1.875 3.578125 -1.875q0.578125 0 0.90625 0.4375q0.203125 0.28125 0.328125 0.859375q0.140625 0.578125 0.375 1.5625q2.390625 -3.40625 4.171875 -3.40625q0.484375 0 0.78125 0.234375q0.296875 0.234375 0.296875 0.609375q0 0.3125 -0.171875 0.5q-0.171875 0.1875 -0.46875 0.296875q-0.296875 0.09375 -0.96875 0.109375l-0.5 0.03125q-0.71875 0.03125 -1.25 0.4375q-0.53125 0.390625 -1.734375 2.03125l0.828125 3.9375q0.578125 2.90625 1.3125 4.1875q0.734375 1.28125 1.640625 1.28125q0.75 0 1.078125 -1.0q0.25 -0.6875 0.84375 -0.6875q0.28125 0 0.484375 0.203125q0.21875 0.21875 0.21875 0.546875q0 0.625 -0.75 1.140625q-0.75 0.515625 -1.8125 0.515625q-1.328125 0 -2.484375 -0.8125q-1.140625 -0.796875 -1.828125 -2.390625q-0.671875 -1.59375 -1.28125 -4.359375l-0.453125 0.640625q-0.828125 1.21875 -1.515625 1.953125q-0.671875 0.734375 -1.25 1.03125q-0.578125 0.3125 -1.28125 0.3125zm7.0664062 5.5q0 -0.203125 0.421875 -0.390625q0.828125 -0.390625 2.484375 -2.171875q1.65625 -1.765625 2.65625 -3.796875q1.0 -2.03125 1.5625 -4.390625q0.5625 -2.359375 0.5625 -4.375q0 -2.625 -0.578125 -4.6875q-0.515625 -1.6875 -0.703125 -2.0625q-0.125 -0.1875 -0.125 -0.28125q0 -0.234375 0.203125 -0.234375q0.34375 0 1.09375 1.1875q0.765625 1.1875 1.375 3.15625q0.609375 1.953125 0.609375 3.8125q0 1.875 -0.453125 3.59375q-0.4375 1.71875 -1.484375 3.703125q-1.03125 1.984375 -2.375 3.515625q-1.34375 1.546875 -2.921875 2.59375q-1.578125 1.0625 -2.09375 1.0625q-0.234375 0 -0.234375 -0.234375z" fill-rule="nonzero"></path></g></svg>

