<?xml version="1.0" standalone="yes"?>

<svg version="1.1" viewBox="0.0 0.0 1277.278215223097 502.50656167979" fill="none" stroke="none" stroke-linecap="square" stroke-miterlimit="10" xmlns="http://www.w3.org/2000/svg" xmlns:xlink="http://www.w3.org/1999/xlink"><clipPath id="p.0"><path d="m0 0l1277.2782 0l0 502.50656l-1277.2782 0l0 -502.50656z" clip-rule="nonzero"></path></clipPath><g clip-path="url(#p.0)"><path fill="#000000" fill-opacity="0.0" d="m0 0l1277.2782 0l0 502.50656l-1277.2782 0z" fill-rule="nonzero"></path><path fill="#93c47d" d="m80.4462 345.8924l29.480309 0l0 131.02362l-29.480309 0z" fill-rule="nonzero"></path><path fill="#93c47d" d="m112.16798 334.29922l29.480324 0l0 142.61417l-29.480324 0z" fill-rule="nonzero"></path><path fill="#93c47d" d="m143.88977 311.23358l45.85826 0l0 165.66931l-45.85826 0z" fill-rule="nonzero"></path><path fill="#93c47d" d="m191.9895 319.9822l35.81102 0l0 156.7244l-35.81102 0z" fill-rule="nonzero"></path><path fill="#93c47d" d="m230.04199 314.59842l42.70868 0l0 162.11023l-42.70868 0z" fill-rule="nonzero"></path><path fill="#93c47d" d="m275.10498 166.42783l22.48819 0l0 310.2992l-22.48819 0z" fill-rule="nonzero"></path><path fill="#93c47d" d="m299.9475 180.12073l17.039368 0l0 296.62994l-17.039368 0z" fill-rule="nonzero"></path><path fill="#93c47d" d="m319.31235 174.1294l18.803131 0l0 302.58267l-18.803131 0z" fill-rule="nonzero"></path><path fill="#93c47d" d="m340.44095 314.60184l42.70865 0l0 162.11023l-42.70865 0z" fill-rule="nonzero"></path><path fill="#93c47d" d="m385.24777 311.042l29.480316 0l0 165.66928l-29.480316 0z" fill-rule="nonzero"></path><path fill="#93c47d" d="m416.54254 392.96326l29.480286 0l0 83.74802l-29.480286 0z" fill-rule="nonzero"></path><path fill="#93c47d" d="m447.8365 383.98135l31.811035 0l0 92.88187l-31.811035 0z" fill-rule="nonzero"></path><path fill="#93c47d" d="m481.85382 370.43832l18.803162 0l0 106.4252l-18.803162 0z" fill-rule="nonzero"></path><path fill="#93c47d" d="m502.86536 388.5328l42.70868 0l0 88.31497l-42.70868 0z" fill-rule="nonzero"></path><path fill="#93c47d" d="m547.7814 362.43307l29.480286 0l0 114.4252l-29.480286 0z" fill-rule="nonzero"></path><path fill="#93c47d" d="m579.6252 362.43307l29.480347 0l0 114.4252l-29.480347 0z" fill-rule="nonzero"></path><path fill="#93c47d" d="m611.5021 313.0761l29.480347 0l0 163.81104l-29.480347 0z" fill-rule="nonzero"></path><path fill="#93c47d" d="m643.5381 305.3727l34.64563 0l0 171.33856l-34.64563 0z" fill-rule="nonzero"></path><path fill="#93c47d" d="m680.7402 300.5223l34.64563 0l0 176.18896l-34.64563 0z" fill-rule="nonzero"></path><path fill="#93c47d" d="m717.94226 373.84778l42.70868 0l0 102.86612l-42.70868 0z" fill-rule="nonzero"></path><path fill="#93c47d" d="m763.20734 383.83203l29.480347 0l0 92.88187l-29.480347 0z" fill-rule="nonzero"></path><path fill="#93c47d" d="m795.2441 392.96588l29.480347 0l0 83.74802l-29.480347 0z" fill-rule="nonzero"></path><path fill="#93c47d" d="m827.2808 383.96588l42.70868 0l0 92.8819l-42.70868 0z" fill-rule="nonzero"></path><path fill="#93c47d" d="m872.54596 305.39896l29.480286 0l0 171.33856l-29.480286 0z" fill-rule="nonzero"></path><path fill="#93c47d" d="m904.5827 319.99738l25.228333 0l0 156.7244l-25.228333 0z" fill-rule="nonzero"></path><path fill="#93c47d" d="m932.36743 349.07086l25.228394 0l0 127.653534l-25.228394 0z" fill-rule="nonzero"></path><path fill="#93c47d" d="m960.1522 296.98688l29.480347 0l0 179.74802l-29.480347 0z" fill-rule="nonzero"></path><path fill="#93c47d" d="m991.85834 305.39633l18.803162 0l0 171.33856l-18.803162 0z" fill-rule="nonzero"></path><path fill="#93c47d" d="m1013.35455 303.3727l18.803162 0l0 173.35431l-18.803162 0z" fill-rule="nonzero"></path><path fill="#93c47d" d="m1034.974 308.9344l22.48816 0l0 167.77951l-22.48816 0z" fill-rule="nonzero"></path><path fill="#93c47d" d="m1060.209 314.60367l18.803223 0l0 162.11023l-18.803223 0z" fill-rule="nonzero"></path><path fill="#93c47d" d="m1082.1277 311.23358l25.228394 0l0 165.66931l-25.228394 0z" fill-rule="nonzero"></path><path fill="#93c47d" d="m1110.1627 377.90216l29.480225 0l0 99.1181l-29.480225 0z" fill-rule="nonzero"></path><path fill="#93c47d" d="m1142.4115 385.25198l37.35437 0l0 91.46454l-37.35437 0z" fill-rule="nonzero"></path><path fill="#93c47d" d="m1182.8815 390.1942l37.354248 0l0 86.519684l-37.354248 0z" fill-rule="nonzero"></path><path fill="#000000" fill-opacity="0.0" d="m78.20473 38.21522l0 438.4567" fill-rule="nonzero"></path><path stroke="#000000" stroke-width="1.0" stroke-linejoin="round" stroke-linecap="butt" d="m78.20473 38.21522l0 438.4567" fill-rule="nonzero"></path><path fill="#000000" fill-opacity="0.0" d="m78.20536 476.86353l1149.6378 0" fill-rule="nonzero"></path><path stroke="#000000" stroke-width="1.0" stroke-linejoin="round" stroke-linecap="butt" d="m78.20536 476.86353l1149.6378 0" fill-rule="nonzero"></path><path fill="#000000" fill-opacity="0.0" d="m78.20536 337.1391l119.81103 0" fill-rule="nonzero"></path><path stroke="#3c78d8" stroke-width="4.0" stroke-linejoin="round" stroke-linecap="butt" d="m78.20536 337.1391l119.81103 0" fill-rule="nonzero"></path><path fill="#000000" fill-opacity="0.0" d="m197.0505 337.1391l0 -38.551178" fill-rule="nonzero"></path><path stroke="#3c78d8" stroke-width="4.0" stroke-linejoin="round" stroke-linecap="butt" d="m197.0505 337.1391l0 -38.551178" fill-rule="nonzero"></path><path fill="#000000" fill-opacity="0.0" d="m195.40483 298.59317l35.81102 0" fill-rule="nonzero"></path><path stroke="#3c78d8" stroke-width="4.0" stroke-linejoin="round" stroke-linecap="butt" d="m195.40483 298.59317l35.81102 0" fill-rule="nonzero"></path><path fill="#000000" fill-opacity="0.0" d="m229.17123 296.98688l0 -12.850403" fill-rule="nonzero"></path><path stroke="#3c78d8" stroke-width="4.0" stroke-linejoin="round" stroke-linecap="butt" d="m229.17123 296.98688l0 -12.850403" fill-rule="nonzero"></path><path fill="#000000" fill-opacity="0.0" d="m227.77165 284.1391l31.81102 0" fill-rule="nonzero"></path><path stroke="#3c78d8" stroke-width="4.0" stroke-linejoin="round" stroke-linecap="butt" d="m227.77165 284.1391l31.81102 0" fill-rule="nonzero"></path><path fill="#000000" fill-opacity="0.0" d="m258.082 284.1391l0 -81.92125" fill-rule="nonzero"></path><path stroke="#3c78d8" stroke-width="4.0" stroke-linejoin="round" stroke-linecap="butt" d="m258.082 284.1391l0 -81.92125" fill-rule="nonzero"></path><path fill="#000000" fill-opacity="0.0" d="m256.5387 202.23097l48.251953 0" fill-rule="nonzero"></path><path stroke="#3c78d8" stroke-width="4.0" stroke-linejoin="round" stroke-linecap="butt" d="m256.5387 202.23097l48.251953 0" fill-rule="nonzero"></path><path fill="#000000" fill-opacity="0.0" d="m303.0505 202.23097l0 -40.157486" fill-rule="nonzero"></path><path stroke="#3c78d8" stroke-width="4.0" stroke-linejoin="round" stroke-linecap="butt" d="m303.0505 202.23097l0 -40.157486" fill-rule="nonzero"></path><path fill="#000000" fill-opacity="0.0" d="m301.23883 162.08136l35.968506 0" fill-rule="nonzero"></path><path stroke="#3c78d8" stroke-width="4.0" stroke-linejoin="round" stroke-linecap="butt" d="m301.23883 162.08136l35.968506 0" fill-rule="nonzero"></path><path fill="#000000" fill-opacity="0.0" d="m335.17123 162.08136l0 123.653534" fill-rule="nonzero"></path><path stroke="#3c78d8" stroke-width="4.0" stroke-linejoin="round" stroke-linecap="butt" d="m335.17123 162.08136l0 123.653534" fill-rule="nonzero"></path><path fill="#000000" fill-opacity="0.0" d="m333.83002 285.7454l66.80316 0" fill-rule="nonzero"></path><path stroke="#3c78d8" stroke-width="4.0" stroke-linejoin="round" stroke-linecap="butt" d="m333.83002 285.7454l66.80316 0" fill-rule="nonzero"></path><path fill="#000000" fill-opacity="0.0" d="m399.41272 284.1391l0 94.77167" fill-rule="nonzero"></path><path stroke="#3c78d8" stroke-width="4.0" stroke-linejoin="round" stroke-linecap="butt" d="m399.41272 284.1391l0 94.77167" fill-rule="nonzero"></path><path fill="#000000" fill-opacity="0.0" d="m397.5833 378.89502l64.188965 0" fill-rule="nonzero"></path><path stroke="#3c78d8" stroke-width="4.0" stroke-linejoin="round" stroke-linecap="butt" d="m397.5833 378.89502l64.188965 0" fill-rule="nonzero"></path><path fill="#000000" fill-opacity="0.0" d="m460.4416 378.89502l0 -38.551178" fill-rule="nonzero"></path><path stroke="#3c78d8" stroke-width="4.0" stroke-linejoin="round" stroke-linecap="butt" d="m460.4416 378.89502l0 -38.551178" fill-rule="nonzero"></path><path fill="#000000" fill-opacity="0.0" d="m458.86417 340.3517l137.25986 0" fill-rule="nonzero"></path><path stroke="#3c78d8" stroke-width="4.0" stroke-linejoin="round" stroke-linecap="butt" d="m458.86417 340.3517l137.25986 0" fill-rule="nonzero"></path><path fill="#000000" fill-opacity="0.0" d="m595.34973 341.95538l0 -51.40158" fill-rule="nonzero"></path><path stroke="#3c78d8" stroke-width="4.0" stroke-linejoin="round" stroke-linecap="butt" d="m595.34973 341.95538l0 -51.40158" fill-rule="nonzero"></path><path fill="#000000" fill-opacity="0.0" d="m593.9429 290.5643l117.03937 0" fill-rule="nonzero"></path><path stroke="#3c78d8" stroke-width="4.0" stroke-linejoin="round" stroke-linecap="butt" d="m593.9429 290.5643l117.03937 0" fill-rule="nonzero"></path><path fill="#000000" fill-opacity="0.0" d="m708.7985 289.75854l0 99.1181" fill-rule="nonzero"></path><path stroke="#3c78d8" stroke-width="4.0" stroke-linejoin="round" stroke-linecap="butt" d="m708.7985 289.75854l0 99.1181" fill-rule="nonzero"></path><path fill="#000000" fill-opacity="0.0" d="m707.47833 388.5328l103.08661 0" fill-rule="nonzero"></path><path stroke="#3c78d8" stroke-width="4.0" stroke-linejoin="round" stroke-linecap="butt" d="m707.47833 388.5328l103.08661 0" fill-rule="nonzero"></path><path fill="#000000" fill-opacity="0.0" d="m810.55707 388.8819l0 -40.503937" fill-rule="nonzero"></path><path stroke="#3c78d8" stroke-width="4.0" stroke-linejoin="round" stroke-linecap="butt" d="m810.55707 388.8819l0 -40.503937" fill-rule="nonzero"></path><path fill="#000000" fill-opacity="0.0" d="m808.7854 348.38058l74.236206 0" fill-rule="nonzero"></path><path stroke="#3c78d8" stroke-width="4.0" stroke-linejoin="round" stroke-linecap="butt" d="m808.7854 348.38058l74.236206 0" fill-rule="nonzero"></path><path fill="#000000" fill-opacity="0.0" d="m881.22375 348.38058l0 -11.24411" fill-rule="nonzero"></path><path stroke="#3c78d8" stroke-width="4.0" stroke-linejoin="round" stroke-linecap="butt" d="m881.22375 348.38058l0 -11.24411" fill-rule="nonzero"></path><path fill="#000000" fill-opacity="0.0" d="m879.5282 337.1391l86.456665 0" fill-rule="nonzero"></path><path stroke="#3c78d8" stroke-width="4.0" stroke-linejoin="round" stroke-linecap="butt" d="m879.5282 337.1391l86.456665 0" fill-rule="nonzero"></path><path fill="#000000" fill-opacity="0.0" d="m964.73816 337.1391l0 -44.97638" fill-rule="nonzero"></path><path stroke="#3c78d8" stroke-width="4.0" stroke-linejoin="round" stroke-linecap="butt" d="m964.73816 337.1391l0 -44.97638" fill-rule="nonzero"></path><path fill="#000000" fill-opacity="0.0" d="m963.8038 292.1706l70.299255 0" fill-rule="nonzero"></path><path stroke="#3c78d8" stroke-width="4.0" stroke-linejoin="round" stroke-linecap="butt" d="m963.8038 292.1706l70.299255 0" fill-rule="nonzero"></path><path fill="#000000" fill-opacity="0.0" d="m1032.1896 292.1706l0 43.370087" fill-rule="nonzero"></path><path stroke="#3c78d8" stroke-width="4.0" stroke-linejoin="round" stroke-linecap="butt" d="m1032.1896 292.1706l0 43.370087" fill-rule="nonzero"></path><path fill="#000000" fill-opacity="0.0" d="m1030.6174 335.5328l77.44885 0" fill-rule="nonzero"></path><path stroke="#3c78d8" stroke-width="4.0" stroke-linejoin="round" stroke-linecap="butt" d="m1030.6174 335.5328l77.44885 0" fill-rule="nonzero"></path><path fill="#000000" fill-opacity="0.0" d="m1106.0688 334.29922l0 15.716522" fill-rule="nonzero"></path><path stroke="#3c78d8" stroke-width="4.0" stroke-linejoin="round" stroke-linecap="butt" d="m1106.0688 334.29922l0 15.716522" fill-rule="nonzero"></path><path fill="#000000" fill-opacity="0.0" d="m1104.124 349.98163l45.858276 0" fill-rule="nonzero"></path><path stroke="#3c78d8" stroke-width="4.0" stroke-linejoin="round" stroke-linecap="butt" d="m1104.124 349.98163l45.858276 0" fill-rule="nonzero"></path><path fill="#000000" fill-opacity="0.0" d="m1147.8248 348.38058l0 64.25195" fill-rule="nonzero"></path><path stroke="#3c78d8" stroke-width="4.0" stroke-linejoin="round" stroke-linecap="butt" d="m1147.8248 348.38058l0 64.25195" fill-rule="nonzero"></path><path fill="#000000" fill-opacity="0.0" d="m1146.0426 412.62204l71.62207 0" fill-rule="nonzero"></path><path stroke="#3c78d8" stroke-width="4.0" stroke-linejoin="round" stroke-linecap="butt" d="m1146.0426 412.62204l71.62207 0" fill-rule="nonzero"></path><path fill="#000000" fill-opacity="0.0" d="m62.20536 345.8924l1165.6378 0" fill-rule="nonzero"></path><path stroke="#999999" stroke-width="1.0" stroke-linejoin="round" stroke-linecap="butt" d="m62.20536 345.8924l1165.6378 0" fill-rule="nonzero"></path><path fill="#000000" fill-opacity="0.0" d="m62.20536 211.18636l1163.5906 0" fill-rule="nonzero"></path><path stroke="#999999" stroke-width="1.0" stroke-linejoin="round" stroke-linecap="butt" d="m62.20536 211.18636l1163.5906 0" fill-rule="nonzero"></path><path fill="#000000" fill-opacity="0.0" d="m62.20536 82.89501l1162.2362 0" fill-rule="nonzero"></path><path stroke="#999999" stroke-width="1.0" stroke-linejoin="round" stroke-linecap="butt" d="m62.20536 82.89501l1162.2362 0" fill-rule="nonzero"></path><path fill="#000000" fill-opacity="0.0" d="m20.99498 315.2993l59.244095 0l0 45.51181l-59.244095 0z" fill-rule="nonzero"></path><path fill="#000000" d="m38.692398 342.48492q-0.421875 0 -0.9375 -0.0625q-0.515625 -0.0625 -1.0 -0.1875q-0.46875 -0.109375 -0.828125 -0.234375q-0.34375 -0.140625 -0.453125 -0.25l0.4375 -1.703125q1.375 0.796875 2.75 0.796875q0.671875 0 1.234375 -0.234375q0.578125 -0.234375 1.0 -0.640625q0.4375 -0.40625 0.671875 -0.953125q0.25 -0.5625 0.25 -1.203125q0 -1.203125 -0.9375 -1.765625q-0.9375 -0.578125 -3.0625 -0.578125l-1.625 0l0.796875 -6.546875l6.046875 0l-0.171875 1.625l-4.421875 0l-0.390625 3.3125q1.546875 0 2.640625 0.234375q1.09375 0.234375 1.765625 0.71875q0.6875 0.46875 1.015625 1.203125q0.328125 0.734375 0.328125 1.71875q0 1.0625 -0.421875 1.9375q-0.421875 0.875 -1.125 1.5q-0.6875 0.625 -1.625 0.96875q-0.921875 0.34375 -1.9375 0.34375zm12.577408 0q-1.234375 0 -2.25 -0.46875q-1.0 -0.484375 -1.71875 -1.359375q-0.703125 -0.875 -1.109375 -2.109375q-0.390625 -1.234375 -0.390625 -2.75q0 -1.578125 0.4375 -2.890625q0.4375 -1.328125 1.203125 -2.265625q0.765625 -0.9375 1.8125 -1.453125q1.046875 -0.53125 2.234375 -0.53125q1.1875 0 2.1875 0.5q1.015625 0.5 1.734375 1.40625q0.734375 0.890625 1.140625 2.140625q0.421875 1.25 0.421875 2.734375q0 1.59375 -0.421875 2.90625q-0.40625 1.296875 -1.15625 2.21875q-0.75 0.921875 -1.8125 1.421875q-1.046875 0.5 -2.3125 0.5zm0.1875 -12.203125q-0.78125 0 -1.46875 0.375q-0.671875 0.375 -1.1875 1.078125q-0.5 0.703125 -0.796875 1.734375q-0.296875 1.015625 -0.296875 2.328125q0 2.515625 0.96875 3.78125q0.96875 1.265625 2.625 1.265625q1.734375 0 2.75 -1.34375q1.03125 -1.359375 1.03125 -4.0625q0 -1.21875 -0.28125 -2.171875q-0.265625 -0.96875 -0.75 -1.625q-0.484375 -0.65625 -1.15625 -1.0q-0.65625 -0.359375 -1.4375 -0.359375zm13.133072 12.203125q-1.234375 0 -2.25 -0.46875q-1.0 -0.484375 -1.71875 -1.359375q-0.703125 -0.875 -1.109375 -2.109375q-0.390625 -1.234375 -0.390625 -2.75q0 -1.578125 0.4375 -2.890625q0.4375 -1.328125 1.203125 -2.265625q0.765625 -0.9375 1.8125 -1.453125q1.046875 -0.53125 2.234375 -0.53125q1.1875 0 2.1875 0.5q1.015625 0.5 1.734375 1.40625q0.734375 0.890625 1.140625 2.140625q0.421875 1.25 0.421875 2.734375q0 1.59375 -0.421875 2.90625q-0.40625 1.296875 -1.15625 2.21875q-0.75 0.921875 -1.8125 1.421875q-1.046875 0.5 -2.3125 0.5zm0.1875 -12.203125q-0.78125 0 -1.46875 0.375q-0.671875 0.375 -1.1875 1.078125q-0.5 0.703125 -0.796875 1.734375q-0.296875 1.015625 -0.296875 2.328125q0 2.515625 0.96875 3.78125q0.96875 1.265625 2.625 1.265625q1.734375 0 2.75 -1.34375q1.03125 -1.359375 1.03125 -4.0625q0 -1.21875 -0.28125 -2.171875q-0.265625 -0.96875 -0.75 -1.625q-0.484375 -0.65625 -1.15625 -1.0q-0.65625 -0.359375 -1.4375 -0.359375z" fill-rule="nonzero"></path><path fill="#000000" fill-opacity="0.0" d="m13.435695 51.299213l66.803154 0l0 45.511806l-66.803154 0z" fill-rule="nonzero"></path><path fill="#000000" d="m32.709824 78.21921l-1.9062519 0l0 -10.703125q-1.015625 0.859375 -1.96875 1.171875l-0.3125 -1.703125q0.40625 -0.125 0.8125 -0.34375q0.40625 -0.21875 0.78125 -0.484375q0.375 -0.28125 0.6875 -0.59375q0.3125 -0.328125 0.515625 -0.640625l1.3906269 0l0 13.296875zm5.9823456 0.265625q-0.421875 0 -0.9375 -0.0625q-0.515625 -0.0625 -1.0 -0.1875q-0.46875 -0.109375 -0.828125 -0.234375q-0.34375 -0.140625 -0.453125 -0.25l0.4375 -1.703125q1.375 0.796875 2.75 0.796875q0.671875 0 1.234375 -0.234375q0.578125 -0.234375 1.0 -0.640625q0.4375 -0.40625 0.671875 -0.953125q0.25 -0.5625 0.25 -1.203125q0 -1.203125 -0.9375 -1.765625q-0.9375 -0.578125 -3.0625 -0.578125l-1.625 0l0.796875 -6.546875l6.046875 0l-0.171875 1.625l-4.421875 0l-0.390625 3.3125q1.546875 0 2.640625 0.234375q1.09375 0.234375 1.765625 0.71875q0.6875 0.46875 1.015625 1.203125q0.328125 0.734375 0.328125 1.71875q0 1.0625 -0.421875 1.9375q-0.421875 0.875 -1.125 1.5q-0.6875 0.625 -1.625 0.96875q-0.921875 0.34375 -1.9375 0.34375zm12.577408 0q-1.234375 0 -2.25 -0.46875q-1.0 -0.484375 -1.71875 -1.359375q-0.703125 -0.875 -1.109375 -2.109375q-0.390625 -1.234375 -0.390625 -2.75q0 -1.578125 0.4375 -2.890625q0.4375 -1.328125 1.203125 -2.265625q0.765625 -0.9375 1.8125 -1.453125q1.046875 -0.53125 2.234375 -0.53125q1.1875 0 2.1875 0.5q1.015625 0.5 1.734375 1.40625q0.734375 0.890625 1.140625 2.140625q0.421875 1.25 0.421875 2.734375q0 1.59375 -0.421875 2.90625q-0.40625 1.296875 -1.15625 2.21875q-0.75 0.921875 -1.8125 1.421875q-1.046875 0.5 -2.3125 0.5zm0.1875 -12.203125q-0.78125 0 -1.46875 0.375q-0.671875 0.375 -1.1875 1.078125q-0.5 0.703125 -0.796875 1.734375q-0.296875 1.015625 -0.296875 2.328125q0 2.515625 0.96875 3.78125q0.96875 1.265625 2.625 1.265625q1.734375 0 2.75 -1.34375q1.03125 -1.359375 1.03125 -4.0625q0 -1.21875 -0.28125 -2.171875q-0.265625 -0.96875 -0.75 -1.625q-0.484375 -0.65625 -1.15625 -1.0q-0.65625 -0.359375 -1.4375 -0.359375zm13.133072 12.203125q-1.234375 0 -2.25 -0.46875q-1.0 -0.484375 -1.71875 -1.359375q-0.703125 -0.875 -1.109375 -2.109375q-0.390625 -1.234375 -0.390625 -2.75q0 -1.578125 0.4375 -2.890625q0.4375 -1.328125 1.203125 -2.265625q0.765625 -0.9375 1.8125 -1.453125q1.046875 -0.53125 2.234375 -0.53125q1.1875 0 2.1875 0.5q1.015625 0.5 1.734375 1.40625q0.734375 0.890625 1.140625 2.140625q0.421875 1.25 0.421875 2.734375q0 1.59375 -0.421875 2.90625q-0.40625 1.296875 -1.15625 2.21875q-0.75 0.921875 -1.8125 1.421875q-1.046875 0.5 -2.3125 0.5zm0.1875 -12.203125q-0.78125 0 -1.46875 0.375q-0.671875 0.375 -1.1875 1.078125q-0.5 0.703125 -0.796875 1.734375q-0.296875 1.015625 -0.296875 2.328125q0 2.515625 0.96875 3.78125q0.96875 1.265625 2.625 1.265625q1.734375 0 2.75 -1.34375q1.03125 -1.359375 1.03125 -4.0625q0 -1.21875 -0.28125 -2.171875q-0.265625 -0.96875 -0.75 -1.625q-0.484375 -0.65625 -1.15625 -1.0q-0.65625 -0.359375 -1.4375 -0.359375z" fill-rule="nonzero"></path><path fill="#000000" fill-opacity="0.0" d="m13.435697 181.3307l66.80315 0l0 45.51181l-66.80315 0z" fill-rule="nonzero"></path><path fill="#000000" d="m29.482285 208.2507l-1.90625 0l0 -10.703125q-1.015625 0.859375 -1.96875 1.171875l-0.3125 -1.703125q0.40625 -0.125 0.8125 -0.34375q0.40625 -0.21875 0.78125 -0.484375q0.375 -0.28125 0.6875 -0.59375q0.3125 -0.328125 0.515625 -0.640625l1.390625 0l0 13.296875zm8.466721 0.265625q-1.234375 0 -2.25 -0.46875q-1.0 -0.484375 -1.71875 -1.359375q-0.703125 -0.875 -1.109375 -2.109375q-0.390625 -1.234375 -0.390625 -2.75q0 -1.578125 0.4375 -2.890625q0.4375 -1.328125 1.203125 -2.265625q0.765625 -0.9375 1.8125 -1.453125q1.046875 -0.53125 2.234375 -0.53125q1.1875 0 2.1875 0.5q1.015625 0.5 1.734375 1.40625q0.734375 0.890625 1.140625 2.140625q0.421875 1.25 0.421875 2.734375q0 1.59375 -0.421875 2.90625q-0.40625 1.296875 -1.15625 2.21875q-0.75 0.921875 -1.8125 1.421875q-1.046875 0.5 -2.3125 0.5zm0.1875 -12.203125q-0.78125 0 -1.46875 0.375q-0.671875 0.375 -1.1875 1.078125q-0.5 0.703125 -0.796875 1.734375q-0.296875 1.015625 -0.296875 2.328125q0 2.515625 0.96875 3.78125q0.96875 1.265625 2.625 1.265625q1.734375 0 2.75 -1.34375q1.03125 -1.359375 1.03125 -4.0625q0 -1.21875 -0.28125 -2.171875q-0.265625 -0.96875 -0.75 -1.625q-0.484375 -0.65625 -1.15625 -1.0q-0.65625 -0.359375 -1.4375 -0.359375zm13.133072 12.203125q-1.234375 0 -2.25 -0.46875q-1.0 -0.484375 -1.71875 -1.359375q-0.703125 -0.875 -1.109375 -2.109375q-0.390625 -1.234375 -0.390625 -2.75q0 -1.578125 0.4375 -2.890625q0.4375 -1.328125 1.203125 -2.265625q0.765625 -0.9375 1.8125 -1.453125q1.046875 -0.53125 2.234375 -0.53125q1.1875 0 2.1875 0.5q1.015625 0.5 1.734375 1.40625q0.734375 0.890625 1.140625 2.140625q0.421875 1.25 0.421875 2.734375q0 1.59375 -0.421875 2.90625q-0.40625 1.296875 -1.15625 2.21875q-0.75 0.921875 -1.8125 1.421875q-1.046875 0.5 -2.3125 0.5zm0.1875 -12.203125q-0.78125 0 -1.46875 0.375q-0.671875 0.375 -1.1875 1.078125q-0.5 0.703125 -0.796875 1.734375q-0.296875 1.015625 -0.296875 2.328125q0 2.515625 0.96875 3.78125q0.96875 1.265625 2.625 1.265625q1.734375 0 2.75 -1.34375q1.03125 -1.359375 1.03125 -4.0625q0 -1.21875 -0.28125 -2.171875q-0.265625 -0.96875 -0.75 -1.625q-0.484375 -0.65625 -1.15625 -1.0q-0.65625 -0.359375 -1.4375 -0.359375zm13.133072 12.203125q-1.234375 0 -2.25 -0.46875q-1.0 -0.484375 -1.71875 -1.359375q-0.703125 -0.875 -1.109375 -2.109375q-0.390625 -1.234375 -0.390625 -2.75q0 -1.578125 0.4375 -2.890625q0.4375 -1.328125 1.203125 -2.265625q0.765625 -0.9375 1.8125 -1.453125q1.046875 -0.53125 2.234375 -0.53125q1.1875 0 2.1875 0.5q1.015625 0.5 1.734375 1.40625q0.734375 0.890625 1.140625 2.140625q0.421875 1.25 0.421875 2.734375q0 1.59375 -0.421875 2.90625q-0.40625 1.296875 -1.15625 2.21875q-0.75 0.921875 -1.8125 1.421875q-1.046875 0.5 -2.3125 0.5zm0.1875 -12.203125q-0.78125 0 -1.46875 0.375q-0.671875 0.375 -1.1875 1.078125q-0.5 0.703125 -0.796875 1.734375q-0.296875 1.015625 -0.296875 2.328125q0 2.515625 0.96875 3.78125q0.96875 1.265625 2.625 1.265625q1.734375 0 2.75 -1.34375q1.03125 -1.359375 1.03125 -4.0625q0 -1.21875 -0.28125 -2.171875q-0.265625 -0.96875 -0.75 -1.625q-0.484375 -0.65625 -1.15625 -1.0q-0.65625 -0.359375 -1.4375 -0.359375z" fill-rule="nonzero"></path></g></svg>

