<?xml version="1.0" standalone="yes"?>

<svg version="1.1" viewBox="0.0 0.0 1277.278215223097 502.50656167979" fill="none" stroke="none" stroke-linecap="square" stroke-miterlimit="10" xmlns="http://www.w3.org/2000/svg" xmlns:xlink="http://www.w3.org/1999/xlink"><clipPath id="p.0"><path d="m0 0l1277.2782 0l0 502.50656l-1277.2782 0l0 -502.50656z" clip-rule="nonzero"></path></clipPath><g clip-path="url(#p.0)"><path fill="#000000" fill-opacity="0.0" d="m0 0l1277.2782 0l0 502.50656l-1277.2782 0z" fill-rule="nonzero"></path><path fill="#f6b26b" d="m80.4462 251.4672l29.480309 0l0 225.44882l-29.480309 0z" fill-rule="nonzero"></path><path fill="#f6b26b" d="m112.16798 251.46457l29.480324 0l0 225.44882l-29.480324 0z" fill-rule="nonzero"></path><path fill="#f6b26b" d="m143.88977 251.45407l45.85826 0l0 225.44882l-45.85826 0z" fill-rule="nonzero"></path><path fill="#f6b26b" d="m191.9895 251.25697l35.81102 0l0 225.4488l-35.81102 0z" fill-rule="nonzero"></path><path fill="#f6b26b" d="m230.04199 253.02625l42.70868 0l0 223.68503l-42.70868 0z" fill-rule="nonzero"></path><path fill="#f6b26b" d="m275.10498 82.89501l22.48819 0l0 393.82675l-22.48819 0z" fill-rule="nonzero"></path><path fill="#f6b26b" d="m299.9475 82.92388l17.039368 0l0 393.82678l-17.039368 0z" fill-rule="nonzero"></path><path fill="#f6b26b" d="m319.31235 82.884285l18.803131 0l0 393.82678l-18.803131 0z" fill-rule="nonzero"></path><path fill="#f6b26b" d="m340.44095 251.26216l42.70865 0l0 225.44884l-42.70865 0z" fill-rule="nonzero"></path><path fill="#f6b26b" d="m385.2467 251.2546l29.480316 0l0 225.4488l-29.480316 0z" fill-rule="nonzero"></path><path fill="#f6b26b" d="m416.5433 345.8924l29.480316 0l0 130.83463l-29.480316 0z" fill-rule="nonzero"></path><path fill="#f6b26b" d="m447.83728 346.02887l31.811005 0l0 130.83466l-31.811005 0z" fill-rule="nonzero"></path><path fill="#f6b26b" d="m481.85303 346.02887l18.803131 0l0 130.83466l-18.803131 0z" fill-rule="nonzero"></path><path fill="#f6b26b" d="m502.86615 346.00787l42.70868 0l0 130.83466l-42.70868 0z" fill-rule="nonzero"></path><path fill="#f6b26b" d="m547.78217 346.02362l29.480286 0l0 130.83466l-29.480286 0z" fill-rule="nonzero"></path><path fill="#f6b26b" d="m579.6247 346.00787l29.480286 0l0 130.83466l-29.480286 0z" fill-rule="nonzero"></path><path fill="#f6b26b" d="m611.50134 251.43832l29.480286 0l0 225.44882l-29.480286 0z" fill-rule="nonzero"></path><path fill="#f6b26b" d="m643.5381 251.26247l34.64563 0l0 225.4488l-34.64563 0z" fill-rule="nonzero"></path><path fill="#f6b26b" d="m680.7402 251.26247l34.64563 0l0 225.4488l-34.64563 0z" fill-rule="nonzero"></path><path fill="#f6b26b" d="m717.94226 345.87927l42.70868 0l0 130.83463l-42.70868 0z" fill-rule="nonzero"></path><path fill="#f6b26b" d="m763.20734 345.87927l29.480347 0l0 130.83463l-29.480347 0z" fill-rule="nonzero"></path><path fill="#f6b26b" d="m795.2441 345.87927l29.480347 0l0 130.83463l-29.480347 0z" fill-rule="nonzero"></path><path fill="#f6b26b" d="m827.2808 346.01312l42.70868 0l0 130.83466l-42.70868 0z" fill-rule="nonzero"></path><path fill="#f6b26b" d="m872.54596 251.28871l29.480286 0l0 225.4488l-29.480286 0z" fill-rule="nonzero"></path><path fill="#f6b26b" d="m904.5827 251.27296l25.228333 0l0 225.4488l-25.228333 0z" fill-rule="nonzero"></path><path fill="#f6b26b" d="m932.36743 82.57481l25.228394 0l0 394.14172l-25.228394 0z" fill-rule="nonzero"></path><path fill="#f6b26b" d="m960.1522 251.28609l29.480347 0l0 225.4488l-29.480347 0z" fill-rule="nonzero"></path><path fill="#f6b26b" d="m991.8583 251.28609l18.803162 0l0 225.4488l-18.803162 0z" fill-rule="nonzero"></path><path fill="#f6b26b" d="m1013.3543 251.27821l18.803162 0l0 225.4488l-18.803162 0z" fill-rule="nonzero"></path><path fill="#f6b26b" d="m1034.9738 251.26509l22.48816 0l0 225.4488l-22.48816 0z" fill-rule="nonzero"></path><path fill="#f6b26b" d="m1060.21 251.26509l18.803223 0l0 225.4488l-18.803223 0z" fill-rule="nonzero"></path><path fill="#f6b26b" d="m1082.1287 251.45407l25.228271 0l0 225.44882l-25.228271 0z" fill-rule="nonzero"></path><path fill="#f6b26b" d="m1110.1627 346.18658l29.480347 0l0 130.83466l-29.480347 0z" fill-rule="nonzero"></path><path fill="#f6b26b" d="m1142.4121 345.8819l37.354248 0l0 130.83463l-37.354248 0z" fill-rule="nonzero"></path><path fill="#f6b26b" d="m1182.8818 346.18634l37.35437 0l0 130.51968l-37.35437 0z" fill-rule="nonzero"></path><path fill="#000000" fill-opacity="0.0" d="m78.20473 38.21522l0 438.4567" fill-rule="nonzero"></path><path stroke="#000000" stroke-width="1.0" stroke-linejoin="round" stroke-linecap="butt" d="m78.20473 38.21522l0 438.4567" fill-rule="nonzero"></path><path fill="#000000" fill-opacity="0.0" d="m78.20536 476.86353l1149.6378 0" fill-rule="nonzero"></path><path stroke="#000000" stroke-width="1.0" stroke-linejoin="round" stroke-linecap="butt" d="m78.20536 476.86353l1149.6378 0" fill-rule="nonzero"></path><path fill="#000000" fill-opacity="0.0" d="m62.20536 345.8924l1165.6378 0" fill-rule="nonzero"></path><path stroke="#999999" stroke-width="1.0" stroke-linejoin="round" stroke-linecap="butt" d="m62.20536 345.8924l1165.6378 0" fill-rule="nonzero"></path><path fill="#000000" fill-opacity="0.0" d="m61.528194 251.25328l1163.5906 0" fill-rule="nonzero"></path><path stroke="#999999" stroke-width="1.0" stroke-linejoin="round" stroke-linecap="butt" d="m61.528194 251.25328l1163.5906 0" fill-rule="nonzero"></path><path fill="#000000" fill-opacity="0.0" d="m62.20536 82.89501l1162.2362 0" fill-rule="nonzero"></path><path stroke="#999999" stroke-width="1.0" stroke-linejoin="round" stroke-linecap="butt" d="m62.20536 82.89501l1162.2362 0" fill-rule="nonzero"></path><path fill="#000000" fill-opacity="0.0" d="m20.99498 315.2993l59.244095 0l0 45.51181l-59.244095 0z" fill-rule="nonzero"></path><path fill="#000000" d="m65.33354 342.48492q-0.421875 0 -0.9375 -0.0625q-0.515625 -0.0625 -1.0 -0.1875q-0.46875 -0.109375 -0.828125 -0.234375q-0.34375 -0.140625 -0.453125 -0.25l0.4375 -1.703125q1.375 0.796875 2.75 0.796875q0.671875 0 1.234375 -0.234375q0.578125 -0.234375 1.0 -0.640625q0.4375 -0.40625 0.671875 -0.953125q0.25 -0.5625 0.25 -1.203125q0 -1.203125 -0.9375 -1.765625q-0.9375 -0.578125 -3.0625 -0.578125l-1.625 0l0.796875 -6.546875l6.046875 0l-0.171875 1.625l-4.421875 0l-0.390625 3.3125q1.546875 0 2.640625 0.234375q1.09375 0.234375 1.765625 0.71875q0.6875 0.46875 1.015625 1.203125q0.328125 0.734375 0.328125 1.71875q0 1.0625 -0.421875 1.9375q-0.421875 0.875 -1.125 1.5q-0.6875 0.625 -1.625 0.96875q-0.921875 0.34375 -1.9375 0.34375z" fill-rule="nonzero"></path><path fill="#000000" fill-opacity="0.0" d="m13.435695 51.299213l66.803154 0l0 45.511806l-66.803154 0z" fill-rule="nonzero"></path><path fill="#000000" d="m62.82103 78.21921l-1.90625 0l0 -10.703125q-1.015625 0.859375 -1.96875 1.171875l-0.3125 -1.703125q0.40625 -0.125 0.8125 -0.34375q0.40625 -0.21875 0.78125 -0.484375q0.375 -0.28125 0.6875 -0.59375q0.3125 -0.328125 0.515625 -0.640625l1.390625 0l0 13.296875zm6.6229706 0l-1.90625 0l0 -10.703125q-1.015625 0.859375 -1.96875 1.171875l-0.3125 -1.703125q0.40625 -0.125 0.8125 -0.34375q0.40625 -0.21875 0.78125 -0.484375q0.375 -0.28125 0.6875 -0.59375q0.3125 -0.328125 0.515625 -0.640625l1.390625 0l0 13.296875z" fill-rule="nonzero"></path><path fill="#000000" fill-opacity="0.0" d="m13.435697 221.06554l66.80315 0l0 45.511826l-66.80315 0z" fill-rule="nonzero"></path><path fill="#000000" d="m71.21716 234.68866l-5.75 13.296875l-1.90625 0l5.03125 -11.671875l-5.984375 0l0 -1.625l8.609375 0z" fill-rule="nonzero"></path><path fill="#000000" fill-opacity="0.0" d="m63.22898 166.42651l1163.5906 0" fill-rule="nonzero"></path><path stroke="#999999" stroke-width="1.0" stroke-linejoin="round" stroke-linecap="butt" d="m63.22898 166.42651l1163.5906 0" fill-rule="nonzero"></path></g></svg>

